{"asset":{"version":"2.0","generator":"Unity 6000.2.9f1 glTFast 6.15.1"},"nodes":[{"name":"P_PROP_chain_dungeon_01","mesh":0,"translation":[0,20.988,0]},{"name":"P_PROP_chain_dungeon_01 (2)","mesh":0,"translation":[0,16.068,0]},{"name":"P_PROP_chain_dungeon_01 (4)","mesh":0,"translation":[0,12.118,0]},{"name":"P_PROP_chain_dungeon_01 (6)","mesh":0,"translation":[0,7.248001,0]},{"name":"P_PROP_chain_dungeon_01 (8)","mesh":0,"translation":[0,2.41799927,0]},{"name":"P_PROP_chain_dungeon_01 (1)","mesh":0,"translation":[0,18.5700016,0]},{"name":"P_PROP_chain_dungeon_01 (3)","mesh":0,"translation":[0,13.6500015,0]},{"name":"P_PROP_chain_dungeon_01 (5)","mesh":0,"translation":[0,9.700001,0]},{"name":"P_PROP_chain_dungeon_01 (7)","mesh":0,"translation":[0,4.830002,0]},{"name":"P_PROP_chain_dungeon_01 (9)","mesh":0},{"name":"ChainRail","children":[0,1,2,3,4,5,6,7,8,9],"translation":[11.5300007,0,-11.4518661]},{"name":"P_PROP_chain_dungeon_01","mesh":0,"translation":[0,20.988,0]},{"name":"P_PROP_chain_dungeon_01 (2)","mesh":0,"translation":[0,16.068,0]},{"name":"P_PROP_chain_dungeon_01 (4)","mesh":0,"translation":[0,12.118,0]},{"name":"P_PROP_chain_dungeon_01 (6)","mesh":0,"translation":[0,7.248001,0]},{"name":"P_PROP_chain_dungeon_01 (8)","mesh":0,"translation":[0,2.41799927,0]},{"name":"P_PROP_chain_dungeon_01 (1)","mesh":0,"translation":[0,18.5700016,0]},{"name":"P_PROP_chain_dungeon_01 (3)","mesh":0,"translation":[0,13.6500015,0]},{"name":"P_PROP_chain_dungeon_01 (5)","mesh":0,"translation":[0,9.700001,0]},{"name":"P_PROP_chain_dungeon_01 (7)","mesh":0,"translation":[0,4.830002,0]},{"name":"P_PROP_chain_dungeon_01 (9)","mesh":0},{"name":"ChainRail (2)","children":[11,12,13,14,15,16,17,18,19,20],"translation":[11.5300007,0,0]},{"name":"P_PROP_chain_dungeon_01","mesh":0,"translation":[0,20.988,0]},{"name":"P_PROP_chain_dungeon_01 (2)","mesh":0,"translation":[0,16.068,0]},{"name":"P_PROP_chain_dungeon_01 (4)","mesh":0,"translation":[0,12.118,0]},{"name":"P_PROP_chain_dungeon_01 (6)","mesh":0,"translation":[0,7.248001,0]},{"name":"P_PROP_chain_dungeon_01 (8)","mesh":0,"translation":[0,2.41799927,0]},{"name":"P_PROP_chain_dungeon_01 (1)","mesh":0,"translation":[0,18.5700016,0]},{"name":"P_PROP_chain_dungeon_01 (3)","mesh":0,"translation":[0,13.6500015,0]},{"name":"P_PROP_chain_dungeon_01 (5)","mesh":0,"translation":[0,9.700001,0]},{"name":"P_PROP_chain_dungeon_01 (7)","mesh":0,"translation":[0,4.830002,0]},{"name":"P_PROP_chain_dungeon_01 (9)","mesh":0},{"name":"ChainRail (1)","children":[22,23,24,25,26,27,28,29,30,31],"translation":[0,0,-11.4518661]},{"name":"P_PROP_chain_dungeon_01","mesh":0,"translation":[0,20.988,0]},{"name":"P_PROP_chain_dungeon_01 (2)","mesh":0,"translation":[0,16.068,0]},{"name":"P_PROP_chain_dungeon_01 (4)","mesh":0,"translation":[0,12.118,0]},{"name":"P_PROP_chain_dungeon_01 (6)","mesh":0,"translation":[0,7.248001,0]},{"name":"P_PROP_chain_dungeon_01 (8)","mesh":0,"translation":[0,2.41799927,0]},{"name":"P_PROP_chain_dungeon_01 (1)","mesh":0,"translation":[0,18.5700016,0]},{"name":"P_PROP_chain_dungeon_01 (3)","mesh":0,"translation":[0,13.6500015,0]},{"name":"P_PROP_chain_dungeon_01 (5)","mesh":0,"translation":[0,9.700001,0]},{"name":"P_PROP_chain_dungeon_01 (7)","mesh":0,"translation":[0,4.830002,0]},{"name":"P_PROP_chain_dungeon_01 (9)","mesh":0},{"name":"ChainRail (3)","children":[33,34,35,36,37,38,39,40,41,42]},{"name":"ChainRails","children":[10,21,32,43],"translation":[-5.77,-39.318,46.0018654]}],"buffers":[{"uri":"ChainRails.bin","byteLength":76720}],"bufferViews":[{"buffer":0,"byteLength":10080,"target":34963},{"buffer":0,"byteLength":66640,"byteOffset":10080,"byteStride":56,"target":34962}],"accessors":[{"bufferView":1,"componentType":5126,"count":1190,"type":"VEC3","max":[0.134970874,2.6532042,0.131120533],"min":[-0.131495863,-0.00541687,-0.134849787]},{"bufferView":1,"componentType":5126,"count":1190,"type":"VEC3","byteOffset":12},{"bufferView":1,"componentType":5126,"count":1190,"type":"VEC4","byteOffset":24},{"bufferView":1,"componentType":5126,"count":1190,"type":"VEC2","byteOffset":40},{"bufferView":1,"componentType":5126,"count":1190,"type":"VEC2","byteOffset":48},{"bufferView":0,"componentType":5123,"count":5040,"type":"SCALAR"}],"images":[{"name":"T_metal_dungeon_N.png","uri":"T_metal_dungeon_N.png","mimeType":"image/png"},{"name":"T_metal_dungeon_01_BC.jpg","uri":"T_metal_dungeon_01_BC.jpg","mimeType":"image/jpeg"},{"name":"T_metal_dungeon_MTSM_nometal.jpg","uri":"T_metal_dungeon_MTSM_nometal.jpg","mimeType":"image/jpeg"}],"materials":[{"name":"M_metal_dungeon_01","pbrMetallicRoughness":{"roughnessFactor":0,"baseColorTexture":{"index":1},"metallicRoughnessTexture":{"index":2}},"normalTexture":{"index":0}}],"meshes":[{"name":"SM_PROP_chain_dungeon_01","primitives":[{"attributes":{"POSITION":0,"NORMAL":1,"TANGENT":2,"TEXCOORD_0":3,"TEXCOORD_1":4},"indices":5,"material":0}]}],"scene":0,"scenes":[{"name":"ChainRails","nodes":[44]}],"textures":[{"source":0},{"source":1},{"source":2}]}