{"asset":{"version":"2.0","generator":"Unity 6000.2.9f1 glTFast 6.15.1"},"nodes":[{"name":"P_MOD_Railing_02_straight","mesh":0,"translation":[7.8300004,-4.15,0.226623535]},{"name":"P_MOD_Railing_02_straight (3)","mesh":0,"translation":[7.97600031,-4.46299934,-11.6814156]},{"name":"P_MOD_Railing_02_straight (2)","mesh":0,"translation":[-0.239999771,-4.27199936,0.226623535]},{"name":"P_MOD_Railing_02_straight (6)","mesh":0,"translation":[-0.239999771,-4.27199936,0.226623535],"rotation":[0,0.702960432,0,0.711228967]},{"name":"P_MOD_Railing_02_straight (8)","mesh":0,"translation":[-0.198999882,-4.27199936,-7.765415],"rotation":[0,0.7071068,0,0.7071068]},{"name":"P_MOD_Railing_02_straight (5)","mesh":0,"translation":[-0.239999771,-4.27199936,-11.6814156]},{"name":"P_MOD_Railing_02_straight (9)","mesh":0,"translation":[11.77,-4.16,0.226623535],"rotation":[0,0.702960432,0,0.711228967]},{"name":"P_MOD_Railing_02_straight (10)","mesh":0,"translation":[11.92,-4.13,-7.765415],"rotation":[0,0.7071068,0,0.7071068]},{"name":"P_PROP_woodbridge_dungeon_10","mesh":1,"translation":[1.45146561,-4.187151,-4.09862137]},{"name":"P_PROP_woodbridge_dungeon_10 (1)","mesh":1,"translation":[3.949997,-4.187151,-7.461418]},{"name":"P_PROP_woodbridge_dungeon_10 (2)","mesh":1,"translation":[6.489998,-4.03000069,-4.09862137]},{"name":"P_PROP_woodbridge_dungeon_10 (3)","mesh":1,"translation":[10.6299992,-4.187151,-4.09862137]},{"name":"P_PROP_woodbridge_dungeon_10 (4)","mesh":1,"translation":[8.32,-4.31999969,-7.5514183]},{"name":"P_PROP_woodbridge_dungeon_09","mesh":2,"translation":[1.53143311,-4.33,-9.554035]},{"name":"P_PROP_woodbridge_dungeon_09 (1)","mesh":2,"translation":[4.02996826,-4.299999,-2.11141968]},{"name":"P_PROP_woodbridge_dungeon_09 (2)","mesh":2,"translation":[6.56996536,-4.264021,-9.554035]},{"name":"P_PROP_woodbridge_dungeon_09 (3)","mesh":2,"translation":[10.7099667,-4.33,-9.554035]},{"name":"P_PROP_woodbridge_dungeon_09 (4)","mesh":2,"translation":[8.540001,-4.36000061,-2.04142]},{"name":"collision","translation":[-0.274,0.046,0.085],"rotation":[0,0.227339655,0,0.9738155],"scale":[1.67064178,0.099999,0.39771]},{"name":"collision (1)","translation":[0.193,0.046,-0.074],"rotation":[0,0.5366511,0,0.84380424],"scale":[1.67064178,0.099999,0.368836254]},{"name":"P_PROP_planks_dungeon_02","children":[18,19],"mesh":3,"translation":[6.33267975,-4.017,-7.01038361]},{"name":"P_PROP_planks_dungeon_04","mesh":4,"translation":[4.144024,-4.13631058,-10.282032]},{"name":"P_PROP_planks_dungeon_03","mesh":5,"translation":[8.51091,-4.269161,-9.969513],"rotation":[0,0.362390161,0,0.932026565]},{"name":"P_PROP_planks_dungeon_04 (1)","mesh":4,"translation":[10.7373753,-4.13631058,-6.94613266]},{"name":"collision","translation":[-0.005,0.017,-0.002],"rotation":[0,-0.208485067,0,0.9780256],"scale":[0.33998,0.0809375,1.8077]},{"name":"P_PROP_planks_dungeon_01","children":[24],"mesh":6,"translation":[1.31826782,-4.142149,-2.8474617]},{"name":"collision","translation":[-0.005,0.017,-0.002],"rotation":[0,-0.208485067,0,0.9780256],"scale":[0.33998,0.0809375,1.8077]},{"name":"P_PROP_planks_dungeon_01 (1)","children":[26],"mesh":6,"translation":[10.4779606,-4.142149,-2.92406082],"rotation":[0,0.4247555,0,0.9053081]},{"name":"P_PROP_planks_dungeon_03 (1)","mesh":5,"translation":[6.46588135,-3.97916031,-2.75693512]},{"name":"collision","translation":[-0.274,0.046,0.085],"rotation":[0,0.227339655,0,0.9738155],"scale":[1.67064178,0.099999,0.39771]},{"name":"collision (1)","translation":[0.193,0.046,-0.074],"rotation":[0,0.5366511,0,0.84380424],"scale":[1.67064178,0.099999,0.368836254]},{"name":"P_PROP_planks_dungeon_02 (1)","children":[29,30],"mesh":3,"translation":[1.37999725,-4.13631248,-7.091419],"rotation":[0,0.6151256,0,0.788429141]},{"name":"Elevator","children":[0,1,2,3,4,5,6,7,8,9,10,11,12,13,14,15,16,17,20,21,22,23,25,27,28,31],"translation":[-5.84999847,-20.51,46.05142]}],"buffers":[{"uri":"Elevator.bin","byteLength":112136}],"bufferViews":[{"buffer":0,"byteLength":1824,"target":34963},{"buffer":0,"byteLength":2544,"byteOffset":1824,"target":34963},{"buffer":0,"byteLength":1320,"byteOffset":4368,"target":34963},{"buffer":0,"byteLength":144,"byteOffset":5688,"target":34963},{"buffer":0,"byteLength":288,"byteOffset":5832,"target":34963},{"buffer":0,"byteLength":216,"byteOffset":6120,"target":34963},{"buffer":0,"byteLength":72,"byteOffset":6336,"target":34963},{"buffer":0,"byteLength":34048,"byteOffset":6408,"byteStride":56,"target":34962},{"buffer":0,"byteLength":4032,"byteOffset":40456,"byteStride":56,"target":34962},{"buffer":0,"byteLength":2688,"byteOffset":44488,"byteStride":56,"target":34962},{"buffer":0,"byteLength":5376,"byteOffset":47176,"byteStride":56,"target":34962},{"buffer":0,"byteLength":38528,"byteOffset":52552,"byteStride":56,"target":34962},{"buffer":0,"byteLength":19712,"byteOffset":91080,"byteStride":56,"target":34962},{"buffer":0,"byteLength":1344,"byteOffset":110792,"byteStride":56,"target":34962}],"accessors":[{"bufferView":7,"componentType":5126,"count":608,"type":"VEC3","max":[4,1.0025264,0.139890373],"min":[0,-0.5052594,-0.141568124]},{"bufferView":7,"componentType":5126,"count":608,"type":"VEC3","byteOffset":12},{"bufferView":7,"componentType":5126,"count":608,"type":"VEC4","byteOffset":24},{"bufferView":7,"componentType":5126,"count":608,"type":"VEC2","byteOffset":40},{"bufferView":7,"componentType":5126,"count":608,"type":"VEC2","byteOffset":48},{"bufferView":0,"componentType":5123,"count":912,"type":"SCALAR"},{"bufferView":11,"componentType":5126,"count":688,"type":"VEC3","max":[1.42688274,0.08313623,3.944015],"min":[-1.42459011,-0.416845083,-4.06429434]},{"bufferView":11,"componentType":5126,"count":688,"type":"VEC3","byteOffset":12},{"bufferView":11,"componentType":5126,"count":688,"type":"VEC4","byteOffset":24},{"bufferView":11,"componentType":5126,"count":688,"type":"VEC2","byteOffset":40},{"bufferView":11,"componentType":5126,"count":688,"type":"VEC2","byteOffset":48},{"bufferView":1,"componentType":5123,"count":1272,"type":"SCALAR"},{"bufferView":12,"componentType":5126,"count":352,"type":"VEC3","max":[1.33558154,0.111189783,2.02738333],"min":[-1.42057967,-0.339975685,-2.02608013]},{"bufferView":12,"componentType":5126,"count":352,"type":"VEC3","byteOffset":12},{"bufferView":12,"componentType":5126,"count":352,"type":"VEC4","byteOffset":24},{"bufferView":12,"componentType":5126,"count":352,"type":"VEC2","byteOffset":40},{"bufferView":12,"componentType":5126,"count":352,"type":"VEC2","byteOffset":48},{"bufferView":2,"componentType":5123,"count":660,"type":"SCALAR"},{"bufferView":9,"componentType":5126,"count":48,"type":"VEC3","max":[0.6608547,0.118308514,0.7254685],"min":[-1.05957246,-0.00583836436,-0.9005207]},{"bufferView":9,"componentType":5126,"count":48,"type":"VEC3","byteOffset":12},{"bufferView":9,"componentType":5126,"count":48,"type":"VEC4","byteOffset":24},{"bufferView":9,"componentType":5126,"count":48,"type":"VEC2","byteOffset":40},{"bufferView":9,"componentType":5126,"count":48,"type":"VEC2","byteOffset":48},{"bufferView":3,"componentType":5123,"count":72,"type":"SCALAR"},{"bufferView":10,"componentType":5126,"count":96,"type":"VEC3","max":[0.814840436,0.194064856,0.92294836],"min":[-0.8035821,-0.00583836436,-0.7633829]},{"bufferView":10,"componentType":5126,"count":96,"type":"VEC3","byteOffset":12},{"bufferView":10,"componentType":5126,"count":96,"type":"VEC4","byteOffset":24},{"bufferView":10,"componentType":5126,"count":96,"type":"VEC2","byteOffset":40},{"bufferView":10,"componentType":5126,"count":96,"type":"VEC2","byteOffset":48},{"bufferView":4,"componentType":5123,"count":144,"type":"SCALAR"},{"bufferView":8,"componentType":5126,"count":72,"type":"VEC3","max":[0.868855953,0.118308514,0.9083675],"min":[-0.7708883,-0.00583836436,-0.8707688]},{"bufferView":8,"componentType":5126,"count":72,"type":"VEC3","byteOffset":12},{"bufferView":8,"componentType":5126,"count":72,"type":"VEC4","byteOffset":24},{"bufferView":8,"componentType":5126,"count":72,"type":"VEC2","byteOffset":40},{"bufferView":8,"componentType":5126,"count":72,"type":"VEC2","byteOffset":48},{"bufferView":5,"componentType":5123,"count":108,"type":"SCALAR"},{"bufferView":13,"componentType":5126,"count":24,"type":"VEC3","max":[0.487593323,0.0589680746,0.851156533],"min":[-0.522205,-0.00583836436,-0.898413956]},{"bufferView":13,"componentType":5126,"count":24,"type":"VEC3","byteOffset":12},{"bufferView":13,"componentType":5126,"count":24,"type":"VEC4","byteOffset":24},{"bufferView":13,"componentType":5126,"count":24,"type":"VEC2","byteOffset":40},{"bufferView":13,"componentType":5126,"count":24,"type":"VEC2","byteOffset":48},{"bufferView":6,"componentType":5123,"count":36,"type":"SCALAR"}],"images":[{"name":"T_ENV_MOD_Interior_WoodGeneric_v2_N.png","uri":"T_ENV_MOD_Interior_WoodGeneric_v2_N.png","mimeType":"image/png"},{"name":"T_ENV_MOD_Interior_WoodGeneric_v2_BC.jpg","uri":"T_ENV_MOD_Interior_WoodGeneric_v2_BC.jpg","mimeType":"image/jpeg"},{"name":"T_ENV_MOD_Interior_WoodGeneric_v2_MTSM.jpg","uri":"T_ENV_MOD_Interior_WoodGeneric_v2_MTSM.jpg","mimeType":"image/jpeg"},{"name":"T_wood_planks_dungeon_01_N.png","uri":"T_wood_planks_dungeon_01_N.png","mimeType":"image/png"},{"name":"T_wood_planks_dungeon_01_BC.jpg","uri":"T_wood_planks_dungeon_01_BC.jpg","mimeType":"image/jpeg"},{"name":"T_wood_planks_dungeon_01_MTSM.jpg","uri":"T_wood_planks_dungeon_01_MTSM.jpg","mimeType":"image/jpeg"},{"name":"T_wood_planks_dungeon_04_N.png","uri":"T_wood_planks_dungeon_04_N.png","mimeType":"image/png"},{"name":"T_wood_planks_dungeon_04_BC.jpg","uri":"T_wood_planks_dungeon_04_BC.jpg","mimeType":"image/jpeg"},{"name":"T_wood_planks_dungeon_04_MTSM.jpg","uri":"T_wood_planks_dungeon_04_MTSM.jpg","mimeType":"image/jpeg"}],"materials":[{"name":"M_ENV_MOD_Interior_WoodGeneric_v2","pbrMetallicRoughness":{"baseColorTexture":{"index":1},"metallicRoughnessTexture":{"index":2}},"normalTexture":{"index":0}},{"name":"M_wood_planks_dungeon_01","pbrMetallicRoughness":{"roughnessFactor":0,"baseColorTexture":{"index":4},"metallicRoughnessTexture":{"index":5}},"normalTexture":{"index":3}},{"name":"M_wood_planks_dungeon_04","pbrMetallicRoughness":{"roughnessFactor":0,"baseColorTexture":{"index":7},"metallicRoughnessTexture":{"index":8}},"normalTexture":{"index":6}}],"meshes":[{"name":"MOD_Railing_02_straight","primitives":[{"attributes":{"POSITION":0,"NORMAL":1,"TANGENT":2,"TEXCOORD_0":3,"TEXCOORD_1":4},"indices":5,"material":0}]},{"name":"SM_PROP_woodbridge_dungeon_10","primitives":[{"attributes":{"POSITION":6,"NORMAL":7,"TANGENT":8,"TEXCOORD_0":9,"TEXCOORD_1":10},"indices":11,"material":1}]},{"name":"SM_PROP_woodbridge_dungeon_09","primitives":[{"attributes":{"POSITION":12,"NORMAL":13,"TANGENT":14,"TEXCOORD_0":15,"TEXCOORD_1":16},"indices":17,"material":1}]},{"name":"SM_PROP_planks_dungeon_02","primitives":[{"attributes":{"POSITION":18,"NORMAL":19,"TANGENT":20,"TEXCOORD_0":21,"TEXCOORD_1":22},"indices":23,"material":2}]},{"name":"SM_PROP_planks_dungeon_04","primitives":[{"attributes":{"POSITION":24,"NORMAL":25,"TANGENT":26,"TEXCOORD_0":27,"TEXCOORD_1":28},"indices":29,"material":2}]},{"name":"SM_PROP_planks_dungeon_03","primitives":[{"attributes":{"POSITION":30,"NORMAL":31,"TANGENT":32,"TEXCOORD_0":33,"TEXCOORD_1":34},"indices":35,"material":2}]},{"name":"SM_PROP_planks_dungeon_01","primitives":[{"attributes":{"POSITION":36,"NORMAL":37,"TANGENT":38,"TEXCOORD_0":39,"TEXCOORD_1":40},"indices":41,"material":2}]}],"scene":0,"scenes":[{"name":"Elevator","nodes":[32]}],"textures":[{"source":0},{"source":1},{"source":2},{"source":3},{"source":4},{"source":5},{"source":6},{"source":7},{"source":8}]}