{"asset":{"version":"2.0","generator":"Unity 6000.2.9f1 glTFast 6.15.1"},"nodes":[{"name":"P_PROP_debris_stones_dungeon_04","mesh":0,"translation":[-7.4469986,0.0440139771,7.896]},{"name":"P_PROP_debris_stones_dungeon_04 (3)","mesh":0,"translation":[-7.4469986,0.0440139771,6.54989243]},{"name":"P_PROP_debris_stones_dungeon_04 (1)","mesh":0,"translation":[-9.176117,0.0440139771,8.216106]},{"name":"P_PROP_debris_stones_dungeon_04 (4)","mesh":0,"translation":[-13.8099976,0.0440139771,6.290001]},{"name":"P_PROP_debris_stones_dungeon_01","mesh":1,"translation":[-8.614998,0.0189991,7.13100052]},{"name":"P_PROP_debris_stones_dungeon_01 (1)","mesh":1,"translation":[-8.614998,0.0189991,5.784893]},{"name":"P_PROP_debris_stones_dungeon_03","mesh":2,"translation":[-10.586174,0.04398918,7.51226044]},{"name":"P_PROP_debris_stones_dungeon_03 (2)","mesh":2,"translation":[-9.509998,0.04398918,6.369999]},{"name":"P_PROP_debris_stones_dungeon_04 (2)","mesh":0,"translation":[-12.1029968,0.0440139771,7.93700027],"rotation":[0,0.787698448,0,0.6160611]},{"name":"P_PROP_debris_stones_dungeon_04 (16)","mesh":0,"translation":[-14.4,0.0440139771,9.03],"rotation":[0,0.9942485,0,0.107097678]},{"name":"P_PROP_debris_stones_dungeon_04 (5)","mesh":0,"translation":[-12.1029968,0.0440139771,6.590893],"rotation":[0,0.787698448,0,0.6160611]},{"name":"P_PROP_debris_stones_dungeon_03 (1)","mesh":2,"translation":[-13.8909988,0.04398918,7.734001],"rotation":[0,0.6035796,0,0.797302842]},{"name":"P_PROP_debris_stones_dungeon_03 (11)","mesh":2,"translation":[-15.4829407,0.04398918,7.84353256],"rotation":[0,0.918900549,0,0.3944893]},{"name":"P_PROP_debris_stones_dungeon_03 (10)","mesh":2,"translation":[-15.89978,0.04398918,6.508171],"rotation":[0,0.425327539,0,0.905039549]},{"name":"P_PROP_debris_stones_dungeon_03 (3)","mesh":2,"translation":[-10.9209976,0.04398918,6.15399933],"rotation":[0,0.6035796,0,0.797302842]},{"name":"P_PROP_debris_stones_dungeon_02","mesh":3,"translation":[-18.6942787,0.1079998,6.55357361],"rotation":[0,-0.543492734,0,0.8394139]},{"name":"P_PROP_debris_stones_dungeon_04 (6)","mesh":0,"translation":[-20.05534,0.0440139771,7.527218],"rotation":[0,-0.684976935,0,0.7285648]},{"name":"P_PROP_debris_stones_dungeon_04 (15)","mesh":0,"translation":[-17.8274689,0.0440139771,6.11983871],"rotation":[0,-0.483097345,0,0.875566661]},{"name":"P_PROP_debris_stones_dungeon_02 (1)","mesh":3,"translation":[-14.7549973,0.04399109,5.994999]},{"name":"P_PROP_debris_stones_dungeon_02 (5)","mesh":3,"translation":[-16.47,0.04399109,6.03],"rotation":[0,-0.308475524,0,0.9512323]},{"name":"P_PROP_debris_stones_dungeon_03 (4)","mesh":2,"translation":[-12.5105476,0.04398918,10.84996]},{"name":"P_PROP_debris_stones_dungeon_04 (7)","mesh":0,"translation":[-11.0725822,0.0440139771,11.642643]},{"name":"P_PROP_debris_stones_dungeon_03 (5)","mesh":2,"translation":[-13.4120712,0.04398918,9.985264],"rotation":[0,-0.4137249,0,0.91040194]},{"name":"P_PROP_debris_stones_dungeon_04 (8)","mesh":0,"translation":[-3.47000122,-0.0360012054,12.75],"rotation":[0,0.364720553,0,0.931117058]},{"name":"P_PROP_debris_stones_dungeon_01 (2)","mesh":1,"translation":[-2.13595581,0.04398918,12.398819]},{"name":"P_PROP_debris_stones_dungeon_02 (2)","mesh":3,"translation":[-0.9904556,0.04398918,12.0616684]},{"name":"P_PROP_debris_stones_dungeon_04 (9)","mesh":0,"translation":[-1.0617981,-0.266000748,10.83107],"rotation":[0,-0.389150441,0,0.9211742]},{"name":"P_PROP_debris_stones_dungeon_03 (6)","mesh":2,"translation":[-0.9373398,0.04398918,9.167843]},{"name":"P_PROP_debris_stones_dungeon_04 (10)","mesh":0,"translation":[-0.830001831,0.0440139771,7.43999863],"rotation":[0,0.9945439,0,0.104319245]},{"name":"P_PROP_debris_stones_dungeon_03 (7)","mesh":2,"translation":[-0.5630188,0.0439872742,6.11546326]},{"name":"P_PROP_debris_stones_dungeon_02 (3)","mesh":3,"translation":[-0.5076752,0.04399109,4.914955]},{"name":"P_PROP_debris_stones_dungeon_04 (11)","mesh":0,"translation":[-1.19516754,-0.145999908,3.852192]},{"name":"P_PROP_debris_stones_dungeon_04 (14)","mesh":0,"translation":[0.5541687,-0.145999908,5.712738],"rotation":[0,-0.6977121,0,0.7163783]},{"name":"P_PROP_debris_stones_dungeon_03 (8)","mesh":2,"translation":[-1.27133179,0.0439872742,2.25746155],"rotation":[0,0.9816599,0,0.190640688]},{"name":"P_PROP_debris_stones_dungeon_04 (12)","mesh":0,"translation":[-1.08000183,-0.38599968,0.809997559]},{"name":"P_PROP_debris_stones_dungeon_04 (13)","mesh":0,"translation":[-0.23,-0.38599968,0.01]},{"name":"P_PROP_debris_stones_dungeon_02 (4)","mesh":3,"translation":[-0.6731949,-0.1760006,-0.5079918]},{"name":"P_PROP_debris_stones_dungeon_03 (9)","mesh":2,"translation":[-1.11000061,0.09399986,-1.61999893]},{"name":"ExteriorLakeRocks","children":[0,1,2,3,4,5,6,7,8,9,10,11,12,13,14,15,16,17,18,19,20,21,22,23,24,25,26,27,28,29,30,31,32,33,34,35,36,37],"translation":[67.6,-25.244,37.61]}],"buffers":[{"uri":"ExteriorLakeRocks.bin","byteLength":27960}],"bufferViews":[{"buffer":0,"byteLength":600,"target":34963},{"buffer":0,"byteLength":396,"byteOffset":600,"target":34963},{"buffer":0,"byteLength":1320,"byteOffset":996,"target":34963},{"buffer":0,"byteLength":780,"byteOffset":2316,"target":34963},{"buffer":0,"byteLength":6328,"byteOffset":3096,"byteStride":56,"target":34962},{"buffer":0,"byteLength":3360,"byteOffset":9424,"byteStride":56,"target":34962},{"buffer":0,"byteLength":10416,"byteOffset":12784,"byteStride":56,"target":34962},{"buffer":0,"byteLength":4760,"byteOffset":23200,"byteStride":56,"target":34962}],"accessors":[{"bufferView":7,"componentType":5126,"count":85,"type":"VEC3","max":[1.0324713,1.09490418,0.9913644],"min":[-0.928417563,-2.44379044E-05,-1.084312]},{"bufferView":7,"componentType":5126,"count":85,"type":"VEC3","byteOffset":12},{"bufferView":7,"componentType":5126,"count":85,"type":"VEC4","byteOffset":24},{"bufferView":7,"componentType":5126,"count":85,"type":"VEC2","byteOffset":40},{"bufferView":7,"componentType":5126,"count":85,"type":"VEC2","byteOffset":48},{"bufferView":0,"componentType":5123,"count":300,"type":"SCALAR"},{"bufferView":5,"componentType":5126,"count":60,"type":"VEC3","max":[0.460168481,0.283997685,0.5607947],"min":[-0.409186244,-2.98023224E-07,-0.409750164]},{"bufferView":5,"componentType":5126,"count":60,"type":"VEC3","byteOffset":12},{"bufferView":5,"componentType":5126,"count":60,"type":"VEC4","byteOffset":24},{"bufferView":5,"componentType":5126,"count":60,"type":"VEC2","byteOffset":40},{"bufferView":5,"componentType":5126,"count":60,"type":"VEC2","byteOffset":48},{"bufferView":1,"componentType":5123,"count":198,"type":"SCALAR"},{"bufferView":6,"componentType":5126,"count":186,"type":"VEC3","max":[0.920301557,0.6406601,0.9287438],"min":[-0.9395815,-5.96046448E-08,-0.963125646]},{"bufferView":6,"componentType":5126,"count":186,"type":"VEC3","byteOffset":12},{"bufferView":6,"componentType":5126,"count":186,"type":"VEC4","byteOffset":24},{"bufferView":6,"componentType":5126,"count":186,"type":"VEC2","byteOffset":40},{"bufferView":6,"componentType":5126,"count":186,"type":"VEC2","byteOffset":48},{"bufferView":2,"componentType":5123,"count":660,"type":"SCALAR"},{"bufferView":4,"componentType":5126,"count":113,"type":"VEC3","max":[0.5842836,0.526897252,0.8711083],"min":[-0.6973891,-1.07288361E-06,-0.7855705]},{"bufferView":4,"componentType":5126,"count":113,"type":"VEC3","byteOffset":12},{"bufferView":4,"componentType":5126,"count":113,"type":"VEC4","byteOffset":24},{"bufferView":4,"componentType":5126,"count":113,"type":"VEC2","byteOffset":40},{"bufferView":4,"componentType":5126,"count":113,"type":"VEC2","byteOffset":48},{"bufferView":3,"componentType":5123,"count":390,"type":"SCALAR"}],"images":[{"name":"T_PROP_orevein_dungeon_N.png","uri":"T_PROP_orevein_dungeon_N.png","mimeType":"image/png"},{"name":"T_PROP_orevein_dungeon_BC.jpg","uri":"T_PROP_orevein_dungeon_BC.jpg","mimeType":"image/jpeg"},{"name":"T_PROP_orevein_dungeon_MTSM.jpg","uri":"T_PROP_orevein_dungeon_MTSM.jpg","mimeType":"image/jpeg"}],"materials":[{"name":"M_PROP_orevein_dungeon","pbrMetallicRoughness":{"roughnessFactor":0,"baseColorTexture":{"index":1},"metallicRoughnessTexture":{"index":2}},"normalTexture":{"index":0}}],"meshes":[{"name":"SM_PROP_debris_stones_dungeon_04","primitives":[{"attributes":{"POSITION":0,"NORMAL":1,"TANGENT":2,"TEXCOORD_0":3,"TEXCOORD_1":4},"indices":5,"material":0}]},{"name":"SM_PROP_debris_stones_dungeon_01","primitives":[{"attributes":{"POSITION":6,"NORMAL":7,"TANGENT":8,"TEXCOORD_0":9,"TEXCOORD_1":10},"indices":11,"material":0}]},{"name":"SM_PROP_debris_stones_dungeon_03","primitives":[{"attributes":{"POSITION":12,"NORMAL":13,"TANGENT":14,"TEXCOORD_0":15,"TEXCOORD_1":16},"indices":17,"material":0}]},{"name":"SM_PROP_debris_stones_dungeon_02","primitives":[{"attributes":{"POSITION":18,"NORMAL":19,"TANGENT":20,"TEXCOORD_0":21,"TEXCOORD_1":22},"indices":23,"material":0}]}],"scene":0,"scenes":[{"name":"ExteriorLakeRocks","nodes":[38]}],"textures":[{"source":0},{"source":1},{"source":2}]}