{"asset":{"version":"2.0","generator":"Unity 6000.2.9f1 glTFast 6.15.1"},"nodes":[{"name":"PolyShape (1)","mesh":0,"translation":[14.1620722,16.90875,21.28478]},{"name":"P_MOD_Floor_01_E_straight_med (11)","mesh":1,"translation":[0.582072258,-8.931252,-0.165000916]},{"name":"ExteriorElevatorFix","children":[0,1],"translation":[11.70572,-36.64875,22.57691]}],"buffers":[{"uri":"ExteriorElevatorFix.bin","byteLength":10128}],"bufferViews":[{"buffer":0,"byteLength":648,"target":34963},{"buffer":0,"byteLength":8064,"byteOffset":648,"byteStride":48,"target":34962},{"buffer":0,"byteLength":72,"byteOffset":8712,"target":34963},{"buffer":0,"byteLength":1344,"byteOffset":8784,"byteStride":56,"target":34962}],"accessors":[{"bufferView":1,"componentType":5126,"count":168,"type":"VEC3","max":[0.417913437,0,11.7575035],"min":[-25.9572449,-87.54001,-22.204525]},{"bufferView":1,"componentType":5126,"count":168,"type":"VEC3","byteOffset":12},{"bufferView":1,"componentType":5126,"count":168,"type":"VEC4","byteOffset":24},{"bufferView":1,"componentType":5126,"count":168,"type":"VEC2","byteOffset":40},{"bufferView":0,"componentType":5123,"count":324,"type":"SCALAR"},{"bufferView":3,"componentType":5126,"count":24,"type":"VEC3","max":[4,2.98023224E-08,4],"min":[0,-0.49999994,0]},{"bufferView":3,"componentType":5126,"count":24,"type":"VEC3","byteOffset":12},{"bufferView":3,"componentType":5126,"count":24,"type":"VEC4","byteOffset":24},{"bufferView":3,"componentType":5126,"count":24,"type":"VEC2","byteOffset":40},{"bufferView":3,"componentType":5126,"count":24,"type":"VEC2","byteOffset":48},{"bufferView":2,"componentType":5123,"count":36,"type":"SCALAR"}],"images":[{"name":"T_ENV_MOD_Wall_01_v3_N.png","uri":"T_ENV_MOD_Wall_01_v3_N.png","mimeType":"image/png"},{"name":"T_ENV_MOD_Wall_01_v3_BC.jpg","uri":"T_ENV_MOD_Wall_01_v3_BC.jpg","mimeType":"image/jpeg"},{"name":"T_ENV_MOD_Wall_01_v3_MTSM.jpg","uri":"T_ENV_MOD_Wall_01_v3_MTSM.jpg","mimeType":"image/jpeg"},{"name":"T_ENV_MOD_Floor_01_v3_N.png","uri":"T_ENV_MOD_Floor_01_v3_N.png","mimeType":"image/png"},{"name":"T_ENV_MOD_Floor_01_v3_BC.jpg","uri":"T_ENV_MOD_Floor_01_v3_BC.jpg","mimeType":"image/jpeg"},{"name":"T_ENV_MOD_Floor_01_v3_MTSM.jpg","uri":"T_ENV_MOD_Floor_01_v3_MTSM.jpg","mimeType":"image/jpeg"}],"materials":[{"name":"M_MOD_Wall_01_v3","pbrMetallicRoughness":{"roughnessFactor":0,"baseColorTexture":{"index":1},"metallicRoughnessTexture":{"index":2}},"normalTexture":{"index":0,"scale":1.82}},{"name":"M_MOD_Floor_01_v3","pbrMetallicRoughness":{"roughnessFactor":0,"baseColorTexture":{"index":4},"metallicRoughnessTexture":{"index":5}},"normalTexture":{"index":3}}],"meshes":[{"name":"pb_Mesh-29984(Clone)","primitives":[{"attributes":{"POSITION":0,"NORMAL":1,"TANGENT":2,"TEXCOORD_0":3},"indices":4,"material":0}]},{"name":"MOD_Floor_01_E_straight_med","primitives":[{"attributes":{"POSITION":5,"NORMAL":6,"TANGENT":7,"TEXCOORD_0":8,"TEXCOORD_1":9},"indices":10,"material":1}]}],"scene":0,"scenes":[{"name":"ExteriorElevatorFix","nodes":[2]}],"textures":[{"source":0},{"source":1},{"source":2},{"source":3},{"source":4},{"source":5}]}