{"asset":{"version":"2.0","generator":"Unity 6000.2.9f1 glTFast 6.15.1"},"nodes":[{"name":"GameObject"},{"name":"P_MOD_Floor_01_O_straight_med (4)","children":[0],"mesh":0,"translation":[1.00779152,-0.170000076,-0.201011658]},{"name":"GameObject"},{"name":"P_MOD_Floor_01_O_straight_med (5)","children":[2],"mesh":0,"translation":[-2.97999954,-0.170000076,-0.201011658]},{"name":"GameObject"},{"name":"P_MOD_Floor_01_O_straight_med (6)","children":[4],"mesh":0,"translation":[-6.949999,-0.170000076,-0.201011658]},{"name":"GameObject"},{"name":"P_MOD_Floor_01_O_straight_med (7)","children":[6],"mesh":0,"translation":[-10.91,-0.170000076,-0.201011658]},{"name":"GameObject"},{"name":"P_MOD_Floor_01_O_straight_small","children":[8],"mesh":1,"translation":[-10.896,-0.170000076,-0.201011658],"rotation":[0,-0.7071068,0,0.7071068]},{"name":"GameObject"},{"name":"P_MOD_Railing_01_straight (8)","children":[10],"mesh":2,"translation":[0,0,3.91333]},{"name":"GameObject"},{"name":"P_MOD_Railing_01_straight (12)","children":[12],"mesh":2,"translation":[-7.93000031,0,3.91333]},{"name":"GameObject"},{"name":"P_MOD_Railing_01_straight (10)","children":[14],"mesh":2,"translation":[-4,0,3.91333]},{"name":"GameObject"},{"name":"P_MOD_Railing_01_straight (13)","children":[16],"mesh":2,"translation":[-11.93,0,3.91333]},{"name":"P_MOD_Railing_01_straight (9)","mesh":2},{"name":"GameObject"},{"name":"P_MOD_Railing_01_straight (14)","children":[19],"mesh":2,"translation":[-7.93000031,0,0]},{"name":"GameObject"},{"name":"P_MOD_Railing_01_straight (11)","children":[21],"mesh":2,"translation":[-4,0,0]},{"name":"GameObject"},{"name":"P_MOD_Railing_01_straight (15)","children":[23],"mesh":2,"translation":[-11.93,0,0]},{"name":"GameObject"},{"name":"P_MOD_Railing_01_column","children":[25],"mesh":3,"translation":[-12.208,0.323003769,0.002796173]},{"name":"GameObject"},{"name":"P_MOD_Railing_01_column (1)","children":[27],"mesh":3,"translation":[-12.226,0.323003769,3.75999832]},{"name":"LargerBridge","children":[1,3,5,7,9,11,13,15,17,18,20,22,24,26,28],"translation":[21.17,-25.02,38.65]}],"buffers":[{"uri":"LargerBridge.bin","byteLength":22280}],"bufferViews":[{"buffer":0,"byteLength":12,"target":34963},{"buffer":0,"byteLength":12,"byteOffset":12,"target":34963},{"buffer":0,"byteLength":888,"byteOffset":24,"target":34963},{"buffer":0,"byteLength":312,"byteOffset":912,"target":34963},{"buffer":0,"byteLength":5824,"byteOffset":1224,"byteStride":56,"target":34962},{"buffer":0,"byteLength":224,"byteOffset":7048,"byteStride":56,"target":34962},{"buffer":0,"byteLength":224,"byteOffset":7272,"byteStride":56,"target":34962},{"buffer":0,"byteLength":14784,"byteOffset":7496,"byteStride":56,"target":34962}],"accessors":[{"bufferView":6,"componentType":5126,"count":4,"type":"VEC3","max":[4,2.98023224E-08,4],"min":[0,2.98023224E-08,0]},{"bufferView":6,"componentType":5126,"count":4,"type":"VEC3","byteOffset":12},{"bufferView":6,"componentType":5126,"count":4,"type":"VEC4","byteOffset":24},{"bufferView":6,"componentType":5126,"count":4,"type":"VEC2","byteOffset":40},{"bufferView":6,"componentType":5126,"count":4,"type":"VEC2","byteOffset":48},{"bufferView":0,"componentType":5123,"count":6,"type":"SCALAR"},{"bufferView":5,"componentType":5126,"count":4,"type":"VEC3","max":[4,2.98023224E-08,2],"min":[0,2.98023224E-08,0]},{"bufferView":5,"componentType":5126,"count":4,"type":"VEC3","byteOffset":12},{"bufferView":5,"componentType":5126,"count":4,"type":"VEC4","byteOffset":24},{"bufferView":5,"componentType":5126,"count":4,"type":"VEC2","byteOffset":40},{"bufferView":5,"componentType":5126,"count":4,"type":"VEC2","byteOffset":48},{"bufferView":1,"componentType":5123,"count":6,"type":"SCALAR"},{"bufferView":7,"componentType":5126,"count":264,"type":"VEC3","max":[4.00000048,1.25509524,0.287260056],"min":[0,-0.46876502,-0.287261248]},{"bufferView":7,"componentType":5126,"count":264,"type":"VEC3","byteOffset":12},{"bufferView":7,"componentType":5126,"count":264,"type":"VEC4","byteOffset":24},{"bufferView":7,"componentType":5126,"count":264,"type":"VEC2","byteOffset":40},{"bufferView":7,"componentType":5126,"count":264,"type":"VEC2","byteOffset":48},{"bufferView":2,"componentType":5123,"count":444,"type":"SCALAR"},{"bufferView":4,"componentType":5126,"count":104,"type":"VEC3","max":[0.5723241,1.39486587,0.5723238],"min":[-0.572327435,-0.5360936,-0.572324753]},{"bufferView":4,"componentType":5126,"count":104,"type":"VEC3","byteOffset":12},{"bufferView":4,"componentType":5126,"count":104,"type":"VEC4","byteOffset":24},{"bufferView":4,"componentType":5126,"count":104,"type":"VEC2","byteOffset":40},{"bufferView":4,"componentType":5126,"count":104,"type":"VEC2","byteOffset":48},{"bufferView":3,"componentType":5123,"count":156,"type":"SCALAR"}],"images":[{"name":"T_ENV_MOD_Floor_01_v3_N.png","uri":"T_ENV_MOD_Floor_01_v3_N.png","mimeType":"image/png"},{"name":"T_ENV_MOD_Floor_01_v3_BC.jpg","uri":"T_ENV_MOD_Floor_01_v3_BC.jpg","mimeType":"image/jpeg"},{"name":"T_ENV_MOD_Floor_01_v3_MTSM.jpg","uri":"T_ENV_MOD_Floor_01_v3_MTSM.jpg","mimeType":"image/jpeg"},{"name":"T_ENV_MOD_StoneStack_01_v3_N.png","uri":"T_ENV_MOD_StoneStack_01_v3_N.png","mimeType":"image/png"},{"name":"T_ENV_MOD_StoneStack_01_v3_BC.jpg","uri":"T_ENV_MOD_StoneStack_01_v3_BC.jpg","mimeType":"image/jpeg"},{"name":"T_ENV_MOD_StoneStack_01_v3_MTSM.jpg","uri":"T_ENV_MOD_StoneStack_01_v3_MTSM.jpg","mimeType":"image/jpeg"}],"materials":[{"name":"M_MOD_Floor_01_v3","pbrMetallicRoughness":{"roughnessFactor":0,"baseColorTexture":{"index":1},"metallicRoughnessTexture":{"index":2}},"normalTexture":{"index":0}},{"name":"M_MOD_Trim_Stone_01_v3","pbrMetallicRoughness":{"roughnessFactor":0,"baseColorTexture":{"index":4},"metallicRoughnessTexture":{"index":5}},"normalTexture":{"index":3}}],"meshes":[{"name":"MOD_Floor_01_O_straight_med","primitives":[{"attributes":{"POSITION":0,"NORMAL":1,"TANGENT":2,"TEXCOORD_0":3,"TEXCOORD_1":4},"indices":5,"material":0}]},{"name":"MOD_Floor_01_O_straight_small","primitives":[{"attributes":{"POSITION":6,"NORMAL":7,"TANGENT":8,"TEXCOORD_0":9,"TEXCOORD_1":10},"indices":11,"material":0}]},{"name":"MOD_Railing_01_straight","primitives":[{"attributes":{"POSITION":12,"NORMAL":13,"TANGENT":14,"TEXCOORD_0":15,"TEXCOORD_1":16},"indices":17,"material":1}]},{"name":"MOD_Railing_01_column","primitives":[{"attributes":{"POSITION":18,"NORMAL":19,"TANGENT":20,"TEXCOORD_0":21,"TEXCOORD_1":22},"indices":23,"material":1}]}],"scene":0,"scenes":[{"name":"LargerBridge","nodes":[29]}],"textures":[{"source":0},{"source":1},{"source":2},{"source":3},{"source":4},{"source":5}]}