{"asset":{"version":"2.0","generator":"Unity 6000.2.9f1 glTFast 6.15.1"},"nodes":[{"name":"Rock5A","mesh":0,"translation":[-15.254,60.5230026,-23.6447029],"scale":[1.2801,2.556377,1]},{"name":"Rock5A (3)","mesh":0,"translation":[-7.91403532,60.5230026,-20.9130421],"rotation":[0,-0.161091447,0,0.9869395],"scale":[1.2801,2.556377,1]},{"name":"Rock5A (6)","mesh":0,"translation":[1.1030035,60.5230026,-16.581707],"rotation":[0,-0.415113121,0,0.909769833],"scale":[1.2801,2.556377,1]},{"name":"Rock5A (9)","mesh":0,"translation":[1.60000038,60.5230026,-9.886421],"rotation":[0,-0.681696236,0,0.7316354],"scale":[1.2801,2.556377,1]},{"name":"Rock5A (15)","mesh":0,"translation":[1.6,60.5230026,6.385296],"rotation":[0,-0.681696236,0,0.7316354],"scale":[1.2801,2.556377,1]},{"name":"Rock5A (18)","mesh":0,"translation":[-2.86636829,60.5230026,11.4325981],"rotation":[0,-0.970564246,0,0.2408424],"scale":[1.28009975,2.556377,1]},{"name":"Rock5A (21)","mesh":0,"translation":[-11.480895,60.5230026,14.4263687],"rotation":[0,-0.999654,0,0.0263054743],"scale":[1.2801,2.556377,1]},{"name":"Rock5A (24)","mesh":0,"translation":[-17.76,60.5230026,12.9252968],"rotation":[0,-0.9888818,0,-0.1487035],"scale":[1.28010011,2.556377,1]},{"name":"Rock5A (27)","mesh":0,"translation":[-22.51,60.5230026,8.375298],"rotation":[0,-0.922303557,0,-0.3864663],"scale":[1.28009987,2.556377,1]},{"name":"Rock5A (30)","mesh":0,"translation":[-26.4439583,60.5230026,2.69221878],"rotation":[0,-0.5883774,0,0.8085864],"scale":[1.2801,2.556377,1]},{"name":"Rock5A (33)","mesh":0,"translation":[-30.06,60.5230026,-5.074703],"rotation":[0,-0.765147567,0,-0.643855],"scale":[1.28009987,2.556377,1]},{"name":"Rock5A (36)","mesh":0,"translation":[-30.0959435,60.5230026,-12.7979107],"rotation":[0,-0.6810967,0,-0.7321935],"scale":[1.28010011,2.556377,1]},{"name":"Rock5A (39)","mesh":0,"translation":[-26.22473,60.5230026,-17.008976],"rotation":[0,-0.942754865,0,0.333486736],"scale":[1.28010011,2.556377,1]},{"name":"Rock5A (42)","mesh":0,"translation":[-22.16,60.5230026,-24.3747025],"rotation":[0,-0.5452333,0,-0.8382844],"scale":[1.2801,2.556377,1]},{"name":"Rock5A (1)","mesh":0,"translation":[-13.3723,31.3500061,-23.6447029],"scale":[1.2801,2.556377,1]},{"name":"Rock5A (4)","mesh":0,"translation":[-6.12999964,31.3500061,-20.314703],"rotation":[0,-0.161091447,0,0.9869395],"scale":[1.2801,2.556377,1]},{"name":"Rock5A (7)","mesh":0,"translation":[2.33618641,31.3500061,-15.1604214],"rotation":[0,-0.415113121,0,0.909769833],"scale":[1.2801,2.556377,1]},{"name":"Rock5A (10)","mesh":0,"translation":[1.732791,31.3500061,-8.009403],"rotation":[0,-0.681696236,0,0.7316354],"scale":[1.2801,2.556377,1]},{"name":"Rock5A (16)","mesh":0,"translation":[1.732791,31.3500061,8.262314],"rotation":[0,-0.681696236,0,0.7316354],"scale":[1.2801,2.556377,1]},{"name":"Rock5A (19)","mesh":0,"translation":[-6.28549528,31.3500061,11.8486023],"rotation":[0,-0.970564246,0,0.2408424],"scale":[1.28009975,2.556377,1]},{"name":"Rock5A (22)","mesh":0,"translation":[-13.36,31.3500061,14.5252953],"rotation":[0,-0.999654,0,0.0263054743],"scale":[1.2801,2.556377,1]},{"name":"Rock5A (25)","mesh":0,"translation":[-19.55848,31.3500061,12.3718491],"rotation":[0,-0.9888818,0,-0.1487035],"scale":[1.28010011,2.556377,1]},{"name":"Rock5A (28)","mesh":0,"translation":[-23.5299988,31.3500061,8.225296],"rotation":[0,0.439527452,0,-0.8982292],"scale":[1.2801,2.556377,1]},{"name":"Rock5A (31)","mesh":0,"translation":[-28.0617523,31.3500061,0.422931671],"rotation":[0,-0.844422162,0,-0.535678267],"scale":[1.2801,2.556377,1]},{"name":"Rock5A (34)","mesh":0,"translation":[-29.71951,31.3500061,-6.18572235],"rotation":[0,-0.667350531,0,0.744743764],"scale":[1.2801,2.556377,1]},{"name":"Rock5A (37)","mesh":0,"translation":[-29.96,31.3500061,-14.6747036],"rotation":[0,-0.6810967,0,-0.7321935],"scale":[1.28010011,2.556377,1]},{"name":"Rock5A (40)","mesh":0,"translation":[-24.99,31.3500061,-19.42],"rotation":[0,-0.5452333,0,-0.8382844],"scale":[1.2801,2.556377,1]},{"name":"Rock5A (43)","mesh":0,"translation":[-21.6630325,31.3500061,-25.2502079],"rotation":[0,-0.9948224,0,0.101628818],"scale":[1.28010011,2.556377,1]},{"name":"Rock5A (12)","mesh":0,"translation":[1.732791,31.3500061,-1.17470169],"rotation":[0,-0.681696236,0,0.7316354],"scale":[1.2801,2.556377,1]},{"name":"Rock5A (14)","mesh":0,"translation":[1.732791,51.4530029,-1.67470169],"rotation":[0,-0.681696236,0,0.7316354],"scale":[1.2801,2.556377,1]},{"name":"Rock5A (2)","mesh":0,"translation":[-12.1946535,0,-23.6447029],"scale":[1.2801,2.556377,1]},{"name":"Rock5A (5)","mesh":0,"translation":[-5.013474,0,-19.94024],"rotation":[0,-0.161091447,0,0.9869395],"scale":[1.2801,2.556377,1]},{"name":"Rock5A (8)","mesh":0,"translation":[3.10797119,0,-14.2709274],"rotation":[0,-0.415113121,0,0.909769833],"scale":[1.2801,2.556377,1]},{"name":"Rock5A (11)","mesh":0,"translation":[1.81590176,0,-6.83470154],"rotation":[0,-0.681696236,0,0.7316354],"scale":[1.2801,2.556377,1]},{"name":"Rock5A (17)","mesh":0,"translation":[1.81590176,0,9.437016],"rotation":[0,-0.681696236,0,0.7316354],"scale":[1.2801,2.556377,1]},{"name":"Rock5A (20)","mesh":0,"translation":[-7.326529,0,12.3991547],"rotation":[0,-0.970564246,0,0.2408424],"scale":[1.28009975,2.556377,1]},{"name":"Rock5A (23)","mesh":0,"translation":[-14.5360279,0,14.5872307],"rotation":[0,-0.999654,0,0.0263054743],"scale":[1.2801,2.556377,1]},{"name":"Rock5A (26)","mesh":0,"translation":[-20.6840534,0,12.0255013],"rotation":[0,-0.9888818,0,-0.1487035],"scale":[1.28010011,2.556377,1]},{"name":"Rock5A (29)","mesh":0,"translation":[-26.26,0,6.425297],"rotation":[0,-0.922303557,0,-0.3864663],"scale":[1.28009987,2.556377,1]},{"name":"Rock5A (32)","mesh":0,"translation":[-28.5635681,0,-0.6424408],"rotation":[0,-0.844422162,0,-0.535678267],"scale":[1.2801,2.556377,1]},{"name":"Rock5A (35)","mesh":0,"translation":[-30.5828228,0,-8.089058],"rotation":[0,-0.765147567,0,-0.643855],"scale":[1.28009987,2.556377,1]},{"name":"Rock5A (38)","mesh":0,"translation":[-29.8749752,0,-15.8492794],"rotation":[0,-0.6810967,0,-0.7321935],"scale":[1.28010011,2.556377,1]},{"name":"Rock5A (41)","mesh":0,"translation":[-24.9195786,0,-20.7713146],"rotation":[0,-0.5452333,0,-0.8382844],"scale":[1.2801,2.556377,1]},{"name":"Rock5A (44)","mesh":0,"translation":[-20.9195786,0,-27.1713142],"rotation":[0,-0.5452333,0,-0.8382844],"scale":[1.2801,2.556377,1]},{"name":"Rock5A (13)","mesh":0,"translation":[1.81590176,0,0],"rotation":[0,-0.681696236,0,0.7316354],"scale":[1.2801,2.556377,1]},{"name":"RocksElevator","children":[0,1,2,3,4,5,6,7,8,9,10,11,12,13,14,15,16,17,18,19,20,21,22,23,24,25,26,27,28,29,30,31,32,33,34,35,36,37,38,39,40,41,42,43,44],"translation":[12.16,-108.523,43.5747032]}],"buffers":[{"uri":"RocksElevator.bin","byteLength":56868}],"bufferViews":[{"buffer":0,"byteLength":5850,"target":34963},{"buffer":0,"byteLength":51016,"byteOffset":5852,"byteStride":56,"target":34962}],"accessors":[{"bufferView":1,"componentType":5126,"count":911,"type":"VEC3","max":[5.447991,12.3155565,4.476105],"min":[-6.09549475,-1.93374729,-3.92448187]},{"bufferView":1,"componentType":5126,"count":911,"type":"VEC3","byteOffset":12},{"bufferView":1,"componentType":5126,"count":911,"type":"VEC4","byteOffset":24},{"bufferView":1,"componentType":5126,"count":911,"type":"VEC2","byteOffset":40},{"bufferView":1,"componentType":5126,"count":911,"type":"VEC2","byteOffset":48},{"bufferView":0,"componentType":5123,"count":2925,"type":"SCALAR"}],"images":[{"name":"Rock1_nmp.png","uri":"Rock1_nmp.png","mimeType":"image/png"},{"name":"Rockdetail3.jpg","uri":"Rockdetail3.jpg","mimeType":"image/jpeg"},{"name":"Rock1_ms.jpg","uri":"Rock1_ms.jpg","mimeType":"image/jpeg"}],"materials":[{"name":"fix","pbrMetallicRoughness":{"baseColorFactor":[0.0355051756,0.0355051756,0.0355051756,1],"roughnessFactor":0,"baseColorTexture":{"index":1},"metallicRoughnessTexture":{"index":2}},"normalTexture":{"index":0}}],"meshes":[{"name":"polySurface250","primitives":[{"attributes":{"POSITION":0,"NORMAL":1,"TANGENT":2,"TEXCOORD_0":3,"TEXCOORD_1":4},"indices":5,"material":0}]}],"scene":0,"scenes":[{"name":"RocksElevator","nodes":[45]}],"textures":[{"source":0},{"source":1},{"source":2}]}