{"asset":{"version":"2.0","generator":"Unity 6000.2.9f1 glTFast 6.15.1"},"nodes":[{"name":"PolyShape (2)","mesh":0,"translation":[15.6399994,0,2.02000427],"scale":[25.7684,25.7684,25.7684]},{"name":"PolyShape (6)","mesh":1,"translation":[3.41,0,-10.5500031],"scale":[25.7684,25.7684,25.7684]},{"name":"PolyShape (3)","mesh":2,"translation":[5.237,0,7.20999146],"scale":[25.7684,25.7684,25.7684]},{"name":"PolyShape (4)","mesh":3,"translation":[2.7,0,3.699997],"scale":[25.7684,25.7684,25.7684]},{"name":"PolyShape (5)","mesh":4,"scale":[25.7684,25.7684,25.7684]},{"name":"SpectralPathsLVL2","children":[0,1,2,3,4],"translation":[-0.44,0.22,215.47]}],"buffers":[{"uri":"SpectralPathsLVL2.bin","byteLength":12360}],"bufferViews":[{"buffer":0,"byteLength":168,"target":34963},{"buffer":0,"byteLength":168,"byteOffset":168,"target":34963},{"buffer":0,"byteLength":168,"byteOffset":336,"target":34963},{"buffer":0,"byteLength":168,"byteOffset":504,"target":34963},{"buffer":0,"byteLength":168,"byteOffset":672,"target":34963},{"buffer":0,"byteLength":2304,"byteOffset":840,"byteStride":48,"target":34962},{"buffer":0,"byteLength":2304,"byteOffset":3144,"byteStride":48,"target":34962},{"buffer":0,"byteLength":2304,"byteOffset":5448,"byteStride":48,"target":34962},{"buffer":0,"byteLength":2304,"byteOffset":7752,"byteStride":48,"target":34962},{"buffer":0,"byteLength":2304,"byteOffset":10056,"byteStride":48,"target":34962}],"accessors":[{"bufferView":7,"componentType":5126,"count":48,"type":"VEC3","max":[0.4918888,0.03,-6.745548],"min":[0.19653067,0,-6.83405066]},{"bufferView":7,"componentType":5126,"count":48,"type":"VEC3","byteOffset":12},{"bufferView":7,"componentType":5126,"count":48,"type":"VEC4","byteOffset":24},{"bufferView":7,"componentType":5126,"count":48,"type":"VEC2","byteOffset":40},{"bufferView":0,"componentType":5123,"count":84,"type":"SCALAR"},{"bufferView":6,"componentType":5126,"count":48,"type":"VEC3","max":[0.4915221,0.03,-6.62647438],"min":[0.130852431,0,-6.841503]},{"bufferView":6,"componentType":5126,"count":48,"type":"VEC3","byteOffset":12},{"bufferView":6,"componentType":5126,"count":48,"type":"VEC4","byteOffset":24},{"bufferView":6,"componentType":5126,"count":48,"type":"VEC2","byteOffset":40},{"bufferView":1,"componentType":5123,"count":84,"type":"SCALAR"},{"bufferView":5,"componentType":5126,"count":48,"type":"VEC3","max":[0.422595322,0.03,-6.745503],"min":[0.344940722,0,-6.820805]},{"bufferView":5,"componentType":5126,"count":48,"type":"VEC3","byteOffset":12},{"bufferView":5,"componentType":5126,"count":48,"type":"VEC4","byteOffset":24},{"bufferView":5,"componentType":5126,"count":48,"type":"VEC2","byteOffset":40},{"bufferView":2,"componentType":5123,"count":84,"type":"SCALAR"},{"bufferView":8,"componentType":5126,"count":48,"type":"VEC3","max":[0.432341754,0.03,-6.741825],"min":[0.3374198,0,-6.82647228]},{"bufferView":8,"componentType":5126,"count":48,"type":"VEC3","byteOffset":12},{"bufferView":8,"componentType":5126,"count":48,"type":"VEC4","byteOffset":24},{"bufferView":8,"componentType":5126,"count":48,"type":"VEC2","byteOffset":40},{"bufferView":3,"componentType":5123,"count":84,"type":"SCALAR"},{"bufferView":9,"componentType":5126,"count":48,"type":"VEC3","max":[0.433656216,0.03,-6.75260925],"min":[0.338933349,0,-6.81686974]},{"bufferView":9,"componentType":5126,"count":48,"type":"VEC3","byteOffset":12},{"bufferView":9,"componentType":5126,"count":48,"type":"VEC4","byteOffset":24},{"bufferView":9,"componentType":5126,"count":48,"type":"VEC2","byteOffset":40},{"bufferView":4,"componentType":5123,"count":84,"type":"SCALAR"}],"images":[{"name":"normalCliff.png","uri":"normalCliff.png","mimeType":"image/png"},{"name":"pectraltexture.png","uri":"pectraltexture.png","mimeType":"image/png"}],"materials":[{"name":"EspectralPath","pbrMetallicRoughness":{"baseColorFactor":[0,0.936659038,0.957614,0.192156866],"metallicFactor":0.53,"roughnessFactor":0.5,"baseColorTexture":{"index":1}},"normalTexture":{"index":0,"scale":2},"alphaMode":"BLEND"}],"meshes":[{"name":"pb_Mesh-420788","primitives":[{"attributes":{"POSITION":0,"NORMAL":1,"TANGENT":2,"TEXCOORD_0":3},"indices":4,"material":0}]},{"name":"pb_Mesh-420788(Clone)","primitives":[{"attributes":{"POSITION":5,"NORMAL":6,"TANGENT":7,"TEXCOORD_0":8},"indices":9,"material":0}]},{"name":"pb_Mesh-420788(Clone)","primitives":[{"attributes":{"POSITION":10,"NORMAL":11,"TANGENT":12,"TEXCOORD_0":13},"indices":14,"material":0}]},{"name":"pb_Mesh-420788(Clone)(Clone)","primitives":[{"attributes":{"POSITION":15,"NORMAL":16,"TANGENT":17,"TEXCOORD_0":18},"indices":19,"material":0}]},{"name":"pb_Mesh-420788(Clone)(Clone)(Clone)","primitives":[{"attributes":{"POSITION":20,"NORMAL":21,"TANGENT":22,"TEXCOORD_0":23},"indices":24,"material":0}]}],"scene":0,"scenes":[{"name":"SpectralPathsLVL2","nodes":[5]}],"textures":[{"source":0},{"source":1}]}