{"asset":{"version":"2.0","generator":"Unity 6000.2.9f1 glTFast 6.15.1"},"nodes":[{"name":"P_PROP_woodbridge_dungeon_08","mesh":0,"translation":[0.07999992,15.4767876,5.5]},{"name":"P_PROP_woodbridge_dungeon_08 (1)","mesh":0,"translation":[5.66,-6.40000153,18.8100014],"rotation":[0,0.430927128,0,0.9023868]},{"name":"P_PROP_woodbridge_dungeon_07","mesh":1,"translation":[2.83,10.7967873,15.2000008],"rotation":[0,0.273908854,0,0.9617557]},{"name":"P_PROP_woodbridge_dungeon_07 (3)","mesh":1,"translation":[0.3558874,-11.75,9.749702],"rotation":[0,0.137141749,0,0.9905514]},{"name":"P_PROP_woodbridge_dungeon_07 (6)","mesh":1,"translation":[4.95,-30.9599953,17.55],"rotation":[0,0.4029293,0,0.9152311]},{"name":"P_PROP_woodbridge_dungeon_07 (9)","mesh":1,"translation":[3.244028,-45.0800056,15.7135124],"rotation":[0,0.4029293,0,0.9152311]},{"name":"P_PROP_woodbridge_dungeon_07 (1)","mesh":1,"translation":[0.729999542,10.7967873,11.8099976],"rotation":[0,0.273908854,0,0.9617557]},{"name":"P_PROP_woodbridge_dungeon_07 (4)","mesh":1,"translation":[-0.7264118,-11.75,5.911648],"rotation":[0,0.137141749,0,0.9905514]},{"name":"P_PROP_woodbridge_dungeon_07 (7)","mesh":1,"translation":[2.00965881,-30.9599953,14.85622],"rotation":[0,0.4029293,0,0.9152311]},{"name":"P_PROP_woodbridge_dungeon_07 (2)","mesh":1,"translation":[4.81999969,10.7967873,18.7799988],"rotation":[0,0.273908854,0,0.9617557]},{"name":"P_PROP_woodbridge_dungeon_07 (5)","mesh":1,"translation":[1.27999973,-11.75,13.7400017],"rotation":[0,0.137141749,0,0.9905514]},{"name":"P_PROP_woodbridge_dungeon_07 (8)","mesh":1,"translation":[7.83597231,-30.9599953,20.4564857],"rotation":[0,0.4029293,0,0.9152311]},{"name":"P_PROP_woodbridge_dungeon_07 (10)","mesh":1,"translation":[6.13,-45.0800056,18.6199989],"rotation":[0,0.4029293,0,0.9152311]},{"name":"P_PROP_woodbridge_dungeon_10","mesh":2,"translation":[1.73999977,7.366787,-1.54000092],"rotation":[0,-0.2584504,0,0.9660245]},{"name":"P_PROP_woodbridge_dungeon_10 (1)","mesh":2,"translation":[1.73999977,-12.9032135,-1.54000092],"rotation":[0,-0.2584504,0,0.9660245]},{"name":"P_PROP_woodbridge_dungeon_10 (2)","mesh":2,"translation":[4.64999962,-28.77,-5.41],"rotation":[0,-0.576312661,0,0.817229331]},{"name":"P_PROP_woodbridge_dungeon_09","mesh":3,"translation":[13.25,4.06678772,21.59],"rotation":[0,0.482419,0,0.8759406]},{"name":"P_PROP_woodbridge_dungeon_09 (7)","mesh":3,"translation":[8.570095,-16.2032127,21.2305832],"rotation":[0,0.363065422,0,0.931763649]},{"name":"P_PROP_woodbridge_dungeon_09 (14)","mesh":3,"translation":[0.6790638,-37.1832161,11.5040359],"rotation":[0,0.04900848,0,0.9987984]},{"name":"P_PROP_woodbridge_dungeon_09 (2)","mesh":3,"translation":[6.54999971,4.06678772,17.2799988],"rotation":[0,0.482419,0,0.8759406]},{"name":"P_PROP_woodbridge_dungeon_09 (8)","mesh":3,"translation":[3.22522449,-16.2032127,15.3230972],"rotation":[0,0.363065422,0,0.931763649]},{"name":"P_PROP_woodbridge_dungeon_09 (15)","mesh":3,"translation":[-0.03999996,-37.1832161,3.56999969],"rotation":[0,0.04900848,0,0.9987984]},{"name":"P_PROP_woodbridge_dungeon_09 (1)","mesh":3,"translation":[9.879999,4.06678772,19.41],"rotation":[0,0.482419,0,0.8759406]},{"name":"P_PROP_woodbridge_dungeon_09 (9)","mesh":3,"translation":[5.88486862,-16.2032127,18.2474861],"rotation":[0,0.363065422,0,0.931763649]},{"name":"P_PROP_woodbridge_dungeon_09 (16)","mesh":3,"translation":[0.3269577,-37.1832161,7.505863],"rotation":[0,0.04900848,0,0.9987984]},{"name":"P_PROP_woodbridge_dungeon_09 (3)","mesh":3,"translation":[3.18000031,4.06678772,15.0999985],"rotation":[0,0.482419,0,0.8759406]},{"name":"P_PROP_woodbridge_dungeon_09 (10)","mesh":3,"translation":[0.539999962,-16.2032127,12.34],"rotation":[0,0.363065422,0,0.931763649]},{"name":"P_PROP_woodbridge_dungeon_09 (17)","mesh":3,"translation":[-0.3921032,-37.1832161,-0.428161621],"rotation":[0,0.04900848,0,0.9987984]},{"name":"P_PROP_woodbridge_dungeon_09 (4)","mesh":3,"translation":[-0.0300006866,0,8.044685]},{"name":"P_PROP_woodbridge_dungeon_09 (11)","mesh":3,"translation":[-0.0300006866,-20.27,8.044685]},{"name":"P_PROP_woodbridge_dungeon_09 (18)","mesh":3,"translation":[-1.253684,-48.05,3.09879684],"rotation":[0,-0.275861084,0,0.961197555]},{"name":"P_PROP_woodbridge_dungeon_09 (5)","mesh":3,"translation":[0.0599994659,0,3.98999786]},{"name":"P_PROP_woodbridge_dungeon_09 (12)","mesh":3,"translation":[0.0599994659,-20.27,3.98999786]},{"name":"P_PROP_woodbridge_dungeon_09 (19)","mesh":3,"translation":[0.9728823,-48.04999,-0.291055679],"rotation":[0,-0.275861084,0,0.961197555]},{"name":"P_PROP_woodbridge_dungeon_09 (6)","mesh":3},{"name":"P_PROP_woodbridge_dungeon_09 (13)","mesh":3,"translation":[0,-20.27,0]},{"name":"P_PROP_woodbridge_dungeon_09 (20)","mesh":3,"translation":[3.037962,-48.04999,-3.70558357],"rotation":[0,-0.275861084,0,0.961197555]},{"name":"WoodBridges","children":[0,1,2,3,4,5,6,7,8,9,10,11,12,13,14,15,16,17,18,19,20,21,22,23,24,25,26,27,28,29,30,31,32,33,34,35,36]},{"name":"P_PROP_barrel_dungeon_03","mesh":4,"translation":[0.109999657,51.96179,18],"rotation":[0,0.6249047,0,0.780701041]},{"name":"P_PROP_barrel_dungeon_03 (1)","mesh":4,"translation":[0.890000343,51.96179,18.6099987],"rotation":[0,0.4997173,0,0.866188645]},{"name":"P_PROP_barrel_dungeon_03 (2)","mesh":4,"translation":[1.73999977,51.96179,19.31],"rotation":[0,0.4997173,0,0.866188645]},{"name":"P_PROP_barrel_dungeon_01","mesh":5,"translation":[2.40001678,58.7517853,21.1652317]},{"name":"P_PROP_barrel_dungeon_01 (1)","mesh":5,"translation":[2.38,58.7517853,20.4499989]},{"name":"P_PROP_barrel_dungeon_01 (2)","mesh":5,"translation":[1.61999989,58.7517853,20.2699986]},{"name":"P_PROP_barrel_dungeon_01 (3)","mesh":5,"translation":[0.621011734,55.4088173,-0.705291748]},{"name":"P_PROP_barrel_dungeon_01 (4)","mesh":5,"translation":[-0.07999992,55.4088173,-0.200000763]},{"name":"P_PROP_barrel_dungeon_01 (5)","mesh":5,"translation":[-0.029999733,55.4088173,-1.05000114]},{"name":"P_PROP_barrel_dungeon_01 (6)","mesh":5,"translation":[0.8800001,55.4088173,-1.87000084]},{"name":"P_PROP_barrel_dungeon_04","mesh":6,"translation":[-2.59166241,63.5188141,4.774294]},{"name":"P_PROP_barrel_dungeon_04 (1)","mesh":6,"translation":[-2.58,63.5188141,5.60000038]},{"name":"P_PROP_box_dungeon_04","mesh":7,"translation":[-0.220000267,58.8467865,16.38]},{"name":"P_PROP_box_dungeon_04 (1)","mesh":7,"translation":[0.2699995,58.8467865,17.4299984]},{"name":"P_PROP_box_dungeon_04 (2)","mesh":7,"translation":[-2.29991436,63.51679,10.7013721],"rotation":[0,0.254555076,0,0.9670583]},{"name":"P_PROP_box_dungeon_04 (3)","mesh":7,"translation":[-2.29,63.51679,9.38999748],"rotation":[0,0.254555076,0,0.9670583]},{"name":"P_PROP_box_dungeon_02","mesh":8,"translation":[-1.97751808,55.4067879,3.46768761]},{"name":"P_PROP_box_dungeon_04 (4)","mesh":7,"translation":[-1.41811085,55.4067879,2.48287773]},{"name":"P_PROP_box_dungeon_04 (5)","mesh":7,"translation":[-1.62699986,56.2917862,2.95799828]},{"name":"P_PROP_box_dungeon_07","mesh":9,"translation":[11.2964907,52.1243,24.3683758]},{"name":"P_PROP_box_dungeon_07 (1)","mesh":9,"translation":[10.28,52.1243,23.8599987]},{"name":"P_PROP_box_dungeon_07 (2)","mesh":9,"translation":[10.65,52.6717873,24.19],"rotation":[0,0.6056163,0,0.7957568]},{"name":"P_PROP_sack_dungeon_04","mesh":10,"translation":[9.152976,52.116787,23.88006]},{"name":"P_PROP_sack_dungeon_04 (1)","mesh":10,"translation":[9.47,52.116787,23.33]},{"name":"P_PROP_sack_dungeon_04 (2)","mesh":10,"translation":[8.96,52.116787,23.3399982]},{"name":"P_PROP_sack_dungeon_04 (3)","mesh":10,"translation":[8.6,52.116787,23.789999]},{"name":"P_PROP_barrel_dungeon_01 (7)","mesh":5,"translation":[6.184665,52.1188164,21.773962]},{"name":"P_PROP_barrel_dungeon_01 (8)","mesh":5,"translation":[5.74,52.1188164,21.0899982]},{"name":"P_PROP_barrel_dungeon_01 (9)","mesh":5,"translation":[6.75999975,52.1188164,21.0699978]},{"name":"P_PROP_barrel_dungeon_03 (3)","mesh":4,"translation":[-2.27999973,48.07034,4.14999962],"rotation":[0,-0.8572935,0,0.514827967]},{"name":"P_PROP_barrel_dungeon_03 (4)","mesh":4,"translation":[-2.06999969,48.07034,5.85000038],"rotation":[0,-0.8572935,0,0.514827967]},{"name":"P_PROP_barrel_dungeon_03 (5)","mesh":4,"translation":[-1.89999962,48.07034,7.76],"rotation":[0,-0.8572935,0,0.514827967]},{"name":"P_PROP_barrel_dungeon_01 (10)","mesh":5,"translation":[0.9122267,41.64203,18.8989162]},{"name":"P_PROP_barrel_dungeon_01 (11)","mesh":5,"translation":[1.27999973,41.64203,19.9]},{"name":"P_PROP_barrel_dungeon_01 (12)","mesh":5,"translation":[1.64000034,41.64203,19.2699986]},{"name":"P_PROP_box_dungeon_04 (6)","mesh":7,"translation":[2.661417,41.64,20.9629459]},{"name":"P_PROP_box_dungeon_04 (7)","mesh":7,"translation":[3.79400015,41.64,21.356]},{"name":"P_PROP_barrel_dungeon_01 (13)","mesh":5,"translation":[-0.549811363,36.3020248,16.79424]},{"name":"P_PROP_barrel_dungeon_01 (14)","mesh":5,"translation":[-0.75,36.3020248,16.03]},{"name":"P_PROP_box_dungeon_07 (3)","mesh":9,"translation":[-2.408143,36.30751,10.1103458]},{"name":"P_PROP_box_dungeon_07 (4)","mesh":9,"translation":[-2.09725761,36.30751,11.5923862],"rotation":[0,-0.250966549,0,0.967995763]},{"name":"P_PROP_box_dungeon_07 (5)","mesh":9,"translation":[-2.7255125,36.30751,8.476862],"rotation":[0,0.197391868,0,0.9803247]},{"name":"P_PROP_box_dungeon_04 (8)","mesh":7,"translation":[-2.12135983,35.1367874,3.63542366]},{"name":"P_PROP_box_dungeon_04 (9)","mesh":7,"translation":[-1.50120831,35.1367874,2.58306885],"rotation":[0,-0.220691636,0,0.9753437]},{"name":"P_PROP_box_dungeon_04 (10)","mesh":7,"translation":[-1.77000046,36.0217857,3.17],"rotation":[0,-0.220691636,0,0.9753437]},{"name":"P_PROP_barrel_dungeon_04 (2)","mesh":6,"translation":[0.673707,35.1388168,-1.52894592],"rotation":[0,0.219287872,0,0.975660264]},{"name":"P_PROP_barrel_dungeon_04 (3)","mesh":6,"translation":[0.312972069,35.1388168,-0.3277912],"rotation":[0,0.803038538,0,0.595927238]},{"name":"P_PROP_barrel_dungeon_03 (6)","mesh":4,"translation":[3.68967247,31.86713,21.6761761]},{"name":"P_PROP_barrel_dungeon_03 (7)","mesh":4,"translation":[0.720000267,31.86713,17.37],"rotation":[0,-0.619693935,0,0.7848436]},{"name":"P_PROP_box_dungeon_04 (11)","mesh":7,"translation":[2.74449539,31.84679,20.9352512]},{"name":"P_PROP_box_dungeon_04 (12)","mesh":7,"translation":[1.72000027,31.84679,19.62]},{"name":"P_PROP_box_dungeon_04 (13)","mesh":7,"translation":[3,31.84679,19.78]},{"name":"SM_PROP_coffin_dungeon_lid","mesh":11,"translation":[0,0.458967239,0]},{"name":"P_PROP_coffin_dungeon","children":[90],"mesh":12,"translation":[-2.474226,27.7799988,6.65469933],"rotation":[0,0.225633428,0,0.9742123]},{"name":"SM_PROP_coffin_dungeon_lid","mesh":11,"translation":[0,0.458967239,0]},{"name":"P_PROP_coffin_dungeon (3)","children":[92],"mesh":12,"translation":[-2.37,27.7799988,8.839998],"rotation":[0,0.225633428,0,0.9742123]},{"name":"SM_PROP_coffin_dungeon_lid","mesh":11,"translation":[0,0.458967239,0]},{"name":"P_PROP_coffin_dungeon (1)","children":[94],"mesh":12,"translation":[-2.21,27.7799988,4.8599987],"rotation":[0,0.225633428,0,0.9742123]},{"name":"SM_PROP_coffin_dungeon_lid","mesh":11,"translation":[0,0.458967239,0]},{"name":"P_PROP_coffin_dungeon (2)","children":[96],"mesh":12,"translation":[-2.30000019,28.3917847,5.69000053],"rotation":[0,0.225633428,0,0.9742123]},{"name":"P_PROP_barrel_dungeon_01 (15)","mesh":5,"translation":[0.164607048,17.0920334,17.26924]},{"name":"P_PROP_barrel_dungeon_02","mesh":13,"translation":[0.454010963,17.092041,18.2016811]},{"name":"P_PROP_barrel_dungeon_01 (16)","mesh":5,"translation":[1.01225567,17.0920334,18.0158939]},{"name":"P_PROP_barrel_dungeon_04 (4)","mesh":6,"translation":[4.454156,17.0920334,21.7501736]},{"name":"P_PROP_barrel_dungeon_04 (5)","mesh":6,"translation":[3.5,17.0920334,20.9299984]},{"name":"P_PROP_barrel_dungeon_04 (6)","mesh":6,"translation":[3.5,17.0920334,20.9299984]},{"name":"P_PROP_box_dungeon_04 (14)","mesh":7,"translation":[5.13071156,19.2699966,-4.03411865]},{"name":"P_PROP_box_dungeon_04 (15)","mesh":7,"translation":[3.86000013,19.2699966,-3.75]},{"name":"P_PROP_box_dungeon_04 (16)","mesh":7,"translation":[3.27,19.2699966,-2.72000122]},{"name":"P_PROP_box_dungeon_04 (17)","mesh":7,"translation":[2.12,19.2699966,-2.80000114]},{"name":"P_PROP_box_dungeon_07 (6)","mesh":9,"translation":[-1.50561714,10.87429,13.2602863],"rotation":[0,-0.707105756,0,0.707107842]},{"name":"P_PROP_box_dungeon_07 (7)","mesh":9,"translation":[-1.81999969,10.87429,12.1399975],"rotation":[0,-0.707105756,0,0.707107842]},{"name":"P_PROP_box_dungeon_07 (8)","mesh":9,"translation":[-2.09000015,10.87429,11.08],"rotation":[0,-0.707105756,0,0.707107842]},{"name":"P_PROP_barrel_dungeon_04 (7)","mesh":6,"translation":[-2.52000046,10.8688049,9.069998],"rotation":[0,-0.331988782,0,0.943283439]},{"name":"P_PROP_barrel_dungeon_04 (8)","mesh":6,"translation":[-2.54,10.8688049,8.069998],"rotation":[0,-0.331988782,0,0.943283439]},{"name":"P_PROP_barrel_dungeon_04 (9)","mesh":6,"translation":[-2.59000015,10.8688049,6.99],"rotation":[0,-0.331988782,0,0.943283439]},{"name":"SM_PROP_coffin_dungeon_lid","mesh":11,"translation":[0,0.458967239,0]},{"name":"P_PROP_coffin_dungeon (4)","children":[114],"mesh":12,"translation":[3.849875,2.96999359,21.21551]},{"name":"SM_PROP_coffin_dungeon_lid","mesh":11,"translation":[0,0.458967239,0]},{"name":"P_PROP_coffin_dungeon (5)","children":[116],"mesh":12,"translation":[2.76000023,2.96999359,20.460001]},{"name":"P_PROP_box_dungeon_04 (18)","mesh":7,"translation":[1.42343235,2.969986,19.4230785]},{"name":"P_PROP_box_dungeon_04 (19)","mesh":7,"translation":[1.35999966,2.969986,18.2999973]},{"name":"P_PROP_barrel_dungeon_01 (17)","mesh":5,"translation":[0.2131424,2.97201538,17.72093]},{"name":"P_PROP_barrel_dungeon_01 (18)","mesh":5,"translation":[0.170000076,2.97201538,16.97]},{"name":"P_PROP_barrel_dungeon_03 (8)","mesh":4,"translation":[-2.86858654,0.0203399658,4.99958229],"rotation":[0,0.4805623,0,0.876960635]},{"name":"P_PROP_barrel_dungeon_03 (9)","mesh":4,"translation":[-1.26000023,0.0203399658,2.1799984],"rotation":[0,0.4805623,0,0.876960635]},{"name":"P_PROP_barrel_dungeon_04 (10)","mesh":6,"translation":[1.01183891,0.002029419,-1.89001274]},{"name":"P_PROP_barrel_dungeon_04 (11)","mesh":6,"translation":[0.6899996,0.002029419,-1.15000153]},{"name":"P_PROP_box_dungeon_04 (20)","mesh":7},{"name":"DecorationObjects","children":[38,39,40,41,42,43,44,45,46,47,48,49,50,51,52,53,54,55,56,57,58,59,60,61,62,63,64,65,66,67,68,69,70,71,72,73,74,75,76,77,78,79,80,81,82,83,84,85,86,87,88,89,91,93,95,97,98,99,100,101,102,103,104,105,106,107,108,109,110,111,112,113,115,117,118,119,120,121,122,123,124,125,126],"translation":[2.68999958,-47.995,-2.58]},{"name":"WallElevatorDecorations","children":[37,127],"translation":[-13.48,-46.7267876,31.95]}],"buffers":[{"uri":"WallElevatorDecorations.bin","byteLength":382588}],"bufferViews":[{"buffer":0,"byteLength":1320,"target":34963},{"buffer":0,"byteLength":1428,"byteOffset":1320,"target":34963},{"buffer":0,"byteLength":3120,"byteOffset":2748,"target":34963},{"buffer":0,"byteLength":1896,"byteOffset":5868,"target":34963},{"buffer":0,"byteLength":2544,"byteOffset":7764,"target":34963},{"buffer":0,"byteLength":7140,"byteOffset":10308,"target":34963},{"buffer":0,"byteLength":4284,"byteOffset":17448,"target":34963},{"buffer":0,"byteLength":1392,"byteOffset":21732,"target":34963},{"buffer":0,"byteLength":1392,"byteOffset":23124,"target":34963},{"buffer":0,"byteLength":768,"byteOffset":24516,"target":34963},{"buffer":0,"byteLength":864,"byteOffset":25284,"target":34963},{"buffer":0,"byteLength":840,"byteOffset":26148,"target":34963},{"buffer":0,"byteLength":504,"byteOffset":26988,"target":34963},{"buffer":0,"byteLength":1680,"byteOffset":27492,"target":34963},{"buffer":0,"byteLength":14224,"byteOffset":29172,"byteStride":56,"target":34962},{"buffer":0,"byteLength":17360,"byteOffset":43396,"byteStride":56,"target":34962},{"buffer":0,"byteLength":17360,"byteOffset":60756,"byteStride":56,"target":34962},{"buffer":0,"byteLength":6720,"byteOffset":78116,"byteStride":56,"target":34962},{"buffer":0,"byteLength":19712,"byteOffset":84836,"byteStride":56,"target":34962},{"buffer":0,"byteLength":49280,"byteOffset":104548,"byteStride":56,"target":34962},{"buffer":0,"byteLength":30464,"byteOffset":153828,"byteStride":56,"target":34962},{"buffer":0,"byteLength":38528,"byteOffset":184292,"byteStride":56,"target":34962},{"buffer":0,"byteLength":71232,"byteOffset":222820,"byteStride":56,"target":34962},{"buffer":0,"byteLength":42672,"byteOffset":294052,"byteStride":56,"target":34962},{"buffer":0,"byteLength":9408,"byteOffset":336724,"byteStride":56,"target":34962},{"buffer":0,"byteLength":11872,"byteOffset":346132,"byteStride":56,"target":34962},{"buffer":0,"byteLength":8736,"byteOffset":358004,"byteStride":56,"target":34962},{"buffer":0,"byteLength":15848,"byteOffset":366740,"byteStride":56,"target":34962}],"accessors":[{"bufferView":19,"componentType":5126,"count":880,"type":"VEC3","max":[1.42612839,0.0831362,4.124894],"min":[-1.42459011,-1.36161721,-4.135333]},{"bufferView":19,"componentType":5126,"count":880,"type":"VEC3","byteOffset":12},{"bufferView":19,"componentType":5126,"count":880,"type":"VEC4","byteOffset":24},{"bufferView":19,"componentType":5126,"count":880,"type":"VEC2","byteOffset":40},{"bufferView":19,"componentType":5126,"count":880,"type":"VEC2","byteOffset":48},{"bufferView":2,"componentType":5123,"count":1560,"type":"SCALAR"},{"bufferView":20,"componentType":5126,"count":544,"type":"VEC3","max":[1.36288249,0.111189842,2.14088631],"min":[-1.49283516,-1.49984586,-2.14376354]},{"bufferView":20,"componentType":5126,"count":544,"type":"VEC3","byteOffset":12},{"bufferView":20,"componentType":5126,"count":544,"type":"VEC4","byteOffset":24},{"bufferView":20,"componentType":5126,"count":544,"type":"VEC2","byteOffset":40},{"bufferView":20,"componentType":5126,"count":544,"type":"VEC2","byteOffset":48},{"bufferView":3,"componentType":5123,"count":948,"type":"SCALAR"},{"bufferView":21,"componentType":5126,"count":688,"type":"VEC3","max":[1.42688274,0.08313623,3.944015],"min":[-1.42459011,-0.416845083,-4.06429434]},{"bufferView":21,"componentType":5126,"count":688,"type":"VEC3","byteOffset":12},{"bufferView":21,"componentType":5126,"count":688,"type":"VEC4","byteOffset":24},{"bufferView":21,"componentType":5126,"count":688,"type":"VEC2","byteOffset":40},{"bufferView":21,"componentType":5126,"count":688,"type":"VEC2","byteOffset":48},{"bufferView":4,"componentType":5123,"count":1272,"type":"SCALAR"},{"bufferView":18,"componentType":5126,"count":352,"type":"VEC3","max":[1.33558154,0.111189783,2.02738333],"min":[-1.42057967,-0.339975685,-2.02608013]},{"bufferView":18,"componentType":5126,"count":352,"type":"VEC3","byteOffset":12},{"bufferView":18,"componentType":5126,"count":352,"type":"VEC4","byteOffset":24},{"bufferView":18,"componentType":5126,"count":352,"type":"VEC2","byteOffset":40},{"bufferView":18,"componentType":5126,"count":352,"type":"VEC2","byteOffset":48},{"bufferView":0,"componentType":5123,"count":660,"type":"SCALAR"},{"bufferView":22,"componentType":5126,"count":1272,"type":"VEC3","max":[1.64467847,1.26473832,0.4271654],"min":[-0.3882934,-0.0203382969,-0.422248185]},{"bufferView":22,"componentType":5126,"count":1272,"type":"VEC3","byteOffset":12},{"bufferView":22,"componentType":5126,"count":1272,"type":"VEC4","byteOffset":24},{"bufferView":22,"componentType":5126,"count":1272,"type":"VEC2","byteOffset":40},{"bufferView":22,"componentType":5126,"count":1272,"type":"VEC2","byteOffset":48},{"bufferView":5,"componentType":5123,"count":3570,"type":"SCALAR"},{"bufferView":14,"componentType":5126,"count":254,"type":"VEC3","max":[0.371567547,0.846246958,0.348267734],"min":[-0.3561669,-0.00202780962,-0.4007427]},{"bufferView":14,"componentType":5126,"count":254,"type":"VEC3","byteOffset":12},{"bufferView":14,"componentType":5126,"count":254,"type":"VEC4","byteOffset":24},{"bufferView":14,"componentType":5126,"count":254,"type":"VEC2","byteOffset":40},{"bufferView":14,"componentType":5126,"count":254,"type":"VEC2","byteOffset":48},{"bufferView":1,"componentType":5123,"count":714,"type":"SCALAR"},{"bufferView":23,"componentType":5126,"count":762,"type":"VEC3","max":[0.743629,1.68888116,0.3755644],"min":[-0.71629715,-0.00202786922,-0.4007427]},{"bufferView":23,"componentType":5126,"count":762,"type":"VEC3","byteOffset":12},{"bufferView":23,"componentType":5126,"count":762,"type":"VEC4","byteOffset":24},{"bufferView":23,"componentType":5126,"count":762,"type":"VEC2","byteOffset":40},{"bufferView":23,"componentType":5126,"count":762,"type":"VEC2","byteOffset":48},{"bufferView":6,"componentType":5123,"count":2142,"type":"SCALAR"},{"bufferView":15,"componentType":5126,"count":310,"type":"VEC3","max":[0.476989925,0.9504398,0.477270544],"min":[-0.491776168,0,-0.479535162]},{"bufferView":15,"componentType":5126,"count":310,"type":"VEC3","byteOffset":12},{"bufferView":15,"componentType":5126,"count":310,"type":"VEC4","byteOffset":24},{"bufferView":15,"componentType":5126,"count":310,"type":"VEC2","byteOffset":40},{"bufferView":15,"componentType":5126,"count":310,"type":"VEC2","byteOffset":48},{"bufferView":7,"componentType":5123,"count":696,"type":"SCALAR"},{"bufferView":16,"componentType":5126,"count":310,"type":"VEC3","max":[0.476989925,0.9504398,0.477270544],"min":[-0.491776168,0,-0.479535162]},{"bufferView":16,"componentType":5126,"count":310,"type":"VEC3","byteOffset":12},{"bufferView":16,"componentType":5126,"count":310,"type":"VEC4","byteOffset":24},{"bufferView":16,"componentType":5126,"count":310,"type":"VEC2","byteOffset":40},{"bufferView":16,"componentType":5126,"count":310,"type":"VEC2","byteOffset":48},{"bufferView":8,"componentType":5123,"count":696,"type":"SCALAR"},{"bufferView":24,"componentType":5126,"count":168,"type":"VEC3","max":[0.418952823,0.6219035,0.6315415],"min":[-0.42536962,-0.00751590729,-0.618572235]},{"bufferView":24,"componentType":5126,"count":168,"type":"VEC3","byteOffset":12},{"bufferView":24,"componentType":5126,"count":168,"type":"VEC4","byteOffset":24},{"bufferView":24,"componentType":5126,"count":168,"type":"VEC2","byteOffset":40},{"bufferView":24,"componentType":5126,"count":168,"type":"VEC2","byteOffset":48},{"bufferView":9,"componentType":5123,"count":384,"type":"SCALAR"},{"bufferView":17,"componentType":5126,"count":120,"type":"VEC3","max":[0.25713107,0.412687331,0.218519524],"min":[-0.241110772,-8.940697E-08,-0.225163355]},{"bufferView":17,"componentType":5126,"count":120,"type":"VEC3","byteOffset":12},{"bufferView":17,"componentType":5126,"count":120,"type":"VEC4","byteOffset":24},{"bufferView":17,"componentType":5126,"count":120,"type":"VEC2","byteOffset":40},{"bufferView":17,"componentType":5126,"count":120,"type":"VEC2","byteOffset":48},{"bufferView":10,"componentType":5123,"count":432,"type":"SCALAR"},{"bufferView":25,"componentType":5126,"count":212,"type":"VEC3","max":[0.5322801,0.109961711,1.09917557],"min":[-0.5322803,-0.0442364439,-1.14167869]},{"bufferView":25,"componentType":5126,"count":212,"type":"VEC3","byteOffset":12},{"bufferView":25,"componentType":5126,"count":212,"type":"VEC4","byteOffset":24},{"bufferView":25,"componentType":5126,"count":212,"type":"VEC2","byteOffset":40},{"bufferView":25,"componentType":5126,"count":212,"type":"VEC2","byteOffset":48},{"bufferView":11,"componentType":5123,"count":420,"type":"SCALAR"},{"bufferView":26,"componentType":5126,"count":156,"type":"VEC3","max":[0.524761438,0.4180372,1.05666411],"min":[-0.5140524,0,-1.08701646]},{"bufferView":26,"componentType":5126,"count":156,"type":"VEC3","byteOffset":12},{"bufferView":26,"componentType":5126,"count":156,"type":"VEC4","byteOffset":24},{"bufferView":26,"componentType":5126,"count":156,"type":"VEC2","byteOffset":40},{"bufferView":26,"componentType":5126,"count":156,"type":"VEC2","byteOffset":48},{"bufferView":12,"componentType":5123,"count":252,"type":"SCALAR"},{"bufferView":27,"componentType":5126,"count":283,"type":"VEC3","max":[0.371567547,0.846246958,0.348267734],"min":[-0.3561669,-0.00202780962,-0.4007427]},{"bufferView":27,"componentType":5126,"count":283,"type":"VEC3","byteOffset":12},{"bufferView":27,"componentType":5126,"count":283,"type":"VEC4","byteOffset":24},{"bufferView":27,"componentType":5126,"count":283,"type":"VEC2","byteOffset":40},{"bufferView":27,"componentType":5126,"count":283,"type":"VEC2","byteOffset":48},{"bufferView":13,"componentType":5123,"count":840,"type":"SCALAR"}],"images":[{"name":"T_wood_planks_dungeon_01_N.png","uri":"T_wood_planks_dungeon_01_N.png","mimeType":"image/png"},{"name":"T_wood_planks_dungeon_01_BC.jpg","uri":"T_wood_planks_dungeon_01_BC.jpg","mimeType":"image/jpeg"},{"name":"T_wood_planks_dungeon_01_MTSM.jpg","uri":"T_wood_planks_dungeon_01_MTSM.jpg","mimeType":"image/jpeg"},{"name":"T_wood_planks_dungeon_03_N.png","uri":"T_wood_planks_dungeon_03_N.png","mimeType":"image/png"},{"name":"T_wood_planks_dungeon_03_BC.jpg","uri":"T_wood_planks_dungeon_03_BC.jpg","mimeType":"image/jpeg"},{"name":"T_wood_planks_dungeon_03_MTSM_nometal.jpg","uri":"T_wood_planks_dungeon_03_MTSM_nometal.jpg","mimeType":"image/jpeg"},{"name":"T_wood_planks_dungeon_02_N.png","uri":"T_wood_planks_dungeon_02_N.png","mimeType":"image/png"},{"name":"T_wood_planks_dungeon_02_BC.jpg","uri":"T_wood_planks_dungeon_02_BC.jpg","mimeType":"image/jpeg"},{"name":"T_wood_planks_dungeon_02_MTSM_nometal.jpg","uri":"T_wood_planks_dungeon_02_MTSM_nometal.jpg","mimeType":"image/jpeg"},{"name":"NormalBasic.png","uri":"NormalBasic.png","mimeType":"image/png"},{"name":"T_PROP_sack_dungeon_BC.jpg","uri":"T_PROP_sack_dungeon_BC.jpg","mimeType":"image/jpeg"}],"materials":[{"name":"M_wood_planks_dungeon_01","pbrMetallicRoughness":{"roughnessFactor":0,"baseColorTexture":{"index":1},"metallicRoughnessTexture":{"index":2}},"normalTexture":{"index":0}},{"name":"M_wood_planks_dungeon_03","pbrMetallicRoughness":{"roughnessFactor":0,"baseColorTexture":{"index":4},"metallicRoughnessTexture":{"index":5}},"normalTexture":{"index":3}},{"name":"M_wood_planks_dungeon_02","pbrMetallicRoughness":{"roughnessFactor":0,"baseColorTexture":{"index":7},"metallicRoughnessTexture":{"index":8}},"normalTexture":{"index":6}},{"name":"M_PROP_sack_dungeon","pbrMetallicRoughness":{"metallicFactor":0,"baseColorTexture":{"index":10}},"normalTexture":{"index":9}}],"meshes":[{"name":"SM_PROP_woodbridge_dungeon_08","primitives":[{"attributes":{"POSITION":0,"NORMAL":1,"TANGENT":2,"TEXCOORD_0":3,"TEXCOORD_1":4},"indices":5,"material":0}]},{"name":"SM_PROP_woodbridge_dungeon_07","primitives":[{"attributes":{"POSITION":6,"NORMAL":7,"TANGENT":8,"TEXCOORD_0":9,"TEXCOORD_1":10},"indices":11,"material":0}]},{"name":"SM_PROP_woodbridge_dungeon_10","primitives":[{"attributes":{"POSITION":12,"NORMAL":13,"TANGENT":14,"TEXCOORD_0":15,"TEXCOORD_1":16},"indices":17,"material":0}]},{"name":"SM_PROP_woodbridge_dungeon_09","primitives":[{"attributes":{"POSITION":18,"NORMAL":19,"TANGENT":20,"TEXCOORD_0":21,"TEXCOORD_1":22},"indices":23,"material":0}]},{"name":"SM_PROP_barrel_dungeon_03","primitives":[{"attributes":{"POSITION":24,"NORMAL":25,"TANGENT":26,"TEXCOORD_0":27,"TEXCOORD_1":28},"indices":29,"material":1}]},{"name":"SM_PROP_barrel_dungeon_01","primitives":[{"attributes":{"POSITION":30,"NORMAL":31,"TANGENT":32,"TEXCOORD_0":33,"TEXCOORD_1":34},"indices":35,"material":1}]},{"name":"SM_PROP_barrel_dungeon_04","primitives":[{"attributes":{"POSITION":36,"NORMAL":37,"TANGENT":38,"TEXCOORD_0":39,"TEXCOORD_1":40},"indices":41,"material":1}]},{"name":"SM_PROP_box_dungeon_04","primitives":[{"attributes":{"POSITION":42,"NORMAL":43,"TANGENT":44,"TEXCOORD_0":45,"TEXCOORD_1":46},"indices":47,"material":2}]},{"name":"SM_PROP_box_dungeon_02","primitives":[{"attributes":{"POSITION":48,"NORMAL":49,"TANGENT":50,"TEXCOORD_0":51,"TEXCOORD_1":52},"indices":53,"material":0}]},{"name":"SM_PROP_box_dungeon_07","primitives":[{"attributes":{"POSITION":54,"NORMAL":55,"TANGENT":56,"TEXCOORD_0":57,"TEXCOORD_1":58},"indices":59,"material":0}]},{"name":"SM_PROP_sack_dungeon_04","primitives":[{"attributes":{"POSITION":60,"NORMAL":61,"TANGENT":62,"TEXCOORD_0":63,"TEXCOORD_1":64},"indices":65,"material":3}]},{"name":"SM_PROP_coffin_dungeon_lid","primitives":[{"attributes":{"POSITION":66,"NORMAL":67,"TANGENT":68,"TEXCOORD_0":69,"TEXCOORD_1":70},"indices":71,"material":0}]},{"name":"SM_PROP_coffin_dungeon","primitives":[{"attributes":{"POSITION":72,"NORMAL":73,"TANGENT":74,"TEXCOORD_0":75,"TEXCOORD_1":76},"indices":77,"material":0}]},{"name":"SM_PROP_barrel_dungeon_02","primitives":[{"attributes":{"POSITION":78,"NORMAL":79,"TANGENT":80,"TEXCOORD_0":81,"TEXCOORD_1":82},"indices":83,"material":1}]}],"scene":0,"scenes":[{"name":"WallElevatorDecorations","nodes":[128]}],"textures":[{"source":0},{"source":1},{"source":2},{"source":3},{"source":4},{"source":5},{"source":6},{"source":7},{"source":8},{"source":9},{"source":10}]}