{"asset":{"version":"2.0","generator":"Unity 6000.2.9f1 glTFast 6.15.1"},"nodes":[{"name":"Normal","mesh":0,"translation":[0,-1.026,0]},{"name":"Spectral","mesh":2,"translation":[0,-1.047,0]},{"name":"SpikeTrap","children":[0,1],"mesh":1,"translation":[-24.8042126,-20.3618641,68.06285]}],"buffers":[{"uri":"SpikeTrap.bin","byteLength":78592}],"bufferViews":[{"buffer":0,"byteLength":4104,"target":34963},{"buffer":0,"byteLength":8016,"byteOffset":4104,"target":34963},{"buffer":0,"byteLength":16920,"byteOffset":12120,"byteStride":40,"target":34962},{"buffer":0,"byteLength":6768,"byteOffset":29040,"byteStride":16,"target":34962},{"buffer":0,"byteLength":30560,"byteOffset":35808,"byteStride":40,"target":34962},{"buffer":0,"byteLength":12224,"byteOffset":66368,"byteStride":16,"target":34962}],"accessors":[{"bufferView":2,"componentType":5126,"count":423,"type":"VEC3","max":[0.640078,1.23168039,0.5782746],"min":[-0.652165949,-0.0115970373,-0.6251377]},{"bufferView":2,"componentType":5126,"count":423,"type":"VEC3","byteOffset":12},{"bufferView":2,"componentType":5126,"count":423,"type":"VEC4","byteOffset":24},{"bufferView":3,"componentType":5126,"count":423,"type":"VEC2"},{"bufferView":3,"componentType":5126,"count":423,"type":"VEC2","byteOffset":8},{"bufferView":0,"componentType":5125,"count":1026,"type":"SCALAR"},{"bufferView":4,"componentType":5126,"count":764,"type":"VEC3","max":[1.00101852,0.173487723,1.00473642],"min":[-1.0026834,-0.006744981,-1.00262642]},{"bufferView":4,"componentType":5126,"count":764,"type":"VEC3","byteOffset":12},{"bufferView":4,"componentType":5126,"count":764,"type":"VEC4","byteOffset":24},{"bufferView":5,"componentType":5126,"count":764,"type":"VEC2"},{"bufferView":5,"componentType":5126,"count":764,"type":"VEC2","byteOffset":8},{"bufferView":1,"componentType":5125,"count":2004,"type":"SCALAR"}],"images":[{"name":"T_metal_dungeon_N.png","uri":"T_metal_dungeon_N.png","mimeType":"image/png"},{"name":"T_metal_dungeon_01_BC.jpg","uri":"T_metal_dungeon_01_BC.jpg","mimeType":"image/jpeg"},{"name":"T_metal_dungeon_MTSM_nometal.jpg","uri":"T_metal_dungeon_MTSM_nometal.jpg","mimeType":"image/jpeg"},{"name":"download.png","uri":"download.png","mimeType":"image/png"}],"materials":[{"name":"M_metal_dungeon_01","pbrMetallicRoughness":{"roughnessFactor":0,"baseColorTexture":{"index":1},"metallicRoughnessTexture":{"index":2}},"normalTexture":{"index":0}},{"name":"EspectralPath 1","pbrMetallicRoughness":{"baseColorFactor":[1,0.285472244,1,1],"metallicFactor":0.631,"roughnessFactor":0.581},"normalTexture":{"index":3}}],"meshes":[{"name":"SM_PROP_trap_floor_spikes_dungeon_05","primitives":[{"attributes":{"POSITION":0,"NORMAL":1,"TANGENT":2,"TEXCOORD_0":3,"TEXCOORD_1":4},"indices":5,"material":0}]},{"name":"SM_PROP_trap_floor_dungeon_05","primitives":[{"attributes":{"POSITION":6,"NORMAL":7,"TANGENT":8,"TEXCOORD_0":9,"TEXCOORD_1":10},"indices":11,"material":0}]},{"name":"SM_PROP_trap_floor_spikes_dungeon_05","primitives":[{"attributes":{"POSITION":0,"NORMAL":1,"TANGENT":2,"TEXCOORD_0":3,"TEXCOORD_1":4},"indices":5,"material":1}]}],"scene":0,"scenes":[{"name":"SpikeTrap","nodes":[2]}],"textures":[{"source":0},{"source":1},{"source":2},{"source":3}]}