{"asset":{"version":"2.0","generator":"Unity 6000.2.9f1 glTFast 6.15.1"},"nodes":[{"name":"P_MOD_Wall_01_E_straight_med","mesh":0},{"name":"P_MOD_WallCover_01_E_straight (1)","mesh":1,"translation":[0,4,0]},{"name":"COMP_Wall_01_E_straight_med (2)","children":[0,1],"translation":[10.0393591,-4,-5.710428],"rotation":[0,-1,0,0]},{"name":"P_MOD_Wall_01_E_straight_med","mesh":0},{"name":"P_MOD_WallCover_01_E_straight (1)","mesh":1,"translation":[0,4,0]},{"name":"COMP_Wall_01_E_straight_med (74)","children":[3,4],"translation":[18.58,-4,-9.67787],"rotation":[0,-1,0,0]},{"name":"P_MOD_Wall_01_E_straight_med","mesh":0},{"name":"P_MOD_WallCover_01_E_straight (1)","mesh":1,"translation":[0,4,0]},{"name":"COMP_Wall_01_E_straight_med (82)","children":[6,7],"translation":[26.52,-4,-9.67787],"rotation":[0,-1,0,0]},{"name":"P_MOD_Wall_01_E_straight_med","mesh":0},{"name":"P_MOD_WallCover_01_E_straight (1)","mesh":1,"translation":[0,4,0]},{"name":"COMP_Wall_01_E_straight_med (90)","children":[9,10],"translation":[34.41,-4,-9.67787],"rotation":[0,-1,0,0]},{"name":"P_MOD_Wall_01_E_straight_med","mesh":0},{"name":"P_MOD_WallCover_01_E_straight (1)","mesh":1,"translation":[0,4,0]},{"name":"COMP_Wall_01_E_straight_med (98)","children":[12,13],"translation":[34.71,-4,-5.99],"rotation":[0,0.7071068,0,0.7071068]},{"name":"P_MOD_Wall_01_E_straight_med","mesh":0},{"name":"P_MOD_WallCover_01_E_straight (1)","mesh":1,"translation":[0,4,0]},{"name":"COMP_Wall_01_E_straight_med (102)","children":[15,16],"translation":[34.71,-4,-2.02000046],"rotation":[0,0.7071068,0,0.7071068]},{"name":"P_MOD_Wall_01_E_straight_med","mesh":0},{"name":"P_MOD_WallCover_01_E_straight (1)","mesh":1,"translation":[0,4,0]},{"name":"COMP_Wall_01_E_straight_med (106)","children":[18,19],"translation":[34.71,-4,1.94999981],"rotation":[0,0.7071068,0,0.7071068]},{"name":"P_MOD_Wall_01_E_straight_med","mesh":0},{"name":"P_MOD_WallCover_01_E_straight (1)","mesh":1,"translation":[0,4,0]},{"name":"COMP_Wall_01_E_straight_med (110)","children":[21,22],"translation":[34.71,-4,5.91],"rotation":[0,0.7071068,0,0.7071068]},{"name":"P_MOD_Wall_01_E_straight_med","mesh":0},{"name":"P_MOD_WallCover_01_E_straight (1)","mesh":1,"translation":[0,4,0]},{"name":"COMP_Wall_01_E_straight_med (130)","children":[24,25],"translation":[-12.98,-4,18.61],"rotation":[0,0.7071068,0,0.7071068]},{"name":"P_MOD_Wall_01_E_straight_med","mesh":0},{"name":"P_MOD_WallCover_01_E_straight (1)","mesh":1,"translation":[0,4,0]},{"name":"COMP_Wall_01_E_straight_med (142)","children":[27,28],"translation":[-37.4,-2.12,6.4],"rotation":[0,0.7071068,0,0.7071068]},{"name":"P_MOD_Wall_01_E_straight_med","mesh":0},{"name":"P_MOD_WallCover_01_E_straight (1)","mesh":1,"translation":[0,4,0]},{"name":"COMP_Wall_01_E_straight_med (147)","children":[30,31],"translation":[-37.4,-6.05,6.4],"rotation":[0,0.7071068,0,0.7071068]},{"name":"P_MOD_Wall_01_E_straight_med","mesh":0},{"name":"P_MOD_WallCover_01_E_straight (1)","mesh":1,"translation":[0,4,0]},{"name":"COMP_Wall_01_E_straight_med (152)","children":[33,34],"translation":[-37.4,-10.05,6.4],"rotation":[0,0.7071068,0,0.7071068]},{"name":"P_MOD_Wall_01_E_straight_med","mesh":0},{"name":"P_MOD_WallCover_01_E_straight (1)","mesh":1,"translation":[0,4,0]},{"name":"COMP_Wall_01_E_straight_med (145)","children":[36,37],"translation":[-37.4,-2.12,18.32213],"rotation":[0,0.7071068,0,0.7071068]},{"name":"P_MOD_Wall_01_E_straight_med","mesh":0},{"name":"P_MOD_WallCover_01_E_straight (1)","mesh":1,"translation":[0,4,0]},{"name":"COMP_Wall_01_E_straight_med (148)","children":[39,40],"translation":[-37.4,-6.05,18.32213],"rotation":[0,0.7071068,0,0.7071068]},{"name":"P_MOD_Wall_01_E_straight_med","mesh":0},{"name":"P_MOD_WallCover_01_E_straight (1)","mesh":1,"translation":[0,4,0]},{"name":"COMP_Wall_01_E_straight_med (153)","children":[42,43],"translation":[-37.4,-10.05,18.32213],"rotation":[0,0.7071068,0,0.7071068]},{"name":"P_MOD_Wall_01_E_straight_med","mesh":0},{"name":"P_MOD_WallCover_01_E_straight (1)","mesh":1,"translation":[0,4,0]},{"name":"COMP_Wall_01_E_straight_med (143)","children":[45,46],"translation":[-37.4,-2.12,10.32213],"rotation":[0,0.7071068,0,0.7071068]},{"name":"P_MOD_Wall_01_E_straight_med","mesh":0},{"name":"P_MOD_WallCover_01_E_straight (1)","mesh":1,"translation":[0,4,0]},{"name":"COMP_Wall_01_E_straight_med (149)","children":[48,49],"translation":[-37.4,-6.05,10.32213],"rotation":[0,0.7071068,0,0.7071068]},{"name":"P_MOD_Wall_01_E_straight_med","mesh":0},{"name":"P_MOD_WallCover_01_E_straight (1)","mesh":1,"translation":[0,4,0]},{"name":"COMP_Wall_01_E_straight_med (154)","children":[51,52],"translation":[-37.4,-10.05,10.32213],"rotation":[0,0.7071068,0,0.7071068]},{"name":"P_MOD_Wall_01_E_straight_med","mesh":0},{"name":"P_MOD_WallCover_01_E_straight (1)","mesh":1,"translation":[0,4,0]},{"name":"COMP_Wall_01_E_straight_med (146)","children":[54,55],"translation":[-37.4,-2.12,22.24426],"rotation":[0,0.7071068,0,0.7071068]},{"name":"P_MOD_Wall_01_E_straight_med","mesh":0},{"name":"P_MOD_WallCover_01_E_straight (1)","mesh":1,"translation":[0,4,0]},{"name":"COMP_Wall_01_E_straight_med (157)","children":[57,58],"translation":[-53.51,-2.36,26.65787],"rotation":[0,0.7071068,0,0.7071068]},{"name":"P_MOD_Wall_01_E_straight_med","mesh":0},{"name":"P_MOD_WallCover_01_E_straight (1)","mesh":1,"translation":[0,4,0]},{"name":"COMP_Wall_01_E_straight_med (160)","children":[60,61],"translation":[-53.51,-2.36,30.65],"rotation":[0,0.7071068,0,0.7071068]},{"name":"P_MOD_Column_01_base","mesh":2},{"name":"P_MOD_Column_01_large","mesh":3},{"name":"P_MOD_Column_01_capital","mesh":4,"translation":[0,6,0]},{"name":"COMP_Column_01_large","children":[63,64,65],"translation":[-37.13,-4.2,22.64],"rotation":[0,0.7071068,0,0.7071068]},{"name":"P_MOD_Column_01_base","mesh":2},{"name":"P_MOD_Column_01_large","mesh":3},{"name":"P_MOD_Column_01_capital","mesh":4,"translation":[0,6,0]},{"name":"COMP_Column_01_large (2)","children":[67,68,69],"translation":[-53.22,-4.2,30.71],"rotation":[0,0.7071068,0,0.7071068]},{"name":"P_MOD_Column_01_base","mesh":2},{"name":"P_MOD_Column_01_large","mesh":3},{"name":"P_MOD_Column_01_capital","mesh":4,"translation":[0,6,0]},{"name":"COMP_Column_01_large (3)","children":[71,72,73],"translation":[-53.17,-10.05,30.71],"rotation":[0,0.7071068,0,0.7071068]},{"name":"P_MOD_Wall_01_E_straight_med","mesh":0},{"name":"P_MOD_WallCover_01_E_straight (1)","mesh":1,"translation":[0,4,0]},{"name":"COMP_Wall_01_E_straight_med (150)","children":[75,76],"translation":[-37.4,-6.05,22.24426],"rotation":[0,0.7071068,0,0.7071068]},{"name":"P_MOD_Wall_01_E_straight_med","mesh":0},{"name":"P_MOD_WallCover_01_E_straight (1)","mesh":1,"translation":[0,4,0]},{"name":"COMP_Wall_01_E_straight_med (158)","children":[78,79],"translation":[-53.51,-6.29,26.65787],"rotation":[0,0.7071068,0,0.7071068]},{"name":"P_MOD_Wall_01_E_straight_med","mesh":0},{"name":"P_MOD_WallCover_01_E_straight (1)","mesh":1,"translation":[0,4,0]},{"name":"COMP_Wall_01_E_straight_med (161)","children":[81,82],"translation":[-53.51,-6.29,30.65],"rotation":[0,0.7071068,0,0.7071068]},{"name":"P_MOD_Column_01_base","mesh":2},{"name":"P_MOD_Column_01_large","mesh":3},{"name":"P_MOD_Column_01_capital","mesh":4,"translation":[0,6,0]},{"name":"COMP_Column_01_large (1)","children":[84,85,86],"translation":[-37.13,-10,22.6],"rotation":[0,0.7071068,0,0.7071068]},{"name":"P_MOD_Wall_01_E_straight_med","mesh":0},{"name":"P_MOD_WallCover_01_E_straight (1)","mesh":1,"translation":[0,4,0]},{"name":"COMP_Wall_01_E_straight_med (155)","children":[88,89],"translation":[-37.4,-10.05,22.24426],"rotation":[0,0.7071068,0,0.7071068]},{"name":"P_MOD_Wall_01_E_straight_med","mesh":0},{"name":"P_MOD_WallCover_01_E_straight (1)","mesh":1,"translation":[0,4,0]},{"name":"COMP_Wall_01_E_straight_med (159)","children":[91,92],"translation":[-53.51,-10.29,26.65787],"rotation":[0,0.7071068,0,0.7071068]},{"name":"P_MOD_Wall_01_E_straight_med","mesh":0},{"name":"P_MOD_WallCover_01_E_straight (1)","mesh":1,"translation":[0,4,0]},{"name":"COMP_Wall_01_E_straight_med (162)","children":[94,95],"translation":[-53.51,-10.29,30.65],"rotation":[0,0.7071068,0,0.7071068]},{"name":"P_MOD_Wall_01_E_straight_med","mesh":0},{"name":"P_MOD_WallCover_01_E_straight (1)","mesh":1,"translation":[0,4,0]},{"name":"COMP_Wall_01_E_straight_med (144)","children":[97,98],"translation":[-37.4,-2.12,14.32213],"rotation":[0,0.7071068,0,0.7071068]},{"name":"P_MOD_Wall_01_E_straight_med","mesh":0},{"name":"P_MOD_WallCover_01_E_straight (1)","mesh":1,"translation":[0,4,0]},{"name":"COMP_Wall_01_E_straight_med (151)","children":[100,101],"translation":[-37.4,-6.05,14.32213],"rotation":[0,0.7071068,0,0.7071068]},{"name":"P_MOD_Wall_01_E_straight_med","mesh":0},{"name":"P_MOD_WallCover_01_E_straight (1)","mesh":1,"translation":[0,4,0]},{"name":"COMP_Wall_01_E_straight_med (156)","children":[103,104],"translation":[-37.4,-10.05,14.32213],"rotation":[0,0.7071068,0,0.7071068]},{"name":"P_MOD_Wall_01_E_straight_med_half_L","mesh":5},{"name":"P_MOD_WallCover_01_E_straight_half_L (1)","mesh":6,"translation":[0,4,0]},{"name":"COMP_Wall_01_E_straight_med_half_L","children":[106,107],"translation":[-13.21,-4.23,18.84],"rotation":[0,0.7071068,0,0.7071068]},{"name":"P_MOD_Wall_01_E_straight_med_half_L","mesh":5},{"name":"P_MOD_WallCover_01_E_straight_half_L (1)","mesh":6,"translation":[0,4,0]},{"name":"COMP_Wall_01_E_straight_med_half_L (2)","children":[109,110],"translation":[-12.84,-6.877,24.321],"rotation":[0,0.7071068,0,0.7071068]},{"name":"P_MOD_Wall_01_E_straight_med_half_L","mesh":5},{"name":"P_MOD_WallCover_01_E_straight_half_L (1)","mesh":6,"translation":[0,4,0]},{"name":"COMP_Wall_01_E_straight_med_half_L (3)","children":[112,113],"translation":[-12.84,-10.49,24.321],"rotation":[0,0.7071068,0,0.7071068]},{"name":"P_MOD_Wall_01_E_straight_med_half_L","mesh":5},{"name":"P_MOD_WallTrim_01_E_straight_half_L (1)","mesh":7},{"name":"P_MOD_WallCover_01_E_straight_half_L (1)","mesh":6,"translation":[0,4,0]},{"name":"COMP_Wall_01_E_straight_med_half_L (1)","children":[115,116,117],"translation":[-13.21,-8.05,18.84],"rotation":[0,0.7071068,0,0.7071068]},{"name":"P_MOD_Wall_01_E_straight_med","mesh":0},{"name":"P_MOD_WallCover_01_E_straight (1)","mesh":1,"translation":[0,4,0]},{"name":"COMP_Wall_01_E_straight_med (134)","children":[119,120],"translation":[-12.98,-8.05,18.61],"rotation":[0,0.7071068,0,0.7071068]},{"name":"P_MOD_Wall_01_E_straight_med","mesh":0},{"name":"P_MOD_WallCover_01_E_straight (1)","mesh":1,"translation":[0,4,0]},{"name":"COMP_Wall_01_E_straight_med (132)","children":[122,123],"translation":[-12.98,-4,10.646],"rotation":[0,0.7071068,0,0.7071068]},{"name":"P_MOD_Wall_01_E_straight_med","mesh":0},{"name":"P_MOD_WallCover_01_E_straight (1)","mesh":1,"translation":[0,4,0]},{"name":"COMP_Wall_01_E_straight_med (135)","children":[125,126],"translation":[-12.98,-8.05,10.646],"rotation":[0,0.7071068,0,0.7071068]},{"name":"P_MOD_Wall_01_E_straight_med","mesh":0},{"name":"P_MOD_WallCover_01_E_straight (1)","mesh":1,"translation":[0,4,0]},{"name":"COMP_Wall_01_E_straight_med (131)","children":[128,129],"translation":[-12.98,-4,14.639],"rotation":[0,0.7071068,0,0.7071068]},{"name":"P_MOD_Wall_01_E_straight_med","mesh":0},{"name":"P_MOD_WallCover_01_E_straight (1)","mesh":1,"translation":[0,4,0]},{"name":"COMP_Wall_01_E_straight_med (136)","children":[131,132],"translation":[-12.98,-8.05,14.639],"rotation":[0,0.7071068,0,0.7071068]},{"name":"P_MOD_Wall_01_E_straight_med","mesh":0},{"name":"P_MOD_WallCover_01_E_straight (1)","mesh":1,"translation":[0,4,0]},{"name":"COMP_Wall_01_E_straight_med (133)","children":[134,135],"translation":[-12.98,-4,6.674999],"rotation":[0,0.7071068,0,0.7071068]},{"name":"P_MOD_Wall_01_E_straight_med","mesh":0},{"name":"P_MOD_WallCover_01_E_straight (1)","mesh":1,"translation":[0,4,0]},{"name":"COMP_Wall_01_E_straight_med (137)","children":[137,138],"translation":[-12.98,-8.05,6.674999],"rotation":[0,0.7071068,0,0.7071068]},{"name":"P_MOD_Wall_01_E_straight_med","mesh":0},{"name":"P_MOD_WallCover_01_E_straight (1)","mesh":1,"translation":[0,4,0]},{"name":"COMP_Wall_01_E_straight_med (114)","children":[140,141],"translation":[20.98,-4,41.77],"rotation":[0,0.7071068,0,0.7071068]},{"name":"P_MOD_Wall_01_E_straight_med","mesh":0},{"name":"P_MOD_WallCover_01_E_straight (1)","mesh":1,"translation":[0,4,0]},{"name":"COMP_Wall_01_E_straight_med (123)","children":[143,144],"translation":[20.98,-7.75,41.77],"rotation":[0,0.7071068,0,0.7071068]},{"name":"P_MOD_Wall_01_E_straight_med","mesh":0},{"name":"P_MOD_WallCover_01_E_straight (1)","mesh":1,"translation":[0,4,0]},{"name":"COMP_Wall_01_E_straight_med (124)","children":[146,147],"translation":[20.98,-12.08,41.77],"rotation":[0,0.7071068,0,0.7071068]},{"name":"P_MOD_Wall_01_E_straight_med","mesh":0},{"name":"P_MOD_WallCover_01_E_straight (1)","mesh":1,"translation":[0,4,0]},{"name":"COMP_Wall_01_E_straight_med (125)","children":[149,150],"translation":[20.98,-16.16,41.77],"rotation":[0,0.7071068,0,0.7071068]},{"name":"P_MOD_Wall_01_E_straight_med","mesh":0},{"name":"P_MOD_WallCover_01_E_straight (1)","mesh":1,"translation":[0,4,0]},{"name":"COMP_Wall_01_E_straight_med (115)","children":[152,153],"translation":[20.98,-4,37.84],"rotation":[0,1,0,1.4603138E-06]},{"name":"P_MOD_Wall_01_E_straight_med","mesh":0},{"name":"P_MOD_WallCover_01_E_straight (1)","mesh":1,"translation":[0,4,0]},{"name":"COMP_Wall_01_E_straight_med (179)","children":[155,156],"translation":[29.5199986,-4,37.84],"rotation":[0,1,0,1.4603138E-06]},{"name":"P_MOD_Wall_01_E_straight_med","mesh":0},{"name":"P_MOD_WallCover_01_E_straight (1)","mesh":1,"translation":[0,4,0]},{"name":"COMP_Wall_01_E_straight_med (117)","children":[158,159],"translation":[20.98,-7.76,37.84],"rotation":[0,1,0,1.4603138E-06]},{"name":"P_MOD_Wall_01_E_straight_med","mesh":0},{"name":"P_MOD_WallCover_01_E_straight (1)","mesh":1,"translation":[0,4,0]},{"name":"COMP_Wall_01_E_straight_med (180)","children":[161,162],"translation":[29.5199986,-7.76,37.84],"rotation":[0,1,0,1.4603138E-06]},{"name":"P_MOD_Wall_01_E_straight_med","mesh":0},{"name":"P_MOD_WallCover_01_E_straight (1)","mesh":1,"translation":[0,4,0]},{"name":"COMP_Wall_01_E_straight_med (138)","children":[164,165],"translation":[25.53,0.210000038,38.07],"rotation":[0,1,0,1.4603138E-06]},{"name":"P_MOD_Wall_01_E_straight_med","mesh":0},{"name":"P_MOD_WallCover_01_E_straight (1)","mesh":1,"translation":[0,4,0]},{"name":"COMP_Wall_01_E_straight_med (140)","children":[167,168],"translation":[25.44,0.210000038,50.26],"rotation":[0,1,0,1.4603138E-06]},{"name":"P_MOD_Wall_01_E_straight_med","mesh":0},{"name":"P_MOD_WallCover_01_E_straight (1)","mesh":1,"translation":[0,4,0]},{"name":"COMP_Wall_01_E_straight_med (139)","children":[170,171],"translation":[29.5,0.21,38.07],"rotation":[0,1,0,1.4603138E-06]},{"name":"P_MOD_Wall_01_E_straight_med","mesh":0},{"name":"P_MOD_WallCover_01_E_straight (1)","mesh":1,"translation":[0,4,0]},{"name":"COMP_Wall_01_E_straight_med (141)","children":[173,174],"translation":[29.41,0.21,50.2599945],"rotation":[0,1,0,1.4603138E-06]},{"name":"P_MOD_Wall_01_E_straight_med","mesh":0},{"name":"P_MOD_WallCover_01_E_straight (1)","mesh":1,"translation":[0,4,0]},{"name":"COMP_Wall_01_E_straight_med (119)","children":[176,177],"translation":[20.98,-12.05,37.84],"rotation":[0,1,0,1.4603138E-06]},{"name":"P_MOD_Wall_01_E_straight_med","mesh":0},{"name":"P_MOD_WallCover_01_E_straight (1)","mesh":1,"translation":[0,4,0]},{"name":"COMP_Wall_01_E_straight_med (181)","children":[179,180],"translation":[29.5199986,-12.05,37.84],"rotation":[0,1,0,1.4603138E-06]},{"name":"P_MOD_Wall_01_E_straight_med","mesh":0},{"name":"P_MOD_WallCover_01_E_straight (1)","mesh":1,"translation":[0,4,0]},{"name":"COMP_Wall_01_E_straight_med (121)","children":[182,183],"translation":[20.98,-16.1,37.84],"rotation":[0,1,0,1.4603138E-06]},{"name":"P_MOD_Wall_01_E_straight_med","mesh":0},{"name":"P_MOD_WallCover_01_E_straight (1)","mesh":1,"translation":[0,4,0]},{"name":"COMP_Wall_01_E_straight_med (182)","children":[185,186],"translation":[29.5199986,-16.1,37.84],"rotation":[0,1,0,1.4603138E-06]},{"name":"P_MOD_Wall_01_E_straight_med","mesh":0},{"name":"P_MOD_WallCover_01_E_straight (1)","mesh":1,"translation":[0,4,0]},{"name":"COMP_Wall_01_E_straight_med (116)","children":[188,189],"translation":[17.03,-4,37.84],"rotation":[0,1,0,1.4603138E-06]},{"name":"P_MOD_Wall_01_E_straight_med","mesh":0},{"name":"P_MOD_WallCover_01_E_straight (1)","mesh":1,"translation":[0,4,0]},{"name":"COMP_Wall_01_E_straight_med (183)","children":[191,192],"translation":[25.57,-4,37.84],"rotation":[0,1,0,1.4603138E-06]},{"name":"P_MOD_Wall_01_E_straight_med","mesh":0},{"name":"P_MOD_WallCover_01_E_straight (1)","mesh":1,"translation":[0,4,0]},{"name":"COMP_Wall_01_E_straight_med (118)","children":[194,195],"translation":[17.03,-7.76,37.84],"rotation":[0,1,0,1.4603138E-06]},{"name":"P_MOD_Wall_01_E_straight_med","mesh":0},{"name":"P_MOD_WallCover_01_E_straight (1)","mesh":1,"translation":[0,4,0]},{"name":"COMP_Wall_01_E_straight_med (184)","children":[197,198],"translation":[25.57,-7.76,37.84],"rotation":[0,1,0,1.4603138E-06]},{"name":"P_MOD_Wall_01_E_straight_med","mesh":0},{"name":"P_MOD_WallCover_01_E_straight (1)","mesh":1,"translation":[0,4,0]},{"name":"COMP_Wall_01_E_straight_med (120)","children":[200,201],"translation":[17.03,-12.05,37.84],"rotation":[0,1,0,1.4603138E-06]},{"name":"P_MOD_Wall_01_E_straight_med","mesh":0},{"name":"P_MOD_WallCover_01_E_straight (1)","mesh":1,"translation":[0,4,0]},{"name":"COMP_Wall_01_E_straight_med (185)","children":[203,204],"translation":[25.57,-12.05,37.84],"rotation":[0,1,0,1.4603138E-06]},{"name":"P_MOD_Wall_01_E_straight_med","mesh":0},{"name":"P_MOD_WallCover_01_E_straight (1)","mesh":1,"translation":[0,4,0]},{"name":"COMP_Wall_01_E_straight_med (126)","children":[206,207],"translation":[13.11,-11.07,34.04],"rotation":[0,-0.7071068,0,0.7071068]},{"name":"P_MOD_Wall_01_E_straight_med","mesh":0},{"name":"P_MOD_WallCover_01_E_straight (1)","mesh":1,"translation":[0,4,0]},{"name":"COMP_Wall_01_E_straight_med (128)","children":[209,210],"translation":[13.11,-11.07,30.04],"rotation":[0,-0.7071068,0,0.7071068]},{"name":"P_MOD_Wall_01_E_straight_med","mesh":0},{"name":"P_MOD_WallCover_01_E_straight (1)","mesh":1,"translation":[0,4,0]},{"name":"COMP_Wall_01_E_straight_med (043)","children":[212,213],"translation":[13.11,-11.07,26.07],"rotation":[0,-0.7071068,0,0.7071068]},{"name":"P_MOD_Wall_01_E_convex_med","mesh":8},{"name":"P_MOD_WallCover_01_E_convex (1)","mesh":9,"translation":[0,4,0]},{"name":"P_MOD_WallTrim_01_E_convex (1)","mesh":10},{"name":"COMP_Wall_01_E_convex_med","children":[215,216,217],"translation":[16.85,-7.51,27.88],"rotation":[0,-0.9999544,0,0.009548984]},{"name":"P_MOD_Wall_01_E_convex_med","mesh":8},{"name":"P_MOD_WallCover_01_E_convex (1)","mesh":9,"translation":[0,4,0]},{"name":"P_MOD_WallTrim_01_E_convex (1)","mesh":10},{"name":"COMP_Wall_01_E_convex_med (1)","children":[219,220,221],"translation":[16.85,-11.08,27.88],"rotation":[0,-0.9999544,0,0.009548984]},{"name":"P_MOD_Wall_01_E_convex_med","mesh":8},{"name":"P_MOD_WallCover_01_E_convex (1)","mesh":9,"translation":[0,4,0]},{"name":"P_MOD_WallTrim_01_E_convex (1)","mesh":10},{"name":"COMP_Wall_01_E_convex_med (2)","children":[223,224,225],"translation":[16.85,-15.15,27.88],"rotation":[0,-0.9999544,0,0.009548984]},{"name":"P_MOD_Wall_01_E_straight_med","mesh":0},{"name":"P_MOD_WallCover_01_E_straight (1)","mesh":1,"translation":[0,4,0]},{"name":"COMP_Wall_01_E_straight_med (127)","children":[227,228],"translation":[13.11,-15.12,34.04],"rotation":[0,-0.7071068,0,0.7071068]},{"name":"P_MOD_Wall_01_E_straight_med","mesh":0},{"name":"P_MOD_WallCover_01_E_straight (1)","mesh":1,"translation":[0,4,0]},{"name":"COMP_Wall_01_E_straight_med (129)","children":[230,231],"translation":[13.11,-15.12,30.04],"rotation":[0,-0.7071068,0,0.7071068]},{"name":"P_MOD_Wall_01_E_straight_med","mesh":0},{"name":"P_MOD_WallCover_01_E_straight (1)","mesh":1,"translation":[0,4,0]},{"name":"COMP_Wall_01_E_straight_med (044)","children":[233,234],"translation":[13.11,-15.12,26.07],"rotation":[0,-0.7071068,0,0.7071068]},{"name":"P_MOD_Wall_01_E_straight_med","mesh":0},{"name":"P_MOD_WallCover_01_E_straight (1)","mesh":1,"translation":[0,4,0]},{"name":"COMP_Wall_01_E_straight_med (122)","children":[236,237],"translation":[17.03,-16.1,37.84],"rotation":[0,1,0,1.4603138E-06]},{"name":"P_MOD_Wall_01_E_straight_med","mesh":0},{"name":"P_MOD_WallCover_01_E_straight (1)","mesh":1,"translation":[0,4,0]},{"name":"COMP_Wall_01_E_straight_med (186)","children":[239,240],"translation":[25.57,-16.1,37.84],"rotation":[0,1,0,1.4603138E-06]},{"name":"P_MOD_Wall_01_E_straight_med","mesh":0},{"name":"P_MOD_WallCover_01_E_straight (1)","mesh":1,"translation":[0,4,0]},{"name":"COMP_Wall_01_E_straight_med (10)","children":[242,243],"translation":[2.10935974,-4,-5.710428],"rotation":[0,-1,0,0]},{"name":"P_MOD_Wall_01_E_straight_med","mesh":0},{"name":"P_MOD_WallCover_01_E_straight (1)","mesh":1,"translation":[0,4,0]},{"name":"COMP_Wall_01_E_straight_med (18)","children":[245,246],"translation":[-5.790001,-4,-5.710428],"rotation":[0,-1,0,0]},{"name":"P_MOD_Wall_01_E_straight_med","mesh":0},{"name":"P_MOD_WallCover_01_E_straight (1)","mesh":1,"translation":[0,4,0]},{"name":"COMP_Wall_01_E_straight_med (26)","children":[248,249],"translation":[-13.670001,-4,-5.710428],"rotation":[0,-1,0,0]},{"name":"P_MOD_Wall_01_E_straight_med","mesh":0},{"name":"P_MOD_WallCover_01_E_straight (1)","mesh":1,"translation":[0,4,0]},{"name":"COMP_Wall_01_E_straight_med (34)","children":[251,252],"translation":[-21.54,-4,-5.710428],"rotation":[0,-1,0,0]},{"name":"P_MOD_Wall_01_E_straight_med","mesh":0},{"name":"P_MOD_WallCover_01_E_straight (1)","mesh":1,"translation":[0,4,0]},{"name":"COMP_Wall_01_E_straight_med (42)","children":[254,255],"translation":[-29.44,-4,-5.710428],"rotation":[0,-1,0,0]},{"name":"P_MOD_Wall_01_E_straight_med","mesh":0},{"name":"P_MOD_WallCover_01_E_straight (1)","mesh":1,"translation":[0,4,0]},{"name":"COMP_Wall_01_E_straight_med (50)","children":[257,258],"translation":[-41.32,-4,-5.710428],"rotation":[0,-1,0,0]},{"name":"P_MOD_Wall_01_E_straight_med","mesh":0},{"name":"P_MOD_WallCover_01_E_straight (1)","mesh":1,"translation":[0,4,0]},{"name":"COMP_Wall_01_E_straight_med (62)","children":[260,261],"translation":[-53.21,-4,-5.710428],"rotation":[0,-1,0,0]},{"name":"P_MOD_Wall_01_E_straight_med","mesh":0},{"name":"P_MOD_WallCover_01_E_straight (1)","mesh":1,"translation":[0,4,0]},{"name":"COMP_Wall_01_E_straight_med (6)","children":[263,264],"translation":[6.10935974,-4,-5.710428],"rotation":[0,-1,0,0]},{"name":"P_MOD_Wall_01_E_straight_med","mesh":0},{"name":"P_MOD_WallCover_01_E_straight (1)","mesh":1,"translation":[0,4,0]},{"name":"COMP_Wall_01_E_straight_med (75)","children":[266,267],"translation":[14.6500006,-4,-9.67787],"rotation":[0,-1,0,0]},{"name":"P_MOD_Wall_01_E_straight_med","mesh":0},{"name":"P_MOD_WallCover_01_E_straight (1)","mesh":1,"translation":[0,4,0]},{"name":"COMP_Wall_01_E_straight_med (83)","children":[269,270],"translation":[22.53,-4,-9.67787],"rotation":[0,-1,0,0]},{"name":"P_MOD_Wall_01_E_straight_med","mesh":0},{"name":"P_MOD_WallCover_01_E_straight (1)","mesh":1,"translation":[0,4,0]},{"name":"COMP_Wall_01_E_straight_med (91)","children":[272,273],"translation":[30.45,-4,-9.67787],"rotation":[0,-1,0,0]},{"name":"P_MOD_Wall_01_E_straight_med","mesh":0},{"name":"P_MOD_WallCover_01_E_straight (1)","mesh":1,"translation":[0,4,0]},{"name":"COMP_Wall_01_E_straight_med (11)","children":[275,276],"translation":[-1.82063961,-4,-5.710428],"rotation":[0,-1,0,0]},{"name":"P_MOD_Wall_01_E_straight_med","mesh":0},{"name":"P_MOD_WallCover_01_E_straight (1)","mesh":1,"translation":[0,4,0]},{"name":"COMP_Wall_01_E_straight_med (19)","children":[278,279],"translation":[-9.72,-4,-5.710428],"rotation":[0,-1,0,0]},{"name":"P_MOD_Wall_01_E_straight_med","mesh":0},{"name":"P_MOD_WallCover_01_E_straight (1)","mesh":1,"translation":[0,4,0]},{"name":"COMP_Wall_01_E_straight_med (27)","children":[281,282],"translation":[-17.6,-4,-5.710428],"rotation":[0,-1,0,0]},{"name":"P_MOD_Wall_01_E_straight_med","mesh":0},{"name":"P_MOD_WallCover_01_E_straight (1)","mesh":1,"translation":[0,4,0]},{"name":"COMP_Wall_01_E_straight_med (35)","children":[284,285],"translation":[-25.47,-4,-5.710428],"rotation":[0,-1,0,0]},{"name":"P_MOD_Wall_01_E_straight_med","mesh":0},{"name":"P_MOD_WallCover_01_E_straight (1)","mesh":1,"translation":[0,4,0]},{"name":"COMP_Wall_01_E_straight_med (51)","children":[287,288],"translation":[-37.35,-4,-5.710428],"rotation":[0,-1,0,0]},{"name":"P_MOD_Wall_01_E_straight_small","mesh":11},{"name":"P_MOD_WallCover_01_E_straight","mesh":1,"translation":[0,2,0]},{"name":"COMP_Wall_01_E_straight_small","children":[290,291],"translation":[-37.35,-0.12,-5.6],"rotation":[0,-1,0,0]},{"name":"P_MOD_Wall_01_E_straight_small","mesh":11},{"name":"P_MOD_WallCover_01_E_straight","mesh":1,"translation":[0,2,0]},{"name":"COMP_Wall_01_E_straight_small (2)","children":[293,294],"translation":[-45.3,-0.12,-5.6],"rotation":[0,-1,0,0]},{"name":"P_MOD_Wall_01_E_straight_small","mesh":11},{"name":"P_MOD_WallCover_01_E_straight","mesh":1,"translation":[0,2,0]},{"name":"COMP_Wall_01_E_straight_small (4)","children":[296,297],"translation":[-53.2499962,-0.12,-5.6],"rotation":[0,-1,0,0]},{"name":"P_MOD_Wall_01_E_straight_small","mesh":11},{"name":"P_MOD_WallCover_01_E_straight","mesh":1,"translation":[0,2,0]},{"name":"COMP_Wall_01_E_straight_small (1)","children":[299,300],"translation":[-41.31,-0.12,-5.6],"rotation":[0,-1,0,0]},{"name":"P_MOD_Wall_01_E_straight_small","mesh":11},{"name":"P_MOD_WallCover_01_E_straight","mesh":1,"translation":[0,2,0]},{"name":"COMP_Wall_01_E_straight_small (3)","children":[302,303],"translation":[-49.2600021,-0.12,-5.6],"rotation":[0,-1,0,0]},{"name":"P_MOD_Wall_01_E_straight_small","mesh":11},{"name":"P_MOD_WallCover_01_E_straight","mesh":1,"translation":[0,2,0]},{"name":"COMP_Wall_01_E_straight_small (5)","children":[305,306],"translation":[-57.21,-0.12,-5.6],"rotation":[0,-1,0,0]},{"name":"P_MOD_Wall_01_E_straight_med","mesh":0},{"name":"P_MOD_WallCover_01_E_straight (1)","mesh":1,"translation":[0,4,0]},{"name":"COMP_Wall_01_E_straight_med (63)","children":[308,309],"translation":[-49.2399979,-4,-5.710428],"rotation":[0,-1,0,0]},{"name":"P_MOD_Wall_01_E_straight_med","mesh":0},{"name":"P_MOD_WallCover_01_E_straight (1)","mesh":1,"translation":[0,4,0]},{"name":"COMP_Wall_01_E_straight_med (43)","children":[311,312],"translation":[-33.3700027,-4,-5.710428],"rotation":[0,-1,0,0]},{"name":"P_MOD_Wall_01_E_straight_med","mesh":0},{"name":"P_MOD_WallCover_01_E_straight (1)","mesh":1,"translation":[0,4,0]},{"name":"COMP_Wall_01_E_straight_med (52)","children":[314,315],"translation":[-45.25,-4,-5.710428],"rotation":[0,-1,0,0]},{"name":"P_MOD_Wall_01_E_straight_med","mesh":0},{"name":"P_MOD_WallCover_01_E_straight (1)","mesh":1,"translation":[0,4,0]},{"name":"COMP_Wall_01_E_straight_med (64)","children":[317,318],"translation":[-57.14,-4,-5.710428],"rotation":[0,-1,0,0]},{"name":"P_MOD_Wall_01_E_straight_med","mesh":0},{"name":"P_MOD_WallCover_01_E_straight (1)","mesh":1,"translation":[0,4,0]},{"name":"COMP_Wall_01_E_straight_med (163)","children":[320,321],"translation":[-57.6,-2.35,26.88],"rotation":[0,-1,0,0]},{"name":"P_MOD_Wall_01_E_straight_med","mesh":0},{"name":"P_MOD_WallCover_01_E_straight (1)","mesh":1,"translation":[0,4,0]},{"name":"COMP_Wall_01_E_straight_med (167)","children":[323,324],"translation":[-57.6,-6.26,26.88],"rotation":[0,-1,0,0]},{"name":"P_MOD_Wall_01_E_straight_med","mesh":0},{"name":"P_MOD_WallCover_01_E_straight (1)","mesh":1,"translation":[0,4,0]},{"name":"COMP_Wall_01_E_straight_med (171)","children":[326,327],"translation":[-57.6,-9.72,26.88],"rotation":[0,-1,0,0]},{"name":"P_MOD_Wall_01_E_straight_med","mesh":0},{"name":"P_MOD_WallCover_01_E_straight (1)","mesh":1,"translation":[0,4,0]},{"name":"COMP_Wall_01_E_straight_med (164)","children":[329,330],"translation":[-61.51,-2.35,26.88],"rotation":[0,-1,0,0]},{"name":"P_MOD_Wall_01_E_straight_med","mesh":0},{"name":"P_MOD_WallCover_01_E_straight (1)","mesh":1,"translation":[0,4,0]},{"name":"COMP_Wall_01_E_straight_med (168)","children":[332,333],"translation":[-61.51,-6.26,26.88],"rotation":[0,-1,0,0]},{"name":"P_MOD_Wall_01_E_straight_med","mesh":0},{"name":"P_MOD_WallCover_01_E_straight (1)","mesh":1,"translation":[0,4,0]},{"name":"COMP_Wall_01_E_straight_med (172)","children":[335,336],"translation":[-61.51,-9.72,26.88],"rotation":[0,-1,0,0]},{"name":"P_MOD_Wall_01_E_straight_med","mesh":0},{"name":"P_MOD_WallCover_01_E_straight (1)","mesh":1,"translation":[0,4,0]},{"name":"COMP_Wall_01_E_straight_med (165)","children":[338,339],"translation":[-65.52,-2.35,26.88],"rotation":[0,-1,0,0]},{"name":"P_MOD_Wall_01_E_straight_med","mesh":0},{"name":"P_MOD_WallCover_01_E_straight (1)","mesh":1,"translation":[0,4,0]},{"name":"COMP_Wall_01_E_straight_med (169)","children":[341,342],"translation":[-65.52,-6.26,26.88],"rotation":[0,-1,0,0]},{"name":"P_MOD_Wall_01_E_straight_med","mesh":0},{"name":"P_MOD_WallCover_01_E_straight (1)","mesh":1,"translation":[0,4,0]},{"name":"COMP_Wall_01_E_straight_med (173)","children":[344,345],"translation":[-65.52,-9.72,26.88],"rotation":[0,-1,0,0]},{"name":"P_MOD_Wall_01_E_straight_med","mesh":0},{"name":"P_MOD_WallCover_01_E_straight (1)","mesh":1,"translation":[0,4,0]},{"name":"COMP_Wall_01_E_straight_med (166)","children":[347,348],"translation":[-69.46,-2.35,26.88],"rotation":[0,-1,0,0]},{"name":"P_MOD_Wall_01_E_straight_med","mesh":0},{"name":"P_MOD_WallCover_01_E_straight (1)","mesh":1,"translation":[0,4,0]},{"name":"COMP_Wall_01_E_straight_med (170)","children":[350,351],"translation":[-69.46,-6.26,26.88],"rotation":[0,-1,0,0]},{"name":"P_MOD_Wall_01_E_straight_med","mesh":0},{"name":"P_MOD_WallCover_01_E_straight (1)","mesh":1,"translation":[0,4,0]},{"name":"COMP_Wall_01_E_straight_med (174)","children":[353,354],"translation":[-69.46,-9.72,26.88],"rotation":[0,-1,0,0]},{"name":"P_MOD_Wall_01_E_straight_med","mesh":0},{"name":"P_MOD_WallCover_01_E_straight (1)","mesh":1,"translation":[0,4,0]},{"name":"COMP_Wall_01_E_straight_med (3)","children":[356,357],"translation":[10.0393591,-7.84,-5.710428],"rotation":[0,-1,0,0]},{"name":"P_MOD_Wall_01_E_straight_med","mesh":0},{"name":"P_MOD_WallCover_01_E_straight (1)","mesh":1,"translation":[0,4,0]},{"name":"COMP_Wall_01_E_straight_med (76)","children":[359,360],"translation":[18.58,-7.84,-9.67787],"rotation":[0,-1,0,0]},{"name":"P_MOD_Wall_01_E_straight_med","mesh":0},{"name":"P_MOD_WallCover_01_E_straight (1)","mesh":1,"translation":[0,4,0]},{"name":"COMP_Wall_01_E_straight_med (84)","children":[362,363],"translation":[26.52,-7.84,-9.67787],"rotation":[0,-1,0,0]},{"name":"P_MOD_Wall_01_E_straight_med","mesh":0},{"name":"P_MOD_WallCover_01_E_straight (1)","mesh":1,"translation":[0,4,0]},{"name":"COMP_Wall_01_E_straight_med (92)","children":[365,366],"translation":[34.41,-7.84,-9.67787],"rotation":[0,-1,0,0]},{"name":"P_MOD_Wall_01_E_straight_med","mesh":0},{"name":"P_MOD_WallCover_01_E_straight (1)","mesh":1,"translation":[0,4,0]},{"name":"COMP_Wall_01_E_straight_med (99)","children":[368,369],"translation":[34.71,-7.84,-5.99],"rotation":[0,0.7071068,0,0.7071068]},{"name":"P_MOD_Wall_01_E_straight_med","mesh":0},{"name":"P_MOD_WallCover_01_E_straight (1)","mesh":1,"translation":[0,4,0]},{"name":"COMP_Wall_01_E_straight_med (103)","children":[371,372],"translation":[34.71,-7.84,-2.02],"rotation":[0,0.7071068,0,0.7071068]},{"name":"P_MOD_Wall_01_E_straight_med","mesh":0},{"name":"P_MOD_WallCover_01_E_straight (1)","mesh":1,"translation":[0,4,0]},{"name":"COMP_Wall_01_E_straight_med (107)","children":[374,375],"translation":[34.71,-7.84,1.95],"rotation":[0,0.7071068,0,0.7071068]},{"name":"P_MOD_Wall_01_E_straight_med","mesh":0},{"name":"P_MOD_WallCover_01_E_straight (1)","mesh":1,"translation":[0,4,0]},{"name":"COMP_Wall_01_E_straight_med (111)","children":[377,378],"translation":[34.71,-7.84,5.91],"rotation":[0,0.7071068,0,0.7071068]},{"name":"P_MOD_Wall_01_E_straight_med","mesh":0},{"name":"P_MOD_WallCover_01_E_straight (1)","mesh":1,"translation":[0,4,0]},{"name":"COMP_Wall_01_E_straight_med (12)","children":[380,381],"translation":[2.10935974,-7.84,-5.710428],"rotation":[0,-1,0,0]},{"name":"P_MOD_Wall_01_E_straight_med","mesh":0},{"name":"P_MOD_WallCover_01_E_straight (1)","mesh":1,"translation":[0,4,0]},{"name":"COMP_Wall_01_E_straight_med (20)","children":[383,384],"translation":[-5.790001,-7.84,-5.710428],"rotation":[0,-1,0,0]},{"name":"P_MOD_Wall_01_E_straight_med","mesh":0},{"name":"P_MOD_WallCover_01_E_straight (1)","mesh":1,"translation":[0,4,0]},{"name":"COMP_Wall_01_E_straight_med (28)","children":[386,387],"translation":[-41.162056,-36.9400024,53.0466728],"rotation":[0,-1,0,0]},{"name":"P_MOD_Wall_01_E_straight_med","mesh":0},{"name":"P_MOD_WallCover_01_E_straight (1)","mesh":1,"translation":[0,4,0]},{"name":"COMP_Wall_01_E_straight_med (36)","children":[389,390],"translation":[-21.54,-7.84,-5.710428],"rotation":[0,-1,0,0]},{"name":"P_MOD_Wall_01_E_straight_med","mesh":0},{"name":"P_MOD_WallCover_01_E_straight (1)","mesh":1,"translation":[0,4,0]},{"name":"COMP_Wall_01_E_straight_med (44)","children":[392,393],"translation":[-29.4400024,-7.84,-5.710428],"rotation":[0,-1,0,0]},{"name":"P_MOD_Wall_01_E_straight_med","mesh":0},{"name":"P_MOD_WallCover_01_E_straight (1)","mesh":1,"translation":[0,4,0]},{"name":"COMP_Wall_01_E_straight_med (53)","children":[395,396],"translation":[-41.32,-7.84,-5.710428],"rotation":[0,-1,0,0]},{"name":"P_MOD_Wall_01_E_straight_med","mesh":0},{"name":"P_MOD_WallCover_01_E_straight (1)","mesh":1,"translation":[0,4,0]},{"name":"COMP_Wall_01_E_straight_med (65)","children":[398,399],"translation":[-53.21,-7.84,-5.710428],"rotation":[0,-1,0,0]},{"name":"P_MOD_Wall_01_E_straight_med","mesh":0},{"name":"P_MOD_WallCover_01_E_straight (1)","mesh":1,"translation":[0,4,0]},{"name":"COMP_Wall_01_E_straight_med (7)","children":[401,402],"translation":[6.10935974,-7.84,-5.710428],"rotation":[0,-1,0,0]},{"name":"P_MOD_Wall_01_E_straight_med","mesh":0},{"name":"P_MOD_WallCover_01_E_straight (1)","mesh":1,"translation":[0,4,0]},{"name":"COMP_Wall_01_E_straight_med (77)","children":[404,405],"translation":[14.6500006,-7.84,-9.67787],"rotation":[0,-1,0,0]},{"name":"P_MOD_Wall_01_E_straight_med","mesh":0},{"name":"P_MOD_WallCover_01_E_straight (1)","mesh":1,"translation":[0,4,0]},{"name":"COMP_Wall_01_E_straight_med (85)","children":[407,408],"translation":[22.53,-7.84,-9.67787],"rotation":[0,-1,0,0]},{"name":"P_MOD_Wall_01_E_straight_med","mesh":0},{"name":"P_MOD_WallCover_01_E_straight (1)","mesh":1,"translation":[0,4,0]},{"name":"COMP_Wall_01_E_straight_med (93)","children":[410,411],"translation":[30.45,-7.84,-9.67787],"rotation":[0,-1,0,0]},{"name":"P_MOD_Wall_01_E_straight_med","mesh":0},{"name":"P_MOD_WallCover_01_E_straight (1)","mesh":1,"translation":[0,4,0]},{"name":"COMP_Wall_01_E_straight_med (13)","children":[413,414],"translation":[-1.82063961,-7.84,-5.710428],"rotation":[0,-1,0,0]},{"name":"P_MOD_Wall_01_E_straight_med","mesh":0},{"name":"P_MOD_WallCover_01_E_straight (1)","mesh":1,"translation":[0,4,0]},{"name":"COMP_Wall_01_E_straight_med (21)","children":[416,417],"translation":[-9.72,-7.84,-5.710428],"rotation":[0,-1,0,0]},{"name":"P_MOD_Wall_01_E_straight_med","mesh":0},{"name":"P_MOD_WallCover_01_E_straight (1)","mesh":1,"translation":[0,4,0]},{"name":"COMP_Wall_01_E_straight_med (29)","children":[419,420],"translation":[-17.6,-7.84,-5.710428],"rotation":[0,-1,0,0]},{"name":"P_MOD_Wall_01_E_straight_med","mesh":0},{"name":"P_MOD_WallCover_01_E_straight (1)","mesh":1,"translation":[0,4,0]},{"name":"COMP_Wall_01_E_straight_med (175)","children":[422,423],"translation":[-13.68,-7.84,-5.710428],"rotation":[0,-1,0,0]},{"name":"P_MOD_Wall_01_E_straight_med","mesh":0},{"name":"P_MOD_WallCover_01_E_straight (1)","mesh":1,"translation":[0,4,0]},{"name":"COMP_Wall_01_E_straight_med (37)","children":[425,426],"translation":[-25.47,-7.84,-5.710428],"rotation":[0,-1,0,0]},{"name":"P_MOD_Wall_01_E_straight_med","mesh":0},{"name":"P_MOD_WallCover_01_E_straight (1)","mesh":1,"translation":[0,4,0]},{"name":"COMP_Wall_01_E_straight_med (54)","children":[428,429],"translation":[-37.35,-7.84,-5.710428],"rotation":[0,-1,0,0]},{"name":"P_MOD_Wall_01_E_straight_med","mesh":0},{"name":"P_MOD_WallCover_01_E_straight (1)","mesh":1,"translation":[0,4,0]},{"name":"COMP_Wall_01_E_straight_med (66)","children":[431,432],"translation":[-49.2399979,-7.84,-5.710428],"rotation":[0,-1,0,0]},{"name":"P_MOD_Wall_01_E_straight_med","mesh":0},{"name":"P_MOD_WallCover_01_E_straight (1)","mesh":1,"translation":[0,4,0]},{"name":"COMP_Wall_01_E_straight_med (45)","children":[434,435],"translation":[-33.3700027,-7.84,-5.710428],"rotation":[0,-1,0,0]},{"name":"P_MOD_Wall_01_E_straight_med","mesh":0},{"name":"P_MOD_WallCover_01_E_straight (1)","mesh":1,"translation":[0,4,0]},{"name":"COMP_Wall_01_E_straight_med (55)","children":[437,438],"translation":[-45.25,-7.84,-5.710428],"rotation":[0,-1,0,0]},{"name":"P_MOD_Wall_01_E_straight_med","mesh":0},{"name":"P_MOD_WallCover_01_E_straight (1)","mesh":1,"translation":[0,4,0]},{"name":"COMP_Wall_01_E_straight_med (67)","children":[440,441],"translation":[-57.14,-7.84,-5.710428],"rotation":[0,-1,0,0]},{"name":"P_MOD_Wall_01_E_straight_med","mesh":0},{"name":"P_MOD_WallCover_01_E_straight (1)","mesh":1,"translation":[0,4,0]},{"name":"COMP_Wall_01_E_straight_med (4)","children":[443,444],"translation":[10.0393591,-11.65,-5.710428],"rotation":[0,-1,0,0]},{"name":"P_MOD_Wall_01_E_straight_med","mesh":0},{"name":"P_MOD_WallCover_01_E_straight (1)","mesh":1,"translation":[0,4,0]},{"name":"COMP_Wall_01_E_straight_med (78)","children":[446,447],"translation":[18.58,-11.65,-9.67787],"rotation":[0,-1,0,0]},{"name":"P_MOD_Wall_01_E_straight_med","mesh":0},{"name":"P_MOD_WallCover_01_E_straight (1)","mesh":1,"translation":[0,4,0]},{"name":"COMP_Wall_01_E_straight_med (86)","children":[449,450],"translation":[26.52,-11.65,-9.67787],"rotation":[0,-1,0,0]},{"name":"P_MOD_Wall_01_E_straight_med","mesh":0},{"name":"P_MOD_WallCover_01_E_straight (1)","mesh":1,"translation":[0,4,0]},{"name":"COMP_Wall_01_E_straight_med (94)","children":[452,453],"translation":[34.41,-11.65,-9.67787],"rotation":[0,-1,0,0]},{"name":"P_MOD_Wall_01_E_straight_med","mesh":0},{"name":"P_MOD_WallCover_01_E_straight (1)","mesh":1,"translation":[0,4,0]},{"name":"COMP_Wall_01_E_straight_med (100)","children":[455,456],"translation":[34.71,-11.65,-5.99],"rotation":[0,0.7071068,0,0.7071068]},{"name":"P_MOD_Wall_01_E_straight_med","mesh":0},{"name":"P_MOD_WallCover_01_E_straight (1)","mesh":1,"translation":[0,4,0]},{"name":"COMP_Wall_01_E_straight_med (104)","children":[458,459],"translation":[34.71,-11.65,-2.02000046],"rotation":[0,0.7071068,0,0.7071068]},{"name":"P_MOD_Wall_01_E_straight_med","mesh":0},{"name":"P_MOD_WallCover_01_E_straight (1)","mesh":1,"translation":[0,4,0]},{"name":"COMP_Wall_01_E_straight_med (108)","children":[461,462],"translation":[34.71,-11.65,1.94999981],"rotation":[0,0.7071068,0,0.7071068]},{"name":"P_MOD_Wall_01_E_straight_med","mesh":0},{"name":"P_MOD_WallCover_01_E_straight (1)","mesh":1,"translation":[0,4,0]},{"name":"COMP_Wall_01_E_straight_med (112)","children":[464,465],"translation":[34.71,-11.65,5.91],"rotation":[0,0.7071068,0,0.7071068]},{"name":"P_MOD_Wall_01_E_straight_med","mesh":0},{"name":"P_MOD_WallCover_01_E_straight (1)","mesh":1,"translation":[0,4,0]},{"name":"COMP_Wall_01_E_straight_med (14)","children":[467,468],"translation":[2.10935974,-11.65,-5.710428],"rotation":[0,-1,0,0]},{"name":"P_MOD_Wall_01_E_straight_med","mesh":0},{"name":"P_MOD_WallCover_01_E_straight (1)","mesh":1,"translation":[0,4,0]},{"name":"COMP_Wall_01_E_straight_med (22)","children":[470,471],"translation":[-5.790001,-11.65,-5.710428],"rotation":[0,-1,0,0]},{"name":"P_MOD_Wall_01_E_straight_med","mesh":0},{"name":"P_MOD_WallCover_01_E_straight (1)","mesh":1,"translation":[0,4,0]},{"name":"COMP_Wall_01_E_straight_med (30)","children":[473,474],"translation":[-13.670001,-11.65,-5.710428],"rotation":[0,-1,0,0]},{"name":"P_MOD_Wall_01_E_straight_med","mesh":0},{"name":"P_MOD_WallCover_01_E_straight (1)","mesh":1,"translation":[0,4,0]},{"name":"COMP_Wall_01_E_straight_med (38)","children":[476,477],"translation":[-21.54,-11.65,-5.710428],"rotation":[0,-1,0,0]},{"name":"P_MOD_Wall_01_E_straight_med","mesh":0},{"name":"P_MOD_WallCover_01_E_straight (1)","mesh":1,"translation":[0,4,0]},{"name":"COMP_Wall_01_E_straight_med (176)","children":[479,480],"translation":[-17.62,-11.65,-5.710428],"rotation":[0,-1,0,0]},{"name":"P_MOD_Wall_01_E_straight_med","mesh":0},{"name":"P_MOD_WallCover_01_E_straight (1)","mesh":1,"translation":[0,4,0]},{"name":"COMP_Wall_01_E_straight_med (46)","children":[482,483],"translation":[-29.4400024,-11.65,-5.710428],"rotation":[0,-1,0,0]},{"name":"P_MOD_Wall_01_E_straight_med","mesh":0},{"name":"P_MOD_WallCover_01_E_straight (1)","mesh":1,"translation":[0,4,0]},{"name":"COMP_Wall_01_E_straight_med (56)","children":[485,486],"translation":[-41.32,-11.65,-5.710428],"rotation":[0,-1,0,0]},{"name":"P_MOD_Wall_01_E_straight_med","mesh":0},{"name":"P_MOD_WallCover_01_E_straight (1)","mesh":1,"translation":[0,4,0]},{"name":"COMP_Wall_01_E_straight_med (68)","children":[488,489],"translation":[-53.21,-11.65,-5.710428],"rotation":[0,-1,0,0]},{"name":"P_MOD_Wall_01_E_straight_med","mesh":0},{"name":"P_MOD_WallCover_01_E_straight (1)","mesh":1,"translation":[0,4,0]},{"name":"COMP_Wall_01_E_straight_med (8)","children":[491,492],"translation":[6.10935974,-11.65,-5.710428],"rotation":[0,-1,0,0]},{"name":"P_MOD_Wall_01_E_straight_med","mesh":0},{"name":"P_MOD_WallCover_01_E_straight (1)","mesh":1,"translation":[0,4,0]},{"name":"COMP_Wall_01_E_straight_med (79)","children":[494,495],"translation":[14.6500006,-11.65,-9.67787],"rotation":[0,-1,0,0]},{"name":"P_MOD_Wall_01_E_straight_med","mesh":0},{"name":"P_MOD_WallCover_01_E_straight (1)","mesh":1,"translation":[0,4,0]},{"name":"COMP_Wall_01_E_straight_med (87)","children":[497,498],"translation":[22.53,-11.65,-9.67787],"rotation":[0,-1,0,0]},{"name":"P_MOD_Wall_01_E_straight_med","mesh":0},{"name":"P_MOD_WallCover_01_E_straight (1)","mesh":1,"translation":[0,4,0]},{"name":"COMP_Wall_01_E_straight_med (95)","children":[500,501],"translation":[30.45,-11.65,-9.67787],"rotation":[0,-1,0,0]},{"name":"P_MOD_Wall_01_E_straight_med","mesh":0},{"name":"P_MOD_WallCover_01_E_straight (1)","mesh":1,"translation":[0,4,0]},{"name":"COMP_Wall_01_E_straight_med (15)","children":[503,504],"translation":[-1.82063961,-11.65,-5.710428],"rotation":[0,-1,0,0]},{"name":"P_MOD_Wall_01_E_straight_med","mesh":0},{"name":"P_MOD_WallCover_01_E_straight (1)","mesh":1,"translation":[0,4,0]},{"name":"COMP_Wall_01_E_straight_med (23)","children":[506,507],"translation":[-9.72,-11.65,-5.710428],"rotation":[0,-1,0,0]},{"name":"P_MOD_Wall_01_E_straight_med","mesh":0},{"name":"P_MOD_WallCover_01_E_straight (1)","mesh":1,"translation":[0,4,0]},{"name":"COMP_Wall_01_E_straight_med (31)","children":[509,510],"translation":[-45.0920563,-40.75,53.0466728],"rotation":[0,-1,0,0]},{"name":"P_MOD_Wall_01_E_straight_med","mesh":0},{"name":"P_MOD_WallCover_01_E_straight (1)","mesh":1,"translation":[0,4,0]},{"name":"COMP_Wall_01_E_straight_med (39)","children":[512,513],"translation":[-25.47,-11.65,-5.710428],"rotation":[0,-1,0,0]},{"name":"P_MOD_Wall_01_E_straight_med","mesh":0},{"name":"P_MOD_WallCover_01_E_straight (1)","mesh":1,"translation":[0,4,0]},{"name":"COMP_Wall_01_E_straight_med (57)","children":[515,516],"translation":[-37.35,-11.65,-5.710428],"rotation":[0,-1,0,0]},{"name":"P_MOD_Wall_01_E_straight_med","mesh":0},{"name":"P_MOD_WallCover_01_E_straight (1)","mesh":1,"translation":[0,4,0]},{"name":"COMP_Wall_01_E_straight_med (69)","children":[518,519],"translation":[-49.2399979,-11.65,-5.710428],"rotation":[0,-1,0,0]},{"name":"P_MOD_Wall_01_E_straight_med","mesh":0},{"name":"P_MOD_WallCover_01_E_straight (1)","mesh":1,"translation":[0,4,0]},{"name":"COMP_Wall_01_E_straight_med (47)","children":[521,522],"translation":[-33.3700027,-11.65,-5.710428],"rotation":[0,-1,0,0]},{"name":"P_MOD_Wall_01_E_straight_med","mesh":0},{"name":"P_MOD_WallCover_01_E_straight (1)","mesh":1,"translation":[0,4,0]},{"name":"COMP_Wall_01_E_straight_med (58)","children":[524,525],"translation":[-45.25,-11.65,-5.710428],"rotation":[0,-1,0,0]},{"name":"P_MOD_Wall_01_E_straight_med","mesh":0},{"name":"P_MOD_WallCover_01_E_straight (1)","mesh":1,"translation":[0,4,0]},{"name":"COMP_Wall_01_E_straight_med (70)","children":[527,528],"translation":[-57.14,-11.65,-5.710428],"rotation":[0,-1,0,0]},{"name":"P_MOD_Wall_01_E_straight_med","mesh":0},{"name":"P_MOD_WallCover_01_E_straight (1)","mesh":1,"translation":[0,4,0]},{"name":"COMP_Wall_01_E_straight_med (5)","children":[530,531],"translation":[10.0393591,-15.43,-5.710428],"rotation":[0,-1,0,0]},{"name":"P_MOD_Wall_01_E_straight_med","mesh":0},{"name":"P_MOD_WallCover_01_E_straight (1)","mesh":1,"translation":[0,4,0]},{"name":"COMP_Wall_01_E_straight_med (80)","children":[533,534],"translation":[18.58,-15.43,-9.67787],"rotation":[0,-1,0,0]},{"name":"P_MOD_Wall_01_E_straight_med","mesh":0},{"name":"P_MOD_WallCover_01_E_straight (1)","mesh":1,"translation":[0,4,0]},{"name":"COMP_Wall_01_E_straight_med (88)","children":[536,537],"translation":[26.52,-15.43,-9.67787],"rotation":[0,-1,0,0]},{"name":"P_MOD_Wall_01_E_straight_med","mesh":0},{"name":"P_MOD_WallCover_01_E_straight (1)","mesh":1,"translation":[0,4,0]},{"name":"COMP_Wall_01_E_straight_med (96)","children":[539,540],"translation":[34.41,-15.43,-9.67787],"rotation":[0,-1,0,0]},{"name":"P_MOD_Wall_01_E_straight_med","mesh":0},{"name":"P_MOD_WallCover_01_E_straight (1)","mesh":1,"translation":[0,4,0]},{"name":"COMP_Wall_01_E_straight_med (101)","children":[542,543],"translation":[34.71,-15.43,-5.99],"rotation":[0,0.7071068,0,0.7071068]},{"name":"P_MOD_Wall_01_E_straight_med","mesh":0},{"name":"P_MOD_WallCover_01_E_straight (1)","mesh":1,"translation":[0,4,0]},{"name":"COMP_Wall_01_E_straight_med (105)","children":[545,546],"translation":[34.71,-15.43,-2.02000046],"rotation":[0,0.7071068,0,0.7071068]},{"name":"P_MOD_Wall_01_E_straight_med","mesh":0},{"name":"P_MOD_WallCover_01_E_straight (1)","mesh":1,"translation":[0,4,0]},{"name":"COMP_Wall_01_E_straight_med (109)","children":[548,549],"translation":[34.71,-15.43,1.94999981],"rotation":[0,0.7071068,0,0.7071068]},{"name":"P_MOD_Wall_01_E_straight_med","mesh":0},{"name":"P_MOD_WallCover_01_E_straight (1)","mesh":1,"translation":[0,4,0]},{"name":"COMP_Wall_01_E_straight_med (113)","children":[551,552],"translation":[34.71,-15.43,5.91],"rotation":[0,0.7071068,0,0.7071068]},{"name":"P_MOD_Wall_01_E_straight_med","mesh":0},{"name":"P_MOD_WallCover_01_E_straight (1)","mesh":1,"translation":[0,4,0]},{"name":"COMP_Wall_01_E_straight_med (16)","children":[554,555],"translation":[2.10935974,-15.43,-5.710428],"rotation":[0,-1,0,0]},{"name":"P_MOD_Wall_01_E_straight_med","mesh":0},{"name":"P_MOD_WallCover_01_E_straight (1)","mesh":1,"translation":[0,4,0]},{"name":"COMP_Wall_01_E_straight_med (24)","children":[557,558],"translation":[-5.790001,-15.43,-5.710428],"rotation":[0,-1,0,0]},{"name":"P_MOD_Wall_01_E_straight_med","mesh":0},{"name":"P_MOD_WallCover_01_E_straight (1)","mesh":1,"translation":[0,4,0]},{"name":"COMP_Wall_01_E_straight_med (32)","children":[560,561],"translation":[-13.670001,-15.43,-5.710428],"rotation":[0,-1,0,0]},{"name":"P_MOD_Wall_01_E_straight_med","mesh":0},{"name":"P_MOD_WallCover_01_E_straight (1)","mesh":1,"translation":[0,4,0]},{"name":"COMP_Wall_01_E_straight_med (40)","children":[563,564],"translation":[-49.03206,-44.53,53.0466728],"rotation":[0,-1,0,0]},{"name":"P_MOD_Wall_01_E_straight_med","mesh":0},{"name":"P_MOD_WallCover_01_E_straight (1)","mesh":1,"translation":[0,4,0]},{"name":"COMP_Wall_01_E_straight_med (48)","children":[566,567],"translation":[-29.4400024,-15.43,-5.710428],"rotation":[0,-1,0,0]},{"name":"P_MOD_Wall_01_E_straight_med","mesh":0},{"name":"P_MOD_WallCover_01_E_straight (1)","mesh":1,"translation":[0,4,0]},{"name":"COMP_Wall_01_E_straight_med (59)","children":[569,570],"translation":[-41.32,-15.43,-5.710428],"rotation":[0,-1,0,0]},{"name":"P_MOD_Wall_01_E_straight_med","mesh":0},{"name":"P_MOD_WallCover_01_E_straight (1)","mesh":1,"translation":[0,4,0]},{"name":"COMP_Wall_01_E_straight_med (71)","children":[572,573],"translation":[-53.21,-15.43,-5.710428],"rotation":[0,-1,0,0]},{"name":"P_MOD_Wall_01_E_straight_med","mesh":0},{"name":"P_MOD_WallCover_01_E_straight (1)","mesh":1,"translation":[0,4,0]},{"name":"COMP_Wall_01_E_straight_med (9)","children":[575,576],"translation":[6.10935974,-15.43,-5.710428],"rotation":[0,-1,0,0]},{"name":"P_MOD_Wall_01_E_straight_med","mesh":0},{"name":"P_MOD_WallCover_01_E_straight (1)","mesh":1,"translation":[0,4,0]},{"name":"COMP_Wall_01_E_straight_med (81)","children":[578,579],"translation":[14.6500006,-15.43,-9.67787],"rotation":[0,-1,0,0]},{"name":"P_MOD_Wall_01_E_straight_med","mesh":0},{"name":"P_MOD_WallCover_01_E_straight (1)","mesh":1,"translation":[0,4,0]},{"name":"COMP_Wall_01_E_straight_med (89)","children":[581,582],"translation":[22.53,-15.43,-9.67787],"rotation":[0,-1,0,0]},{"name":"P_MOD_Wall_01_E_straight_med","mesh":0},{"name":"P_MOD_WallCover_01_E_straight (1)","mesh":1,"translation":[0,4,0]},{"name":"COMP_Wall_01_E_straight_med (97)","children":[584,585],"translation":[30.45,-15.43,-9.67787],"rotation":[0,-1,0,0]},{"name":"P_MOD_Wall_01_E_straight_med","mesh":0},{"name":"P_MOD_WallCover_01_E_straight (1)","mesh":1,"translation":[0,4,0]},{"name":"COMP_Wall_01_E_straight_med (17)","children":[587,588],"translation":[-1.82063961,-15.43,-5.710428],"rotation":[0,-1,0,0]},{"name":"P_MOD_Wall_01_E_straight_med","mesh":0},{"name":"P_MOD_WallCover_01_E_straight (1)","mesh":1,"translation":[0,4,0]},{"name":"COMP_Wall_01_E_straight_med (25)","children":[590,591],"translation":[-9.72,-15.43,-5.710428],"rotation":[0,-1,0,0]},{"name":"P_MOD_Wall_01_E_straight_med","mesh":0},{"name":"P_MOD_WallCover_01_E_straight (1)","mesh":1,"translation":[0,4,0]},{"name":"COMP_Wall_01_E_straight_med (33)","children":[593,594],"translation":[-45.0920563,-44.53,53.0466728],"rotation":[0,-1,0,0]},{"name":"P_MOD_Wall_01_E_straight_med","mesh":0},{"name":"P_MOD_WallCover_01_E_straight (1)","mesh":1,"translation":[0,4,0]},{"name":"COMP_Wall_01_E_straight_med (41)","children":[596,597],"translation":[-25.47,-15.43,-5.710428],"rotation":[0,-1,0,0]},{"name":"P_MOD_Wall_01_E_straight_med","mesh":0},{"name":"P_MOD_WallCover_01_E_straight (1)","mesh":1,"translation":[0,4,0]},{"name":"COMP_Wall_01_E_straight_med (177)","children":[599,600],"translation":[-21.55,-15.43,-5.710428],"rotation":[0,-1,0,0]},{"name":"P_MOD_Wall_01_E_straight_med","mesh":0},{"name":"P_MOD_WallCover_01_E_straight (1)","mesh":1,"translation":[0,4,0]},{"name":"COMP_Wall_01_E_straight_med (178)","children":[602,603],"translation":[-17.55,-15.43,-5.710428],"rotation":[0,-1,0,0]},{"name":"P_MOD_Wall_01_E_straight_med","mesh":0},{"name":"P_MOD_WallCover_01_E_straight (1)","mesh":1,"translation":[0,4,0]},{"name":"COMP_Wall_01_E_straight_med (60)","children":[605,606],"translation":[-37.35,-15.43,-5.710428],"rotation":[0,-1,0,0]},{"name":"P_MOD_Wall_01_E_straight_med","mesh":0},{"name":"P_MOD_WallCover_01_E_straight (1)","mesh":1,"translation":[0,4,0]},{"name":"COMP_Wall_01_E_straight_med (72)","children":[608,609],"translation":[-49.2399979,-15.43,-5.710428],"rotation":[0,-1,0,0]},{"name":"P_MOD_Wall_01_E_straight_med","mesh":0},{"name":"P_MOD_WallCover_01_E_straight (1)","mesh":1,"translation":[0,4,0]},{"name":"COMP_Wall_01_E_straight_med (49)","children":[611,612],"translation":[-33.3700027,-15.43,-5.710428],"rotation":[0,-1,0,0]},{"name":"P_MOD_Wall_01_E_straight_med","mesh":0},{"name":"P_MOD_WallCover_01_E_straight (1)","mesh":1,"translation":[0,4,0]},{"name":"COMP_Wall_01_E_straight_med (61)","children":[614,615],"translation":[-45.25,-15.43,-5.710428],"rotation":[0,-1,0,0]},{"name":"P_MOD_Wall_01_E_straight_med","mesh":0},{"name":"P_MOD_WallCover_01_E_straight (1)","mesh":1,"translation":[0,4,0]},{"name":"COMP_Wall_01_E_straight_med (73)","children":[617,618],"translation":[-57.14,-15.43,-5.710428],"rotation":[0,-1,0,0]},{"name":"P_MOD_Column_01_base","mesh":2},{"name":"P_MOD_Column_01_large","mesh":15},{"name":"P_MOD_Column_01_capital","mesh":4,"translation":[0,6,0]},{"name":"COMP_Column_01_large (6)","children":[620,621,622],"translation":[-61.2622223,-4.15,-5.86528]},{"name":"P_MOD_Column_01_base","mesh":2},{"name":"P_MOD_Column_01_large","mesh":15},{"name":"P_MOD_Column_01_capital","mesh":4,"translation":[0,6,0]},{"name":"COMP_Column_01_large (9)","children":[624,625,626],"translation":[-37.46,-3.89,-6.02]},{"name":"P_MOD_Column_01_base","mesh":2},{"name":"P_MOD_Column_01_large","mesh":15},{"name":"P_MOD_Column_01_capital","mesh":4,"translation":[0,6,0]},{"name":"COMP_Column_01_large (12)","children":[628,629,630],"translation":[-33.57,-5.93,-6.09]},{"name":"P_MOD_Column_01_base","mesh":2},{"name":"P_MOD_Column_01_large","mesh":15},{"name":"P_MOD_Column_01_capital","mesh":4,"translation":[0,6,0]},{"name":"COMP_Column_01_large (15)","children":[632,633,634],"translation":[-25.08,-5.93,-6.09]},{"name":"P_MOD_Column_01_base","mesh":2},{"name":"P_MOD_Column_01_large","mesh":15},{"name":"P_MOD_Column_01_capital","mesh":4,"translation":[0,6,0]},{"name":"COMP_Column_01_large (18)","children":[636,637,638],"translation":[-10.68,-5.93,-6.09]},{"name":"P_MOD_Column_01_base","mesh":2},{"name":"P_MOD_Column_01_large","mesh":15},{"name":"P_MOD_Column_01_capital","mesh":4,"translation":[0,6,0]},{"name":"COMP_Column_01_large (21)","children":[640,641,642],"translation":[1.72999954,-5.93,-6.09]},{"name":"P_MOD_Column_01_base","mesh":2},{"name":"P_MOD_Column_01_large","mesh":15},{"name":"P_MOD_Column_01_capital","mesh":4,"translation":[0,6,0]},{"name":"COMP_Column_01_large (24)","children":[644,645,646],"translation":[10.3,-6.06,-10.02]},{"name":"P_MOD_Column_01_base","mesh":2},{"name":"P_MOD_Column_01_large","mesh":15},{"name":"P_MOD_Column_01_capital","mesh":4,"translation":[0,6,0]},{"name":"COMP_Column_01_large (27)","children":[648,649,650],"translation":[18.44,-5.79000044,-10.02]},{"name":"P_MOD_Column_01_base","mesh":2},{"name":"P_MOD_Column_01_large","mesh":15},{"name":"P_MOD_Column_01_capital","mesh":4,"translation":[0,6,0]},{"name":"COMP_Column_01_large (30)","children":[652,653,654],"translation":[26.6,-5.79000044,-10.02]},{"name":"P_MOD_Column_01_base","mesh":2},{"name":"P_MOD_Column_01_large","mesh":15},{"name":"P_MOD_Column_01_capital","mesh":4,"translation":[0,6,0]},{"name":"COMP_Column_01_large (33)","children":[656,657,658],"translation":[34.97,-5.79000044,-10.02]},{"name":"P_MOD_Column_01_base","mesh":2},{"name":"P_MOD_Column_01_large","mesh":15},{"name":"P_MOD_Column_01_capital","mesh":4,"translation":[0,6,0]},{"name":"COMP_Column_01_large (36)","children":[660,661,662],"translation":[35.11,-5.79000044,6.33]},{"name":"P_MOD_Column_01_base","mesh":2},{"name":"P_MOD_Column_01_large","mesh":15},{"name":"P_MOD_Column_01_capital","mesh":4,"translation":[0,6,0]},{"name":"COMP_Column_01_large (7)","children":[664,665,666],"translation":[-61.2622223,-9.96,-5.86528]},{"name":"P_MOD_Column_01_base","mesh":2},{"name":"P_MOD_Column_01_large","mesh":15},{"name":"P_MOD_Column_01_capital","mesh":4,"translation":[0,6,0]},{"name":"COMP_Column_01_large (10)","children":[668,669,670],"translation":[-37.46,-9.7,-6.02000046]},{"name":"P_MOD_Column_01_base","mesh":2},{"name":"P_MOD_Column_01_large","mesh":15},{"name":"P_MOD_Column_01_capital","mesh":4,"translation":[0,6,0]},{"name":"COMP_Column_01_large (13)","children":[672,673,674],"translation":[-33.57,-11.74,-6.09]},{"name":"P_MOD_Column_01_base","mesh":2},{"name":"P_MOD_Column_01_large","mesh":15},{"name":"P_MOD_Column_01_capital","mesh":4,"translation":[0,6,0]},{"name":"COMP_Column_01_large (16)","children":[676,677,678],"translation":[-25.08,-11.74,-6.09]},{"name":"P_MOD_Column_01_base","mesh":2},{"name":"P_MOD_Column_01_large","mesh":15},{"name":"P_MOD_Column_01_capital","mesh":4,"translation":[0,6,0]},{"name":"COMP_Column_01_large (46)","children":[680,681,682],"translation":[-25.08,-18.05,-6.09]},{"name":"P_MOD_Column_01_base","mesh":2},{"name":"P_MOD_Column_01_large","mesh":15},{"name":"P_MOD_Column_01_capital","mesh":4,"translation":[0,6,0]},{"name":"COMP_Column_01_large (19)","children":[684,685,686],"translation":[-10.68,-11.74,-6.09]},{"name":"P_MOD_Column_01_base","mesh":2},{"name":"P_MOD_Column_01_large","mesh":15},{"name":"P_MOD_Column_01_capital","mesh":4,"translation":[0,6,0]},{"name":"COMP_Column_01_large (22)","children":[688,689,690],"translation":[1.72999954,-11.74,-6.09]},{"name":"P_MOD_Column_01_base","mesh":2},{"name":"P_MOD_Column_01_large","mesh":15},{"name":"P_MOD_Column_01_capital","mesh":4,"translation":[0,6,0]},{"name":"COMP_Column_01_large (25)","children":[692,693,694],"translation":[10.3,-11.87,-10.02]},{"name":"P_MOD_Column_01_base","mesh":2},{"name":"P_MOD_Column_01_large","mesh":15},{"name":"P_MOD_Column_01_capital","mesh":4,"translation":[0,6,0]},{"name":"COMP_Column_01_large (28)","children":[696,697,698],"translation":[18.44,-11.6,-10.02]},{"name":"P_MOD_Column_01_base","mesh":2},{"name":"P_MOD_Column_01_large","mesh":15},{"name":"P_MOD_Column_01_capital","mesh":4,"translation":[0,6,0]},{"name":"COMP_Column_01_large (31)","children":[700,701,702],"translation":[26.6,-11.6,-10.02]},{"name":"P_MOD_Column_01_base","mesh":2},{"name":"P_MOD_Column_01_large","mesh":15},{"name":"P_MOD_Column_01_capital","mesh":4,"translation":[0,6,0]},{"name":"COMP_Column_01_large (34)","children":[704,705,706],"translation":[34.97,-11.6,-10.02]},{"name":"P_MOD_Column_01_base","mesh":2},{"name":"P_MOD_Column_01_large","mesh":15},{"name":"P_MOD_Column_01_capital","mesh":4,"translation":[0,6,0]},{"name":"COMP_Column_01_large (37)","children":[708,709,710],"translation":[35.11,-11.6,6.33]},{"name":"P_MOD_Column_01_base","mesh":2},{"name":"P_MOD_Column_01_large","mesh":15},{"name":"P_MOD_Column_01_capital","mesh":4,"translation":[0,6,0]},{"name":"COMP_Column_01_large (8)","children":[712,713,714],"translation":[-61.2622223,-15.93,-5.86528]},{"name":"P_MOD_Column_01_base","mesh":2},{"name":"P_MOD_Column_01_large","mesh":15},{"name":"P_MOD_Column_01_capital","mesh":4,"translation":[0,6,0]},{"name":"COMP_Column_01_large (11)","children":[716,717,718],"translation":[-37.46,-15.67,-6.02000046]},{"name":"P_MOD_Column_01_base","mesh":2},{"name":"P_MOD_Column_01_large","mesh":15},{"name":"P_MOD_Column_01_capital","mesh":4,"translation":[0,6,0]},{"name":"COMP_Column_01_large (14)","children":[720,721,722],"translation":[-33.57,-17.71,-6.09]},{"name":"P_MOD_Column_01_base","mesh":2},{"name":"P_MOD_Column_01_large","mesh":15},{"name":"P_MOD_Column_01_capital","mesh":4,"translation":[0,6,0]},{"name":"COMP_Column_01_large (17)","children":[724,725,726],"translation":[-52.57206,-46.8099976,52.6670952]},{"name":"P_MOD_Column_01_base","mesh":2},{"name":"P_MOD_Column_01_large","mesh":15},{"name":"P_MOD_Column_01_capital","mesh":4,"translation":[0,6,0]},{"name":"COMP_Column_01_large (20)","children":[728,729,730],"translation":[-10.68,-17.71,-6.09]},{"name":"P_MOD_Column_01_base","mesh":2},{"name":"P_MOD_Column_01_large","mesh":15},{"name":"P_MOD_Column_01_capital","mesh":4,"translation":[0,6,0]},{"name":"COMP_Column_01_large (23)","children":[732,733,734],"translation":[1.73,-17.71,-6.09]},{"name":"P_MOD_Column_01_base","mesh":2},{"name":"P_MOD_Column_01_large","mesh":15},{"name":"P_MOD_Column_01_capital","mesh":4,"translation":[0,6,0]},{"name":"COMP_Column_01_large (26)","children":[736,737,738],"translation":[10.3,-17.84,-10.02]},{"name":"P_MOD_Column_01_base","mesh":2},{"name":"P_MOD_Column_01_large","mesh":15},{"name":"P_MOD_Column_01_capital","mesh":4,"translation":[0,6,0]},{"name":"COMP_Column_01_large (29)","children":[740,741,742],"translation":[18.44,-17.57,-10.02]},{"name":"P_MOD_Column_01_base","mesh":2},{"name":"P_MOD_Column_01_large","mesh":15},{"name":"P_MOD_Column_01_capital","mesh":4,"translation":[0,6,0]},{"name":"COMP_Column_01_large (32)","children":[744,745,746],"translation":[26.6,-17.57,-10.02]},{"name":"P_MOD_Column_01_base","mesh":2},{"name":"P_MOD_Column_01_large","mesh":15},{"name":"P_MOD_Column_01_capital","mesh":4,"translation":[0,6,0]},{"name":"COMP_Column_01_large (35)","children":[748,749,750],"translation":[34.97,-17.57,-10.02]},{"name":"P_MOD_Column_01_base","mesh":2},{"name":"P_MOD_Column_01_large","mesh":15},{"name":"P_MOD_Column_01_capital","mesh":4,"translation":[0,6,0]},{"name":"COMP_Column_01_large (38)","children":[752,753,754],"translation":[35.11,-17.57,6.33]},{"name":"P_MOD_Column_01_base","mesh":2},{"name":"P_MOD_Column_01_large","mesh":15},{"name":"P_MOD_Column_01_capital","mesh":4,"translation":[0,6,0]},{"name":"COMP_Column_01_large (39)","children":[756,757,758],"translation":[21.28,-6.04,37.47]},{"name":"P_MOD_Column_01_base","mesh":2},{"name":"P_MOD_Column_01_large","mesh":15},{"name":"P_MOD_Column_01_capital","mesh":4,"translation":[0,6,0]},{"name":"COMP_Column_01_large (42)","children":[760,761,762],"translation":[13.2,-6.04,37.47]},{"name":"P_MOD_Column_01_base","mesh":2},{"name":"P_MOD_Column_01_large","mesh":15},{"name":"P_MOD_Column_01_capital","mesh":4,"translation":[0,6,0]},{"name":"COMP_Column_01_large (40)","children":[764,765,766],"translation":[21.28,-11.9,37.47]},{"name":"P_MOD_Column_01_base","mesh":2},{"name":"P_MOD_Column_01_large","mesh":15},{"name":"P_MOD_Column_01_capital","mesh":4,"translation":[0,6,0]},{"name":"COMP_Column_01_large (43)","children":[768,769,770],"translation":[13.2,-11.9,37.47]},{"name":"P_MOD_Column_01_base","mesh":2},{"name":"P_MOD_Column_01_large","mesh":15},{"name":"P_MOD_Column_01_capital","mesh":4,"translation":[0,6,0]},{"name":"COMP_Column_01_large (45)","children":[772,773,774],"translation":[12.94,-15.55,34.01]},{"name":"P_MOD_Column_01_base","mesh":2},{"name":"P_MOD_Column_01_large","mesh":15},{"name":"P_MOD_Column_01_capital","mesh":4,"translation":[0,6,0]},{"name":"COMP_Column_01_large (41)","children":[776,777,778],"translation":[21.28,-17.69,37.47]},{"name":"P_MOD_Column_01_base","mesh":2},{"name":"P_MOD_Column_01_large","mesh":15},{"name":"P_MOD_Column_01_capital","mesh":4,"translation":[0,6,0]},{"name":"COMP_Column_01_large (44)","children":[780,781,782],"translation":[13.2,-17.69,37.47]},{"name":"MOD_Floor_01_O_straight_med","mesh":12,"translation":[21.409359,0.120000005,37.982132]},{"name":"MOD_Floor_01_O_straight_med (3)","mesh":12,"translation":[25.34936,0.120000005,37.982132]},{"name":"MOD_Floor_01_O_straight_med (1)","mesh":12,"translation":[21.409359,0.120000005,41.982132]},{"name":"MOD_Floor_01_O_straight_med (4)","mesh":12,"translation":[25.34936,0.120000005,41.982132]},{"name":"MOD_Floor_01_O_straight_med (2)","mesh":12,"translation":[21.409359,0.120000005,45.93213]},{"name":"MOD_Floor_01_O_straight_med (5)","mesh":12,"translation":[25.34936,0.120000005,45.93213]},{"name":"P_PROP_rug_interior_03","mesh":13,"translation":[25.0693588,0.1500001,43.65213],"scale":[1.7336,1.7336,1.7336]},{"name":"pointlight_fire_interior","extensions":{"KHR_lights_punctual":{"light":0}}},{"name":"P_pointlight_fire_anim_interior","children":[791],"translation":[0,1.635,0]},{"name":"Particle_fire_v3_interior","rotation":[-0.7071068,0,0,0.7071068]},{"name":"P_FX_fire_v3_interior","children":[793],"translation":[0,1.5502,0]},{"name":"Particle_fire_v3_interior","rotation":[-0.7071068,0,0,0.7071068]},{"name":"P_FX_fire_v3_interior","children":[795],"translation":[-0.189,1.446,0],"rotation":[0,0.9359664,0,0.352089524]},{"name":"Particle_fire_v3_interior","rotation":[-0.7071068,0,0,0.7071068]},{"name":"P_FX_fire_v3_interior","children":[797],"translation":[0.183,1.423,0],"rotation":[0,-0.991138935,0,-0.132829636]},{"name":"Particle_fire_v3_interior","rotation":[-0.7071068,0,0,0.7071068]},{"name":"P_FX_fire_v3_interior","children":[799],"translation":[-0.001,1.462,-0.184],"rotation":[0,-0.9991869,0,-0.04031884]},{"name":"Particle_fire_v3_interior","rotation":[-0.7071068,0,0,0.7071068]},{"name":"P_FX_fire_v3_interior","children":[801],"translation":[-0.001,1.448,0.189],"rotation":[0,0.9081338,0,-0.4186801]},{"name":"P_PROP_candle_interior_05","children":[792,794,796,798,800,802],"mesh":14,"translation":[22.50936,0.13,45.5621338]},{"name":"pointlight_fire_interior","extensions":{"KHR_lights_punctual":{"light":1}}},{"name":"P_pointlight_fire_anim_interior","children":[804],"translation":[0,1.635,0]},{"name":"Particle_fire_v3_interior","rotation":[-0.7071068,0,0,0.7071068]},{"name":"P_FX_fire_v3_interior","children":[806],"translation":[0,1.5502,0]},{"name":"Particle_fire_v3_interior","rotation":[-0.7071068,0,0,0.7071068]},{"name":"P_FX_fire_v3_interior","children":[808],"translation":[-0.189,1.446,0],"rotation":[0,0.9359664,0,0.352089524]},{"name":"Particle_fire_v3_interior","rotation":[-0.7071068,0,0,0.7071068]},{"name":"P_FX_fire_v3_interior","children":[810],"translation":[0.183,1.423,0],"rotation":[0,-0.991138935,0,-0.132829636]},{"name":"Particle_fire_v3_interior","rotation":[-0.7071068,0,0,0.7071068]},{"name":"P_FX_fire_v3_interior","children":[812],"translation":[-0.001,1.462,-0.184],"rotation":[0,-0.9991869,0,-0.04031884]},{"name":"Particle_fire_v3_interior","rotation":[-0.7071068,0,0,0.7071068]},{"name":"P_FX_fire_v3_interior","children":[814],"translation":[-0.001,1.448,0.189],"rotation":[0,0.9081338,0,-0.4186801]},{"name":"P_PROP_candle_interior_05 (1)","children":[805,807,809,811,813,815],"mesh":14,"translation":[22.22936,0.13,41.60213]},{"name":"PT1Decoration","children":[2,5,8,11,14,17,20,23,26,29,32,35,38,41,44,47,50,53,56,59,62,66,70,74,77,80,83,87,90,93,96,99,102,105,108,111,114,118,121,124,127,130,133,136,139,142,145,148,151,154,157,160,163,166,169,172,175,178,181,184,187,190,193,196,199,202,205,208,211,214,218,222,226,229,232,235,238,241,244,247,250,253,256,259,262,265,268,271,274,277,280,283,286,289,292,295,298,301,304,307,310,313,316,319,322,325,328,331,334,337,340,343,346,349,352,355,358,361,364,367,370,373,376,379,382,385,388,391,394,397,400,403,406,409,412,415,418,421,424,427,430,433,436,439,442,445,448,451,454,457,460,463,466,469,472,475,478,481,484,487,490,493,496,499,502,505,508,511,514,517,520,523,526,529,532,535,538,541,544,547,550,553,556,559,562,565,568,571,574,577,580,583,586,589,592,595,598,601,604,607,610,613,616,619,623,627,631,635,639,643,647,651,655,659,663,667,671,675,679,683,687,691,695,699,703,707,711,715,719,723,727,731,735,739,743,747,751,755,759,763,767,771,775,779,783,784,785,786,787,788,789,790,803,816],"translation":[-3.10936,1.05,-13.32213]}],"extensionsRequired":["KHR_lights_punctual"],"extensionsUsed":["KHR_lights_punctual"],"buffers":[{"uri":"PT1Decoration.bin","byteLength":154956}],"bufferViews":[{"buffer":0,"byteLength":216,"target":34963},{"buffer":0,"byteLength":7464,"byteOffset":216,"target":34963},{"buffer":0,"byteLength":648,"byteOffset":7680,"target":34963},{"buffer":0,"byteLength":72,"byteOffset":8328,"target":34963},{"buffer":0,"byteLength":672,"byteOffset":8400,"target":34963},{"buffer":0,"byteLength":192,"byteOffset":9072,"target":34963},{"buffer":0,"byteLength":780,"byteOffset":9264,"target":34963},{"buffer":0,"byteLength":132,"byteOffset":10044,"target":34963},{"buffer":0,"byteLength":72,"byteOffset":10176,"target":34963},{"buffer":0,"byteLength":264,"byteOffset":10248,"target":34963},{"buffer":0,"byteLength":168,"byteOffset":10512,"target":34963},{"buffer":0,"byteLength":312,"byteOffset":10680,"target":34963},{"buffer":0,"byteLength":1080,"byteOffset":10992,"target":34963},{"buffer":0,"byteLength":72,"byteOffset":12072,"target":34963},{"buffer":0,"byteLength":12,"byteOffset":12144,"target":34963},{"buffer":0,"byteLength":2016,"byteOffset":12156,"byteStride":56,"target":34962},{"buffer":0,"byteLength":74592,"byteOffset":14172,"byteStride":56,"target":34962},{"buffer":0,"byteLength":9632,"byteOffset":88764,"byteStride":56,"target":34962},{"buffer":0,"byteLength":2464,"byteOffset":98396,"byteStride":56,"target":34962},{"buffer":0,"byteLength":3584,"byteOffset":100860,"byteStride":56,"target":34962},{"buffer":0,"byteLength":1344,"byteOffset":104444,"byteStride":56,"target":34962},{"buffer":0,"byteLength":9296,"byteOffset":105788,"byteStride":56,"target":34962},{"buffer":0,"byteLength":1344,"byteOffset":115084,"byteStride":56,"target":34962},{"buffer":0,"byteLength":3584,"byteOffset":116428,"byteStride":56,"target":34962},{"buffer":0,"byteLength":10528,"byteOffset":120012,"byteStride":56,"target":34962},{"buffer":0,"byteLength":1344,"byteOffset":130540,"byteStride":56,"target":34962},{"buffer":0,"byteLength":4032,"byteOffset":131884,"byteStride":56,"target":34962},{"buffer":0,"byteLength":3136,"byteOffset":135916,"byteStride":56,"target":34962},{"buffer":0,"byteLength":15680,"byteOffset":139052,"byteStride":56,"target":34962},{"buffer":0,"byteLength":224,"byteOffset":154732,"byteStride":56,"target":34962}],"accessors":[{"bufferView":22,"componentType":5126,"count":24,"type":"VEC3","max":[4.00000048,3.70000029,0.500000358],"min":[-4.76837158E-07,-2.38418579E-07,-2.38418579E-07]},{"bufferView":22,"componentType":5126,"count":24,"type":"VEC3","byteOffset":12},{"bufferView":22,"componentType":5126,"count":24,"type":"VEC4","byteOffset":24},{"bufferView":22,"componentType":5126,"count":24,"type":"VEC2","byteOffset":40},{"bufferView":22,"componentType":5126,"count":24,"type":"VEC2","byteOffset":48},{"bufferView":3,"componentType":5123,"count":36,"type":"SCALAR"},{"bufferView":17,"componentType":5126,"count":172,"type":"VEC3","max":[4.00000143,0.346663684,0.653979659],"min":[0,-0.346670479,-0.153971672]},{"bufferView":17,"componentType":5126,"count":172,"type":"VEC3","byteOffset":12},{"bufferView":17,"componentType":5126,"count":172,"type":"VEC4","byteOffset":24},{"bufferView":17,"componentType":5126,"count":172,"type":"VEC2","byteOffset":40},{"bufferView":17,"componentType":5126,"count":172,"type":"VEC2","byteOffset":48},{"bufferView":4,"componentType":5123,"count":336,"type":"SCALAR"},{"bufferView":23,"componentType":5126,"count":64,"type":"VEC3","max":[0.697793543,1.00000024,0.6977979],"min":[-0.697792351,-0.0200003088,-0.697796941]},{"bufferView":23,"componentType":5126,"count":64,"type":"VEC3","byteOffset":12},{"bufferView":23,"componentType":5126,"count":64,"type":"VEC4","byteOffset":24},{"bufferView":23,"componentType":5126,"count":64,"type":"VEC2","byteOffset":40},{"bufferView":23,"componentType":5126,"count":64,"type":"VEC2","byteOffset":48},{"bufferView":5,"componentType":5123,"count":96,"type":"SCALAR"},{"bufferView":24,"componentType":5126,"count":188,"type":"VEC3","max":[0.513316751,5.9,0.513319254],"min":[-0.513320565,0,-0.513319254]},{"bufferView":24,"componentType":5126,"count":188,"type":"VEC3","byteOffset":12},{"bufferView":24,"componentType":5126,"count":188,"type":"VEC4","byteOffset":24},{"bufferView":24,"componentType":5126,"count":188,"type":"VEC2","byteOffset":40},{"bufferView":24,"componentType":5126,"count":188,"type":"VEC2","byteOffset":48},{"bufferView":6,"componentType":5123,"count":390,"type":"SCALAR"},{"bufferView":18,"componentType":5126,"count":44,"type":"VEC3","max":[0.611391366,-0.0199998021,0.6113963],"min":[-0.6113923,-0.6101987,-0.6113956]},{"bufferView":18,"componentType":5126,"count":44,"type":"VEC3","byteOffset":12},{"bufferView":18,"componentType":5126,"count":44,"type":"VEC4","byteOffset":24},{"bufferView":18,"componentType":5126,"count":44,"type":"VEC2","byteOffset":40},{"bufferView":18,"componentType":5126,"count":44,"type":"VEC2","byteOffset":48},{"bufferView":7,"componentType":5123,"count":66,"type":"SCALAR"},{"bufferView":25,"componentType":5126,"count":24,"type":"VEC3","max":[4.76837158E-07,3.70000029,0.500000358],"min":[-2.00000048,-2.38418579E-07,-2.38418579E-07]},{"bufferView":25,"componentType":5126,"count":24,"type":"VEC3","byteOffset":12},{"bufferView":25,"componentType":5126,"count":24,"type":"VEC4","byteOffset":24},{"bufferView":25,"componentType":5126,"count":24,"type":"VEC2","byteOffset":40},{"bufferView":25,"componentType":5126,"count":24,"type":"VEC2","byteOffset":48},{"bufferView":8,"componentType":5123,"count":36,"type":"SCALAR"},{"bufferView":26,"componentType":5126,"count":72,"type":"VEC3","max":[0,0.346593231,0.6543573],"min":[-2.00000048,-0.3465931,-0.1543603]},{"bufferView":26,"componentType":5126,"count":72,"type":"VEC3","byteOffset":12},{"bufferView":26,"componentType":5126,"count":72,"type":"VEC4","byteOffset":24},{"bufferView":26,"componentType":5126,"count":72,"type":"VEC2","byteOffset":40},{"bufferView":26,"componentType":5126,"count":72,"type":"VEC2","byteOffset":48},{"bufferView":9,"componentType":5123,"count":132,"type":"SCALAR"},{"bufferView":27,"componentType":5126,"count":56,"type":"VEC3","max":[0,0.5496788,0.774687052],"min":[-2,0,0.499999046]},{"bufferView":27,"componentType":5126,"count":56,"type":"VEC3","byteOffset":12},{"bufferView":27,"componentType":5126,"count":56,"type":"VEC4","byteOffset":24},{"bufferView":27,"componentType":5126,"count":56,"type":"VEC2","byteOffset":40},{"bufferView":27,"componentType":5126,"count":56,"type":"VEC2","byteOffset":48},{"bufferView":10,"componentType":5123,"count":84,"type":"SCALAR"},{"bufferView":19,"componentType":5126,"count":64,"type":"VEC3","max":[4.500002,3.69999957,4.5],"min":[-4.76837158E-07,0,-4.76837158E-07]},{"bufferView":19,"componentType":5126,"count":64,"type":"VEC3","byteOffset":12},{"bufferView":19,"componentType":5126,"count":64,"type":"VEC4","byteOffset":24},{"bufferView":19,"componentType":5126,"count":64,"type":"VEC2","byteOffset":40},{"bufferView":19,"componentType":5126,"count":64,"type":"VEC2","byteOffset":48},{"bufferView":11,"componentType":5123,"count":156,"type":"SCALAR"},{"bufferView":28,"componentType":5126,"count":280,"type":"VEC3","max":[4.60000134,0.374094963,4.65046],"min":[-9.536743E-07,-0.374095142,-9.536743E-07]},{"bufferView":28,"componentType":5126,"count":280,"type":"VEC3","byteOffset":12},{"bufferView":28,"componentType":5126,"count":280,"type":"VEC4","byteOffset":24},{"bufferView":28,"componentType":5126,"count":280,"type":"VEC2","byteOffset":40},{"bufferView":28,"componentType":5126,"count":280,"type":"VEC2","byteOffset":48},{"bufferView":12,"componentType":5123,"count":540,"type":"SCALAR"},{"bufferView":21,"componentType":5126,"count":166,"type":"VEC3","max":[4.72026157,0.550842345,4.707568],"min":[-1.43051147E-06,-2.98023224E-07,0]},{"bufferView":21,"componentType":5126,"count":166,"type":"VEC3","byteOffset":12},{"bufferView":21,"componentType":5126,"count":166,"type":"VEC4","byteOffset":24},{"bufferView":21,"componentType":5126,"count":166,"type":"VEC2","byteOffset":40},{"bufferView":21,"componentType":5126,"count":166,"type":"VEC2","byteOffset":48},{"bufferView":2,"componentType":5123,"count":324,"type":"SCALAR"},{"bufferView":20,"componentType":5126,"count":24,"type":"VEC3","max":[4.00000048,1.70000124,0.500000238],"min":[-4.76837158E-07,-2.38418579E-07,-2.5331974E-07]},{"bufferView":20,"componentType":5126,"count":24,"type":"VEC3","byteOffset":12},{"bufferView":20,"componentType":5126,"count":24,"type":"VEC4","byteOffset":24},{"bufferView":20,"componentType":5126,"count":24,"type":"VEC2","byteOffset":40},{"bufferView":20,"componentType":5126,"count":24,"type":"VEC2","byteOffset":48},{"bufferView":13,"componentType":5123,"count":36,"type":"SCALAR"},{"bufferView":29,"componentType":5126,"count":4,"type":"VEC3","max":[4,2.98023224E-08,4],"min":[0,2.98023224E-08,0]},{"bufferView":29,"componentType":5126,"count":4,"type":"VEC3","byteOffset":12},{"bufferView":29,"componentType":5126,"count":4,"type":"VEC4","byteOffset":24},{"bufferView":29,"componentType":5126,"count":4,"type":"VEC2","byteOffset":40},{"bufferView":29,"componentType":5126,"count":4,"type":"VEC2","byteOffset":48},{"bufferView":14,"componentType":5123,"count":6,"type":"SCALAR"},{"bufferView":15,"componentType":5126,"count":36,"type":"VEC3","max":[1.87147427,0.00172683934,0.658630967],"min":[-1.93264627,0.00172683934,-0.6462749]},{"bufferView":15,"componentType":5126,"count":36,"type":"VEC3","byteOffset":12},{"bufferView":15,"componentType":5126,"count":36,"type":"VEC4","byteOffset":24},{"bufferView":15,"componentType":5126,"count":36,"type":"VEC2","byteOffset":40},{"bufferView":15,"componentType":5126,"count":36,"type":"VEC2","byteOffset":48},{"bufferView":0,"componentType":5123,"count":108,"type":"SCALAR"},{"bufferView":16,"componentType":5126,"count":1332,"type":"VEC3","max":[0.241058975,1.56752694,0.241524309],"min":[-0.24023357,-4.39882278E-05,-0.239768237]},{"bufferView":16,"componentType":5126,"count":1332,"type":"VEC3","byteOffset":12},{"bufferView":16,"componentType":5126,"count":1332,"type":"VEC4","byteOffset":24},{"bufferView":16,"componentType":5126,"count":1332,"type":"VEC2","byteOffset":40},{"bufferView":16,"componentType":5126,"count":1332,"type":"VEC2","byteOffset":48},{"bufferView":1,"componentType":5123,"count":3732,"type":"SCALAR"}],"images":[{"name":"T_ENV_MOD_Wall_01_v1_N.png","uri":"T_ENV_MOD_Wall_01_v1_N.png","mimeType":"image/png"},{"name":"T_ENV_MOD_Wall_01_v1_BC.jpg","uri":"T_ENV_MOD_Wall_01_v1_BC.jpg","mimeType":"image/jpeg"},{"name":"T_ENV_MOD_Wall_01_v1_MTSM.jpg","uri":"T_ENV_MOD_Wall_01_v1_MTSM.jpg","mimeType":"image/jpeg"},{"name":"T_ENV_MOD_StoneStack_01_v3_N.png","uri":"T_ENV_MOD_StoneStack_01_v3_N.png","mimeType":"image/png"},{"name":"T_ENV_MOD_StoneStack_01_v3_BC.jpg","uri":"T_ENV_MOD_StoneStack_01_v3_BC.jpg","mimeType":"image/jpeg"},{"name":"T_ENV_MOD_StoneStack_01_v3_MTSM.jpg","uri":"T_ENV_MOD_StoneStack_01_v3_MTSM.jpg","mimeType":"image/jpeg"},{"name":"T_ENV_MOD_Wall_01_v3_N.png","uri":"T_ENV_MOD_Wall_01_v3_N.png","mimeType":"image/png"},{"name":"T_ENV_MOD_Wall_01_v3_BC.jpg","uri":"T_ENV_MOD_Wall_01_v3_BC.jpg","mimeType":"image/jpeg"},{"name":"T_ENV_MOD_Wall_01_v3_MTSM.jpg","uri":"T_ENV_MOD_Wall_01_v3_MTSM.jpg","mimeType":"image/jpeg"},{"name":"T_ENV_MOD_Floor_01_v3_N.png","uri":"T_ENV_MOD_Floor_01_v3_N.png","mimeType":"image/png"},{"name":"T_ENV_MOD_Floor_01_v1_BC.jpg","uri":"T_ENV_MOD_Floor_01_v1_BC.jpg","mimeType":"image/jpeg"},{"name":"T_ENV_MOD_Floor_01_v3_MTSM.jpg","uri":"T_ENV_MOD_Floor_01_v3_MTSM.jpg","mimeType":"image/jpeg"},{"name":"NormalBasic.png","uri":"NormalBasic.png","mimeType":"image/png"},{"name":"T_PROP_fabrics_interior_BC.jpg","uri":"T_PROP_fabrics_interior_BC.jpg","mimeType":"image/jpeg"},{"name":"T_PROP_metal_interior_E.jpg","uri":"T_PROP_metal_interior_E.jpg","mimeType":"image/jpeg"},{"name":"T_PROP_metal_interior_BC.jpg","uri":"T_PROP_metal_interior_BC.jpg","mimeType":"image/jpeg"}],"materials":[{"name":"M_MOD_Wall_01_v1","pbrMetallicRoughness":{"roughnessFactor":0,"baseColorTexture":{"index":1},"metallicRoughnessTexture":{"index":2}},"normalTexture":{"index":0,"scale":1.82}},{"name":"M_MOD_Trim_Stone_01_v3","pbrMetallicRoughness":{"roughnessFactor":0,"baseColorTexture":{"index":4},"metallicRoughnessTexture":{"index":5}},"normalTexture":{"index":3}},{"name":"M_MOD_Wall_01_v3","pbrMetallicRoughness":{"roughnessFactor":0,"baseColorTexture":{"index":7},"metallicRoughnessTexture":{"index":8}},"normalTexture":{"index":6,"scale":1.82}},{"name":"M_MOD_Floor_01_v3_clean","pbrMetallicRoughness":{"roughnessFactor":0,"baseColorTexture":{"index":10},"metallicRoughnessTexture":{"index":11}},"normalTexture":{"index":9}},{"name":"M_PROP_fabrics_interior","pbrMetallicRoughness":{"metallicFactor":0,"baseColorTexture":{"index":13}},"normalTexture":{"index":12},"doubleSided":true},{"name":"M_PROP_metal_interior","pbrMetallicRoughness":{"metallicFactor":0,"baseColorTexture":{"index":15}},"normalTexture":{"index":12},"emissiveTexture":{"index":14},"emissiveFactor":[1,0.447957,0.07655142]}],"meshes":[{"name":"MOD_Wall_01_E_straight_med","primitives":[{"attributes":{"POSITION":0,"NORMAL":1,"TANGENT":2,"TEXCOORD_0":3,"TEXCOORD_1":4},"indices":5,"material":0}]},{"name":"MOD_WallCover_01_E_straight","primitives":[{"attributes":{"POSITION":6,"NORMAL":7,"TANGENT":8,"TEXCOORD_0":9,"TEXCOORD_1":10},"indices":11,"material":1}]},{"name":"MOD_Column_01_base","primitives":[{"attributes":{"POSITION":12,"NORMAL":13,"TANGENT":14,"TEXCOORD_0":15,"TEXCOORD_1":16},"indices":17,"material":1}]},{"name":"MOD_Column_01_large","primitives":[{"attributes":{"POSITION":18,"NORMAL":19,"TANGENT":20,"TEXCOORD_0":21,"TEXCOORD_1":22},"indices":23,"material":1}]},{"name":"MOD_Column_01_capital","primitives":[{"attributes":{"POSITION":24,"NORMAL":25,"TANGENT":26,"TEXCOORD_0":27,"TEXCOORD_1":28},"indices":29,"material":1}]},{"name":"MOD_Wall_01_E_straight_med_half_L","primitives":[{"attributes":{"POSITION":30,"NORMAL":31,"TANGENT":32,"TEXCOORD_0":33,"TEXCOORD_1":34},"indices":35,"material":2}]},{"name":"MOD_WallCover_01_E_straight_half_L","primitives":[{"attributes":{"POSITION":36,"NORMAL":37,"TANGENT":38,"TEXCOORD_0":39,"TEXCOORD_1":40},"indices":41,"material":1}]},{"name":"MOD_WallTrim_01_E_straight_half_L","primitives":[{"attributes":{"POSITION":42,"NORMAL":43,"TANGENT":44,"TEXCOORD_0":45,"TEXCOORD_1":46},"indices":47,"material":1}]},{"name":"MOD_Wall_01_E_convex_med","primitives":[{"attributes":{"POSITION":48,"NORMAL":49,"TANGENT":50,"TEXCOORD_0":51,"TEXCOORD_1":52},"indices":53,"material":2}]},{"name":"MOD_WallCover_01_E_convex","primitives":[{"attributes":{"POSITION":54,"NORMAL":55,"TANGENT":56,"TEXCOORD_0":57,"TEXCOORD_1":58},"indices":59,"material":1}]},{"name":"MOD_WallTrim_01_E_convex","primitives":[{"attributes":{"POSITION":60,"NORMAL":61,"TANGENT":62,"TEXCOORD_0":63,"TEXCOORD_1":64},"indices":65,"material":1}]},{"name":"MOD_Wall_01_E_straight_small","primitives":[{"attributes":{"POSITION":66,"NORMAL":67,"TANGENT":68,"TEXCOORD_0":69,"TEXCOORD_1":70},"indices":71,"material":2}]},{"name":"MOD_Floor_01_O_straight_med","primitives":[{"attributes":{"POSITION":72,"NORMAL":73,"TANGENT":74,"TEXCOORD_0":75,"TEXCOORD_1":76},"indices":77,"material":3}]},{"name":"SM_PROP_rug_interior_03","primitives":[{"attributes":{"POSITION":78,"NORMAL":79,"TANGENT":80,"TEXCOORD_0":81,"TEXCOORD_1":82},"indices":83,"material":4}]},{"name":"SM_PROP_candle_interior_05","primitives":[{"attributes":{"POSITION":84,"NORMAL":85,"TANGENT":86,"TEXCOORD_0":87,"TEXCOORD_1":88},"indices":89,"material":5}]},{"name":"MOD_Column_01_large","primitives":[{"attributes":{"POSITION":18,"NORMAL":19,"TANGENT":20,"TEXCOORD_0":21,"TEXCOORD_1":22},"indices":23,"material":3}]}],"scene":0,"scenes":[{"name":"PT1Decoration","nodes":[817]}],"textures":[{"source":0},{"source":1},{"source":2},{"source":3},{"source":4},{"source":5},{"source":6},{"source":7},{"source":8},{"source":9},{"source":10},{"source":11},{"source":12},{"source":13},{"source":14},{"source":15}],"extensions":{"KHR_lights_punctual":{"lights":[{"type":"point","name":"pointlight_fire_interior","color":[0.8960326,0.467875034,0.04294968],"intensity":4,"range":2.44},{"type":"point","name":"pointlight_fire_interior","color":[0.8960326,0.467875034,0.04294968],"intensity":4,"range":2.44}]}}}