{
	"asset":{
		"generator":"Khronos glTF Blender I/O v5.0.21",
		"version":"2.0"
	},
	"extensionsUsed":[
		"KHR_materials_clearcoat",
		"KHR_materials_transmission",
		"KHR_materials_specular",
		"KHR_materials_anisotropy"
	],
	"scene":0,
	"scenes":[
		{
			"name":"Scene",
			"nodes":[
				0,
				1
			]
		}
	],
	"nodes":[
		{
			"mesh":0,
			"name":"Box001",
			"rotation":[
				0.07219081372022629,
				0,
				0,
				0.9973909258842468
			],
			"scale":[
				0.006976201198995113,
				0.006976201198995113,
				0.006976201198995113
			],
			"translation":[
				-0.005675041116774082,
				1.2206474542617798,
				0.0542469322681427
			]
		},
		{
			"mesh":1,
			"name":"default",
			"scale":[
				0.02539999969303608,
				0.02539999969303608,
				0.02539999969303608
			]
		}
	],
	"materials":[
		{
			"doubleSided":true,
			"extensions":{
				"KHR_materials_clearcoat":{
					"clearcoatFactor":1,
					"clearcoatRoughnessFactor":0
				},
				"KHR_materials_transmission":{
					"transmissionFactor":0.8299999833106995
				},
				"KHR_materials_specular":{
					"specularColorFactor":[
						2.0,
						2.0,
						2.0
					]
				},
				"KHR_materials_anisotropy":{
					"anisotropyRotation":1.5707963267948966
				}
			},
			"name":"02 - Default",
			"pbrMetallicRoughness":{
				"baseColorFactor":[
					0.4028119444847107,
					0.7438830137252808,
					1,
					1
				],
				"metallicFactor":0,
				"roughnessFactor":0.38999998569488525
			}
		},
		{
			"doubleSided":true,
			"name":"Material.001",
			"pbrMetallicRoughness":{
				"baseColorTexture":{
					"index":0
				},
				"metallicFactor":0
			}
		}
	],
	"meshes":[
		{
			"name":"Mesh",
			"primitives":[
				{
					"attributes":{
						"POSITION":0,
						"NORMAL":1,
						"TEXCOORD_0":2
					},
					"indices":3,
					"material":0
				}
			]
		},
		{
			"name":"Mesh.001",
			"primitives":[
				{
					"attributes":{
						"POSITION":4,
						"NORMAL":5,
						"TEXCOORD_0":6
					},
					"indices":7,
					"material":1
				}
			]
		}
	],
	"textures":[
		{
			"sampler":0,
			"source":0
		}
	],
	"images":[
		{
			"mimeType":"image/png",
			"name":"Base_Crystal",
			"uri":"Base_Crystal.png"
		}
	],
	"accessors":[
		{
			"bufferView":0,
			"componentType":5126,
			"count":145,
			"max":[
				19.39922332763672,
				65.64759826660156,
				19.43644905090332
			],
			"min":[
				-17.45244789123535,
				-86.48969268798828,
				-17.813209533691406
			],
			"type":"VEC3"
		},
		{
			"bufferView":1,
			"componentType":5126,
			"count":145,
			"type":"VEC3"
		},
		{
			"bufferView":2,
			"componentType":5126,
			"count":145,
			"type":"VEC2"
		},
		{
			"bufferView":3,
			"componentType":5123,
			"count":420,
			"type":"SCALAR"
		},
		{
			"bufferView":4,
			"componentType":5126,
			"count":268,
			"max":[
				22.33754539489746,
				22.43020248413086,
				22.33754539489746
			],
			"min":[
				-22.33754539489746,
				-0.2753410041332245,
				-22.33754539489746
			],
			"type":"VEC3"
		},
		{
			"bufferView":5,
			"componentType":5126,
			"count":268,
			"type":"VEC3"
		},
		{
			"bufferView":6,
			"componentType":5126,
			"count":268,
			"type":"VEC2"
		},
		{
			"bufferView":7,
			"componentType":5123,
			"count":564,
			"type":"SCALAR"
		}
	],
	"bufferViews":[
		{
			"buffer":0,
			"byteLength":1740,
			"byteOffset":0,
			"target":34962
		},
		{
			"buffer":0,
			"byteLength":1740,
			"byteOffset":1740,
			"target":34962
		},
		{
			"buffer":0,
			"byteLength":1160,
			"byteOffset":3480,
			"target":34962
		},
		{
			"buffer":0,
			"byteLength":840,
			"byteOffset":4640,
			"target":34963
		},
		{
			"buffer":0,
			"byteLength":3216,
			"byteOffset":5480,
			"target":34962
		},
		{
			"buffer":0,
			"byteLength":3216,
			"byteOffset":8696,
			"target":34962
		},
		{
			"buffer":0,
			"byteLength":2144,
			"byteOffset":11912,
			"target":34962
		},
		{
			"buffer":0,
			"byteLength":1128,
			"byteOffset":14056,
			"target":34963
		}
	],
	"samplers":[
		{
			"magFilter":9729,
			"minFilter":9987
		}
	],
	"buffers":[
		{
			"byteLength":15184,
			"uri":"crystalactive.bin"
		}
	]
}
