{
	"asset":{
		"generator":"Khronos glTF Blender I/O v5.0.21",
		"version":"2.0"
	},
	"scene":0,
	"scenes":[
		{
			"name":"Scene",
			"nodes":[
				0
			]
		}
	],
	"nodes":[
		{
			"mesh":0,
			"name":"spirit",
			"rotation":[
				0.04477206990122795,
				0.017266150563955307,
				-0.7310073971748352,
				0.6806802153587341
			],
			"scale":[
				0.1669321060180664,
				0.1669321060180664,
				0.1669321060180664
			],
			"translation":[
				1.0442616939544678,
				-0.11132985353469849,
				0.0020222458988428116
			]
		}
	],
	"materials":[
		{
			"doubleSided":true,
			"name":"Material.001",
			"pbrMetallicRoughness":{
				"baseColorTexture":{
					"index":0
				},
				"metallicFactor":0,
				"roughnessFactor":0.5
			}
		}
	],
	"meshes":[
		{
			"name":"Plane.002",
			"primitives":[
				{
					"attributes":{
						"POSITION":0,
						"NORMAL":1,
						"TEXCOORD_0":2
					},
					"indices":3,
					"material":0
				}
			]
		}
	],
	"textures":[
		{
			"sampler":0,
			"source":0
		}
	],
	"images":[
		{
			"mimeType":"image/png",
			"name":"Soul_healthorbs",
			"uri":"ORBS_Text/Soul_healthorbs.png"
		}
	],
	"accessors":[
		{
			"bufferView":0,
			"componentType":5126,
			"count":706,
			"max":[
				6.449307441711426,
				0.26100948452949524,
				6.642251491546631
			],
			"min":[
				-6.897454738616943,
				-12.643110275268555,
				-6.64703893661499
			],
			"type":"VEC3"
		},
		{
			"bufferView":1,
			"componentType":5126,
			"count":706,
			"type":"VEC3"
		},
		{
			"bufferView":2,
			"componentType":5126,
			"count":706,
			"type":"VEC2"
		},
		{
			"bufferView":3,
			"componentType":5123,
			"count":3450,
			"type":"SCALAR"
		}
	],
	"bufferViews":[
		{
			"buffer":0,
			"byteLength":8472,
			"byteOffset":0,
			"target":34962
		},
		{
			"buffer":0,
			"byteLength":8472,
			"byteOffset":8472,
			"target":34962
		},
		{
			"buffer":0,
			"byteLength":5648,
			"byteOffset":16944,
			"target":34962
		},
		{
			"buffer":0,
			"byteLength":6900,
			"byteOffset":22592,
			"target":34963
		}
	],
	"samplers":[
		{
			"magFilter":9729,
			"minFilter":9987
		}
	],
	"buffers":[
		{
			"byteLength":29492,
			"uri":"orbs.bin"
		}
	]
}
