{"asset":{"version":"2.0","generator":"Unity 6000.2.9f1 glTFast 6.15.1"},"nodes":[{"name":"P_MOD_Wall_01_E_straight_large","mesh":0},{"name":"P_MOD_WallCover_01_E_straight (2)","mesh":1,"translation":[0,6,0]},{"name":"P_MOD_WallTrim_01_E_straight (2)","mesh":2},{"name":"COMP_Wall_01_E_straight_large (2)","children":[0,1,2],"translation":[-10.4000015,-2.5,2.5],"rotation":[0,-1,0,0]},{"name":"P_MOD_Wall_01_E_straight_large","mesh":0},{"name":"P_MOD_WallCover_01_E_straight (2)","mesh":1,"translation":[0,6,0]},{"name":"P_MOD_WallTrim_01_E_straight (2)","mesh":2},{"name":"COMP_Wall_01_E_straight_large (4)","children":[4,5,6],"translation":[-14.3800049,-2.5,2.5],"rotation":[0,-1,0,0]},{"name":"P_MOD_Wall_01_E_straight_large","mesh":0},{"name":"P_MOD_WallTrim_01_E_straight (2)","mesh":2},{"name":"COMP_Wall_01_E_straight_large (3)","children":[8,9],"translation":[-10.4000015,-8.25,2.5],"rotation":[0,-1,0,0]},{"name":"P_MOD_Wall_01_E_straight_large","mesh":0},{"name":"P_MOD_WallTrim_01_E_straight (2)","mesh":2},{"name":"COMP_Wall_01_E_straight_large (5)","children":[11,12],"translation":[-14.3800011,-8.25,2.5],"rotation":[0,-1,0,0]},{"name":"P_MOD_Stairs_01_E_straight_3 (6)","mesh":3,"translation":[-11.98,-4.13,2],"rotation":[0,1,0,2.95042946E-06]},{"name":"BackThrone","children":[3,7,10,13,14],"translation":[2.5,12,-17.1500015]}],"buffers":[{"uri":"BackThrone.bin","byteLength":44688}],"bufferViews":[{"buffer":0,"byteLength":72,"target":34963},{"buffer":0,"byteLength":672,"byteOffset":72,"target":34963},{"buffer":0,"byteLength":384,"byteOffset":744,"target":34963},{"buffer":0,"byteLength":1560,"byteOffset":1128,"target":34963},{"buffer":0,"byteLength":9632,"byteOffset":2688,"byteStride":56,"target":34962},{"buffer":0,"byteLength":6608,"byteOffset":12320,"byteStride":56,"target":34962},{"buffer":0,"byteLength":1344,"byteOffset":18928,"byteStride":56,"target":34962},{"buffer":0,"byteLength":24416,"byteOffset":20272,"byteStride":56,"target":34962}],"accessors":[{"bufferView":6,"componentType":5126,"count":24,"type":"VEC3","max":[4,5.7,0.5000001],"min":[-4.76837158E-07,-9.536743E-07,-1.013279E-06]},{"bufferView":6,"componentType":5126,"count":24,"type":"VEC3","byteOffset":12},{"bufferView":6,"componentType":5126,"count":24,"type":"VEC4","byteOffset":24},{"bufferView":6,"componentType":5126,"count":24,"type":"VEC2","byteOffset":40},{"bufferView":6,"componentType":5126,"count":24,"type":"VEC2","byteOffset":48},{"bufferView":0,"componentType":5123,"count":36,"type":"SCALAR"},{"bufferView":4,"componentType":5126,"count":172,"type":"VEC3","max":[4.00000143,0.346663684,0.653979659],"min":[0,-0.346670479,-0.153971672]},{"bufferView":4,"componentType":5126,"count":172,"type":"VEC3","byteOffset":12},{"bufferView":4,"componentType":5126,"count":172,"type":"VEC4","byteOffset":24},{"bufferView":4,"componentType":5126,"count":172,"type":"VEC2","byteOffset":40},{"bufferView":4,"componentType":5126,"count":172,"type":"VEC2","byteOffset":48},{"bufferView":1,"componentType":5123,"count":336,"type":"SCALAR"},{"bufferView":5,"componentType":5126,"count":118,"type":"VEC3","max":[4.00000048,0.570612,0.7742224],"min":[0,2.98023224E-07,0.499998569]},{"bufferView":5,"componentType":5126,"count":118,"type":"VEC3","byteOffset":12},{"bufferView":5,"componentType":5126,"count":118,"type":"VEC4","byteOffset":24},{"bufferView":5,"componentType":5126,"count":118,"type":"VEC2","byteOffset":40},{"bufferView":5,"componentType":5126,"count":118,"type":"VEC2","byteOffset":48},{"bufferView":2,"componentType":5123,"count":192,"type":"SCALAR"},{"bufferView":7,"componentType":5126,"count":436,"type":"VEC3","max":[4.11525726,0.0342027545,3.999999],"min":[-4.76837158E-07,-1.99999976,0]},{"bufferView":7,"componentType":5126,"count":436,"type":"VEC3","byteOffset":12},{"bufferView":7,"componentType":5126,"count":436,"type":"VEC4","byteOffset":24},{"bufferView":7,"componentType":5126,"count":436,"type":"VEC2","byteOffset":40},{"bufferView":7,"componentType":5126,"count":436,"type":"VEC2","byteOffset":48},{"bufferView":3,"componentType":5123,"count":780,"type":"SCALAR"}],"images":[{"name":"T_ENV_MOD_Wall_01_v3_N.png","uri":"T_ENV_MOD_Wall_01_v3_N.png","mimeType":"image/png"},{"name":"T_ENV_MOD_Wall_01_v3_BC.jpg","uri":"T_ENV_MOD_Wall_01_v3_BC.jpg","mimeType":"image/jpeg"},{"name":"T_ENV_MOD_Wall_01_v3_MTSM.jpg","uri":"T_ENV_MOD_Wall_01_v3_MTSM.jpg","mimeType":"image/jpeg"},{"name":"T_ENV_MOD_StoneStack_01_v3_N.png","uri":"T_ENV_MOD_StoneStack_01_v3_N.png","mimeType":"image/png"},{"name":"T_ENV_MOD_StoneStack_01_v3_BC.jpg","uri":"T_ENV_MOD_StoneStack_01_v3_BC.jpg","mimeType":"image/jpeg"},{"name":"T_ENV_MOD_StoneStack_01_v3_MTSM.jpg","uri":"T_ENV_MOD_StoneStack_01_v3_MTSM.jpg","mimeType":"image/jpeg"}],"materials":[{"name":"M_MOD_Wall_01_v3","pbrMetallicRoughness":{"roughnessFactor":0,"baseColorTexture":{"index":1},"metallicRoughnessTexture":{"index":2}},"normalTexture":{"index":0,"scale":1.82}},{"name":"M_MOD_Trim_Stone_01_v3","pbrMetallicRoughness":{"roughnessFactor":0,"baseColorTexture":{"index":4},"metallicRoughnessTexture":{"index":5}},"normalTexture":{"index":3}}],"meshes":[{"name":"MOD_Wall_01_E_straight_large","primitives":[{"attributes":{"POSITION":0,"NORMAL":1,"TANGENT":2,"TEXCOORD_0":3,"TEXCOORD_1":4},"indices":5,"material":0}]},{"name":"MOD_WallCover_01_E_straight","primitives":[{"attributes":{"POSITION":6,"NORMAL":7,"TANGENT":8,"TEXCOORD_0":9,"TEXCOORD_1":10},"indices":11,"material":1}]},{"name":"MOD_WallTrim_01_E_straight","primitives":[{"attributes":{"POSITION":12,"NORMAL":13,"TANGENT":14,"TEXCOORD_0":15,"TEXCOORD_1":16},"indices":17,"material":1}]},{"name":"MOD_Stairs_01_E_straight_3","primitives":[{"attributes":{"POSITION":18,"NORMAL":19,"TANGENT":20,"TEXCOORD_0":21,"TEXCOORD_1":22},"indices":23,"material":1}]}],"scene":0,"scenes":[{"name":"BackThrone","nodes":[15]}],"textures":[{"source":0},{"source":1},{"source":2},{"source":3},{"source":4},{"source":5}]}