{"asset":{"version":"2.0","generator":"Unity 6000.2.9f1 glTFast 6.15.1"},"nodes":[{"name":"PolyShape","mesh":0,"translation":[1.16998,-13.26178,162.665451],"scale":[25.7684,25.7684,25.7684]},{"name":"PolyShape (1)","mesh":1,"translation":[-31.50002,-12.3880806,200.355453],"scale":[25.7684,25.7684,25.7684]},{"name":"PolyShape (2)","mesh":2,"translation":[-31.50002,-12.3880806,193.745453],"scale":[25.7684,25.7684,25.7684]},{"name":"SpectraPathsLV1","children":[0,1,2],"translation":[5.16002,9.73808,14.87454]}],"buffers":[{"uri":"SpectraPathsLV1.bin","byteLength":7416}],"bufferViews":[{"buffer":0,"byteLength":168,"target":34963},{"buffer":0,"byteLength":168,"byteOffset":168,"target":34963},{"buffer":0,"byteLength":168,"byteOffset":336,"target":34963},{"buffer":0,"byteLength":2304,"byteOffset":504,"byteStride":48,"target":34962},{"buffer":0,"byteLength":2304,"byteOffset":2808,"byteStride":48,"target":34962},{"buffer":0,"byteLength":2304,"byteOffset":5112,"byteStride":48,"target":34962}],"accessors":[{"bufferView":5,"componentType":5126,"count":48,"type":"VEC3","max":[0.8187027,0.03,-6.595134],"min":[-0.0011767149,0,-6.851676]},{"bufferView":5,"componentType":5126,"count":48,"type":"VEC3","byteOffset":12},{"bufferView":5,"componentType":5126,"count":48,"type":"VEC4","byteOffset":24},{"bufferView":5,"componentType":5126,"count":48,"type":"VEC2","byteOffset":40},{"bufferView":1,"componentType":5123,"count":84,"type":"SCALAR"},{"bufferView":3,"componentType":5126,"count":48,"type":"VEC3","max":[0.4918888,0.03,-6.74123],"min":[0.315006524,0,-6.83701324]},{"bufferView":3,"componentType":5126,"count":48,"type":"VEC3","byteOffset":12},{"bufferView":3,"componentType":5126,"count":48,"type":"VEC4","byteOffset":24},{"bufferView":3,"componentType":5126,"count":48,"type":"VEC2","byteOffset":40},{"bufferView":0,"componentType":5123,"count":84,"type":"SCALAR"},{"bufferView":4,"componentType":5126,"count":48,"type":"VEC3","max":[0.4918888,0.03,-6.74123],"min":[0.315006524,0,-6.83701324]},{"bufferView":4,"componentType":5126,"count":48,"type":"VEC3","byteOffset":12},{"bufferView":4,"componentType":5126,"count":48,"type":"VEC4","byteOffset":24},{"bufferView":4,"componentType":5126,"count":48,"type":"VEC2","byteOffset":40},{"bufferView":2,"componentType":5123,"count":84,"type":"SCALAR"}],"images":[{"name":"LavaNormal.png","uri":"LavaNormal.png","mimeType":"image/png"}],"materials":[{"name":"EspectralPath","pbrMetallicRoughness":{"baseColorFactor":[0,0.981897652,1,1],"metallicFactor":0.631,"roughnessFactor":0.581},"normalTexture":{"index":0}}],"meshes":[{"name":"pb_Mesh-353364","primitives":[{"attributes":{"POSITION":0,"NORMAL":1,"TANGENT":2,"TEXCOORD_0":3},"indices":4,"material":0}]},{"name":"pb_Mesh-353364(Clone)","primitives":[{"attributes":{"POSITION":5,"NORMAL":6,"TANGENT":7,"TEXCOORD_0":8},"indices":9,"material":0}]},{"name":"pb_Mesh-353364(Clone)(Clone)","primitives":[{"attributes":{"POSITION":10,"NORMAL":11,"TANGENT":12,"TEXCOORD_0":13},"indices":14,"material":0}]}],"scene":0,"scenes":[{"name":"SpectraPathsLV1","nodes":[3]}],"textures":[{"source":0}]}