{
	"asset":{
		"generator":"Khronos glTF Blender I/O v5.0.21",
		"version":"2.0"
	},
	"extensionsUsed":[
		"KHR_materials_emissive_strength"
	],
	"scene":0,
	"scenes":[
		{
			"name":"Scene",
			"nodes":[
				0,
				1,
				2
			]
		}
	],
	"nodes":[
		{
			"mesh":0,
			"name":"spirit smoke"
		},
		{
			"mesh":1,
			"name":"outer orb"
		},
		{
			"mesh":2,
			"name":"inner orb"
		}
	],
	"materials":[
		{
			"doubleSided":true,
			"emissiveFactor":[
				0.007497033588544033,
				0.10000000149011612,
				0.03290402938282533
			],
			"name":"spirit_smoke",
			"pbrMetallicRoughness":{
				"baseColorTexture":{
					"index":0
				},
				"metallicFactor":0,
				"roughnessFactor":0.5
			}
		},
		{
			"alphaMode":"BLEND",
			"doubleSided":true,
			"emissiveFactor":[
				0.05215969590980585,
				0.30000001192092896,
				0.23073514424702068
			],
			"name":"outer_soulorb",
			"pbrMetallicRoughness":{
				"baseColorFactor":[
					0.0036270995624363422,
					0.8000156879425049,
					0.6341846585273743,
					0.4000000059604645
				],
				"metallicFactor":0,
				"roughnessFactor":0
			}
		},
		{
			"doubleSided":true,
			"emissiveFactor":[
				1,
				0.03190961852669716,
				0.003375821281224489
			],
			"extensions":{
				"KHR_materials_emissive_strength":{
					"emissiveStrength":2
				}
			},
			"name":"inner_soulorb",
			"pbrMetallicRoughness":{
				"baseColorFactor":[
					0.800039529800415,
					0.07944484055042267,
					0.04821743071079254,
					1
				],
				"metallicFactor":0,
				"roughnessFactor":0.5
			}
		}
	],
	"meshes":[
		{
			"name":"Plane.002",
			"primitives":[
				{
					"attributes":{
						"POSITION":0,
						"NORMAL":1,
						"TEXCOORD_0":2,
						"TANGENT":3
					},
					"indices":4,
					"material":0
				}
			]
		},
		{
			"name":"Plane.003",
			"primitives":[
				{
					"attributes":{
						"POSITION":5,
						"NORMAL":6,
						"TEXCOORD_0":7,
						"TANGENT":8
					},
					"indices":9,
					"material":1
				}
			]
		},
		{
			"name":"Plane.004",
			"primitives":[
				{
					"attributes":{
						"POSITION":10,
						"NORMAL":11,
						"TEXCOORD_0":12,
						"TANGENT":13
					},
					"indices":9,
					"material":2
				}
			]
		}
	],
	"textures":[
		{
			"sampler":0,
			"source":0
		}
	],
	"images":[
		{
			"mimeType":"image/png",
			"name":"Material.001-Color (1)",
			"uri":"soulorb_materials/Material.001-Color%20%281%29.png"
		}
	],
	"accessors":[
		{
			"bufferView":0,
			"componentType":5126,
			"count":192,
			"max":[
				1.103001594543457,
				1.0906286239624023,
				1.0905377864837646
			],
			"min":[
				-1.0598700046539307,
				-1.1196014881134033,
				-1.1371116638183594
			],
			"type":"VEC3"
		},
		{
			"bufferView":1,
			"componentType":5126,
			"count":192,
			"type":"VEC3"
		},
		{
			"bufferView":2,
			"componentType":5126,
			"count":192,
			"type":"VEC2"
		},
		{
			"bufferView":3,
			"componentType":5126,
			"count":192,
			"type":"VEC4"
		},
		{
			"bufferView":4,
			"componentType":5123,
			"count":570,
			"type":"SCALAR"
		},
		{
			"bufferView":5,
			"componentType":5126,
			"count":514,
			"max":[
				0.7819421291351318,
				0.7819425463676453,
				0.7819420695304871
			],
			"min":[
				-0.7819417119026184,
				-0.7819425463676453,
				-0.78194260597229
			],
			"type":"VEC3"
		},
		{
			"bufferView":6,
			"componentType":5126,
			"count":514,
			"type":"VEC3"
		},
		{
			"bufferView":7,
			"componentType":5126,
			"count":514,
			"type":"VEC2"
		},
		{
			"bufferView":8,
			"componentType":5126,
			"count":514,
			"type":"VEC4"
		},
		{
			"bufferView":9,
			"componentType":5123,
			"count":2880,
			"type":"SCALAR"
		},
		{
			"bufferView":10,
			"componentType":5126,
			"count":514,
			"max":[
				0.42752161622047424,
				0.4275217056274414,
				0.4275214374065399
			],
			"min":[
				-0.4275211691856384,
				-0.42752164602279663,
				-0.4275217354297638
			],
			"type":"VEC3"
		},
		{
			"bufferView":11,
			"componentType":5126,
			"count":514,
			"type":"VEC3"
		},
		{
			"bufferView":12,
			"componentType":5126,
			"count":514,
			"type":"VEC2"
		},
		{
			"bufferView":13,
			"componentType":5126,
			"count":514,
			"type":"VEC4"
		}
	],
	"bufferViews":[
		{
			"buffer":0,
			"byteLength":2304,
			"byteOffset":0,
			"target":34962
		},
		{
			"buffer":0,
			"byteLength":2304,
			"byteOffset":2304,
			"target":34962
		},
		{
			"buffer":0,
			"byteLength":1536,
			"byteOffset":4608,
			"target":34962
		},
		{
			"buffer":0,
			"byteLength":3072,
			"byteOffset":6144,
			"target":34962
		},
		{
			"buffer":0,
			"byteLength":1140,
			"byteOffset":9216,
			"target":34963
		},
		{
			"buffer":0,
			"byteLength":6168,
			"byteOffset":10356,
			"target":34962
		},
		{
			"buffer":0,
			"byteLength":6168,
			"byteOffset":16524,
			"target":34962
		},
		{
			"buffer":0,
			"byteLength":4112,
			"byteOffset":22692,
			"target":34962
		},
		{
			"buffer":0,
			"byteLength":8224,
			"byteOffset":26804,
			"target":34962
		},
		{
			"buffer":0,
			"byteLength":5760,
			"byteOffset":35028,
			"target":34963
		},
		{
			"buffer":0,
			"byteLength":6168,
			"byteOffset":40788,
			"target":34962
		},
		{
			"buffer":0,
			"byteLength":6168,
			"byteOffset":46956,
			"target":34962
		},
		{
			"buffer":0,
			"byteLength":4112,
			"byteOffset":53124,
			"target":34962
		},
		{
			"buffer":0,
			"byteLength":8224,
			"byteOffset":57236,
			"target":34962
		}
	],
	"samplers":[
		{
			"magFilter":9729,
			"minFilter":9987
		}
	],
	"buffers":[
		{
			"byteLength":65460,
			"uri":"healthorbs.bin"
		}
	]
}
