{"asset":{"version":"2.0","generator":"Unity 6000.2.9f1 glTFast 6.15.1"},"nodes":[{"name":"P_MOD_Stairs_01_E_straight_1","mesh":0,"translation":[6.00999832,0.103000164,7.588131]},{"name":"P_MOD_Stairs_01_E_straight_1 (2)","mesh":0,"translation":[14.07,-7.787,7.61000061],"rotation":[0,-1,0,0]},{"name":"P_MOD_Stairs_01_E_straight_1 (1)","mesh":0,"translation":[10.001,-3.884,7.588131]},{"name":"P_MOD_Stairs_01_E_straight_1 (4)","mesh":0,"translation":[6.049999,-15.677,-4.33999634]},{"name":"P_MOD_Stairs_01_E_straight_1 (5)","mesh":0,"translation":[10.0400009,-19.6820011,-4.33999634]},{"name":"P_MOD_Stairs_01_E_straight_1 (6)","mesh":0,"translation":[14.0400009,-23.6470013,-4.33999634]},{"name":"P_MOD_Stairs_01_E_straight_1 (3)","mesh":0,"translation":[10.085,-11.82,7.56999969],"rotation":[0,-1,0,0]},{"name":"StairsWaterfall","children":[0,1,2,3,4,5,6]},{"name":"P_MOD_Wall_01_E_straight_large","mesh":1},{"name":"P_MOD_WallCover_01_E_straight (2)","mesh":2,"translation":[0,6,0]},{"name":"P_MOD_WallTrim_01_E_straight (2)","mesh":3},{"name":"COMP_Wall_01_E_straight_large (62)","children":[8,9,10],"translation":[-0.129997253,0.11800009,1.19000244],"rotation":[0,-0.7071068,0,0.7071068]},{"name":"P_MOD_Wall_01_E_straight_large","mesh":1},{"name":"P_MOD_WallCover_01_E_straight (2)","mesh":2,"translation":[0,6,0]},{"name":"P_MOD_WallTrim_01_E_straight (2)","mesh":3},{"name":"COMP_Wall_01_E_straight_large (67)","children":[12,13,14],"translation":[-0.129997253,-6.132,1.19000244],"rotation":[0,-0.7071068,0,0.7071068]},{"name":"P_MOD_Wall_01_E_straight_large","mesh":1,"translation":[0,0.15,0]},{"name":"P_MOD_WallCover_01_E_straight (2)","mesh":2,"translation":[0,6,0]},{"name":"P_MOD_WallTrim_01_E_straight (2)","mesh":3},{"name":"COMP_Wall_01_E_straight_large (92)","children":[16,17,18],"translation":[-0.129997253,-6.282,-2.779995],"rotation":[0,-0.7071068,0,0.7071068]},{"name":"P_MOD_Wall_01_E_straight_large","mesh":1},{"name":"P_MOD_WallCover_01_E_straight (2)","mesh":2,"translation":[0,6,0]},{"name":"P_MOD_WallTrim_01_E_straight (2)","mesh":3},{"name":"COMP_Wall_01_E_straight_large (72)","children":[20,21,22],"translation":[-0.129997253,-12.2619991,1.19000244],"rotation":[0,-0.7071068,0,0.7071068]},{"name":"P_MOD_Wall_01_E_straight_large","mesh":1},{"name":"P_MOD_WallCover_01_E_straight (2)","mesh":2,"translation":[0,6,0]},{"name":"P_MOD_WallTrim_01_E_straight (2)","mesh":3},{"name":"COMP_Wall_01_E_straight_large (93)","children":[24,25,26],"translation":[-0.129997253,-12.2619991,-2.779995],"rotation":[0,-0.7071068,0,0.7071068]},{"name":"P_MOD_Wall_01_E_straight_large","mesh":1},{"name":"P_MOD_WallCover_01_E_straight (2)","mesh":2,"translation":[0,6,0]},{"name":"P_MOD_WallTrim_01_E_straight (2)","mesh":3},{"name":"COMP_Wall_01_E_straight_large (77)","children":[28,29,30],"translation":[-0.129997253,-18.1520023,1.19000244],"rotation":[0,-0.7071068,0,0.7071068]},{"name":"P_MOD_Wall_01_E_straight_large","mesh":1},{"name":"P_MOD_WallCover_01_E_straight (2)","mesh":2,"translation":[0,6,0]},{"name":"P_MOD_WallTrim_01_E_straight (2)","mesh":3},{"name":"COMP_Wall_01_E_straight_large (94)","children":[32,33,34],"translation":[-0.129997253,-18.1520023,-2.779995],"rotation":[0,-0.7071068,0,0.7071068]},{"name":"P_MOD_Wall_01_E_straight_large","mesh":1},{"name":"P_MOD_WallCover_01_E_straight (2)","mesh":2,"translation":[0,6,0]},{"name":"P_MOD_WallTrim_01_E_straight (2)","mesh":3},{"name":"COMP_Wall_01_E_straight_large (82)","children":[36,37,38],"translation":[-0.129997253,-24.0420017,1.19000244],"rotation":[0,-0.7071068,0,0.7071068]},{"name":"P_MOD_Wall_01_E_straight_large","mesh":1},{"name":"P_MOD_WallCover_01_E_straight (2)","mesh":2,"translation":[0,6,0]},{"name":"P_MOD_WallTrim_01_E_straight (2)","mesh":3},{"name":"COMP_Wall_01_E_straight_large (95)","children":[40,41,42],"translation":[-0.129997253,-24.0420017,-2.779995],"rotation":[0,-0.7071068,0,0.7071068]},{"name":"P_MOD_Wall_01_E_straight_large","mesh":1},{"name":"COMP_Wall_01_E_straight_large (97)","children":[44],"translation":[-0.6500012,-23.5420017,-2.31],"rotation":[0,-1,0,0]},{"name":"P_MOD_Wall_01_E_straight_large","mesh":1},{"name":"P_MOD_WallCover_01_E_straight (2)","mesh":2,"translation":[0,6,0]},{"name":"P_MOD_WallTrim_01_E_straight (2)","mesh":3},{"name":"COMP_Wall_01_E_straight_large (100)","children":[46,47,48],"translation":[-0.6500012,-18.197,-2.31],"rotation":[0,-1,0,0]},{"name":"P_MOD_Wall_01_E_straight_large","mesh":1},{"name":"P_MOD_WallCover_01_E_straight (2)","mesh":2,"translation":[0,6,0]},{"name":"COMP_Wall_01_E_straight_large (101)","children":[50,51],"translation":[-0.65,-12.24,-2.31],"rotation":[0,-1,0,0]},{"name":"P_MOD_Wall_01_E_straight_large","mesh":1},{"name":"P_MOD_WallCover_01_E_straight (2)","mesh":2,"translation":[0,6,0]},{"name":"P_MOD_WallTrim_01_E_straight (2)","mesh":3},{"name":"COMP_Wall_01_E_straight_large (87)","children":[53,54,55],"translation":[-0.129997253,-29.892,1.19000244],"rotation":[0,-0.7071068,0,0.7071068]},{"name":"P_MOD_Wall_01_E_straight_large","mesh":1},{"name":"P_MOD_WallCover_01_E_straight (2)","mesh":2,"translation":[0,6,0]},{"name":"P_MOD_WallTrim_01_E_straight (2)","mesh":3},{"name":"COMP_Wall_01_E_straight_large (96)","children":[57,58,59],"translation":[-0.129997253,-29.892,-2.779995],"rotation":[0,-0.7071068,0,0.7071068]},{"name":"P_MOD_Wall_01_E_straight_large","mesh":1},{"name":"P_MOD_WallCover_01_E_straight (2)","mesh":2,"translation":[0,6,0]},{"name":"P_MOD_WallTrim_01_E_straight (2)","mesh":3},{"name":"COMP_Wall_01_E_straight_large (98)","children":[61,62,63],"translation":[-0.6800003,-29.892,-2.31000137],"rotation":[0,-1,0,0]},{"name":"P_MOD_Wall_01_E_straight_large","mesh":1},{"name":"P_MOD_WallCover_01_E_straight (2)","mesh":2,"translation":[0,6,0]},{"name":"P_MOD_WallTrim_01_E_straight (2)","mesh":3},{"name":"COMP_Wall_01_E_straight_large (63)","children":[65,66,67],"translation":[-0.129997253,0.11800009,5.16000366],"rotation":[0,-0.7071068,0,0.7071068]},{"name":"P_MOD_Wall_01_E_straight_large","mesh":1},{"name":"P_MOD_WallCover_01_E_straight (2)","mesh":2,"translation":[0,6,0]},{"name":"P_MOD_WallTrim_01_E_straight (2)","mesh":3},{"name":"COMP_Wall_01_E_straight_large (68)","children":[69,70,71],"translation":[-0.129997253,-6.132,5.16000366],"rotation":[0,-0.7071068,0,0.7071068]},{"name":"P_MOD_Wall_01_E_straight_large","mesh":1},{"name":"P_MOD_WallCover_01_E_straight (2)","mesh":2,"translation":[0,6,0]},{"name":"P_MOD_WallTrim_01_E_straight (2)","mesh":3},{"name":"COMP_Wall_01_E_straight_large (73)","children":[73,74,75],"translation":[-0.129997253,-12.2619991,5.16000366],"rotation":[0,-0.7071068,0,0.7071068]},{"name":"P_MOD_Wall_01_E_straight_large","mesh":1},{"name":"P_MOD_WallCover_01_E_straight (2)","mesh":2,"translation":[0,6,0]},{"name":"P_MOD_WallTrim_01_E_straight (2)","mesh":3},{"name":"COMP_Wall_01_E_straight_large (78)","children":[77,78,79],"translation":[-0.129997253,-18.1520023,5.16000366],"rotation":[0,-0.7071068,0,0.7071068]},{"name":"P_MOD_Wall_01_E_straight_large","mesh":1},{"name":"P_MOD_WallCover_01_E_straight (2)","mesh":2,"translation":[0,6,0]},{"name":"P_MOD_WallTrim_01_E_straight (2)","mesh":3},{"name":"COMP_Wall_01_E_straight_large (83)","children":[81,82,83],"translation":[-0.129997253,-24.0420017,5.16000366],"rotation":[0,-0.7071068,0,0.7071068]},{"name":"P_MOD_Wall_01_E_straight_large","mesh":1},{"name":"P_MOD_WallCover_01_E_straight (2)","mesh":2,"translation":[0,6,0]},{"name":"P_MOD_WallTrim_01_E_straight (2)","mesh":3},{"name":"COMP_Wall_01_E_straight_large (88)","children":[85,86,87],"translation":[-0.129997253,-29.892,5.16000366],"rotation":[0,-0.7071068,0,0.7071068]},{"name":"P_MOD_Wall_01_E_straight_large","mesh":1},{"name":"P_MOD_WallCover_01_E_straight (2)","mesh":2,"translation":[0,6,0]},{"name":"P_MOD_WallTrim_01_E_straight (2)","mesh":3},{"name":"COMP_Wall_01_E_straight_large (64)","children":[89,90,91],"translation":[3.81000137,0.06800008,15.12001]},{"name":"P_MOD_Wall_01_E_straight_large","mesh":1},{"name":"P_MOD_WallCover_01_E_straight (2)","mesh":2,"translation":[0,6,0]},{"name":"P_MOD_WallTrim_01_E_straight (2)","mesh":3},{"name":"COMP_Wall_01_E_straight_large (69)","children":[93,94,95],"translation":[3.81000137,-6.18199968,15.12001]},{"name":"P_MOD_Wall_01_E_straight_large","mesh":1},{"name":"P_MOD_WallCover_01_E_straight (2)","mesh":2,"translation":[0,6,0]},{"name":"P_MOD_WallTrim_01_E_straight (2)","mesh":3},{"name":"COMP_Wall_01_E_straight_large (74)","children":[97,98,99],"translation":[3.81000137,-12.3119984,15.12001]},{"name":"P_MOD_Wall_01_E_straight_large","mesh":1},{"name":"P_MOD_WallCover_01_E_straight (2)","mesh":2,"translation":[0,6,0]},{"name":"P_MOD_WallTrim_01_E_straight (2)","mesh":3},{"name":"COMP_Wall_01_E_straight_large (79)","children":[101,102,103],"translation":[3.81000137,-18.2020016,15.12001]},{"name":"P_MOD_Wall_01_E_straight_large","mesh":1},{"name":"P_MOD_WallCover_01_E_straight (2)","mesh":2,"translation":[0,6,0]},{"name":"P_MOD_WallTrim_01_E_straight (2)","mesh":3},{"name":"COMP_Wall_01_E_straight_large (84)","children":[105,106,107],"translation":[3.81000137,-24.092001,15.12001]},{"name":"P_MOD_Wall_01_E_straight_large","mesh":1},{"name":"P_MOD_WallCover_01_E_straight (2)","mesh":2,"translation":[0,6,0]},{"name":"P_MOD_WallTrim_01_E_straight (2)","mesh":3},{"name":"COMP_Wall_01_E_straight_large (89)","children":[109,110,111],"translation":[3.81000137,-29.942,15.12001]},{"name":"P_MOD_Wall_01_E_straight_large","mesh":1},{"name":"P_MOD_WallCover_01_E_straight (2)","mesh":2,"translation":[0,6,0]},{"name":"P_MOD_WallTrim_01_E_straight (2)","mesh":3},{"name":"COMP_Wall_01_E_straight_large (65)","children":[113,114,115],"translation":[7.78000259,0.06800008,15.12001]},{"name":"P_MOD_Wall_01_E_straight_large","mesh":1},{"name":"P_MOD_WallCover_01_E_straight (2)","mesh":2,"translation":[0,6,0]},{"name":"P_MOD_WallTrim_01_E_straight (2)","mesh":3},{"name":"COMP_Wall_01_E_straight_large (70)","children":[117,118,119],"translation":[7.78000259,-6.18199968,15.12001]},{"name":"P_MOD_Wall_01_E_straight_large","mesh":1},{"name":"P_MOD_WallCover_01_E_straight (2)","mesh":2,"translation":[0,6,0]},{"name":"P_MOD_WallTrim_01_E_straight (2)","mesh":3},{"name":"COMP_Wall_01_E_straight_large (75)","children":[121,122,123],"translation":[7.78000259,-12.3119984,15.12001]},{"name":"P_MOD_Wall_01_E_straight_large","mesh":1},{"name":"P_MOD_WallCover_01_E_straight (2)","mesh":2,"translation":[0,6,0]},{"name":"P_MOD_WallTrim_01_E_straight (2)","mesh":3},{"name":"COMP_Wall_01_E_straight_large (80)","children":[125,126,127],"translation":[7.78000259,-18.2020016,15.12001]},{"name":"P_MOD_Wall_01_E_straight_large","mesh":1},{"name":"P_MOD_WallCover_01_E_straight (2)","mesh":2,"translation":[0,6,0]},{"name":"P_MOD_WallTrim_01_E_straight (2)","mesh":3},{"name":"COMP_Wall_01_E_straight_large (85)","children":[129,130,131],"translation":[7.78000259,-24.092001,15.12001]},{"name":"P_MOD_Wall_01_E_straight_large","mesh":1},{"name":"P_MOD_WallCover_01_E_straight (2)","mesh":2,"translation":[0,6,0]},{"name":"P_MOD_WallTrim_01_E_straight (2)","mesh":3},{"name":"COMP_Wall_01_E_straight_large (90)","children":[133,134,135],"translation":[7.78000259,-29.942,15.12001]},{"name":"P_MOD_Wall_01_E_straight_large","mesh":1},{"name":"P_MOD_WallCover_01_E_straight (2)","mesh":2,"translation":[0,6,0]},{"name":"P_MOD_WallTrim_01_E_straight (2)","mesh":3},{"name":"COMP_Wall_01_E_straight_large (66)","children":[137,138,139],"translation":[11.7500038,0.06800008,15.12001]},{"name":"P_MOD_Wall_01_E_straight_large","mesh":1},{"name":"P_MOD_WallCover_01_E_straight (2)","mesh":2,"translation":[0,6,0]},{"name":"P_MOD_WallTrim_01_E_straight (2)","mesh":3},{"name":"COMP_Wall_01_E_straight_large (71)","children":[141,142,143],"translation":[11.7500038,-6.18199968,15.12001]},{"name":"P_MOD_Wall_01_E_straight_large","mesh":1},{"name":"P_MOD_WallCover_01_E_straight (2)","mesh":2,"translation":[0,6,0]},{"name":"P_MOD_WallTrim_01_E_straight (2)","mesh":3},{"name":"COMP_Wall_01_E_straight_large (76)","children":[145,146,147],"translation":[11.7500038,-12.3119984,15.12001]},{"name":"P_MOD_Wall_01_E_straight_large","mesh":1},{"name":"P_MOD_WallCover_01_E_straight (2)","mesh":2,"translation":[0,6,0]},{"name":"P_MOD_WallTrim_01_E_straight (2)","mesh":3},{"name":"COMP_Wall_01_E_straight_large (81)","children":[149,150,151],"translation":[11.7500038,-18.2020016,15.12001]},{"name":"P_MOD_Wall_01_E_straight_large","mesh":1},{"name":"P_MOD_WallCover_01_E_straight (2)","mesh":2,"translation":[0,6,0]},{"name":"P_MOD_WallTrim_01_E_straight (2)","mesh":3},{"name":"COMP_Wall_01_E_straight_large (86)","children":[153,154,155],"translation":[11.7500038,-24.092001,15.12001]},{"name":"P_MOD_Wall_01_E_straight_large","mesh":1},{"name":"P_MOD_WallCover_01_E_straight (2)","mesh":2,"translation":[0,6,0]},{"name":"P_MOD_WallTrim_01_E_straight (2)","mesh":3},{"name":"COMP_Wall_01_E_straight_large (91)","children":[157,158,159],"translation":[11.7500038,-29.942,15.12001]},{"name":"P_MOD_Wall_01_E_straight_large_half_R","mesh":4},{"name":"P_MOD_WallCover_01_E_straight_half_R (2)","mesh":5,"translation":[0,6,0]},{"name":"P_MOD_WallTrim_01_E_straight_half_R (2)","mesh":6},{"name":"COMP_Wall_01_E_straight_large_half_R (3)","children":[161,162,163],"translation":[-0.130001068,0.11800009,9.150002],"rotation":[0,-0.7071068,0,0.7071068]},{"name":"P_MOD_Wall_01_E_straight_large_half_R","mesh":4},{"name":"P_MOD_WallCover_01_E_straight_half_R (2)","mesh":5,"translation":[0,6,0]},{"name":"P_MOD_WallTrim_01_E_straight_half_R (2)","mesh":6},{"name":"COMP_Wall_01_E_straight_large_half_R (7)","children":[165,166,167],"translation":[-0.130001068,-6.132,9.150002],"rotation":[0,-0.7071068,0,0.7071068]},{"name":"P_MOD_Wall_01_E_straight_large_half_R","mesh":4},{"name":"P_MOD_WallCover_01_E_straight_half_R (2)","mesh":5,"translation":[0,6,0]},{"name":"P_MOD_WallTrim_01_E_straight_half_R (2)","mesh":6},{"name":"COMP_Wall_01_E_straight_large_half_R (9)","children":[169,170,171],"translation":[-0.130001068,-12.2619991,9.150002],"rotation":[0,-0.7071068,0,0.7071068]},{"name":"P_MOD_Wall_01_E_straight_large_half_R","mesh":4},{"name":"P_MOD_WallCover_01_E_straight_half_R (2)","mesh":5,"translation":[0,6,0]},{"name":"P_MOD_WallTrim_01_E_straight_half_R (2)","mesh":6},{"name":"COMP_Wall_01_E_straight_large_half_R (11)","children":[173,174,175],"translation":[-0.130001068,-18.1520023,9.150002],"rotation":[0,-0.7071068,0,0.7071068]},{"name":"P_MOD_Wall_01_E_straight_large_half_R","mesh":4},{"name":"P_MOD_WallCover_01_E_straight_half_R (2)","mesh":5,"translation":[0,6,0]},{"name":"P_MOD_WallTrim_01_E_straight_half_R (2)","mesh":6},{"name":"COMP_Wall_01_E_straight_large_half_R (13)","children":[177,178,179],"translation":[-0.130001068,-24.0420017,9.150002],"rotation":[0,-0.7071068,0,0.7071068]},{"name":"P_MOD_Wall_01_E_straight_large_half_R","mesh":4},{"name":"P_MOD_WallCover_01_E_straight_half_R (2)","mesh":5,"translation":[0,6,0]},{"name":"P_MOD_WallTrim_01_E_straight_half_R (2)","mesh":6},{"name":"COMP_Wall_01_E_straight_large_half_R (15)","children":[181,182,183],"translation":[-0.130001068,-29.892,9.150002],"rotation":[0,-0.7071068,0,0.7071068]},{"name":"P_MOD_Wall_01_E_straight_large_half_R","mesh":4},{"name":"P_MOD_WallCover_01_E_straight_half_R (2)","mesh":5,"translation":[0,6,0]},{"name":"P_MOD_WallTrim_01_E_straight_half_R (2)","mesh":6},{"name":"COMP_Wall_01_E_straight_large_half_R (6)","children":[185,186,187],"translation":[15.7100029,0.11800009,15.1100082]},{"name":"P_MOD_Wall_01_E_straight_large_half_R","mesh":4},{"name":"P_MOD_WallCover_01_E_straight_half_R (2)","mesh":5,"translation":[0,6,0]},{"name":"P_MOD_WallTrim_01_E_straight_half_R (2)","mesh":6},{"name":"COMP_Wall_01_E_straight_large_half_R (8)","children":[189,190,191],"translation":[15.7100029,-6.132,15.1100082]},{"name":"P_MOD_Wall_01_E_straight_large_half_R","mesh":4},{"name":"P_MOD_WallCover_01_E_straight_half_R (2)","mesh":5,"translation":[0,6,0]},{"name":"P_MOD_WallTrim_01_E_straight_half_R (2)","mesh":6},{"name":"COMP_Wall_01_E_straight_large_half_R (10)","children":[193,194,195],"translation":[15.7100029,-12.2619991,15.1100082]},{"name":"P_MOD_Wall_01_E_straight_large_half_R","mesh":4},{"name":"P_MOD_WallCover_01_E_straight_half_R (2)","mesh":5,"translation":[0,6,0]},{"name":"P_MOD_WallTrim_01_E_straight_half_R (2)","mesh":6},{"name":"COMP_Wall_01_E_straight_large_half_R (12)","children":[197,198,199],"translation":[15.7100029,-18.1520023,15.1100082]},{"name":"P_MOD_Wall_01_E_straight_large_half_R","mesh":4},{"name":"P_MOD_WallCover_01_E_straight_half_R (2)","mesh":5,"translation":[0,6,0]},{"name":"P_MOD_WallTrim_01_E_straight_half_R (2)","mesh":6},{"name":"COMP_Wall_01_E_straight_large_half_R (14)","children":[201,202,203],"translation":[15.7100029,-24.0420017,15.1100082]},{"name":"P_MOD_Wall_01_E_straight_large_half_R","mesh":4},{"name":"P_MOD_WallCover_01_E_straight_half_R (2)","mesh":5,"translation":[0,6,0]},{"name":"P_MOD_WallTrim_01_E_straight_half_R (2)","mesh":6},{"name":"COMP_Wall_01_E_straight_large_half_R (16)","children":[205,206,207],"translation":[15.7100029,-29.892,15.1100082]},{"name":"P_MOD_Wall_01_E_convex_large","mesh":7},{"name":"P_MOD_WallCover_01_E_convex (2)","mesh":8,"translation":[0,6,0]},{"name":"P_MOD_WallTrim_01_E_convex (2)","mesh":9},{"name":"COMP_Wall_01_E_convex_large","children":[209,210,211],"translation":[3.81999969,0.0529999733,11.1299973],"rotation":[0,-0.7071068,0,0.7071068]},{"name":"P_MOD_Wall_01_E_convex_large","mesh":7},{"name":"P_MOD_WallCover_01_E_convex (2)","mesh":8,"translation":[0,6,0]},{"name":"P_MOD_WallTrim_01_E_convex (2)","mesh":9},{"name":"COMP_Wall_01_E_convex_large (2)","children":[213,214,215],"translation":[3.81999969,-6.197,11.1299973],"rotation":[0,-0.7071068,0,0.7071068]},{"name":"P_MOD_Wall_01_E_convex_large","mesh":7},{"name":"P_MOD_WallCover_01_E_convex (2)","mesh":8,"translation":[0,6,0]},{"name":"P_MOD_WallTrim_01_E_convex (2)","mesh":9},{"name":"COMP_Wall_01_E_convex_large (4)","children":[217,218,219],"translation":[3.81999969,-12.327,11.1299973],"rotation":[0,-0.7071068,0,0.7071068]},{"name":"P_MOD_Wall_01_E_convex_large","mesh":7},{"name":"P_MOD_WallCover_01_E_convex (2)","mesh":8,"translation":[0,6,0]},{"name":"P_MOD_WallTrim_01_E_convex (2)","mesh":9},{"name":"COMP_Wall_01_E_convex_large (6)","children":[221,222,223],"translation":[3.81999969,-18.217001,11.1299973],"rotation":[0,-0.7071068,0,0.7071068]},{"name":"P_MOD_Wall_01_E_convex_large","mesh":7},{"name":"P_MOD_WallCover_01_E_convex (2)","mesh":8,"translation":[0,6,0]},{"name":"P_MOD_WallTrim_01_E_convex (2)","mesh":9},{"name":"COMP_Wall_01_E_convex_large (8)","children":[225,226,227],"translation":[3.81999969,-24.107,11.1299973],"rotation":[0,-0.7071068,0,0.7071068]},{"name":"P_MOD_Wall_01_E_convex_large","mesh":7},{"name":"P_MOD_WallCover_01_E_convex (2)","mesh":8,"translation":[0,6,0]},{"name":"P_MOD_WallTrim_01_E_convex (2)","mesh":9},{"name":"COMP_Wall_01_E_convex_large (10)","children":[229,230,231],"translation":[3.81999969,-29.9569988,11.1299973],"rotation":[0,-0.7071068,0,0.7071068]},{"name":"P_MOD_Wall_01_E_convex_large","mesh":7},{"name":"P_MOD_WallCover_01_E_convex (2)","mesh":8,"translation":[0,6,0]},{"name":"P_MOD_WallTrim_01_E_convex (2)","mesh":9},{"name":"COMP_Wall_01_E_convex_large (1)","children":[233,234,235],"translation":[17.7199974,0.0529999733,11.1299973]},{"name":"P_MOD_Wall_01_E_convex_large","mesh":7},{"name":"P_MOD_WallCover_01_E_convex (2)","mesh":8,"translation":[0,6,0]},{"name":"P_MOD_WallTrim_01_E_convex (2)","mesh":9},{"name":"COMP_Wall_01_E_convex_large (3)","children":[237,238,239],"translation":[17.7199974,-6.197,11.1299973]},{"name":"P_MOD_Wall_01_E_convex_large","mesh":7},{"name":"P_MOD_WallCover_01_E_convex (2)","mesh":8,"translation":[0,6,0]},{"name":"P_MOD_WallTrim_01_E_convex (2)","mesh":9},{"name":"COMP_Wall_01_E_convex_large (5)","children":[241,242,243],"translation":[17.7199974,-12.327,11.1299973]},{"name":"P_MOD_Wall_01_E_convex_large","mesh":7},{"name":"P_MOD_WallCover_01_E_convex (2)","mesh":8,"translation":[0,6,0]},{"name":"P_MOD_WallTrim_01_E_convex (2)","mesh":9},{"name":"COMP_Wall_01_E_convex_large (7)","children":[245,246,247],"translation":[17.7199974,-18.217001,11.1299973]},{"name":"P_MOD_Wall_01_E_convex_large","mesh":7},{"name":"P_MOD_WallCover_01_E_convex (2)","mesh":8,"translation":[0,6,0]},{"name":"P_MOD_WallTrim_01_E_convex (2)","mesh":9},{"name":"COMP_Wall_01_E_convex_large (9)","children":[249,250,251],"translation":[17.7199974,-24.107,11.1299973]},{"name":"P_MOD_Wall_01_E_convex_large","mesh":7},{"name":"P_MOD_WallCover_01_E_convex (2)","mesh":8,"translation":[0,6,0]},{"name":"P_MOD_WallTrim_01_E_convex (2)","mesh":9},{"name":"COMP_Wall_01_E_convex_large (11)","children":[253,254,255],"translation":[17.7199974,-29.9569988,11.1299973]},{"name":"P_MOD_Wall_01_E_straight_small","mesh":10},{"name":"P_MOD_WallCover_01_E_straight","mesh":2,"translation":[0,2,0]},{"name":"P_MOD_WallTrim_01_E_straight","mesh":3},{"name":"COMP_Wall_01_E_straight_small","children":[257,258,259],"translation":[-1.06999969,-25.8970013,-13.7200012],"rotation":[0,-1,0,0]},{"name":"P_MOD_Wall_01_E_straight_small","mesh":10},{"name":"P_MOD_WallCover_01_E_straight","mesh":2,"translation":[0,2,0]},{"name":"P_MOD_WallTrim_01_E_straight","mesh":3},{"name":"COMP_Wall_01_E_straight_small (14)","children":[261,262,263],"translation":[-5.079998,-25.8970013,-10.2099991],"rotation":[0,-0.707107842,0,-0.707105756]},{"name":"P_MOD_Wall_01_E_straight_small","mesh":10},{"name":"P_MOD_WallCover_01_E_straight","mesh":2,"translation":[0,2,0]},{"name":"P_MOD_WallTrim_01_E_straight","mesh":3},{"name":"COMP_Wall_01_E_straight_small (4)","children":[265,266,267],"translation":[14.2900009,-25.8970013,-13.7200012],"rotation":[0,-1,0,0]},{"name":"P_MOD_Wall_01_E_straight_small","mesh":10},{"name":"P_MOD_WallCover_01_E_straight","mesh":2,"translation":[0,2,0]},{"name":"P_MOD_WallTrim_01_E_straight","mesh":3},{"name":"COMP_Wall_01_E_straight_small (2)","children":[269,270,271],"translation":[6.59,-25.8970013,-13.7200012],"rotation":[0,-1,0,0]},{"name":"P_MOD_Wall_01_E_straight_small","mesh":10},{"name":"P_MOD_WallCover_01_E_straight","mesh":2,"translation":[0,2,0]},{"name":"P_MOD_WallTrim_01_E_straight","mesh":3},{"name":"COMP_Wall_01_E_straight_small (5)","children":[273,274,275],"translation":[21.95,-25.8970013,-13.7200012],"rotation":[0,-1,0,0]},{"name":"P_MOD_Wall_01_E_straight_small","mesh":10},{"name":"P_MOD_WallCover_01_E_straight","mesh":2,"translation":[0,2,0]},{"name":"P_MOD_WallTrim_01_E_straight","mesh":3},{"name":"COMP_Wall_01_E_straight_small (1)","children":[277,278,279],"translation":[2.59000015,-25.8970013,-13.7200012],"rotation":[0,-1,0,0]},{"name":"P_MOD_Wall_01_E_straight_small","mesh":10},{"name":"P_MOD_WallCover_01_E_straight","mesh":2,"translation":[0,2,0]},{"name":"P_MOD_WallTrim_01_E_straight","mesh":3},{"name":"COMP_Wall_01_E_straight_small (6)","children":[281,282,283],"translation":[17.95,-25.8970013,-13.7200012],"rotation":[0,-1,0,0]},{"name":"P_MOD_Wall_01_E_straight_small","mesh":10},{"name":"P_MOD_WallCover_01_E_straight","mesh":2,"translation":[0,2,0]},{"name":"P_MOD_WallTrim_01_E_straight","mesh":3},{"name":"COMP_Wall_01_E_straight_small (3)","children":[285,286,287],"translation":[10.25,-25.8970013,-13.7200012],"rotation":[0,-1,0,0]},{"name":"P_MOD_Wall_01_E_straight_small","mesh":10},{"name":"P_MOD_WallCover_01_E_straight","mesh":2,"translation":[0,2,0]},{"name":"P_MOD_WallTrim_01_E_straight","mesh":3},{"name":"COMP_Wall_01_E_straight_small (7)","children":[289,290,291],"translation":[25.6100044,-25.8970013,-13.7200012],"rotation":[0,-1,0,0]},{"name":"P_MOD_Wall_01_E_straight_small","mesh":10},{"name":"P_MOD_WallCover_01_E_straight","mesh":2,"translation":[0,2,0]},{"name":"P_MOD_WallTrim_01_E_straight","mesh":3},{"name":"COMP_Wall_01_E_straight_small (8)","children":[293,294,295],"translation":[24.9699974,-25.8970013,-9.970001],"rotation":[0,0.7071068,0,0.7071068]},{"name":"P_MOD_Wall_01_E_straight_small","mesh":10},{"name":"P_MOD_WallCover_01_E_straight","mesh":2,"translation":[0,2,0]},{"name":"P_MOD_WallTrim_01_E_straight","mesh":3},{"name":"COMP_Wall_01_E_straight_small (9)","children":[297,298,299],"translation":[24.9699974,-25.8970013,-6],"rotation":[0,0.7071068,0,0.7071068]},{"name":"P_MOD_Wall_01_E_straight_small","mesh":10},{"name":"P_MOD_WallCover_01_E_straight","mesh":2,"translation":[0,2,0]},{"name":"P_MOD_WallTrim_01_E_straight","mesh":3},{"name":"COMP_Wall_01_E_straight_small (10)","children":[301,302,303],"translation":[24.9699974,-25.8970013,-2],"rotation":[0,0.7071068,0,0.7071068]},{"name":"P_MOD_Wall_01_E_straight_small","mesh":10},{"name":"P_MOD_WallCover_01_E_straight","mesh":2,"translation":[0,2,0]},{"name":"P_MOD_WallTrim_01_E_straight","mesh":3},{"name":"COMP_Wall_01_E_straight_small (11)","children":[305,306,307],"translation":[24.9699974,-25.8970013,2],"rotation":[0,0.7071068,0,0.7071068]},{"name":"P_MOD_Wall_01_E_straight_small","mesh":10},{"name":"P_MOD_WallCover_01_E_straight","mesh":2,"translation":[0,2,0]},{"name":"P_MOD_WallTrim_01_E_straight","mesh":3},{"name":"COMP_Wall_01_E_straight_small (12)","children":[309,310,311],"translation":[24.9699974,-25.8970013,6],"rotation":[0,0.7071068,0,0.7071068]},{"name":"P_MOD_Wall_01_E_straight_small","mesh":10},{"name":"P_MOD_WallCover_01_E_straight","mesh":2,"translation":[0,2,0]},{"name":"P_MOD_WallTrim_01_E_straight","mesh":3},{"name":"COMP_Wall_01_E_straight_small (13)","children":[313,314,315],"translation":[21.7100029,-25.8970013,10.9700012],"rotation":[0,0.4247353,0,0.9053176]},{"name":"P_MOD_WallTrim_01_E_straight_half_L","mesh":11},{"name":"P_MOD_Wall_01_E_straight_small_half_L","mesh":12},{"name":"P_MOD_WallCover_01_E_straight_half_L","mesh":13,"translation":[0,2,0]},{"name":"COMP_Wall_01_E_straight_small_half_L","children":[317,318,319],"translation":[24.920002,-25.8970013,6.00999832],"rotation":[0,0.585322,0,0.81080097]},{"name":"P_MOD_Wall_01_M_straight_large_half_R","mesh":14},{"name":"P_MOD_WallCover_01_M_straight_half_R (2)","mesh":15,"translation":[-0.021,6,-0.001]},{"name":"COMP_Wall_01_M_straight_large_half_R","children":[321,322],"translation":[-4.750004,-18.177,-4.54953],"rotation":[0,-0.696180642,0,0.7178667]},{"name":"P_MOD_Wall_01_M_straight_large_half_R","mesh":14},{"name":"P_MOD_WallCover_01_M_straight_half_R (2)","mesh":15,"translation":[-0.021,6,-0.001]},{"name":"COMP_Wall_01_M_straight_large_half_R (4)","children":[324,325],"translation":[-4.760002,-18.1570015,-6.56353],"rotation":[0,-0.696180642,0,0.7178667]},{"name":"P_MOD_Wall_01_M_straight_large_half_R","mesh":14},{"name":"P_MOD_WallCover_01_M_straight_half_R (2)","mesh":15,"translation":[0,6,0]},{"name":"COMP_Wall_01_M_straight_large_half_R (2)","children":[327,328],"translation":[-4.750004,-12.2269993,-4.54953],"rotation":[0,-0.696180642,0,0.7178667]},{"name":"P_MOD_Wall_01_M_straight_large_half_R","mesh":14},{"name":"P_MOD_WallCover_01_M_straight_half_R (2)","mesh":15,"translation":[0,6,0]},{"name":"COMP_Wall_01_M_straight_large_half_R (5)","children":[330,331],"translation":[-4.760002,-12.2069988,-6.56353],"rotation":[0,-0.696180642,0,0.7178667]},{"name":"P_MOD_Wall_01_M_straight_large_half_R","mesh":14},{"name":"P_MOD_WallCover_01_M_straight_half_R (2)","mesh":15,"translation":[-0.04,6,0]},{"name":"COMP_Wall_01_M_straight_large_half_R (1)","children":[333,334],"translation":[-4.750004,-24.057,-4.54953],"rotation":[0,-0.696180642,0,0.7178667]},{"name":"P_MOD_Wall_01_M_straight_large_half_R","mesh":14},{"name":"P_MOD_WallCover_01_M_straight_half_R (2)","mesh":15,"translation":[-0.04,6,0]},{"name":"COMP_Wall_01_M_straight_large_half_R (6)","children":[336,337],"translation":[-4.760002,-24.0369987,-6.56353],"rotation":[0,-0.696180642,0,0.7178667]},{"name":"P_MOD_Wall_01_M_straight_large_half_R","mesh":14},{"name":"P_MOD_WallCover_01_M_straight_half_R (2)","mesh":15,"translation":[-0.04,6,0]},{"name":"COMP_Wall_01_M_straight_large_half_R (3)","children":[339,340],"translation":[-4.750004,-29.907,-4.54953],"rotation":[0,-0.696180642,0,0.7178667]},{"name":"P_MOD_Wall_01_M_straight_large_half_R","mesh":14},{"name":"P_MOD_WallCover_01_M_straight_half_R (2)","mesh":15,"translation":[-0.04,6,0]},{"name":"COMP_Wall_01_M_straight_large_half_R (7)","children":[342,343],"translation":[-4.760002,-29.887,-6.56353],"rotation":[0,-0.696180642,0,0.7178667]},{"name":"WallsWaterfall","children":[11,15,19,23,27,31,35,39,43,45,49,52,56,60,64,68,72,76,80,84,88,92,96,100,104,108,112,116,120,124,128,132,136,140,144,148,152,156,160,164,168,172,176,180,184,188,192,196,200,204,208,212,216,220,224,228,232,236,240,244,248,252,256,260,264,268,272,276,280,284,288,292,296,300,304,308,312,316,320,323,326,329,332,335,338,341,344]},{"name":"P_MOD_Stairs_01_Railing_1","mesh":16,"translation":[6.06000137,-15.6270008,-4.22999954]},{"name":"P_MOD_Stairs_01_Railing_1 (6)","mesh":16},{"name":"P_MOD_Stairs_01_Railing_1 (7)","mesh":16,"translation":[0,0,3.97000122]},{"name":"P_MOD_Stairs_01_Railing_1 (8)","mesh":16,"translation":[3.99399948,-4.01,0]},{"name":"P_MOD_Stairs_01_Railing_1 (9)","mesh":16,"translation":[3.99399948,-4.01,3.97000122]},{"name":"Railing2","children":[347,348,349,350],"translation":[14.0499992,-7.697,7.68999863],"rotation":[0,-1,0,0]},{"name":"P_MOD_Stairs_01_Railing_1 (6)","mesh":16},{"name":"P_MOD_Stairs_01_Railing_1 (7)","mesh":16,"translation":[0,0,3.97000122]},{"name":"P_MOD_Stairs_01_Railing_1 (8)","mesh":16,"translation":[3.99399948,-4.01,0]},{"name":"P_MOD_Stairs_01_Railing_1 (9)","mesh":16,"translation":[3.99399948,-4.01,3.97000122]},{"name":"Railing2 (1)","children":[352,353,354,355],"translation":[5.869999,0.242999971,7.68999863]},{"name":"P_MOD_Stairs_01_Railing_1 (3)","mesh":16,"translation":[6.06000137,-15.6270008,-0.259998322]},{"name":"P_MOD_Stairs_01_Railing_1 (1)","mesh":16,"translation":[10.0540009,-19.637001,-4.22999954]},{"name":"P_MOD_Stairs_01_Railing_1 (4)","mesh":16,"translation":[10.0540009,-19.637001,-0.259998322]},{"name":"P_MOD_Stairs_01_Railing_1 (2)","mesh":16,"translation":[14.0429993,-23.6540012,-4.22999954]},{"name":"P_MOD_Stairs_01_Railing_1 (5)","mesh":16,"translation":[14.0429993,-23.6540012,-0.259998322]},{"name":"P_MOD_Railing_01_column","mesh":17,"translation":[5.959999,0.103000164,7.74033737]},{"name":"P_MOD_Railing_01_column (17)","mesh":17,"translation":[5.959999,0.103000164,-4]},{"name":"P_MOD_Railing_01_column (18)","mesh":17,"translation":[-0.2159996,0.103000164,-4]},{"name":"P_MOD_Railing_01_column (19)","mesh":17,"translation":[-0.2159996,0.103000164,-0.00999832153]},{"name":"P_MOD_Railing_01_column (2)","mesh":17,"translation":[13.84,-7.697,7.66]},{"name":"P_MOD_Railing_01_column (5)","mesh":17,"translation":[5.88999939,-15.5370007,7.66]},{"name":"P_MOD_Railing_01_column (13)","mesh":17,"translation":[1.97000122,-15.5370007,7.66]},{"name":"P_MOD_Railing_01_column (7)","mesh":17,"translation":[5.88999939,-15.5370007,-0.330001831]},{"name":"P_MOD_Railing_01_column (9)","mesh":17,"translation":[17.02,-25.9770012,-0.330001831]},{"name":"P_MOD_Railing_01_column (4)","mesh":17,"translation":[13.84,-7.697,3.80400085]},{"name":"P_MOD_Railing_01_column (11)","mesh":17,"translation":[17.8599968,-7.697,3.80400085]},{"name":"P_MOD_Railing_01_column (6)","mesh":17,"translation":[5.88999939,-15.5370007,3.80400085]},{"name":"P_MOD_Railing_01_column (8)","mesh":17,"translation":[5.88999939,-15.5370007,-4.186001]},{"name":"P_MOD_Railing_01_column (14)","mesh":17,"translation":[1.97000122,-15.5370007,-4.186001]},{"name":"P_MOD_Railing_01_column (10)","mesh":17,"translation":[17.02,-25.9770012,-4.186001]},{"name":"P_MOD_Railing_01_column (1)","mesh":17,"translation":[5.959999,0.103000164,11.5800018]},{"name":"P_MOD_Railing_01_column (15)","mesh":17,"translation":[1.93999863,0.103000164,11.5800018]},{"name":"P_MOD_Railing_01_column (16)","mesh":17,"translation":[1.93999863,0.103000164,0]},{"name":"P_MOD_Railing_01_column (3)","mesh":17,"translation":[13.84,-7.697,11.4996643]},{"name":"P_MOD_Railing_01_column (12)","mesh":17,"translation":[17.8599968,-7.697,11.4996643]},{"name":"P_MOD_Railing_01_straight","mesh":18,"translation":[14.0390015,-7.828,3.79999924]},{"name":"P_MOD_Railing_01_straight (4)","mesh":18,"translation":[1.95000076,-15.6970005,7.700001]},{"name":"P_MOD_Railing_01_straight (5)","mesh":18,"translation":[1.95000076,-15.6970005,-4.169998]},{"name":"P_MOD_Railing_01_straight (6)","mesh":18,"translation":[1.95000076,-15.6970005,-4.169998],"rotation":[0,-0.7071068,0,0.7071068]},{"name":"P_MOD_Railing_01_straight (7)","mesh":18,"translation":[1.95000076,-15.6970005,-0.183998108],"rotation":[0,-0.7071068,0,0.7071068]},{"name":"P_MOD_Railing_01_straight (9)","mesh":18,"translation":[5.88999939,-15.6970005,-0.183998108],"rotation":[0,-0.7071068,0,0.7071068]},{"name":"P_MOD_Railing_01_straight (8)","mesh":18,"translation":[1.95000076,-15.6970005,3.81999969],"rotation":[0,-0.7071068,0,0.7071068]},{"name":"P_MOD_Railing_01_straight (1)","mesh":18,"translation":[14.0390015,-7.828,11.6199989]},{"name":"P_MOD_Railing_01_straight (10)","mesh":18,"translation":[1.95999908,-0.02700001,11.6199989]},{"name":"P_MOD_Railing_01_straight (11)","mesh":18,"translation":[1.95999908,-0.02700001,-4]},{"name":"P_MOD_Railing_01_straight (12)","mesh":18,"translation":[1.95999908,-0.02700001,7.75],"rotation":[0,-0.7071068,0,0.7071068]},{"name":"P_MOD_Railing_01_straight (15)","mesh":18,"translation":[6.06000137,-0.02700001,3.619999],"rotation":[0,-0.7071068,0,0.7071068]},{"name":"P_MOD_Railing_01_straight (13)","mesh":18,"translation":[1.95999908,-0.02700001,3.75999832],"rotation":[0,-0.7071068,0,0.7071068]},{"name":"P_MOD_Railing_01_straight (16)","mesh":18,"translation":[6.06000137,-0.02700001,-0.370002747],"rotation":[0,-0.7071068,0,0.7071068]},{"name":"P_MOD_Railing_01_straight (14)","mesh":18,"translation":[1.95999908,-0.02700001,0.0499992371],"rotation":[0,-0.7071068,0,0.7071068]},{"name":"P_MOD_Railing_01_straight (17)","mesh":18,"translation":[6.06000137,-0.02700001,-4.080002],"rotation":[0,-0.7071068,0,0.7071068]},{"name":"P_MOD_Railing_01_straight (2)","mesh":18,"translation":[17.8699989,-7.828,3.65999985],"rotation":[0,-0.7071068,0,0.7071068]},{"name":"P_MOD_Railing_01_straight (3)","mesh":18,"translation":[17.8699989,-7.828,7.56999969],"rotation":[0,-0.7071068,0,0.7071068]},{"name":"P_MOD_Railing_01_straight_half","mesh":19,"translation":[0,0,-4]},{"name":"P_MOD_Railing_01_straight_half (1)","mesh":19},{"name":"RailingsWaterfall","children":[346,351,356,357,358,359,360,361,362,363,364,365,366,367,368,369,370,371,372,373,374,375,376,377,378,379,380,381,382,383,384,385,386,387,388,389,390,391,392,393,394,395,396,397,398,399,400,401]},{"name":"Plane (1)","mesh":20,"translation":[34.9100075,-25.8970013,-4.789528],"rotation":[0,-0.7071068,0,0.7071068],"scale":[1.48993659,1,1.34989989]},{"name":"P_MOD_Floor_01_O_straight_med (83)","mesh":21,"translation":[6.00999832,0.103000164,-0.189529419],"rotation":[0,-1,0,1.51991821E-06]},{"name":"P_MOD_Floor_01_O_straight_small","mesh":22,"translation":[2.01799774,0.103000164,-4.18952942],"rotation":[0,-0.7071068,0,0.7071068]},{"name":"P_MOD_Floor_01_O_straight_med (84)","mesh":21,"translation":[6.00999832,0.103000164,3.750473],"rotation":[0,-1,0,1.51991821E-06]},{"name":"P_MOD_Floor_01_O_straight_med (85)","mesh":21,"translation":[6.00999832,0.103000164,7.72047424],"rotation":[0,-1,0,1.51991821E-06]},{"name":"P_MOD_Floor_01_O_straight_med (86)","mesh":21,"translation":[6.00999832,0.103000164,11.6604729],"rotation":[0,-1,0,1.51991821E-06]},{"name":"P_MOD_Floor_01_O_straight_med (87)","mesh":21,"translation":[17.98,-7.87699938,11.5804749],"rotation":[0,-1,0,1.51991821E-06]},{"name":"P_MOD_Floor_01_O_straight_med (88)","mesh":21,"translation":[17.98,-7.87699938,7.590473],"rotation":[0,-1,0,1.51991821E-06]},{"name":"P_MOD_Floor_01_O_straight_med (89)","mesh":21,"translation":[6.08999634,-15.667,7.59046936],"rotation":[0,-1,0,1.51991821E-06]},{"name":"P_MOD_Floor_01_O_straight_med (90)","mesh":21,"translation":[6.09,-15.667,3.620472],"rotation":[0,-1,0,1.51991821E-06]},{"name":"P_MOD_Floor_01_O_straight_med (91)","mesh":21,"translation":[6.09,-15.667,-0.36],"rotation":[0,-1,0,1.51991821E-06]},{"name":"FloorWaterfall"},{"name":"PolyShape","mesh":23,"translation":[28.2199974,-26.287,0.5600014],"scale":[5.064001,5.064001,5.064001]},{"name":"PolyShape (1)","mesh":24,"translation":[22.2173882,-25.827,-0.125099182]},{"name":"P_MOD_Column_01_base","mesh":25},{"name":"P_MOD_Column_01_large","mesh":26},{"name":"P_MOD_Column_01_capital","mesh":27,"translation":[0,6,0]},{"name":"COMP_Column_01_large (2)","children":[417,418,419],"translation":[-0.369998932,-25.897007,-2.68000031]},{"name":"P_MOD_Column_01_base","mesh":25},{"name":"P_MOD_Column_01_large","mesh":26},{"name":"P_MOD_Column_01_capital","mesh":27,"translation":[0,6,0]},{"name":"COMP_Column_01_large (3)","children":[421,422,423],"translation":[-0.369998932,-19.914,-2.68000031]},{"name":"P_MOD_Column_01_base","mesh":25},{"name":"P_MOD_Column_01_large","mesh":26},{"name":"P_MOD_Column_01_capital","mesh":27,"translation":[0,6,0]},{"name":"COMP_Column_01_large (4)","children":[425,426,427],"translation":[-0.369998932,-13.967001,-2.68000031]},{"name":"Water (2)","translation":[12.5999985,-25.6969986,3.31047058],"rotation":[0,0.931386352,0,-0.364032149],"scale":[-0.186496153,0.186496109,0.186496153]},{"name":"Wall"},{"name":"Stairs","mesh":28,"translation":[-15.85047,-2,13.9658861],"rotation":[0,0.707106769,0,0.7071068]},{"name":"Waterfall","mesh":29,"translation":[6.1,116.5,14.4],"rotation":[1.87465915E-07,3.447047E-14,1.83875926E-07,1],"scale":[1,1.8906,1]},{"name":"Waterfall","mesh":30,"translation":[6.1,109,3.5],"rotation":[1.87465915E-07,3.447047E-14,1.83875926E-07,1],"scale":[1,1.7277,1]},{"name":"Water (1)","children":[432,433],"translation":[3.19,-20.8,4.88],"rotation":[0,0.40118,0,-0.915999234],"scale":[-0.186496109,0.186496109,0.186496109]},{"name":"Section_3 (1)","children":[430,431,434],"translation":[17.48,-4.897,0.120471954],"rotation":[0,-0.7071068,0,0.7071068]},{"name":"WaterfallSection","children":[7,345,402,403,404,405,406,407,408,409,410,411,412,413,414,415,416,420,424,428,429,435],"translation":[46.41,0.6969999,49]}],"extensionsRequired":["KHR_texture_transform"],"extensionsUsed":["KHR_texture_transform"],"buffers":[{"uri":"WaterfallSection.bin","byteLength":315252}],"bufferViews":[{"buffer":0,"byteLength":720,"target":34963},{"buffer":0,"byteLength":432,"byteOffset":720,"target":34963},{"buffer":0,"byteLength":120,"byteOffset":1152,"target":34963},{"buffer":0,"byteLength":7980,"byteOffset":1272,"target":34963},{"buffer":0,"byteLength":72,"byteOffset":9252,"target":34963},{"buffer":0,"byteLength":72,"byteOffset":9324,"target":34963},{"buffer":0,"byteLength":1152,"byteOffset":9396,"byteStride":48,"target":34962},{"buffer":0,"byteLength":8928,"byteOffset":10548,"byteStride":48,"target":34962},{"buffer":0,"byteLength":1152,"byteOffset":19476,"byteStride":48,"target":34962},{"buffer":0,"byteLength":6912,"byteOffset":20628,"byteStride":48,"target":34962},{"buffer":0,"byteLength":1056,"byteOffset":27540,"byteStride":48,"target":34962},{"buffer":0,"byteLength":115008,"byteOffset":28596,"byteStride":48,"target":34962},{"buffer":0,"byteLength":1848,"byteOffset":143604,"target":34963},{"buffer":0,"byteLength":72,"byteOffset":145452,"target":34963},{"buffer":0,"byteLength":672,"byteOffset":145524,"target":34963},{"buffer":0,"byteLength":384,"byteOffset":146196,"target":34963},{"buffer":0,"byteLength":72,"byteOffset":146580,"target":34963},{"buffer":0,"byteLength":264,"byteOffset":146652,"target":34963},{"buffer":0,"byteLength":168,"byteOffset":146916,"target":34963},{"buffer":0,"byteLength":312,"byteOffset":147084,"target":34963},{"buffer":0,"byteLength":1080,"byteOffset":147396,"target":34963},{"buffer":0,"byteLength":648,"byteOffset":148476,"target":34963},{"buffer":0,"byteLength":72,"byteOffset":149124,"target":34963},{"buffer":0,"byteLength":168,"byteOffset":149196,"target":34963},{"buffer":0,"byteLength":72,"byteOffset":149364,"target":34963},{"buffer":0,"byteLength":264,"byteOffset":149436,"target":34963},{"buffer":0,"byteLength":72,"byteOffset":149700,"target":34963},{"buffer":0,"byteLength":264,"byteOffset":149772,"target":34963},{"buffer":0,"byteLength":1152,"byteOffset":150036,"target":34963},{"buffer":0,"byteLength":312,"byteOffset":151188,"target":34963},{"buffer":0,"byteLength":888,"byteOffset":151500,"target":34963},{"buffer":0,"byteLength":456,"byteOffset":152388,"target":34963},{"buffer":0,"byteLength":12,"byteOffset":152844,"target":34963},{"buffer":0,"byteLength":12,"byteOffset":152856,"target":34963},{"buffer":0,"byteLength":192,"byteOffset":152868,"target":34963},{"buffer":0,"byteLength":780,"byteOffset":153060,"target":34963},{"buffer":0,"byteLength":132,"byteOffset":153840,"target":34963},{"buffer":0,"byteLength":5824,"byteOffset":153972,"byteStride":56,"target":34962},{"buffer":0,"byteLength":7728,"byteOffset":159796,"byteStride":56,"target":34962},{"buffer":0,"byteLength":10528,"byteOffset":167524,"byteStride":56,"target":34962},{"buffer":0,"byteLength":9632,"byteOffset":178052,"byteStride":56,"target":34962},{"buffer":0,"byteLength":1344,"byteOffset":187684,"byteStride":56,"target":34962},{"buffer":0,"byteLength":9296,"byteOffset":189028,"byteStride":56,"target":34962},{"buffer":0,"byteLength":3136,"byteOffset":198324,"byteStride":56,"target":34962},{"buffer":0,"byteLength":4032,"byteOffset":201460,"byteStride":56,"target":34962},{"buffer":0,"byteLength":224,"byteOffset":205492,"byteStride":56,"target":34962},{"buffer":0,"byteLength":2464,"byteOffset":205716,"byteStride":56,"target":34962},{"buffer":0,"byteLength":27664,"byteOffset":208180,"byteStride":56,"target":34962},{"buffer":0,"byteLength":1344,"byteOffset":235844,"byteStride":56,"target":34962},{"buffer":0,"byteLength":6608,"byteOffset":237188,"byteStride":56,"target":34962},{"buffer":0,"byteLength":4032,"byteOffset":243796,"byteStride":56,"target":34962},{"buffer":0,"byteLength":3136,"byteOffset":247828,"byteStride":56,"target":34962},{"buffer":0,"byteLength":3584,"byteOffset":250964,"byteStride":56,"target":34962},{"buffer":0,"byteLength":15680,"byteOffset":254548,"byteStride":56,"target":34962},{"buffer":0,"byteLength":1344,"byteOffset":270228,"byteStride":56,"target":34962},{"buffer":0,"byteLength":1344,"byteOffset":271572,"byteStride":56,"target":34962},{"buffer":0,"byteLength":1344,"byteOffset":272916,"byteStride":56,"target":34962},{"buffer":0,"byteLength":4032,"byteOffset":274260,"byteStride":56,"target":34962},{"buffer":0,"byteLength":18368,"byteOffset":278292,"byteStride":56,"target":34962},{"buffer":0,"byteLength":14784,"byteOffset":296660,"byteStride":56,"target":34962},{"buffer":0,"byteLength":224,"byteOffset":311444,"byteStride":56,"target":34962},{"buffer":0,"byteLength":3584,"byteOffset":311668,"byteStride":56,"target":34962}],"accessors":[{"bufferView":47,"componentType":5126,"count":494,"type":"VEC3","max":[4.121466,0.0292624235,3.999999],"min":[-4.76837158E-07,-4,0]},{"bufferView":47,"componentType":5126,"count":494,"type":"VEC3","byteOffset":12},{"bufferView":47,"componentType":5126,"count":494,"type":"VEC4","byteOffset":24},{"bufferView":47,"componentType":5126,"count":494,"type":"VEC2","byteOffset":40},{"bufferView":47,"componentType":5126,"count":494,"type":"VEC2","byteOffset":48},{"bufferView":12,"componentType":5123,"count":924,"type":"SCALAR"},{"bufferView":48,"componentType":5126,"count":24,"type":"VEC3","max":[4,5.7,0.5000001],"min":[-4.76837158E-07,-9.536743E-07,-1.013279E-06]},{"bufferView":48,"componentType":5126,"count":24,"type":"VEC3","byteOffset":12},{"bufferView":48,"componentType":5126,"count":24,"type":"VEC4","byteOffset":24},{"bufferView":48,"componentType":5126,"count":24,"type":"VEC2","byteOffset":40},{"bufferView":48,"componentType":5126,"count":24,"type":"VEC2","byteOffset":48},{"bufferView":13,"componentType":5123,"count":36,"type":"SCALAR"},{"bufferView":40,"componentType":5126,"count":172,"type":"VEC3","max":[4.00000143,0.346663684,0.653979659],"min":[0,-0.346670479,-0.153971672]},{"bufferView":40,"componentType":5126,"count":172,"type":"VEC3","byteOffset":12},{"bufferView":40,"componentType":5126,"count":172,"type":"VEC4","byteOffset":24},{"bufferView":40,"componentType":5126,"count":172,"type":"VEC2","byteOffset":40},{"bufferView":40,"componentType":5126,"count":172,"type":"VEC2","byteOffset":48},{"bufferView":14,"componentType":5123,"count":336,"type":"SCALAR"},{"bufferView":49,"componentType":5126,"count":118,"type":"VEC3","max":[4.00000048,0.570612,0.7742224],"min":[0,2.98023224E-07,0.499998569]},{"bufferView":49,"componentType":5126,"count":118,"type":"VEC3","byteOffset":12},{"bufferView":49,"componentType":5126,"count":118,"type":"VEC4","byteOffset":24},{"bufferView":49,"componentType":5126,"count":118,"type":"VEC2","byteOffset":40},{"bufferView":49,"componentType":5126,"count":118,"type":"VEC2","byteOffset":48},{"bufferView":15,"componentType":5123,"count":192,"type":"SCALAR"},{"bufferView":41,"componentType":5126,"count":24,"type":"VEC3","max":[2,5.7,0.5000001],"min":[-4.76837158E-07,-9.536743E-07,-1.013279E-06]},{"bufferView":41,"componentType":5126,"count":24,"type":"VEC3","byteOffset":12},{"bufferView":41,"componentType":5126,"count":24,"type":"VEC4","byteOffset":24},{"bufferView":41,"componentType":5126,"count":24,"type":"VEC2","byteOffset":40},{"bufferView":41,"componentType":5126,"count":24,"type":"VEC2","byteOffset":48},{"bufferView":16,"componentType":5123,"count":36,"type":"SCALAR"},{"bufferView":50,"componentType":5126,"count":72,"type":"VEC3","max":[2.00000048,0.346593231,0.654359],"min":[0,-0.3465931,-0.154358745]},{"bufferView":50,"componentType":5126,"count":72,"type":"VEC3","byteOffset":12},{"bufferView":50,"componentType":5126,"count":72,"type":"VEC4","byteOffset":24},{"bufferView":50,"componentType":5126,"count":72,"type":"VEC2","byteOffset":40},{"bufferView":50,"componentType":5126,"count":72,"type":"VEC2","byteOffset":48},{"bufferView":17,"componentType":5123,"count":132,"type":"SCALAR"},{"bufferView":51,"componentType":5126,"count":56,"type":"VEC3","max":[2,0.5496788,0.774688],"min":[0,0,0.5]},{"bufferView":51,"componentType":5126,"count":56,"type":"VEC3","byteOffset":12},{"bufferView":51,"componentType":5126,"count":56,"type":"VEC4","byteOffset":24},{"bufferView":51,"componentType":5126,"count":56,"type":"VEC2","byteOffset":40},{"bufferView":51,"componentType":5126,"count":56,"type":"VEC2","byteOffset":48},{"bufferView":18,"componentType":5123,"count":84,"type":"SCALAR"},{"bufferView":52,"componentType":5126,"count":64,"type":"VEC3","max":[4.500002,5.71463728,4.5],"min":[-4.76837158E-07,0.01463747,-9.536743E-07]},{"bufferView":52,"componentType":5126,"count":64,"type":"VEC3","byteOffset":12},{"bufferView":52,"componentType":5126,"count":64,"type":"VEC4","byteOffset":24},{"bufferView":52,"componentType":5126,"count":64,"type":"VEC2","byteOffset":40},{"bufferView":52,"componentType":5126,"count":64,"type":"VEC2","byteOffset":48},{"bufferView":19,"componentType":5123,"count":156,"type":"SCALAR"},{"bufferView":53,"componentType":5126,"count":280,"type":"VEC3","max":[4.60000134,0.374094963,4.65046],"min":[-9.536743E-07,-0.374095142,-9.536743E-07]},{"bufferView":53,"componentType":5126,"count":280,"type":"VEC3","byteOffset":12},{"bufferView":53,"componentType":5126,"count":280,"type":"VEC4","byteOffset":24},{"bufferView":53,"componentType":5126,"count":280,"type":"VEC2","byteOffset":40},{"bufferView":53,"componentType":5126,"count":280,"type":"VEC2","byteOffset":48},{"bufferView":20,"componentType":5123,"count":540,"type":"SCALAR"},{"bufferView":42,"componentType":5126,"count":166,"type":"VEC3","max":[4.72026157,0.550842345,4.707568],"min":[-1.43051147E-06,-2.98023224E-07,0]},{"bufferView":42,"componentType":5126,"count":166,"type":"VEC3","byteOffset":12},{"bufferView":42,"componentType":5126,"count":166,"type":"VEC4","byteOffset":24},{"bufferView":42,"componentType":5126,"count":166,"type":"VEC2","byteOffset":40},{"bufferView":42,"componentType":5126,"count":166,"type":"VEC2","byteOffset":48},{"bufferView":21,"componentType":5123,"count":324,"type":"SCALAR"},{"bufferView":54,"componentType":5126,"count":24,"type":"VEC3","max":[4.00000048,1.70000124,0.500000238],"min":[-4.76837158E-07,-2.38418579E-07,-2.5331974E-07]},{"bufferView":54,"componentType":5126,"count":24,"type":"VEC3","byteOffset":12},{"bufferView":54,"componentType":5126,"count":24,"type":"VEC4","byteOffset":24},{"bufferView":54,"componentType":5126,"count":24,"type":"VEC2","byteOffset":40},{"bufferView":54,"componentType":5126,"count":24,"type":"VEC2","byteOffset":48},{"bufferView":22,"componentType":5123,"count":36,"type":"SCALAR"},{"bufferView":43,"componentType":5126,"count":56,"type":"VEC3","max":[0,0.5496788,0.774687052],"min":[-2,0,0.499999046]},{"bufferView":43,"componentType":5126,"count":56,"type":"VEC3","byteOffset":12},{"bufferView":43,"componentType":5126,"count":56,"type":"VEC4","byteOffset":24},{"bufferView":43,"componentType":5126,"count":56,"type":"VEC2","byteOffset":40},{"bufferView":43,"componentType":5126,"count":56,"type":"VEC2","byteOffset":48},{"bufferView":23,"componentType":5123,"count":84,"type":"SCALAR"},{"bufferView":55,"componentType":5126,"count":24,"type":"VEC3","max":[4.76837158E-07,1.70000124,0.5000001],"min":[-2.00000048,-2.38418579E-07,-4.917383E-07]},{"bufferView":55,"componentType":5126,"count":24,"type":"VEC3","byteOffset":12},{"bufferView":55,"componentType":5126,"count":24,"type":"VEC4","byteOffset":24},{"bufferView":55,"componentType":5126,"count":24,"type":"VEC2","byteOffset":40},{"bufferView":55,"componentType":5126,"count":24,"type":"VEC2","byteOffset":48},{"bufferView":24,"componentType":5123,"count":36,"type":"SCALAR"},{"bufferView":44,"componentType":5126,"count":72,"type":"VEC3","max":[0,0.346593231,0.6543573],"min":[-2.00000048,-0.3465931,-0.1543603]},{"bufferView":44,"componentType":5126,"count":72,"type":"VEC3","byteOffset":12},{"bufferView":44,"componentType":5126,"count":72,"type":"VEC4","byteOffset":24},{"bufferView":44,"componentType":5126,"count":72,"type":"VEC2","byteOffset":40},{"bufferView":44,"componentType":5126,"count":72,"type":"VEC2","byteOffset":48},{"bufferView":25,"componentType":5123,"count":132,"type":"SCALAR"},{"bufferView":56,"componentType":5126,"count":24,"type":"VEC3","max":[2,5.7,0.250000119],"min":[-4.76837158E-07,-9.536743E-07,-0.250001]},{"bufferView":56,"componentType":5126,"count":24,"type":"VEC3","byteOffset":12},{"bufferView":56,"componentType":5126,"count":24,"type":"VEC4","byteOffset":24},{"bufferView":56,"componentType":5126,"count":24,"type":"VEC2","byteOffset":40},{"bufferView":56,"componentType":5126,"count":24,"type":"VEC2","byteOffset":48},{"bufferView":26,"componentType":5123,"count":36,"type":"SCALAR"},{"bufferView":57,"componentType":5126,"count":72,"type":"VEC3","max":[2.00000048,0.3515218,0.410108626],"min":[0,-0.351521671,-0.410108864]},{"bufferView":57,"componentType":5126,"count":72,"type":"VEC3","byteOffset":12},{"bufferView":57,"componentType":5126,"count":72,"type":"VEC4","byteOffset":24},{"bufferView":57,"componentType":5126,"count":72,"type":"VEC2","byteOffset":40},{"bufferView":57,"componentType":5126,"count":72,"type":"VEC2","byteOffset":48},{"bufferView":27,"componentType":5123,"count":132,"type":"SCALAR"},{"bufferView":58,"componentType":5126,"count":328,"type":"VEC3","max":[4.00000334,1.0999999,0.30930078],"min":[0,-4.4,-0.309308529]},{"bufferView":58,"componentType":5126,"count":328,"type":"VEC3","byteOffset":12},{"bufferView":58,"componentType":5126,"count":328,"type":"VEC4","byteOffset":24},{"bufferView":58,"componentType":5126,"count":328,"type":"VEC2","byteOffset":40},{"bufferView":58,"componentType":5126,"count":328,"type":"VEC2","byteOffset":48},{"bufferView":28,"componentType":5123,"count":576,"type":"SCALAR"},{"bufferView":37,"componentType":5126,"count":104,"type":"VEC3","max":[0.5723241,1.39486587,0.5723238],"min":[-0.572327435,-0.5360936,-0.572324753]},{"bufferView":37,"componentType":5126,"count":104,"type":"VEC3","byteOffset":12},{"bufferView":37,"componentType":5126,"count":104,"type":"VEC4","byteOffset":24},{"bufferView":37,"componentType":5126,"count":104,"type":"VEC2","byteOffset":40},{"bufferView":37,"componentType":5126,"count":104,"type":"VEC2","byteOffset":48},{"bufferView":29,"componentType":5123,"count":156,"type":"SCALAR"},{"bufferView":59,"componentType":5126,"count":264,"type":"VEC3","max":[4.00000048,1.25509524,0.287260056],"min":[0,-0.46876502,-0.287261248]},{"bufferView":59,"componentType":5126,"count":264,"type":"VEC3","byteOffset":12},{"bufferView":59,"componentType":5126,"count":264,"type":"VEC4","byteOffset":24},{"bufferView":59,"componentType":5126,"count":264,"type":"VEC2","byteOffset":40},{"bufferView":59,"componentType":5126,"count":264,"type":"VEC2","byteOffset":48},{"bufferView":30,"componentType":5123,"count":444,"type":"SCALAR"},{"bufferView":38,"componentType":5126,"count":138,"type":"VEC3","max":[2.00000048,1.22473776,0.314958155],"min":[0,-0.480369717,-0.314957321]},{"bufferView":38,"componentType":5126,"count":138,"type":"VEC3","byteOffset":12},{"bufferView":38,"componentType":5126,"count":138,"type":"VEC4","byteOffset":24},{"bufferView":38,"componentType":5126,"count":138,"type":"VEC2","byteOffset":40},{"bufferView":38,"componentType":5126,"count":138,"type":"VEC2","byteOffset":48},{"bufferView":31,"componentType":5123,"count":228,"type":"SCALAR"},{"bufferView":9,"componentType":5126,"count":144,"type":"VEC3","max":[13,0,29.5864429],"min":[-6.3268013,0,6.97409248]},{"bufferView":9,"componentType":5126,"count":144,"type":"VEC3","byteOffset":12},{"bufferView":9,"componentType":5126,"count":144,"type":"VEC4","byteOffset":24},{"bufferView":9,"componentType":5126,"count":144,"type":"VEC2","byteOffset":40},{"bufferView":1,"componentType":5123,"count":216,"type":"SCALAR"},{"bufferView":60,"componentType":5126,"count":4,"type":"VEC3","max":[4,2.98023224E-08,4],"min":[0,2.98023224E-08,0]},{"bufferView":60,"componentType":5126,"count":4,"type":"VEC3","byteOffset":12},{"bufferView":60,"componentType":5126,"count":4,"type":"VEC4","byteOffset":24},{"bufferView":60,"componentType":5126,"count":4,"type":"VEC2","byteOffset":40},{"bufferView":60,"componentType":5126,"count":4,"type":"VEC2","byteOffset":48},{"bufferView":32,"componentType":5123,"count":6,"type":"SCALAR"},{"bufferView":45,"componentType":5126,"count":4,"type":"VEC3","max":[4,2.98023224E-08,2],"min":[0,2.98023224E-08,0]},{"bufferView":45,"componentType":5126,"count":4,"type":"VEC3","byteOffset":12},{"bufferView":45,"componentType":5126,"count":4,"type":"VEC4","byteOffset":24},{"bufferView":45,"componentType":5126,"count":4,"type":"VEC2","byteOffset":40},{"bufferView":45,"componentType":5126,"count":4,"type":"VEC2","byteOffset":48},{"bufferView":33,"componentType":5123,"count":6,"type":"SCALAR"},{"bufferView":7,"componentType":5126,"count":186,"type":"VEC3","max":[-0.546087742,0.100000478,3.74459457],"min":[-6.682338,-4.76837158E-07,-1.23754883]},{"bufferView":7,"componentType":5126,"count":186,"type":"VEC3","byteOffset":12},{"bufferView":7,"componentType":5126,"count":186,"type":"VEC4","byteOffset":24},{"bufferView":7,"componentType":5126,"count":186,"type":"VEC2","byteOffset":40},{"bufferView":0,"componentType":5123,"count":360,"type":"SCALAR"},{"bufferView":10,"componentType":5126,"count":22,"type":"VEC3","max":[2.51941681,1.90734863E-06,1.08522034],"min":[-2.44936371,-1.90734863E-06,-13.9930267]},{"bufferView":10,"componentType":5126,"count":22,"type":"VEC3","byteOffset":12},{"bufferView":10,"componentType":5126,"count":22,"type":"VEC4","byteOffset":24},{"bufferView":10,"componentType":5126,"count":22,"type":"VEC2","byteOffset":40},{"bufferView":2,"componentType":5123,"count":60,"type":"SCALAR"},{"bufferView":61,"componentType":5126,"count":64,"type":"VEC3","max":[0.697793543,1.00000024,0.6977979],"min":[-0.697792351,-0.0200003088,-0.697796941]},{"bufferView":61,"componentType":5126,"count":64,"type":"VEC3","byteOffset":12},{"bufferView":61,"componentType":5126,"count":64,"type":"VEC4","byteOffset":24},{"bufferView":61,"componentType":5126,"count":64,"type":"VEC2","byteOffset":40},{"bufferView":61,"componentType":5126,"count":64,"type":"VEC2","byteOffset":48},{"bufferView":34,"componentType":5123,"count":96,"type":"SCALAR"},{"bufferView":39,"componentType":5126,"count":188,"type":"VEC3","max":[0.513316751,5.9,0.513319254],"min":[-0.513320565,0,-0.513319254]},{"bufferView":39,"componentType":5126,"count":188,"type":"VEC3","byteOffset":12},{"bufferView":39,"componentType":5126,"count":188,"type":"VEC4","byteOffset":24},{"bufferView":39,"componentType":5126,"count":188,"type":"VEC2","byteOffset":40},{"bufferView":39,"componentType":5126,"count":188,"type":"VEC2","byteOffset":48},{"bufferView":35,"componentType":5123,"count":390,"type":"SCALAR"},{"bufferView":46,"componentType":5126,"count":44,"type":"VEC3","max":[0.611391366,-0.0199998021,0.6113963],"min":[-0.6113923,-0.6101987,-0.6113956]},{"bufferView":46,"componentType":5126,"count":44,"type":"VEC3","byteOffset":12},{"bufferView":46,"componentType":5126,"count":44,"type":"VEC4","byteOffset":24},{"bufferView":46,"componentType":5126,"count":44,"type":"VEC2","byteOffset":40},{"bufferView":46,"componentType":5126,"count":44,"type":"VEC2","byteOffset":48},{"bufferView":36,"componentType":5123,"count":66,"type":"SCALAR"},{"bufferView":11,"componentType":5126,"count":2396,"type":"VEC3","max":[29.821703,7.04257,34.09072],"min":[-1.92196846,-19.45743,15.44844]},{"bufferView":11,"componentType":5126,"count":2396,"type":"VEC3","byteOffset":12},{"bufferView":11,"componentType":5126,"count":2396,"type":"VEC4","byteOffset":24},{"bufferView":11,"componentType":5126,"count":2396,"type":"VEC2","byteOffset":40},{"bufferView":3,"componentType":5123,"count":3990,"type":"SCALAR"},{"bufferView":6,"componentType":5126,"count":24,"type":"VEC3","max":[-0.208101273,63.3015175,8.938363],"min":[-8.382004,-63.30151,-3.67071271]},{"bufferView":6,"componentType":5126,"count":24,"type":"VEC3","byteOffset":12},{"bufferView":6,"componentType":5126,"count":24,"type":"VEC4","byteOffset":24},{"bufferView":6,"componentType":5126,"count":24,"type":"VEC2","byteOffset":40},{"bufferView":4,"componentType":5123,"count":36,"type":"SCALAR"},{"bufferView":8,"componentType":5126,"count":24,"type":"VEC3","max":[2.51567459,31.1071014,5.380318],"min":[-8.382,-63.3015137,-1.5383482]},{"bufferView":8,"componentType":5126,"count":24,"type":"VEC3","byteOffset":12},{"bufferView":8,"componentType":5126,"count":24,"type":"VEC4","byteOffset":24},{"bufferView":8,"componentType":5126,"count":24,"type":"VEC2","byteOffset":40},{"bufferView":5,"componentType":5123,"count":36,"type":"SCALAR"}],"images":[{"name":"T_ENV_MOD_StoneStack_01_v3_N.png","uri":"T_ENV_MOD_StoneStack_01_v3_N.png","mimeType":"image/png"},{"name":"T_ENV_MOD_StoneStack_01_v3_BC.jpg","uri":"T_ENV_MOD_StoneStack_01_v3_BC.jpg","mimeType":"image/jpeg"},{"name":"T_ENV_MOD_StoneStack_01_v3_MTSM.jpg","uri":"T_ENV_MOD_StoneStack_01_v3_MTSM.jpg","mimeType":"image/jpeg"},{"name":"T_ENV_MOD_Wall_01_v3_N.png","uri":"T_ENV_MOD_Wall_01_v3_N.png","mimeType":"image/png"},{"name":"T_ENV_MOD_Wall_01_v3_BC.jpg","uri":"T_ENV_MOD_Wall_01_v3_BC.jpg","mimeType":"image/jpeg"},{"name":"T_ENV_MOD_Wall_01_v3_MTSM.jpg","uri":"T_ENV_MOD_Wall_01_v3_MTSM.jpg","mimeType":"image/jpeg"},{"name":"T_PROP_dirtpile_dungeon_N.png","uri":"T_PROP_dirtpile_dungeon_N.png","mimeType":"image/png"},{"name":"T_YFGM_Grass04_s.png","uri":"T_YFGM_Grass04_s.png","mimeType":"image/png"},{"name":"T_PROP_dirtpile_dungeon_MTSM.jpg","uri":"T_PROP_dirtpile_dungeon_MTSM.jpg","mimeType":"image/jpeg"},{"name":"T_ENV_MOD_Floor_01_v3_N.png","uri":"T_ENV_MOD_Floor_01_v3_N.png","mimeType":"image/png"},{"name":"T_ENV_MOD_Floor_01_v3_BC.jpg","uri":"T_ENV_MOD_Floor_01_v3_BC.jpg","mimeType":"image/jpeg"},{"name":"T_ENV_MOD_Floor_01_v3_MTSM.jpg","uri":"T_ENV_MOD_Floor_01_v3_MTSM.jpg","mimeType":"image/jpeg"},{"name":"NormalBasic.png","uri":"NormalBasic.png","mimeType":"image/png"},{"name":"ChatGPT Image 22 ago 2026, 18_30_34.jpg","uri":"ChatGPT Image 22 ago 2026, 18_30_34.jpg","mimeType":"image/jpeg"},{"name":"ChatGPT Image 22 ago 2026, 18_30_31.jpg","uri":"ChatGPT Image 22 ago 2026, 18_30_31.jpg","mimeType":"image/jpeg"}],"materials":[{"name":"M_MOD_Trim_Stone_01_v3","pbrMetallicRoughness":{"roughnessFactor":0,"baseColorTexture":{"index":1},"metallicRoughnessTexture":{"index":2}},"normalTexture":{"index":0}},{"name":"M_MOD_Wall_01_v3","pbrMetallicRoughness":{"roughnessFactor":0,"baseColorTexture":{"index":4},"metallicRoughnessTexture":{"index":5}},"normalTexture":{"index":3,"scale":1.82}},{"name":"M_PROP_dirtpile_dungeon","pbrMetallicRoughness":{"roughnessFactor":0,"baseColorTexture":{"index":7},"metallicRoughnessTexture":{"index":8}},"normalTexture":{"index":6}},{"name":"M_MOD_Floor_01_v3","pbrMetallicRoughness":{"roughnessFactor":0,"baseColorTexture":{"index":10},"metallicRoughnessTexture":{"index":11}},"normalTexture":{"index":9}},{"name":"Water","pbrMetallicRoughness":{"metallicFactor":0,"roughnessFactor":0.5,"baseColorTexture":{"index":13}},"normalTexture":{"index":12}},{"name":"M_stairs","pbrMetallicRoughness":{"roughnessFactor":0,"baseColorTexture":{"index":4,"extensions":{"KHR_texture_transform":{"offset":[0,0.75],"scale":[0.25,0.25]}}},"metallicRoughnessTexture":{"index":5}},"normalTexture":{"index":3,"scale":1.82}},{"name":"Cascade","pbrMetallicRoughness":{"metallicFactor":0,"roughnessFactor":0.5,"baseColorTexture":{"index":14}},"normalTexture":{"index":12}}],"meshes":[{"name":"MOD_Stairs_01_E_straight_1","primitives":[{"attributes":{"POSITION":0,"NORMAL":1,"TANGENT":2,"TEXCOORD_0":3,"TEXCOORD_1":4},"indices":5,"material":0}]},{"name":"MOD_Wall_01_E_straight_large","primitives":[{"attributes":{"POSITION":6,"NORMAL":7,"TANGENT":8,"TEXCOORD_0":9,"TEXCOORD_1":10},"indices":11,"material":1}]},{"name":"MOD_WallCover_01_E_straight","primitives":[{"attributes":{"POSITION":12,"NORMAL":13,"TANGENT":14,"TEXCOORD_0":15,"TEXCOORD_1":16},"indices":17,"material":0}]},{"name":"MOD_WallTrim_01_E_straight","primitives":[{"attributes":{"POSITION":18,"NORMAL":19,"TANGENT":20,"TEXCOORD_0":21,"TEXCOORD_1":22},"indices":23,"material":0}]},{"name":"MOD_Wall_01_E_straight_large_half_R","primitives":[{"attributes":{"POSITION":24,"NORMAL":25,"TANGENT":26,"TEXCOORD_0":27,"TEXCOORD_1":28},"indices":29,"material":1}]},{"name":"MOD_WallCover_01_E_straight_half_R","primitives":[{"attributes":{"POSITION":30,"NORMAL":31,"TANGENT":32,"TEXCOORD_0":33,"TEXCOORD_1":34},"indices":35,"material":0}]},{"name":"MOD_WallTrim_01_E_straight_half_R","primitives":[{"attributes":{"POSITION":36,"NORMAL":37,"TANGENT":38,"TEXCOORD_0":39,"TEXCOORD_1":40},"indices":41,"material":0}]},{"name":"MOD_Wall_01_E_convex_large","primitives":[{"attributes":{"POSITION":42,"NORMAL":43,"TANGENT":44,"TEXCOORD_0":45,"TEXCOORD_1":46},"indices":47,"material":1}]},{"name":"MOD_WallCover_01_E_convex","primitives":[{"attributes":{"POSITION":48,"NORMAL":49,"TANGENT":50,"TEXCOORD_0":51,"TEXCOORD_1":52},"indices":53,"material":0}]},{"name":"MOD_WallTrim_01_E_convex","primitives":[{"attributes":{"POSITION":54,"NORMAL":55,"TANGENT":56,"TEXCOORD_0":57,"TEXCOORD_1":58},"indices":59,"material":0}]},{"name":"MOD_Wall_01_E_straight_small","primitives":[{"attributes":{"POSITION":60,"NORMAL":61,"TANGENT":62,"TEXCOORD_0":63,"TEXCOORD_1":64},"indices":65,"material":1}]},{"name":"MOD_WallTrim_01_E_straight_half_L","primitives":[{"attributes":{"POSITION":66,"NORMAL":67,"TANGENT":68,"TEXCOORD_0":69,"TEXCOORD_1":70},"indices":71,"material":0}]},{"name":"MOD_Wall_01_E_straight_small_half_L","primitives":[{"attributes":{"POSITION":72,"NORMAL":73,"TANGENT":74,"TEXCOORD_0":75,"TEXCOORD_1":76},"indices":77,"material":1}]},{"name":"MOD_WallCover_01_E_straight_half_L","primitives":[{"attributes":{"POSITION":78,"NORMAL":79,"TANGENT":80,"TEXCOORD_0":81,"TEXCOORD_1":82},"indices":83,"material":0}]},{"name":"MOD_Wall_01_M_straight_large_half_R","primitives":[{"attributes":{"POSITION":84,"NORMAL":85,"TANGENT":86,"TEXCOORD_0":87,"TEXCOORD_1":88},"indices":89,"material":1}]},{"name":"MOD_WallCover_01_M_straight_half_R","primitives":[{"attributes":{"POSITION":90,"NORMAL":91,"TANGENT":92,"TEXCOORD_0":93,"TEXCOORD_1":94},"indices":95,"material":0}]},{"name":"MOD_Stairs_01_Railing_1","primitives":[{"attributes":{"POSITION":96,"NORMAL":97,"TANGENT":98,"TEXCOORD_0":99,"TEXCOORD_1":100},"indices":101,"material":0}]},{"name":"MOD_Railing_01_column","primitives":[{"attributes":{"POSITION":102,"NORMAL":103,"TANGENT":104,"TEXCOORD_0":105,"TEXCOORD_1":106},"indices":107,"material":0}]},{"name":"MOD_Railing_01_straight","primitives":[{"attributes":{"POSITION":108,"NORMAL":109,"TANGENT":110,"TEXCOORD_0":111,"TEXCOORD_1":112},"indices":113,"material":0}]},{"name":"MOD_Railing_01_straight_half","primitives":[{"attributes":{"POSITION":114,"NORMAL":115,"TANGENT":116,"TEXCOORD_0":117,"TEXCOORD_1":118},"indices":119,"material":0}]},{"name":"pb_Mesh-295606(Clone)(Clone)(Clone)(Clone)","primitives":[{"attributes":{"POSITION":120,"NORMAL":121,"TANGENT":122,"TEXCOORD_0":123},"indices":124,"material":2}]},{"name":"MOD_Floor_01_O_straight_med","primitives":[{"attributes":{"POSITION":125,"NORMAL":126,"TANGENT":127,"TEXCOORD_0":128,"TEXCOORD_1":129},"indices":130,"material":3}]},{"name":"MOD_Floor_01_O_straight_small","primitives":[{"attributes":{"POSITION":131,"NORMAL":132,"TANGENT":133,"TEXCOORD_0":134,"TEXCOORD_1":135},"indices":136,"material":3}]},{"name":"pb_Mesh-126104","primitives":[{"attributes":{"POSITION":137,"NORMAL":138,"TANGENT":139,"TEXCOORD_0":140},"indices":141,"material":4}]},{"name":"pb_Mesh-53732","primitives":[{"attributes":{"POSITION":142,"NORMAL":143,"TANGENT":144,"TEXCOORD_0":145},"indices":146,"material":4}]},{"name":"MOD_Column_01_base","primitives":[{"attributes":{"POSITION":147,"NORMAL":148,"TANGENT":149,"TEXCOORD_0":150,"TEXCOORD_1":151},"indices":152,"material":0}]},{"name":"MOD_Column_01_large","primitives":[{"attributes":{"POSITION":153,"NORMAL":154,"TANGENT":155,"TEXCOORD_0":156,"TEXCOORD_1":157},"indices":158,"material":0}]},{"name":"MOD_Column_01_capital","primitives":[{"attributes":{"POSITION":159,"NORMAL":160,"TANGENT":161,"TEXCOORD_0":162,"TEXCOORD_1":163},"indices":164,"material":0}]},{"name":"pb_Mesh-230438(Clone)(Clone)(Clone)(Clone)","primitives":[{"attributes":{"POSITION":165,"NORMAL":166,"TANGENT":167,"TEXCOORD_0":168},"indices":169,"material":5}]},{"name":"pb_Mesh-78282(Clone)(Clone)(Clone)(Clone)(Clone)(Clone)(Clone)","primitives":[{"attributes":{"POSITION":170,"NORMAL":171,"TANGENT":172,"TEXCOORD_0":173},"indices":174,"material":6}]},{"name":"pb_Mesh-78282(Clone)(Clone)(Clone)(Clone)(Clone)(Clone)(Clone)(Clone)","primitives":[{"attributes":{"POSITION":175,"NORMAL":176,"TANGENT":177,"TEXCOORD_0":178},"indices":179,"material":6}]}],"samplers":[{"minFilter":9987}],"scene":0,"scenes":[{"name":"WaterfallSection","nodes":[436]}],"textures":[{"source":0},{"source":1},{"source":2},{"source":3},{"source":4},{"source":5},{"source":6},{"source":7,"sampler":0},{"source":8},{"source":9},{"source":10},{"source":11},{"source":12},{"source":13},{"source":14}]}