{"asset":{"version":"2.0","generator":"Unity 6000.2.9f1 glTFast 6.15.1"},"nodes":[{"name":"NormalSpikes","mesh":0,"translation":[0,-0.63,0]},{"name":"SpectralSpikes","mesh":2,"translation":[0,-0.63,0]},{"name":"SpikeTrap","children":[0,1],"mesh":1,"translation":[94.10636,0.0307026189,-114.306419]}],"buffers":[{"uri":"SpikeTrap.bin","byteLength":31616}],"bufferViews":[{"buffer":0,"byteLength":120,"target":34963},{"buffer":0,"byteLength":2376,"byteOffset":120,"target":34963},{"buffer":0,"byteLength":3360,"byteOffset":2496,"byteStride":56,"target":34962},{"buffer":0,"byteLength":25760,"byteOffset":5856,"byteStride":56,"target":34962}],"accessors":[{"bufferView":2,"componentType":5126,"count":60,"type":"VEC3","max":[0.6663799,0.7010091,0.6670017],"min":[-0.6706059,-0.0307025909,-0.660074353]},{"bufferView":2,"componentType":5126,"count":60,"type":"VEC3","byteOffset":12},{"bufferView":2,"componentType":5126,"count":60,"type":"VEC4","byteOffset":24},{"bufferView":2,"componentType":5126,"count":60,"type":"VEC2","byteOffset":40},{"bufferView":2,"componentType":5126,"count":60,"type":"VEC2","byteOffset":48},{"bufferView":0,"componentType":5123,"count":60,"type":"SCALAR"},{"bufferView":3,"componentType":5126,"count":460,"type":"VEC3","max":[1.00101852,0.179187536,1.00473642],"min":[-1.0026834,-0.0258862674,-1.00262642]},{"bufferView":3,"componentType":5126,"count":460,"type":"VEC3","byteOffset":12},{"bufferView":3,"componentType":5126,"count":460,"type":"VEC4","byteOffset":24},{"bufferView":3,"componentType":5126,"count":460,"type":"VEC2","byteOffset":40},{"bufferView":3,"componentType":5126,"count":460,"type":"VEC2","byteOffset":48},{"bufferView":1,"componentType":5123,"count":1188,"type":"SCALAR"}],"images":[{"name":"T_metal_dungeon_N.png","uri":"T_metal_dungeon_N.png","mimeType":"image/png"},{"name":"T_metal_dungeon_01_BC.jpg","uri":"T_metal_dungeon_01_BC.jpg","mimeType":"image/jpeg"},{"name":"T_metal_dungeon_MTSM_nometal.jpg","uri":"T_metal_dungeon_MTSM_nometal.jpg","mimeType":"image/jpeg"}],"materials":[{"name":"M_metal_dungeon_01","pbrMetallicRoughness":{"roughnessFactor":0,"baseColorTexture":{"index":1},"metallicRoughnessTexture":{"index":2}},"normalTexture":{"index":0}},{"name":"EspectralPath","pbrMetallicRoughness":{"baseColorFactor":[0,0.936659038,0.957614,0.192156866],"metallicFactor":0.53,"roughnessFactor":0.5},"emissiveFactor":[0.3160377,0.86320734,1],"alphaMode":"BLEND"}],"meshes":[{"name":"SM_PROP_trap_floor_spikes_dungeon_04","primitives":[{"attributes":{"POSITION":0,"NORMAL":1,"TANGENT":2,"TEXCOORD_0":3,"TEXCOORD_1":4},"indices":5,"material":0}]},{"name":"SM_PROP_trap_floor_dungeon_04","primitives":[{"attributes":{"POSITION":6,"NORMAL":7,"TANGENT":8,"TEXCOORD_0":9,"TEXCOORD_1":10},"indices":11,"material":0}]},{"name":"SM_PROP_trap_floor_spikes_dungeon_04","primitives":[{"attributes":{"POSITION":0,"NORMAL":1,"TANGENT":2,"TEXCOORD_0":3,"TEXCOORD_1":4},"indices":5,"material":1}]}],"scene":0,"scenes":[{"name":"SpikeTrap","nodes":[2]}],"textures":[{"source":0},{"source":1},{"source":2}]}