{"asset":{"version":"2.0","generator":"Unity 6000.2.9f1 glTFast 6.15.1"},"nodes":[{"name":"P_PROP_platform_grid_dungeon","mesh":0,"translation":[3.70220017,0.169732049,-10.5479994],"scale":[2.88802433,1.45749927,2.88802433]},{"name":"P_PROP_platform_dungeon","mesh":1,"translation":[12.2397728,0.174999952,-3.97687864],"scale":[1.4154,1.4154,1.4154]},{"name":"P_PROP_platform_dungeon (1)","mesh":1,"translation":[12.2097731,0.174999952,-16.9168777],"scale":[1.4154,1.4154,1.4154]},{"name":"P_PROP_platform_dungeon (2)","mesh":1,"translation":[0.8597729,0.174999952,-20.9668789],"scale":[1.4154,1.4154,1.4154]},{"name":"P_PROP_platform_dungeon (3)","mesh":1,"translation":[-6.81022739,0.174999952,-10.5968781],"scale":[1.4154,1.4154,1.4154]},{"name":"P_PROP_platform_dungeon (4)","mesh":1,"translation":[0.329772949,0.174999952,0.223121643],"scale":[1.4154,1.4154,1.4154]},{"name":"P_MOD_WallCover_01_E_straight","mesh":2,"translation":[12.4297733,0,-8.856878],"rotation":[0,-0.707105756,0,0.707107842]},{"name":"P_MOD_WallCover_01_E_straight (12)","mesh":2,"translation":[4.56524467,0,-19.3774357],"rotation":[0,-0.9849954,0,-0.172580764]},{"name":"P_MOD_WallCover_01_E_straight (3)","mesh":2,"translation":[4.37977266,0,-0.9168787],"rotation":[0,-0.986017048,0,0.166644588]},{"name":"P_MOD_WallCover_01_E_straight (15)","mesh":2,"translation":[3.10474539,0,-3.48412561],"rotation":[0,-0.882597864,0,0.470128715]},{"name":"P_MOD_WallCover_01_E_straight (35)","mesh":2,"translation":[0.7743192,0.06999993,-4.49732828],"rotation":[0,-0.7059081,0,0.708303452]},{"name":"P_MOD_WallCover_01_E_straight (25)","mesh":2,"translation":[-2.790227,0.03999996,-8.906878],"rotation":[0,-0.986219,0,-0.1654455]},{"name":"P_MOD_WallCover_01_E_straight (30)","mesh":2,"translation":[-2.710227,0,-11.7868786],"rotation":[0,-0.9857824,0,0.168027326]},{"name":"P_MOD_WallCover_01_E_straight (20)","mesh":2,"translation":[2.85050869,-0.01999998,-17.0412941],"rotation":[0,-0.885015666,0,-0.4655613]},{"name":"P_MOD_WallCover_01_E_straight (18)","mesh":2,"translation":[9.529773,0,-12.9368782],"rotation":[0,-0.882597864,0,0.470128715]},{"name":"P_MOD_WallCover_01_E_straight (36)","mesh":2,"translation":[0.793313265,0.06999993,-16.2769051],"rotation":[0,-0.7059081,0,0.708303452]},{"name":"P_MOD_WallCover_01_E_straight (26)","mesh":2,"translation":[7.994693,0.03999996,-5.12255859],"rotation":[0,-0.986219,0,-0.1654455]},{"name":"P_MOD_WallCover_01_E_straight (31)","mesh":2,"translation":[8.092949,0,-15.5187588],"rotation":[0,-0.9857824,0,0.168027326]},{"name":"P_MOD_WallCover_01_E_straight (21)","mesh":2,"translation":[9.277788,-0.01999998,-7.59007454],"rotation":[0,-0.885015666,0,-0.4655613]},{"name":"P_MOD_WallCover_01_E_straight (6)","mesh":2,"translation":[-3.91022682,0,-14.1868782],"rotation":[0,-0.8940756,0,0.447916269]},{"name":"P_MOD_WallCover_01_E_straight (9)","mesh":2,"translation":[-4.580227,0,-6.54687834],"rotation":[0,-0.8869167,0,-0.4619295]},{"name":"P_MOD_WallCover_01_E_straight (1)","mesh":2,"translation":[12.4297733,0,-12.8568783],"rotation":[0,-0.707105756,0,0.707107842]},{"name":"P_MOD_WallCover_01_E_straight (13)","mesh":2,"translation":[8.326967,0,-18.0174866],"rotation":[0,-0.9849954,0,-0.172580764]},{"name":"P_MOD_WallCover_01_E_straight (4)","mesh":2,"translation":[8.157608,0,-2.23139787],"rotation":[0,-0.986017048,0,0.166644588]},{"name":"P_MOD_WallCover_01_E_straight (16)","mesh":2,"translation":[5.33657742,0,-6.80360174],"rotation":[0,-0.882597864,0,0.470128715]},{"name":"P_MOD_WallCover_01_E_straight (37)","mesh":2,"translation":[0.7607763,0.06999993,-8.497305],"rotation":[0,-0.7059081,0,0.708303452]},{"name":"P_MOD_WallCover_01_E_straight (27)","mesh":2,"translation":[0.990795851,0.03999996,-7.601553],"rotation":[0,-0.986219,0,-0.1654455]},{"name":"P_MOD_WallCover_01_E_straight (32)","mesh":2,"translation":[1.06391,0,-13.1119862],"rotation":[0,-0.9857824,0,0.168027326]},{"name":"P_MOD_WallCover_01_E_straight (22)","mesh":2,"translation":[5.116525,-0.01999998,-13.7450542],"rotation":[0,-0.885015666,0,-0.4655613]},{"name":"P_MOD_WallCover_01_E_straight (19)","mesh":2,"translation":[11.7616043,0,-16.2563553],"rotation":[0,-0.882597864,0,0.470128715]},{"name":"P_MOD_WallCover_01_E_straight (38)","mesh":2,"translation":[0.779772758,0.06999993,-20.2768784],"rotation":[0,-0.7059081,0,0.708303452]},{"name":"P_MOD_WallCover_01_E_straight (28)","mesh":2,"translation":[11.7757158,0.03999996,-3.817233],"rotation":[0,-0.986219,0,-0.1654455]},{"name":"P_MOD_WallCover_01_E_straight (33)","mesh":2,"translation":[11.8670845,0,-16.8438663],"rotation":[0,-0.9857824,0,0.168027326]},{"name":"P_MOD_WallCover_01_E_straight (23)","mesh":2,"translation":[11.5438042,-0.01999998,-4.293832],"rotation":[0,-0.885015666,0,-0.4655613]},{"name":"P_MOD_WallCover_01_E_straight (7)","mesh":2,"translation":[-1.5152626,0,-17.3906479],"rotation":[0,-0.8940756,0,0.447916269]},{"name":"P_MOD_WallCover_01_E_straight (10)","mesh":2,"translation":[-2.28724813,0,-3.26934242],"rotation":[0,-0.8869167,0,-0.4619295]},{"name":"P_MOD_WallCover_01_E_straight (2)","mesh":2,"translation":[12.4297733,0,-16.8468781],"rotation":[0,-0.707105756,0,0.707107842]},{"name":"P_MOD_WallCover_01_E_straight (14)","mesh":2,"translation":[12.0792885,0,-16.66095],"rotation":[0,-0.9849954,0,-0.172580764]},{"name":"P_MOD_WallCover_01_E_straight (5)","mesh":2,"translation":[11.9260015,0,-3.542635],"rotation":[0,-0.986017048,0,0.166644588]},{"name":"P_MOD_WallCover_01_E_straight (17)","mesh":2,"translation":[7.562832,0,-10.1147833],"rotation":[0,-0.882597864,0,0.470128715]},{"name":"P_MOD_WallCover_01_E_straight (39)","mesh":2,"translation":[0.747266531,0.06999993,-12.4872866],"rotation":[0,-0.7059081,0,0.708303452]},{"name":"P_MOD_WallCover_01_E_straight (29)","mesh":2,"translation":[4.762371,0.03999996,-6.29948854],"rotation":[0,-0.986219,0,-0.1654455]},{"name":"P_MOD_WallCover_01_E_straight (34)","mesh":2,"translation":[4.828614,0,-14.4337854],"rotation":[0,-0.9857824,0,0.168027326]},{"name":"P_MOD_WallCover_01_E_straight (24)","mesh":2,"translation":[7.37687826,-0.01999998,-10.4570522],"rotation":[0,-0.885015666,0,-0.4655613]},{"name":"P_MOD_WallCover_01_E_straight (8)","mesh":2,"translation":[0.8737111,0,-20.5864143],"rotation":[0,-0.8940756,0,0.447916269]},{"name":"P_MOD_WallCover_01_E_straight (11)","mesh":2,"rotation":[0,-0.8869167,0,-0.4619295]},{"name":"P_PROP_chain_dungeon_01","mesh":3,"translation":[3.68,0.314,-10.83],"rotation":[0,0,-0.7071068,0.7071068],"scale":[0.76915437,0.76915437,0.76915437]},{"name":"P_PROP_chain_dungeon_01 (2)","mesh":3,"translation":[3.68000031,0.313999951,-10.039],"rotation":[0,0,-0.7071068,0.7071068],"scale":[0.76915437,0.76915437,0.76915437]},{"name":"P_PROP_chain_dungeon_01 (4)","mesh":3,"translation":[3.68000031,0.313999951,-11.6589994],"rotation":[0,0,-0.7071068,0.7071068],"scale":[0.76915437,0.76915437,0.76915437]},{"name":"P_PROP_chain_dungeon_01 (6)","mesh":3,"translation":[3.68000031,0.313999951,-9.2809],"rotation":[0,0,-0.7071068,0.7071068],"scale":[0.76915437,0.76915437,0.76915437]},{"name":"P_PROP_chain_dungeon_01 (8)","mesh":3,"translation":[4.04520035,0.313999951,-10.7079992],"rotation":[0.507719755,-0.507719755,-0.4921592,0.4921592],"scale":[0.76915437,0.8577611,0.7691543]},{"name":"P_PROP_chain_dungeon_01 (10)","mesh":3,"translation":[3.30920029,0.298019946,-10.606],"rotation":[0.507719755,-0.507719755,-0.4921592,0.4921592],"scale":[0.76915437,0.8577611,0.7691543]},{"name":"P_PROP_chain_dungeon_01 (12)","mesh":3,"translation":[2.56610012,0.298019946,-10.606],"rotation":[0.507719755,-0.507719755,-0.4921592,0.4921592],"scale":[0.76915437,0.8577611,0.7691543]},{"name":"P_PROP_chain_dungeon_01 (14)","mesh":3,"translation":[4.8322,0.298019946,-10.606],"rotation":[0.507719755,-0.507719755,-0.4921592,0.4921592],"scale":[0.76915437,0.8577611,0.7691543]},{"name":"P_PROP_chain_dungeon_01 (1)","mesh":3,"translation":[1.7124002,0.304749966,-10.83],"rotation":[0,0,-0.7071068,0.7071068],"scale":[0.76915437,0.76915437,0.76915437]},{"name":"P_PROP_chain_dungeon_01 (3)","mesh":3,"translation":[1.7124002,0.304749966,-10.039],"rotation":[0,0,-0.7071068,0.7071068],"scale":[0.76915437,0.76915437,0.76915437]},{"name":"P_PROP_chain_dungeon_01 (5)","mesh":3,"translation":[1.7124002,0.304749966,-11.6589994],"rotation":[0,0,-0.7071068,0.7071068],"scale":[0.76915437,0.76915437,0.76915437]},{"name":"P_PROP_chain_dungeon_01 (7)","mesh":3,"translation":[1.7124002,0.304749966,-9.2809],"rotation":[0,0,-0.7071068,0.7071068],"scale":[0.76915437,0.76915437,0.76915437]},{"name":"P_PROP_chain_dungeon_01 (9)","mesh":3,"translation":[4.1064,0.304749966,-12.9019995],"rotation":[0.507719755,-0.507719755,-0.4921592,0.4921592],"scale":[0.76915437,0.8577611,0.7691543]},{"name":"P_PROP_chain_dungeon_01 (11)","mesh":3,"translation":[3.37040019,0.288759947,-12.799],"rotation":[0.507719755,-0.507719755,-0.4921592,0.4921592],"scale":[0.76915437,0.8577611,0.7691543]},{"name":"P_PROP_chain_dungeon_01 (13)","mesh":3,"translation":[2.62730026,0.288759947,-12.799],"rotation":[0.507719755,-0.507719755,-0.4921592,0.4921592],"scale":[0.76915437,0.8577611,0.7691543]},{"name":"P_PROP_chain_dungeon_01 (15)","mesh":3,"translation":[4.89350033,0.288759947,-12.799],"rotation":[0.507719755,-0.507719755,-0.4921592,0.4921592],"scale":[0.76915437,0.8577611,0.7691543]},{"name":"PolyShape (1)","mesh":4,"translation":[53.4947739,0.2112701,34.25312],"scale":[3.99387121,3.99387121,3.99387121]},{"name":"PolyShape (2)","mesh":5,"translation":[53.4947739,0.220000029,44.89312],"scale":[3.99387121,3.99387121,3.99387121]},{"name":"PlatformStar","children":[0,1,2,3,4,5,6,7,8,9,10,11,12,13,14,15,16,17,18,19,20,21,22,23,24,25,26,27,28,29,30,31,32,33,34,35,36,37,38,39,40,41,42,43,44,45,46,47,48,49,50,51,52,53,54,55,56,57,58,59,60,61,62,63],"translation":[-4.159773,3.22,5.656879]}],"buffers":[{"uri":"PlatformStar.bin","byteLength":117168}],"bufferViews":[{"buffer":0,"byteLength":192,"target":34963},{"buffer":0,"byteLength":192,"byteOffset":192,"target":34963},{"buffer":0,"byteLength":2592,"byteOffset":384,"byteStride":48,"target":34962},{"buffer":0,"byteLength":1896,"byteOffset":2976,"target":34963},{"buffer":0,"byteLength":672,"byteOffset":4872,"target":34963},{"buffer":0,"byteLength":672,"byteOffset":5544,"target":34963},{"buffer":0,"byteLength":10080,"byteOffset":6216,"target":34963},{"buffer":0,"byteLength":2592,"byteOffset":16296,"byteStride":48,"target":34962},{"buffer":0,"byteLength":5488,"byteOffset":18888,"byteStride":56,"target":34962},{"buffer":0,"byteLength":16520,"byteOffset":24376,"byteStride":56,"target":34962},{"buffer":0,"byteLength":9632,"byteOffset":40896,"byteStride":56,"target":34962},{"buffer":0,"byteLength":66640,"byteOffset":50528,"byteStride":56,"target":34962}],"accessors":[{"bufferView":9,"componentType":5126,"count":295,"type":"VEC3","max":[0.9886558,0.230952263,0.9972601],"min":[-1.01134419,-2.01165676E-06,-1.00325966]},{"bufferView":9,"componentType":5126,"count":295,"type":"VEC3","byteOffset":12},{"bufferView":9,"componentType":5126,"count":295,"type":"VEC4","byteOffset":24},{"bufferView":9,"componentType":5126,"count":295,"type":"VEC2","byteOffset":40},{"bufferView":9,"componentType":5126,"count":295,"type":"VEC2","byteOffset":48},{"bufferView":3,"componentType":5123,"count":288,"type":"SCALAR"},{"bufferView":3,"componentType":5123,"count":660,"type":"SCALAR","byteOffset":576},{"bufferView":8,"componentType":5126,"count":98,"type":"VEC3","max":[1,0.22079742,1],"min":[-1,-0.0006917864,-1]},{"bufferView":8,"componentType":5126,"count":98,"type":"VEC3","byteOffset":12},{"bufferView":8,"componentType":5126,"count":98,"type":"VEC4","byteOffset":24},{"bufferView":8,"componentType":5126,"count":98,"type":"VEC2","byteOffset":40},{"bufferView":8,"componentType":5126,"count":98,"type":"VEC2","byteOffset":48},{"bufferView":4,"componentType":5123,"count":336,"type":"SCALAR"},{"bufferView":10,"componentType":5126,"count":172,"type":"VEC3","max":[4.00000143,0.346663684,0.653979659],"min":[0,-0.346670479,-0.153971672]},{"bufferView":10,"componentType":5126,"count":172,"type":"VEC3","byteOffset":12},{"bufferView":10,"componentType":5126,"count":172,"type":"VEC4","byteOffset":24},{"bufferView":10,"componentType":5126,"count":172,"type":"VEC2","byteOffset":40},{"bufferView":10,"componentType":5126,"count":172,"type":"VEC2","byteOffset":48},{"bufferView":5,"componentType":5123,"count":336,"type":"SCALAR"},{"bufferView":11,"componentType":5126,"count":1190,"type":"VEC3","max":[0.134970874,2.6532042,0.131120533],"min":[-0.131495863,-0.00541687,-0.134849787]},{"bufferView":11,"componentType":5126,"count":1190,"type":"VEC3","byteOffset":12},{"bufferView":11,"componentType":5126,"count":1190,"type":"VEC4","byteOffset":24},{"bufferView":11,"componentType":5126,"count":1190,"type":"VEC2","byteOffset":40},{"bufferView":11,"componentType":5126,"count":1190,"type":"VEC2","byteOffset":48},{"bufferView":6,"componentType":5123,"count":5040,"type":"SCALAR"},{"bufferView":7,"componentType":5126,"count":54,"type":"VEC3","max":[-9.366472,1.1920929E-07,-11.1958666],"min":[-16.4085865,-0.186012268,-14.8722639]},{"bufferView":7,"componentType":5126,"count":54,"type":"VEC3","byteOffset":12},{"bufferView":7,"componentType":5126,"count":54,"type":"VEC4","byteOffset":24},{"bufferView":7,"componentType":5126,"count":54,"type":"VEC2","byteOffset":40},{"bufferView":0,"componentType":5123,"count":96,"type":"SCALAR"},{"bufferView":2,"componentType":5126,"count":54,"type":"VEC3","max":[-9.385477,1.1920929E-07,-10.1624727],"min":[-16.40063,-0.186012268,-13.9241209]},{"bufferView":2,"componentType":5126,"count":54,"type":"VEC3","byteOffset":12},{"bufferView":2,"componentType":5126,"count":54,"type":"VEC4","byteOffset":24},{"bufferView":2,"componentType":5126,"count":54,"type":"VEC2","byteOffset":40},{"bufferView":1,"componentType":5123,"count":96,"type":"SCALAR"}],"images":[{"name":"T_PROP_stone_deco_dungeon_N.png","uri":"T_PROP_stone_deco_dungeon_N.png","mimeType":"image/png"},{"name":"T_PROP_stone_deco_dungeon_BC.jpg","uri":"T_PROP_stone_deco_dungeon_BC.jpg","mimeType":"image/jpeg"},{"name":"T_PROP_stone_deco_dungeon_MTSM.jpg","uri":"T_PROP_stone_deco_dungeon_MTSM.jpg","mimeType":"image/jpeg"},{"name":"T_metal_dungeon_N.png","uri":"T_metal_dungeon_N.png","mimeType":"image/png"},{"name":"T_metal_dungeon_01_BC.jpg","uri":"T_metal_dungeon_01_BC.jpg","mimeType":"image/jpeg"},{"name":"T_metal_dungeon_MTSM_nometal.jpg","uri":"T_metal_dungeon_MTSM_nometal.jpg","mimeType":"image/jpeg"},{"name":"T_ENV_MOD_StoneStack_01_v3_N.png","uri":"T_ENV_MOD_StoneStack_01_v3_N.png","mimeType":"image/png"},{"name":"T_ENV_MOD_StoneStack_01_v3_BC.jpg","uri":"T_ENV_MOD_StoneStack_01_v3_BC.jpg","mimeType":"image/jpeg"},{"name":"T_ENV_MOD_StoneStack_01_v3_MTSM.jpg","uri":"T_ENV_MOD_StoneStack_01_v3_MTSM.jpg","mimeType":"image/jpeg"},{"name":"T_ENV_MOD_Floor_01_v3_N.png","uri":"T_ENV_MOD_Floor_01_v3_N.png","mimeType":"image/png"},{"name":"T_ENV_MOD_Floor_01_v2_BC.jpg","uri":"T_ENV_MOD_Floor_01_v2_BC.jpg","mimeType":"image/jpeg"},{"name":"T_ENV_MOD_Floor_01_v3_MTSM.jpg","uri":"T_ENV_MOD_Floor_01_v3_MTSM.jpg","mimeType":"image/jpeg"}],"materials":[{"name":"M_PROP_stone_deco_dungeon","pbrMetallicRoughness":{"roughnessFactor":0,"baseColorTexture":{"index":1},"metallicRoughnessTexture":{"index":2}},"normalTexture":{"index":0}},{"name":"M_metal_dungeon_01","pbrMetallicRoughness":{"roughnessFactor":0,"baseColorTexture":{"index":4},"metallicRoughnessTexture":{"index":5}},"normalTexture":{"index":3}},{"name":"M_MOD_Trim_Stone_01_v3","pbrMetallicRoughness":{"roughnessFactor":0,"baseColorTexture":{"index":7},"metallicRoughnessTexture":{"index":8}},"normalTexture":{"index":6}},{"name":"M_MOD_Floor_01_v3 1","pbrMetallicRoughness":{"roughnessFactor":0,"baseColorTexture":{"index":10},"metallicRoughnessTexture":{"index":11}},"normalTexture":{"index":9}}],"meshes":[{"name":"SM_PROP_platform_grid_dungeon","primitives":[{"attributes":{"POSITION":0,"NORMAL":1,"TANGENT":2,"TEXCOORD_0":3,"TEXCOORD_1":4},"indices":5,"material":0},{"attributes":{"POSITION":0,"NORMAL":1,"TANGENT":2,"TEXCOORD_0":3,"TEXCOORD_1":4},"indices":6,"material":1}]},{"name":"SM_PROP_platform_dungeon","primitives":[{"attributes":{"POSITION":7,"NORMAL":8,"TANGENT":9,"TEXCOORD_0":10,"TEXCOORD_1":11},"indices":12,"material":0}]},{"name":"MOD_WallCover_01_E_straight","primitives":[{"attributes":{"POSITION":13,"NORMAL":14,"TANGENT":15,"TEXCOORD_0":16,"TEXCOORD_1":17},"indices":18,"material":2}]},{"name":"SM_PROP_chain_dungeon_01","primitives":[{"attributes":{"POSITION":19,"NORMAL":20,"TANGENT":21,"TEXCOORD_0":22,"TEXCOORD_1":23},"indices":24,"material":1}]},{"name":"pb_Mesh81324","primitives":[{"attributes":{"POSITION":25,"NORMAL":26,"TANGENT":27,"TEXCOORD_0":28},"indices":29,"material":3}]},{"name":"pb_Mesh-522254(Clone)(Clone)(Clone)","primitives":[{"attributes":{"POSITION":30,"NORMAL":31,"TANGENT":32,"TEXCOORD_0":33},"indices":34,"material":3}]}],"scene":0,"scenes":[{"name":"PlatformStar","nodes":[64]}],"textures":[{"source":0},{"source":1},{"source":2},{"source":3},{"source":4},{"source":5},{"source":6},{"source":7},{"source":8},{"source":9},{"source":10},{"source":11}]}