{"asset":{"version":"2.0","generator":"Unity 6000.2.9f1 glTFast 6.15.1"},"nodes":[{"name":"P_PROP_platform_grid_dungeon","mesh":0,"translation":[3.70220017,0.169732049,-10.5479994],"scale":[2.88802433,1.45749927,2.88802433]},{"name":"P_PROP_platform_dungeon","mesh":1,"translation":[12.2397728,0.174999952,-3.97687864],"scale":[1.4154,1.4154,1.4154]},{"name":"P_PROP_platform_dungeon (1)","mesh":1,"translation":[12.2097731,0.174999952,-16.9168777],"scale":[1.4154,1.4154,1.4154]},{"name":"P_PROP_platform_dungeon (2)","mesh":1,"translation":[0.8597729,0.174999952,-20.9668789],"scale":[1.4154,1.4154,1.4154]},{"name":"P_PROP_platform_dungeon (3)","mesh":1,"translation":[-6.81022739,0.174999952,-10.5968781],"scale":[1.4154,1.4154,1.4154]},{"name":"P_PROP_platform_dungeon (4)","mesh":1,"translation":[0.329772949,0.174999952,0.223121643],"scale":[1.4154,1.4154,1.4154]},{"name":"P_PROP_chain_dungeon_01","mesh":2,"translation":[3.68,0.314,-10.83],"rotation":[0,0,-0.7071068,0.7071068],"scale":[0.76915437,0.76915437,0.76915437]},{"name":"P_PROP_chain_dungeon_01 (2)","mesh":2,"translation":[3.68000031,0.313999951,-10.039],"rotation":[0,0,-0.7071068,0.7071068],"scale":[0.76915437,0.76915437,0.76915437]},{"name":"P_PROP_chain_dungeon_01 (4)","mesh":2,"translation":[3.68000031,0.313999951,-11.6589994],"rotation":[0,0,-0.7071068,0.7071068],"scale":[0.76915437,0.76915437,0.76915437]},{"name":"P_PROP_chain_dungeon_01 (6)","mesh":2,"translation":[3.68000031,0.313999951,-9.2809],"rotation":[0,0,-0.7071068,0.7071068],"scale":[0.76915437,0.76915437,0.76915437]},{"name":"P_PROP_chain_dungeon_01 (8)","mesh":2,"translation":[4.04520035,0.313999951,-10.7079992],"rotation":[0.507719755,-0.507719755,-0.4921592,0.4921592],"scale":[0.76915437,0.8577611,0.7691543]},{"name":"P_PROP_chain_dungeon_01 (10)","mesh":2,"translation":[3.30920029,0.298019946,-10.606],"rotation":[0.507719755,-0.507719755,-0.4921592,0.4921592],"scale":[0.76915437,0.8577611,0.7691543]},{"name":"P_PROP_chain_dungeon_01 (12)","mesh":2,"translation":[2.56610012,0.298019946,-10.606],"rotation":[0.507719755,-0.507719755,-0.4921592,0.4921592],"scale":[0.76915437,0.8577611,0.7691543]},{"name":"P_PROP_chain_dungeon_01 (14)","mesh":2,"translation":[4.8322,0.298019946,-10.606],"rotation":[0.507719755,-0.507719755,-0.4921592,0.4921592],"scale":[0.76915437,0.8577611,0.7691543]},{"name":"P_PROP_chain_dungeon_01 (1)","mesh":2,"translation":[1.7124002,0.304749966,-10.83],"rotation":[0,0,-0.7071068,0.7071068],"scale":[0.76915437,0.76915437,0.76915437]},{"name":"P_PROP_chain_dungeon_01 (3)","mesh":2,"translation":[1.7124002,0.304749966,-10.039],"rotation":[0,0,-0.7071068,0.7071068],"scale":[0.76915437,0.76915437,0.76915437]},{"name":"P_PROP_chain_dungeon_01 (5)","mesh":2,"translation":[1.7124002,0.304749966,-11.6589994],"rotation":[0,0,-0.7071068,0.7071068],"scale":[0.76915437,0.76915437,0.76915437]},{"name":"P_PROP_chain_dungeon_01 (7)","mesh":2,"translation":[1.7124002,0.304749966,-9.2809],"rotation":[0,0,-0.7071068,0.7071068],"scale":[0.76915437,0.76915437,0.76915437]},{"name":"P_PROP_chain_dungeon_01 (9)","mesh":2,"translation":[4.1064,0.304749966,-12.9019995],"rotation":[0.507719755,-0.507719755,-0.4921592,0.4921592],"scale":[0.76915437,0.8577611,0.7691543]},{"name":"P_PROP_chain_dungeon_01 (11)","mesh":2,"translation":[3.37040019,0.288759947,-12.799],"rotation":[0.507719755,-0.507719755,-0.4921592,0.4921592],"scale":[0.76915437,0.8577611,0.7691543]},{"name":"P_PROP_chain_dungeon_01 (13)","mesh":2,"translation":[2.62730026,0.288759947,-12.799],"rotation":[0.507719755,-0.507719755,-0.4921592,0.4921592],"scale":[0.76915437,0.8577611,0.7691543]},{"name":"P_PROP_chain_dungeon_01 (15)","mesh":2,"translation":[4.89350033,0.288759947,-12.799],"rotation":[0.507719755,-0.507719755,-0.4921592,0.4921592],"scale":[0.76915437,0.8577611,0.7691543]},{"name":"Floor","mesh":3,"translation":[53.4947739,0.2112701,34.25312],"scale":[3.99387121,3.99387121,3.99387121]},{"name":"Floor","mesh":4,"translation":[53.4947739,0.220000029,44.89312],"scale":[3.99387121,3.99387121,3.99387121]},{"name":"Floor","mesh":5,"translation":[0.4897728,-0.269999951,1.33776855]},{"name":"Floor","mesh":6,"translation":[-7.880226,-0.27,-10.2322311],"rotation":[0,-0.568805,0,0.8224725]},{"name":"Floor","mesh":7,"translation":[-0.6602268,-0.269999951,-21.92223],"rotation":[0,-0.945280969,0,0.3262576]},{"name":"Floor","mesh":8,"translation":[13.4397726,-0.269999951,-3.76223],"rotation":[0,-0.60187,0,-0.7985941]},{"name":"Floor","mesh":9,"translation":[12.4821949,-0.269999951,-17.8733673],"rotation":[0,-0.9556791,0,-0.294410467]},{"name":"Floor","mesh":10,"translation":[10.039773,-0.269999951,-15.8622322],"rotation":[0,-0.9556791,0,-0.294410467]},{"name":"Floor","mesh":11,"translation":[0.139772415,-0.269999951,-18.40223],"rotation":[0,-0.9414706,0,0.3370952]},{"name":"Floor","mesh":12,"translation":[-4.760227,-0.269999951,-10.08223],"rotation":[0,-0.57073313,0,0.82113564]},{"name":"Floor","mesh":13,"translation":[1.6697731,-0.22,-2.10223],"rotation":[0,0.0103025772,0,0.999947]},{"name":"Floor","mesh":14,"translation":[10.84,-0.269999951,-6.31999969],"rotation":[0,0.6187086,0,0.7856206]},{"name":"Floor","mesh":15,"translation":[-1.1223774,-0.269999951,-10.1355591]},{"name":"Spectral/Void","mesh":16,"translation":[0.499773026,-0.01999998,-10.5722313],"rotation":[3.21783755E-09,-3.50978235E-18,-1.090727E-09,1],"scale":[1.0884,1.0884,1.40675449]},{"name":"Spectral/Void","mesh":17,"translation":[2.80977249,-0.01999998,-13.9722328],"rotation":[3.2512153E-09,-0.582245231,9.867953E-10,0.813013256],"scale":[1.0884,1.0884,1.22213185]},{"name":"Spectral/Void","mesh":18,"translation":[6.34977341,0.006000042,-8.522232],"rotation":[3.39681727E-09,-0.299752742,-7.60166444E-11,0.954017],"scale":[1.0884,1.0884,1.40179014]},{"name":"Spectral/Void","mesh":19,"translation":[2.83977318,-0.0130000114,-7.24222946],"rotation":[2.77981238E-09,-0.8072119,1.95366E-09,0.590261936],"scale":[1.0884,1.0884,1.197311]},{"name":"Spectral/Void","mesh":20,"translation":[6.17977333,0,-12.4722328],"rotation":[2.034836E-09,-0.950700939,2.72095657E-09,0.310109317],"scale":[1.0884,1.0884,1.29932165]},{"name":"Spectral/Void","mesh":21,"translation":[0.499773026,0.0179998875,-4.54223251],"rotation":[3.21783755E-09,-3.50978235E-18,-1.090727E-09,1],"scale":[1.0884,1.0884,1.93912661]},{"name":"Spectral/Void","mesh":22,"translation":[0.479772568,0.0179998875,-16.7222328],"rotation":[3.21783755E-09,-3.50978235E-18,-1.090727E-09,1],"scale":[1.0884,1.0884,1.93912661]},{"name":"Spectral/Void","mesh":23,"translation":[2.90577316,-0.01999998,-3.39423],"rotation":[3.39557271E-09,-0.287553966,-1.19357954E-10,0.957764447],"scale":[1.08839989,1.0884,1.93912649]},{"name":"Spectral/Void","mesh":24,"translation":[8.149773,-0.01999998,-5.33222961],"rotation":[2.728382E-09,-0.822201252,2.02487271E-09,0.569196939],"scale":[1.0884,1.0884,1.93912661]},{"name":"Spectral/Void","mesh":25,"translation":[-2.74022675,-0.01999998,-9.122231],"rotation":[2.728382E-09,-0.822201252,2.02487271E-09,0.569196939],"scale":[1.0884,1.0884,1.93912661]},{"name":"Spectral/Void","mesh":26,"translation":[2.709773,-0.01999998,-17.8222313],"rotation":[1.95078864E-09,-0.959728539,2.781837E-09,0.280929238],"scale":[1.0884,1.0884,1.93912649]},{"name":"Spectral/Void","mesh":27,"translation":[9.900773,-0.01999998,-7.293232],"rotation":[1.95078864E-09,-0.959728539,2.781837E-09,0.280929238],"scale":[1.0884,1.0884,1.97984827]},{"name":"Spectral/Void","mesh":28,"translation":[8.389772,-0.01999998,-15.7922325],"rotation":[3.242817E-09,-0.589050949,1.01406028E-09,0.808095932],"scale":[1.08839989,1.0884,1.93912649]},{"name":"Spectral/Void","mesh":29,"translation":[-2.790226,-0.01999998,-12.1122322],"rotation":[3.242817E-09,-0.589050949,1.01406028E-09,0.808095932],"scale":[1.08839989,1.0884,1.93912649]},{"name":"Spectral/Void","mesh":30,"translation":[9.829773,-0.01999998,-13.58223],"rotation":[3.39557271E-09,-0.287553966,-1.19357954E-10,0.957764447],"scale":[1.08839989,1.0884,1.93912649]},{"name":"Spectral/Void","mesh":31,"translation":[-3.39022827,0.01999998,-5.12223053],"rotation":[2.75575052E-09,0.29361704,-1.98746331E-09,0.9559232],"scale":[1.08840013,1.0884,2.8417902]},{"name":"Spectral/Void","mesh":32,"translation":[6.329773,0.01999998,-1.7522316],"rotation":[9.340646E-10,0.8223275,-3.26675687E-09,0.5690146],"scale":[1.08840013,1.0884,2.84179]},{"name":"Spectral/Void","mesh":33,"translation":[12.1797733,0.01999998,-10.4122314],"scale":[1.0884,1.0884,2.84179]},{"name":"Spectral/Void","mesh":34,"translation":[6.51977253,0.01999998,-18.9322319],"rotation":[0,0.577584147,0,0.816331148],"scale":[1.0884,1.0884,2.84179]},{"name":"Spectral/Void","mesh":35,"translation":[-3.210228,0.01999998,-15.76223],"rotation":[0,0.947815657,0,0.318818957],"scale":[1.0884,1.0884,2.84179]},{"name":"PlatformStar (2)","children":[0,1,2,3,4,5,6,7,8,9,10,11,12,13,14,15,16,17,18,19,20,21,22,23,24,25,26,27,28,29,30,31,32,33,34,35,36,37,38,39,40,41,42,43,44,45,46,47,48,49,50,51,52,53,54],"translation":[-4.159773,3.22,-43.10777]}],"buffers":[{"uri":"PlatformStar (2).bin","byteLength":146368}],"bufferViews":[{"buffer":0,"byteLength":216,"target":34963},{"buffer":0,"byteLength":192,"byteOffset":216,"target":34963},{"buffer":0,"byteLength":48,"byteOffset":408,"target":34963},{"buffer":0,"byteLength":48,"byteOffset":456,"target":34963},{"buffer":0,"byteLength":48,"byteOffset":504,"target":34963},{"buffer":0,"byteLength":48,"byteOffset":552,"target":34963},{"buffer":0,"byteLength":48,"byteOffset":600,"target":34963},{"buffer":0,"byteLength":48,"byteOffset":648,"target":34963},{"buffer":0,"byteLength":48,"byteOffset":696,"target":34963},{"buffer":0,"byteLength":48,"byteOffset":744,"target":34963},{"buffer":0,"byteLength":48,"byteOffset":792,"target":34963},{"buffer":0,"byteLength":48,"byteOffset":840,"target":34963},{"buffer":0,"byteLength":408,"byteOffset":888,"target":34963},{"buffer":0,"byteLength":72,"byteOffset":1296,"target":34963},{"buffer":0,"byteLength":72,"byteOffset":1368,"target":34963},{"buffer":0,"byteLength":72,"byteOffset":1440,"target":34963},{"buffer":0,"byteLength":72,"byteOffset":1512,"target":34963},{"buffer":0,"byteLength":72,"byteOffset":1584,"target":34963},{"buffer":0,"byteLength":72,"byteOffset":1656,"target":34963},{"buffer":0,"byteLength":72,"byteOffset":1728,"target":34963},{"buffer":0,"byteLength":72,"byteOffset":1800,"target":34963},{"buffer":0,"byteLength":72,"byteOffset":1872,"target":34963},{"buffer":0,"byteLength":72,"byteOffset":1944,"target":34963},{"buffer":0,"byteLength":72,"byteOffset":2016,"target":34963},{"buffer":0,"byteLength":72,"byteOffset":2088,"target":34963},{"buffer":0,"byteLength":72,"byteOffset":2160,"target":34963},{"buffer":0,"byteLength":72,"byteOffset":2232,"target":34963},{"buffer":0,"byteLength":72,"byteOffset":2304,"target":34963},{"buffer":0,"byteLength":72,"byteOffset":2376,"target":34963},{"buffer":0,"byteLength":72,"byteOffset":2448,"target":34963},{"buffer":0,"byteLength":72,"byteOffset":2520,"target":34963},{"buffer":0,"byteLength":72,"byteOffset":2592,"target":34963},{"buffer":0,"byteLength":72,"byteOffset":2664,"target":34963},{"buffer":0,"byteLength":1152,"byteOffset":2736,"byteStride":48,"target":34962},{"buffer":0,"byteLength":2592,"byteOffset":3888,"byteStride":48,"target":34962},{"buffer":0,"byteLength":864,"byteOffset":6480,"byteStride":48,"target":34962},{"buffer":0,"byteLength":864,"byteOffset":7344,"byteStride":48,"target":34962},{"buffer":0,"byteLength":864,"byteOffset":8208,"byteStride":48,"target":34962},{"buffer":0,"byteLength":864,"byteOffset":9072,"byteStride":48,"target":34962},{"buffer":0,"byteLength":864,"byteOffset":9936,"byteStride":48,"target":34962},{"buffer":0,"byteLength":864,"byteOffset":10800,"byteStride":48,"target":34962},{"buffer":0,"byteLength":5184,"byteOffset":11664,"byteStride":48,"target":34962},{"buffer":0,"byteLength":1152,"byteOffset":16848,"byteStride":48,"target":34962},{"buffer":0,"byteLength":1152,"byteOffset":18000,"byteStride":48,"target":34962},{"buffer":0,"byteLength":1152,"byteOffset":19152,"byteStride":48,"target":34962},{"buffer":0,"byteLength":1152,"byteOffset":20304,"byteStride":48,"target":34962},{"buffer":0,"byteLength":1152,"byteOffset":21456,"byteStride":48,"target":34962},{"buffer":0,"byteLength":1152,"byteOffset":22608,"byteStride":48,"target":34962},{"buffer":0,"byteLength":1152,"byteOffset":23760,"byteStride":48,"target":34962},{"buffer":0,"byteLength":1152,"byteOffset":24912,"byteStride":48,"target":34962},{"buffer":0,"byteLength":1152,"byteOffset":26064,"byteStride":48,"target":34962},{"buffer":0,"byteLength":1152,"byteOffset":27216,"byteStride":48,"target":34962},{"buffer":0,"byteLength":1896,"byteOffset":28368,"target":34963},{"buffer":0,"byteLength":672,"byteOffset":30264,"target":34963},{"buffer":0,"byteLength":10080,"byteOffset":30936,"target":34963},{"buffer":0,"byteLength":2880,"byteOffset":41016,"byteStride":48,"target":34962},{"buffer":0,"byteLength":864,"byteOffset":43896,"byteStride":48,"target":34962},{"buffer":0,"byteLength":864,"byteOffset":44760,"byteStride":48,"target":34962},{"buffer":0,"byteLength":864,"byteOffset":45624,"byteStride":48,"target":34962},{"buffer":0,"byteLength":864,"byteOffset":46488,"byteStride":48,"target":34962},{"buffer":0,"byteLength":1152,"byteOffset":47352,"byteStride":48,"target":34962},{"buffer":0,"byteLength":1152,"byteOffset":48504,"byteStride":48,"target":34962},{"buffer":0,"byteLength":1152,"byteOffset":49656,"byteStride":48,"target":34962},{"buffer":0,"byteLength":1152,"byteOffset":50808,"byteStride":48,"target":34962},{"buffer":0,"byteLength":1152,"byteOffset":51960,"byteStride":48,"target":34962},{"buffer":0,"byteLength":1152,"byteOffset":53112,"byteStride":48,"target":34962},{"buffer":0,"byteLength":1152,"byteOffset":54264,"byteStride":48,"target":34962},{"buffer":0,"byteLength":1152,"byteOffset":55416,"byteStride":48,"target":34962},{"buffer":0,"byteLength":1152,"byteOffset":56568,"byteStride":48,"target":34962},{"buffer":0,"byteLength":5488,"byteOffset":57720,"byteStride":56,"target":34962},{"buffer":0,"byteLength":16520,"byteOffset":63208,"byteStride":56,"target":34962},{"buffer":0,"byteLength":66640,"byteOffset":79728,"byteStride":56,"target":34962}],"accessors":[{"bufferView":70,"componentType":5126,"count":295,"type":"VEC3","max":[0.9886558,0.230952263,0.9972601],"min":[-1.01134419,-2.01165676E-06,-1.00325966]},{"bufferView":70,"componentType":5126,"count":295,"type":"VEC3","byteOffset":12},{"bufferView":70,"componentType":5126,"count":295,"type":"VEC4","byteOffset":24},{"bufferView":70,"componentType":5126,"count":295,"type":"VEC2","byteOffset":40},{"bufferView":70,"componentType":5126,"count":295,"type":"VEC2","byteOffset":48},{"bufferView":52,"componentType":5123,"count":288,"type":"SCALAR"},{"bufferView":52,"componentType":5123,"count":660,"type":"SCALAR","byteOffset":576},{"bufferView":69,"componentType":5126,"count":98,"type":"VEC3","max":[1,0.22079742,1],"min":[-1,-0.0006917864,-1]},{"bufferView":69,"componentType":5126,"count":98,"type":"VEC3","byteOffset":12},{"bufferView":69,"componentType":5126,"count":98,"type":"VEC4","byteOffset":24},{"bufferView":69,"componentType":5126,"count":98,"type":"VEC2","byteOffset":40},{"bufferView":69,"componentType":5126,"count":98,"type":"VEC2","byteOffset":48},{"bufferView":53,"componentType":5123,"count":336,"type":"SCALAR"},{"bufferView":71,"componentType":5126,"count":1190,"type":"VEC3","max":[0.134970874,2.6532042,0.131120533],"min":[-0.131495863,-0.00541687,-0.134849787]},{"bufferView":71,"componentType":5126,"count":1190,"type":"VEC3","byteOffset":12},{"bufferView":71,"componentType":5126,"count":1190,"type":"VEC4","byteOffset":24},{"bufferView":71,"componentType":5126,"count":1190,"type":"VEC2","byteOffset":40},{"bufferView":71,"componentType":5126,"count":1190,"type":"VEC2","byteOffset":48},{"bufferView":54,"componentType":5123,"count":5040,"type":"SCALAR"},{"bufferView":55,"componentType":5126,"count":60,"type":"VEC3","max":[-9.383982,1.1920929E-07,-11.1958666],"min":[-16.4085865,-0.186012268,-14.8722639]},{"bufferView":55,"componentType":5126,"count":60,"type":"VEC3","byteOffset":12},{"bufferView":55,"componentType":5126,"count":60,"type":"VEC4","byteOffset":24},{"bufferView":55,"componentType":5126,"count":60,"type":"VEC2","byteOffset":40},{"bufferView":0,"componentType":5123,"count":108,"type":"SCALAR"},{"bufferView":34,"componentType":5126,"count":54,"type":"VEC3","max":[-9.383455,1.1920929E-07,-10.1624727],"min":[-16.40063,-0.186012268,-13.9239225]},{"bufferView":34,"componentType":5126,"count":54,"type":"VEC3","byteOffset":12},{"bufferView":34,"componentType":5126,"count":54,"type":"VEC4","byteOffset":24},{"bufferView":34,"componentType":5126,"count":54,"type":"VEC2","byteOffset":40},{"bufferView":1,"componentType":5123,"count":96,"type":"SCALAR"},{"bufferView":56,"componentType":5126,"count":18,"type":"VEC3","max":[-0.225790024,0.49999997,-1.56736755],"min":[-6.94018555,-2.98023224E-08,-11.5251541]},{"bufferView":56,"componentType":5126,"count":18,"type":"VEC3","byteOffset":12},{"bufferView":56,"componentType":5126,"count":18,"type":"VEC4","byteOffset":24},{"bufferView":56,"componentType":5126,"count":18,"type":"VEC2","byteOffset":40},{"bufferView":2,"componentType":5123,"count":24,"type":"SCALAR"},{"bufferView":35,"componentType":5126,"count":18,"type":"VEC3","max":[0.100872993,0.5,-1.26557636],"min":[-6.379363,0,-11.2570076]},{"bufferView":35,"componentType":5126,"count":18,"type":"VEC3","byteOffset":12},{"bufferView":35,"componentType":5126,"count":18,"type":"VEC4","byteOffset":24},{"bufferView":35,"componentType":5126,"count":18,"type":"VEC2","byteOffset":40},{"bufferView":3,"componentType":5123,"count":24,"type":"SCALAR"},{"bufferView":36,"componentType":5126,"count":18,"type":"VEC3","max":[-0.00309944153,0.5,-2.37127972],"min":[-6.398819,-1.49011612E-08,-11.3679342]},{"bufferView":36,"componentType":5126,"count":18,"type":"VEC3","byteOffset":12},{"bufferView":36,"componentType":5126,"count":18,"type":"VEC4","byteOffset":24},{"bufferView":36,"componentType":5126,"count":18,"type":"VEC2","byteOffset":40},{"bufferView":4,"componentType":5123,"count":24,"type":"SCALAR"},{"bufferView":37,"componentType":5126,"count":18,"type":"VEC3","max":[0.064043045,0.5,-1.96212769],"min":[-7.24356461,-1.49011612E-08,-11.1310654]},{"bufferView":37,"componentType":5126,"count":18,"type":"VEC3","byteOffset":12},{"bufferView":37,"componentType":5126,"count":18,"type":"VEC4","byteOffset":24},{"bufferView":37,"componentType":5126,"count":18,"type":"VEC2","byteOffset":40},{"bufferView":5,"componentType":5123,"count":24,"type":"SCALAR"},{"bufferView":57,"componentType":5126,"count":18,"type":"VEC3","max":[-0.4014454,0.5,-1.51047039],"min":[-6.97663927,-1.49011612E-08,-11.2212391]},{"bufferView":57,"componentType":5126,"count":18,"type":"VEC3","byteOffset":12},{"bufferView":57,"componentType":5126,"count":18,"type":"VEC4","byteOffset":24},{"bufferView":57,"componentType":5126,"count":18,"type":"VEC2","byteOffset":40},{"bufferView":6,"componentType":5123,"count":24,"type":"SCALAR"},{"bufferView":38,"componentType":5126,"count":18,"type":"VEC3","max":[-1.18780136,0.5,-6.022376],"min":[-7.692281,-1.49011612E-08,-10.335206]},{"bufferView":38,"componentType":5126,"count":18,"type":"VEC3","byteOffset":12},{"bufferView":38,"componentType":5126,"count":18,"type":"VEC4","byteOffset":24},{"bufferView":38,"componentType":5126,"count":18,"type":"VEC2","byteOffset":40},{"bufferView":7,"componentType":5123,"count":24,"type":"SCALAR"},{"bufferView":58,"componentType":5126,"count":18,"type":"VEC3","max":[-1.04719186,0.5,-6.15385056],"min":[-7.98521233,0,-10.7599621]},{"bufferView":58,"componentType":5126,"count":18,"type":"VEC3","byteOffset":12},{"bufferView":58,"componentType":5126,"count":18,"type":"VEC4","byteOffset":24},{"bufferView":58,"componentType":5126,"count":18,"type":"VEC2","byteOffset":40},{"bufferView":8,"componentType":5123,"count":24,"type":"SCALAR"},{"bufferView":39,"componentType":5126,"count":18,"type":"VEC3","max":[-1.18246484,0.5,-6.410621],"min":[-7.810993,-1.49011612E-08,-10.18166]},{"bufferView":39,"componentType":5126,"count":18,"type":"VEC3","byteOffset":12},{"bufferView":39,"componentType":5126,"count":18,"type":"VEC4","byteOffset":24},{"bufferView":39,"componentType":5126,"count":18,"type":"VEC2","byteOffset":40},{"bufferView":9,"componentType":5123,"count":24,"type":"SCALAR"},{"bufferView":40,"componentType":5126,"count":18,"type":"VEC3","max":[-1.18944,0.5,-6.109852],"min":[-7.786278,-1.49011612E-08,-10.73049]},{"bufferView":40,"componentType":5126,"count":18,"type":"VEC3","byteOffset":12},{"bufferView":40,"componentType":5126,"count":18,"type":"VEC4","byteOffset":24},{"bufferView":40,"componentType":5126,"count":18,"type":"VEC2","byteOffset":40},{"bufferView":10,"componentType":5123,"count":24,"type":"SCALAR"},{"bufferView":59,"componentType":5126,"count":18,"type":"VEC3","max":[-1.0952673,0.5,-5.990386],"min":[-8.557191,-1.49011612E-08,-10.0069838]},{"bufferView":59,"componentType":5126,"count":18,"type":"VEC3","byteOffset":12},{"bufferView":59,"componentType":5126,"count":18,"type":"VEC4","byteOffset":24},{"bufferView":59,"componentType":5126,"count":18,"type":"VEC2","byteOffset":40},{"bufferView":11,"componentType":5123,"count":24,"type":"SCALAR"},{"bufferView":41,"componentType":5126,"count":108,"type":"VEC3","max":[8.43488,0.5,3.27405167],"min":[1.81228828,-1.49011612E-08,-4.188671]},{"bufferView":41,"componentType":5126,"count":108,"type":"VEC3","byteOffset":12},{"bufferView":41,"componentType":5126,"count":108,"type":"VEC4","byteOffset":24},{"bufferView":41,"componentType":5126,"count":108,"type":"VEC2","byteOffset":40},{"bufferView":12,"componentType":5123,"count":204,"type":"SCALAR"},{"bufferView":42,"componentType":5126,"count":24,"type":"VEC3","max":[0.269388437,0.157439947,1.8526783],"min":[-0.269388437,-0.157439947,-1.8526783]},{"bufferView":42,"componentType":5126,"count":24,"type":"VEC3","byteOffset":12},{"bufferView":42,"componentType":5126,"count":24,"type":"VEC4","byteOffset":24},{"bufferView":42,"componentType":5126,"count":24,"type":"VEC2","byteOffset":40},{"bufferView":13,"componentType":5123,"count":36,"type":"SCALAR"},{"bufferView":60,"componentType":5126,"count":24,"type":"VEC3","max":[0.269388437,0.157439947,1.8526783],"min":[-0.269388437,-0.157439947,-1.8526783]},{"bufferView":60,"componentType":5126,"count":24,"type":"VEC3","byteOffset":12},{"bufferView":60,"componentType":5126,"count":24,"type":"VEC4","byteOffset":24},{"bufferView":60,"componentType":5126,"count":24,"type":"VEC2","byteOffset":40},{"bufferView":14,"componentType":5123,"count":36,"type":"SCALAR"},{"bufferView":33,"componentType":5126,"count":24,"type":"VEC3","max":[0.269388437,0.157439947,1.8526783],"min":[-0.269388437,-0.157439947,-1.8526783]},{"bufferView":33,"componentType":5126,"count":24,"type":"VEC3","byteOffset":12},{"bufferView":33,"componentType":5126,"count":24,"type":"VEC4","byteOffset":24},{"bufferView":33,"componentType":5126,"count":24,"type":"VEC2","byteOffset":40},{"bufferView":15,"componentType":5123,"count":36,"type":"SCALAR"},{"bufferView":43,"componentType":5126,"count":24,"type":"VEC3","max":[0.269388437,0.157439947,1.8526783],"min":[-0.269388437,-0.157439947,-1.8526783]},{"bufferView":43,"componentType":5126,"count":24,"type":"VEC3","byteOffset":12},{"bufferView":43,"componentType":5126,"count":24,"type":"VEC4","byteOffset":24},{"bufferView":43,"componentType":5126,"count":24,"type":"VEC2","byteOffset":40},{"bufferView":16,"componentType":5123,"count":36,"type":"SCALAR"},{"bufferView":44,"componentType":5126,"count":24,"type":"VEC3","max":[0.269388437,0.157439947,1.8526783],"min":[-0.269388437,-0.157439947,-1.8526783]},{"bufferView":44,"componentType":5126,"count":24,"type":"VEC3","byteOffset":12},{"bufferView":44,"componentType":5126,"count":24,"type":"VEC4","byteOffset":24},{"bufferView":44,"componentType":5126,"count":24,"type":"VEC2","byteOffset":40},{"bufferView":17,"componentType":5123,"count":36,"type":"SCALAR"},{"bufferView":61,"componentType":5126,"count":24,"type":"VEC3","max":[0.269388437,0.157439947,1.8526783],"min":[-0.269388437,-0.157439947,-1.8526783]},{"bufferView":61,"componentType":5126,"count":24,"type":"VEC3","byteOffset":12},{"bufferView":61,"componentType":5126,"count":24,"type":"VEC4","byteOffset":24},{"bufferView":61,"componentType":5126,"count":24,"type":"VEC2","byteOffset":40},{"bufferView":18,"componentType":5123,"count":36,"type":"SCALAR"},{"bufferView":45,"componentType":5126,"count":24,"type":"VEC3","max":[0.269388437,0.157439947,1.8526783],"min":[-0.269388437,-0.157439947,-1.8526783]},{"bufferView":45,"componentType":5126,"count":24,"type":"VEC3","byteOffset":12},{"bufferView":45,"componentType":5126,"count":24,"type":"VEC4","byteOffset":24},{"bufferView":45,"componentType":5126,"count":24,"type":"VEC2","byteOffset":40},{"bufferView":19,"componentType":5123,"count":36,"type":"SCALAR"},{"bufferView":62,"componentType":5126,"count":24,"type":"VEC3","max":[0.269388437,0.157439947,1.8526783],"min":[-0.269388437,-0.157439947,-1.8526783]},{"bufferView":62,"componentType":5126,"count":24,"type":"VEC3","byteOffset":12},{"bufferView":62,"componentType":5126,"count":24,"type":"VEC4","byteOffset":24},{"bufferView":62,"componentType":5126,"count":24,"type":"VEC2","byteOffset":40},{"bufferView":20,"componentType":5123,"count":36,"type":"SCALAR"},{"bufferView":63,"componentType":5126,"count":24,"type":"VEC3","max":[0.269388437,0.157439947,1.8526783],"min":[-0.269388437,-0.157439947,-1.8526783]},{"bufferView":63,"componentType":5126,"count":24,"type":"VEC3","byteOffset":12},{"bufferView":63,"componentType":5126,"count":24,"type":"VEC4","byteOffset":24},{"bufferView":63,"componentType":5126,"count":24,"type":"VEC2","byteOffset":40},{"bufferView":21,"componentType":5123,"count":36,"type":"SCALAR"},{"bufferView":46,"componentType":5126,"count":24,"type":"VEC3","max":[0.269388437,0.157439947,1.8526783],"min":[-0.269388437,-0.157439947,-1.8526783]},{"bufferView":46,"componentType":5126,"count":24,"type":"VEC3","byteOffset":12},{"bufferView":46,"componentType":5126,"count":24,"type":"VEC4","byteOffset":24},{"bufferView":46,"componentType":5126,"count":24,"type":"VEC2","byteOffset":40},{"bufferView":22,"componentType":5123,"count":36,"type":"SCALAR"},{"bufferView":64,"componentType":5126,"count":24,"type":"VEC3","max":[0.269388437,0.157439947,1.8526783],"min":[-0.269388437,-0.157439947,-1.8526783]},{"bufferView":64,"componentType":5126,"count":24,"type":"VEC3","byteOffset":12},{"bufferView":64,"componentType":5126,"count":24,"type":"VEC4","byteOffset":24},{"bufferView":64,"componentType":5126,"count":24,"type":"VEC2","byteOffset":40},{"bufferView":23,"componentType":5123,"count":36,"type":"SCALAR"},{"bufferView":47,"componentType":5126,"count":24,"type":"VEC3","max":[0.269388437,0.157439947,1.8526783],"min":[-0.269388437,-0.157439947,-1.8526783]},{"bufferView":47,"componentType":5126,"count":24,"type":"VEC3","byteOffset":12},{"bufferView":47,"componentType":5126,"count":24,"type":"VEC4","byteOffset":24},{"bufferView":47,"componentType":5126,"count":24,"type":"VEC2","byteOffset":40},{"bufferView":24,"componentType":5123,"count":36,"type":"SCALAR"},{"bufferView":65,"componentType":5126,"count":24,"type":"VEC3","max":[0.269388437,0.157439947,1.8526783],"min":[-0.269388437,-0.157439947,-1.8526783]},{"bufferView":65,"componentType":5126,"count":24,"type":"VEC3","byteOffset":12},{"bufferView":65,"componentType":5126,"count":24,"type":"VEC4","byteOffset":24},{"bufferView":65,"componentType":5126,"count":24,"type":"VEC2","byteOffset":40},{"bufferView":25,"componentType":5123,"count":36,"type":"SCALAR"},{"bufferView":48,"componentType":5126,"count":24,"type":"VEC3","max":[0.269388437,0.157439947,1.8526783],"min":[-0.269388437,-0.157439947,-1.8526783]},{"bufferView":48,"componentType":5126,"count":24,"type":"VEC3","byteOffset":12},{"bufferView":48,"componentType":5126,"count":24,"type":"VEC4","byteOffset":24},{"bufferView":48,"componentType":5126,"count":24,"type":"VEC2","byteOffset":40},{"bufferView":26,"componentType":5123,"count":36,"type":"SCALAR"},{"bufferView":49,"componentType":5126,"count":24,"type":"VEC3","max":[0.269388437,0.157439947,1.8526783],"min":[-0.269388437,-0.157439947,-1.8526783]},{"bufferView":49,"componentType":5126,"count":24,"type":"VEC3","byteOffset":12},{"bufferView":49,"componentType":5126,"count":24,"type":"VEC4","byteOffset":24},{"bufferView":49,"componentType":5126,"count":24,"type":"VEC2","byteOffset":40},{"bufferView":27,"componentType":5123,"count":36,"type":"SCALAR"},{"bufferView":66,"componentType":5126,"count":24,"type":"VEC3","max":[0.269388437,0.157439947,1.8526783],"min":[-0.269388437,-0.157439947,-1.8526783]},{"bufferView":66,"componentType":5126,"count":24,"type":"VEC3","byteOffset":12},{"bufferView":66,"componentType":5126,"count":24,"type":"VEC4","byteOffset":24},{"bufferView":66,"componentType":5126,"count":24,"type":"VEC2","byteOffset":40},{"bufferView":28,"componentType":5123,"count":36,"type":"SCALAR"},{"bufferView":50,"componentType":5126,"count":24,"type":"VEC3","max":[0.269388437,0.157439947,1.8526783],"min":[-0.269388437,-0.157439947,-1.8526783]},{"bufferView":50,"componentType":5126,"count":24,"type":"VEC3","byteOffset":12},{"bufferView":50,"componentType":5126,"count":24,"type":"VEC4","byteOffset":24},{"bufferView":50,"componentType":5126,"count":24,"type":"VEC2","byteOffset":40},{"bufferView":29,"componentType":5123,"count":36,"type":"SCALAR"},{"bufferView":51,"componentType":5126,"count":24,"type":"VEC3","max":[0.269388437,0.157439947,1.8526783],"min":[-0.269388437,-0.157439947,-1.8526783]},{"bufferView":51,"componentType":5126,"count":24,"type":"VEC3","byteOffset":12},{"bufferView":51,"componentType":5126,"count":24,"type":"VEC4","byteOffset":24},{"bufferView":51,"componentType":5126,"count":24,"type":"VEC2","byteOffset":40},{"bufferView":30,"componentType":5123,"count":36,"type":"SCALAR"},{"bufferView":67,"componentType":5126,"count":24,"type":"VEC3","max":[0.269388437,0.157439947,1.8526783],"min":[-0.269388437,-0.157439947,-1.8526783]},{"bufferView":67,"componentType":5126,"count":24,"type":"VEC3","byteOffset":12},{"bufferView":67,"componentType":5126,"count":24,"type":"VEC4","byteOffset":24},{"bufferView":67,"componentType":5126,"count":24,"type":"VEC2","byteOffset":40},{"bufferView":31,"componentType":5123,"count":36,"type":"SCALAR"},{"bufferView":68,"componentType":5126,"count":24,"type":"VEC3","max":[0.269388437,0.157439947,1.8526783],"min":[-0.269388437,-0.157439947,-1.8526783]},{"bufferView":68,"componentType":5126,"count":24,"type":"VEC3","byteOffset":12},{"bufferView":68,"componentType":5126,"count":24,"type":"VEC4","byteOffset":24},{"bufferView":68,"componentType":5126,"count":24,"type":"VEC2","byteOffset":40},{"bufferView":32,"componentType":5123,"count":36,"type":"SCALAR"}],"images":[{"name":"T_PROP_stone_deco_dungeon_N.png","uri":"T_PROP_stone_deco_dungeon_N.png","mimeType":"image/png"},{"name":"T_PROP_stone_deco_dungeon_BC.jpg","uri":"T_PROP_stone_deco_dungeon_BC.jpg","mimeType":"image/jpeg"},{"name":"T_PROP_stone_deco_dungeon_MTSM.jpg","uri":"T_PROP_stone_deco_dungeon_MTSM.jpg","mimeType":"image/jpeg"},{"name":"T_metal_dungeon_N.png","uri":"T_metal_dungeon_N.png","mimeType":"image/png"},{"name":"T_metal_dungeon_01_BC.jpg","uri":"T_metal_dungeon_01_BC.jpg","mimeType":"image/jpeg"},{"name":"T_metal_dungeon_MTSM_nometal.jpg","uri":"T_metal_dungeon_MTSM_nometal.jpg","mimeType":"image/jpeg"},{"name":"T_ENV_MOD_Floor_01_v3_N.png","uri":"T_ENV_MOD_Floor_01_v3_N.png","mimeType":"image/png"},{"name":"T_ENV_MOD_Floor_01_v2_BC.jpg","uri":"T_ENV_MOD_Floor_01_v2_BC.jpg","mimeType":"image/jpeg"},{"name":"T_ENV_MOD_Floor_01_v3_MTSM.jpg","uri":"T_ENV_MOD_Floor_01_v3_MTSM.jpg","mimeType":"image/jpeg"},{"name":"download.png","uri":"download.png","mimeType":"image/png"}],"materials":[{"name":"M_PROP_stone_deco_dungeon","pbrMetallicRoughness":{"roughnessFactor":0,"baseColorTexture":{"index":1},"metallicRoughnessTexture":{"index":2}},"normalTexture":{"index":0}},{"name":"M_metal_dungeon_01","pbrMetallicRoughness":{"roughnessFactor":0,"baseColorTexture":{"index":4},"metallicRoughnessTexture":{"index":5}},"normalTexture":{"index":3}},{"name":"M_MOD_Floor_01_v3 1","pbrMetallicRoughness":{"roughnessFactor":0,"baseColorTexture":{"index":7},"metallicRoughnessTexture":{"index":8}},"normalTexture":{"index":6}},{"name":"EspectralPath 1","pbrMetallicRoughness":{"baseColorFactor":[1,0.285472244,1,1],"metallicFactor":0.631,"roughnessFactor":0.581},"normalTexture":{"index":9}}],"meshes":[{"name":"SM_PROP_platform_grid_dungeon","primitives":[{"attributes":{"POSITION":0,"NORMAL":1,"TANGENT":2,"TEXCOORD_0":3,"TEXCOORD_1":4},"indices":5,"material":0},{"attributes":{"POSITION":0,"NORMAL":1,"TANGENT":2,"TEXCOORD_0":3,"TEXCOORD_1":4},"indices":6,"material":1}]},{"name":"SM_PROP_platform_dungeon","primitives":[{"attributes":{"POSITION":7,"NORMAL":8,"TANGENT":9,"TEXCOORD_0":10,"TEXCOORD_1":11},"indices":12,"material":0}]},{"name":"SM_PROP_chain_dungeon_01","primitives":[{"attributes":{"POSITION":13,"NORMAL":14,"TANGENT":15,"TEXCOORD_0":16,"TEXCOORD_1":17},"indices":18,"material":1}]},{"name":"pb_Mesh81324(Clone)","primitives":[{"attributes":{"POSITION":19,"NORMAL":20,"TANGENT":21,"TEXCOORD_0":22},"indices":23,"material":2}]},{"name":"pb_Mesh-522254(Clone)(Clone)(Clone)(Clone)","primitives":[{"attributes":{"POSITION":24,"NORMAL":25,"TANGENT":26,"TEXCOORD_0":27},"indices":28,"material":2}]},{"name":"pb_Mesh-41140","primitives":[{"attributes":{"POSITION":29,"NORMAL":30,"TANGENT":31,"TEXCOORD_0":32},"indices":33,"material":2}]},{"name":"pb_Mesh-41140(Clone)","primitives":[{"attributes":{"POSITION":34,"NORMAL":35,"TANGENT":36,"TEXCOORD_0":37},"indices":38,"material":2}]},{"name":"pb_Mesh-41140(Clone)(Clone)","primitives":[{"attributes":{"POSITION":39,"NORMAL":40,"TANGENT":41,"TEXCOORD_0":42},"indices":43,"material":2}]},{"name":"pb_Mesh-41140(Clone)(Clone)(Clone)","primitives":[{"attributes":{"POSITION":44,"NORMAL":45,"TANGENT":46,"TEXCOORD_0":47},"indices":48,"material":2}]},{"name":"pb_Mesh-41140(Clone)(Clone)(Clone)(Clone)","primitives":[{"attributes":{"POSITION":49,"NORMAL":50,"TANGENT":51,"TEXCOORD_0":52},"indices":53,"material":2}]},{"name":"pb_Mesh-41140(Clone)(Clone)(Clone)(Clone)(Clone)","primitives":[{"attributes":{"POSITION":54,"NORMAL":55,"TANGENT":56,"TEXCOORD_0":57},"indices":58,"material":2}]},{"name":"pb_Mesh-41140(Clone)(Clone)(Clone)(Clone)(Clone)(Clone)","primitives":[{"attributes":{"POSITION":59,"NORMAL":60,"TANGENT":61,"TEXCOORD_0":62},"indices":63,"material":2}]},{"name":"pb_Mesh-41140(Clone)(Clone)(Clone)(Clone)(Clone)(Clone)(Clone)","primitives":[{"attributes":{"POSITION":64,"NORMAL":65,"TANGENT":66,"TEXCOORD_0":67},"indices":68,"material":2}]},{"name":"pb_Mesh-41140(Clone)(Clone)(Clone)(Clone)(Clone)(Clone)(Clone)(Clone)","primitives":[{"attributes":{"POSITION":69,"NORMAL":70,"TANGENT":71,"TEXCOORD_0":72},"indices":73,"material":2}]},{"name":"pb_Mesh-41140(Clone)(Clone)(Clone)(Clone)(Clone)(Clone)(Clone)(Clone)(Clone)","primitives":[{"attributes":{"POSITION":74,"NORMAL":75,"TANGENT":76,"TEXCOORD_0":77},"indices":78,"material":2}]},{"name":"pb_Mesh-47690","primitives":[{"attributes":{"POSITION":79,"NORMAL":80,"TANGENT":81,"TEXCOORD_0":82},"indices":83,"material":2}]},{"name":"pb_Mesh-10808","primitives":[{"attributes":{"POSITION":84,"NORMAL":85,"TANGENT":86,"TEXCOORD_0":87},"indices":88,"material":3}]},{"name":"pb_Mesh-10808(Clone)","primitives":[{"attributes":{"POSITION":89,"NORMAL":90,"TANGENT":91,"TEXCOORD_0":92},"indices":93,"material":3}]},{"name":"pb_Mesh-10808(Clone)(Clone)","primitives":[{"attributes":{"POSITION":94,"NORMAL":95,"TANGENT":96,"TEXCOORD_0":97},"indices":98,"material":3}]},{"name":"pb_Mesh-10808(Clone)(Clone)(Clone)","primitives":[{"attributes":{"POSITION":99,"NORMAL":100,"TANGENT":101,"TEXCOORD_0":102},"indices":103,"material":3}]},{"name":"pb_Mesh-10808(Clone)(Clone)(Clone)(Clone)","primitives":[{"attributes":{"POSITION":104,"NORMAL":105,"TANGENT":106,"TEXCOORD_0":107},"indices":108,"material":3}]},{"name":"pb_Mesh-10808(Clone)","primitives":[{"attributes":{"POSITION":109,"NORMAL":110,"TANGENT":111,"TEXCOORD_0":112},"indices":113,"material":3}]},{"name":"pb_Mesh-10808(Clone)(Clone)","primitives":[{"attributes":{"POSITION":114,"NORMAL":115,"TANGENT":116,"TEXCOORD_0":117},"indices":118,"material":3}]},{"name":"pb_Mesh-10808(Clone)(Clone)","primitives":[{"attributes":{"POSITION":119,"NORMAL":120,"TANGENT":121,"TEXCOORD_0":122},"indices":123,"material":3}]},{"name":"pb_Mesh-10808(Clone)(Clone)(Clone)","primitives":[{"attributes":{"POSITION":124,"NORMAL":125,"TANGENT":126,"TEXCOORD_0":127},"indices":128,"material":3}]},{"name":"pb_Mesh-10808(Clone)(Clone)(Clone)(Clone)","primitives":[{"attributes":{"POSITION":129,"NORMAL":130,"TANGENT":131,"TEXCOORD_0":132},"indices":133,"material":3}]},{"name":"pb_Mesh-10808(Clone)(Clone)(Clone)(Clone)(Clone)","primitives":[{"attributes":{"POSITION":134,"NORMAL":135,"TANGENT":136,"TEXCOORD_0":137},"indices":138,"material":3}]},{"name":"pb_Mesh-10808(Clone)(Clone)(Clone)(Clone)(Clone)(Clone)","primitives":[{"attributes":{"POSITION":139,"NORMAL":140,"TANGENT":141,"TEXCOORD_0":142},"indices":143,"material":3}]},{"name":"pb_Mesh-10808(Clone)(Clone)(Clone)(Clone)(Clone)(Clone)(Clone)","primitives":[{"attributes":{"POSITION":144,"NORMAL":145,"TANGENT":146,"TEXCOORD_0":147},"indices":148,"material":3}]},{"name":"pb_Mesh-10808(Clone)(Clone)(Clone)(Clone)(Clone)(Clone)(Clone)(Clone)","primitives":[{"attributes":{"POSITION":149,"NORMAL":150,"TANGENT":151,"TEXCOORD_0":152},"indices":153,"material":3}]},{"name":"pb_Mesh-10808(Clone)(Clone)(Clone)","primitives":[{"attributes":{"POSITION":154,"NORMAL":155,"TANGENT":156,"TEXCOORD_0":157},"indices":158,"material":3}]},{"name":"pb_Mesh-10808(Clone)(Clone)","primitives":[{"attributes":{"POSITION":159,"NORMAL":160,"TANGENT":161,"TEXCOORD_0":162},"indices":163,"material":3}]},{"name":"pb_Mesh-10808(Clone)(Clone)(Clone)","primitives":[{"attributes":{"POSITION":164,"NORMAL":165,"TANGENT":166,"TEXCOORD_0":167},"indices":168,"material":3}]},{"name":"pb_Mesh-10808(Clone)(Clone)(Clone)(Clone)","primitives":[{"attributes":{"POSITION":169,"NORMAL":170,"TANGENT":171,"TEXCOORD_0":172},"indices":173,"material":3}]},{"name":"pb_Mesh-10808(Clone)(Clone)(Clone)(Clone)(Clone)","primitives":[{"attributes":{"POSITION":174,"NORMAL":175,"TANGENT":176,"TEXCOORD_0":177},"indices":178,"material":3}]},{"name":"pb_Mesh-10808(Clone)(Clone)(Clone)(Clone)(Clone)(Clone)","primitives":[{"attributes":{"POSITION":179,"NORMAL":180,"TANGENT":181,"TEXCOORD_0":182},"indices":183,"material":3}]}],"scene":0,"scenes":[{"name":"PlatformStar (2)","nodes":[55]}],"textures":[{"source":0},{"source":1},{"source":2},{"source":3},{"source":4},{"source":5},{"source":6},{"source":7},{"source":8},{"source":9}]}