{"asset":{"version":"2.0","generator":"Unity 6000.2.9f1 glTFast 6.15.1"},"nodes":[{"name":"Tree Type1 04","mesh":0,"translation":[7.599991,-52.1999969,-74],"rotation":[2.18557E-08,0,0,1],"scale":[7.586676,7.586676,7.586676]},{"name":"Tree Type1 04 (148)","mesh":0,"translation":[22,-52.1999969,-34.6],"rotation":[2.18557E-08,0,0,1],"scale":[7.586676,7.586676,7.586676]},{"name":"Tree Type1 04 (8)","mesh":0,"translation":[-41.7000122,-42.5,-123.3],"rotation":[2.18550991E-08,-0.00745240552,1.62875907E-10,0.9999722],"scale":[7.586677,7.586676,7.586677]},{"name":"Tree Type1 04 (16)","mesh":0,"translation":[-59.5,-41,-29.59999],"rotation":[2.18550991E-08,-0.00745240552,1.62875907E-10,0.9999722],"scale":[7.586677,7.586676,7.586677]},{"name":"Tree Type1 04 (76)","mesh":0,"translation":[-22.4,-41,36.7],"rotation":[2.18550991E-08,-0.00745240552,1.62875907E-10,0.9999722],"scale":[7.586677,7.586676,7.586677]},{"name":"Tree Type1 04 (84)","mesh":0,"translation":[48,-41,41.4],"rotation":[2.18550991E-08,-0.00745240552,1.62875907E-10,0.9999722],"scale":[7.586677,7.586676,7.586677]},{"name":"Tree Type1 04 (24)","mesh":0,"translation":[28.6999969,-48.6999969,-127.7],"rotation":[2.18550991E-08,-0.00745240552,1.62875907E-10,0.9999722],"scale":[7.586677,7.586676,7.586677]},{"name":"Tree Type1 04 (32)","mesh":0,"translation":[5.6,-43,-161.5],"rotation":[2.18550991E-08,-0.00745240552,1.62875907E-10,0.9999722],"scale":[7.586677,7.586676,7.586677]},{"name":"Tree Type1 04 (1)","mesh":0,"translation":[4.199997,-62.8000031,-93.2],"rotation":[2.18557E-08,0,0,1],"scale":[7.586676,7.586676,7.586676]},{"name":"Tree Type1 04 (9)","mesh":0,"translation":[-45.1000061,-53.1000061,-142.5],"rotation":[2.18550991E-08,-0.00745240552,1.62875907E-10,0.9999722],"scale":[7.586677,7.586676,7.586677]},{"name":"Tree Type1 04 (17)","mesh":0,"translation":[-62.8999939,-50.6000061,-48.7999878],"rotation":[2.18550991E-08,-0.00745240552,1.62875907E-10,0.9999722],"scale":[7.586677,7.586676,7.586677]},{"name":"Tree Type1 04 (77)","mesh":0,"translation":[-25.7999878,-50.6000061,17.5],"rotation":[2.18550991E-08,-0.00745240552,1.62875907E-10,0.9999722],"scale":[7.586677,7.586676,7.586677]},{"name":"Tree Type1 04 (85)","mesh":0,"translation":[44.6000061,-50.6000061,22.2000122],"rotation":[2.18550991E-08,-0.00745240552,1.62875907E-10,0.9999722],"scale":[7.586677,7.586676,7.586677]},{"name":"Tree Type1 04 (25)","mesh":0,"translation":[8.899994,-44,-126.099991],"rotation":[2.18550991E-08,-0.00745240552,1.62875907E-10,0.9999722],"scale":[7.586677,7.586676,7.586677]},{"name":"Tree Type1 04 (33)","mesh":0,"translation":[35.6,-41.1999969,-164.2],"rotation":[2.18550991E-08,-0.00745240552,1.62875907E-10,0.9999722],"scale":[7.586677,7.586676,7.586677]},{"name":"Tree Type1 04 (2)","mesh":0,"translation":[-18.1000061,-53.8000031,-77.7999954],"rotation":[2.18557E-08,0,0,1],"scale":[7.586676,7.586676,7.586676]},{"name":"Tree Type1 04 (10)","mesh":0,"translation":[-67.3999939,-44.1000061,-127.099991],"rotation":[2.18550991E-08,-0.00745240552,1.62875907E-10,0.9999722],"scale":[7.586677,7.586676,7.586677]},{"name":"Tree Type1 04 (18)","mesh":0,"translation":[-85.19998,-48.3999939,-33.3999939],"rotation":[2.18550991E-08,-0.00745240552,1.62875907E-10,0.9999722],"scale":[7.586677,7.586676,7.586677]},{"name":"Tree Type1 04 (34)","mesh":0,"translation":[12.8,-57.8,-173.4],"rotation":[2.18550991E-08,-0.00745240552,1.62875907E-10,0.9999722],"scale":[7.586677,7.586676,7.586677]},{"name":"Tree Type1 04 (3)","mesh":0,"translation":[0.599990845,-53.8000031,-44.59999],"rotation":[2.18557E-08,0,0,1],"scale":[7.586676,7.586676,7.586676]},{"name":"Tree Type1 04 (149)","mesh":0,"translation":[15,-53.8000031,-5.19998169],"rotation":[2.18557E-08,0,0,1],"scale":[7.586676,7.586676,7.586676]},{"name":"Tree Type1 04 (11)","mesh":0,"translation":[-48.7000122,-53.1000061,-93.89999],"rotation":[2.18550991E-08,-0.00745240552,1.62875907E-10,0.9999722],"scale":[7.586677,7.586676,7.586677]},{"name":"Tree Type1 04 (19)","mesh":0,"translation":[-66.5,-53.3000031,-0.199981689],"rotation":[2.18550991E-08,-0.00745240552,1.62875907E-10,0.9999722],"scale":[7.586677,7.586676,7.586677]},{"name":"Tree Type1 04 (78)","mesh":0,"translation":[-29.3999939,-53.3000031,66.1000061],"rotation":[2.18550991E-08,-0.00745240552,1.62875907E-10,0.9999722],"scale":[7.586677,7.586676,7.586677]},{"name":"Tree Type1 04 (86)","mesh":0,"translation":[41,-53.3000031,70.80002],"rotation":[2.18550991E-08,-0.00745240552,1.62875907E-10,0.9999722],"scale":[7.586677,7.586676,7.586677]},{"name":"Tree Type1 04 (35)","mesh":0,"translation":[-21.9,-62.1,-169.1],"rotation":[2.18550991E-08,-0.00745240552,1.62875907E-10,0.9999722],"scale":[7.586677,7.586676,7.586677]},{"name":"Tree Type1 04 (4)","mesh":0,"translation":[31,-60.8999939,-61.3999939],"rotation":[2.18557E-08,0,0,1],"scale":[7.586676,7.586676,7.586676]},{"name":"Tree Type1 04 (150)","mesh":0,"translation":[45.40001,-60.8999939,-21.9999847],"rotation":[2.18557E-08,0,0,1],"scale":[7.586676,7.586676,7.586676]},{"name":"Tree Type1 04 (12)","mesh":0,"translation":[-13.9000092,-48.4,-110],"rotation":[2.18550991E-08,-0.00745240552,1.62875907E-10,0.9999722],"scale":[7.586677,7.586676,7.586677]},{"name":"Tree Type1 04 (170)","mesh":0,"translation":[-7.9,-53.1000061,-128.3],"rotation":[2.18550991E-08,-0.00745240552,1.62875907E-10,0.9999722],"scale":[7.586677,7.586676,7.586677]},{"name":"Tree Type1 04 (171)","mesh":0,"translation":[13.5,-53.1000061,-143.5],"rotation":[2.18550991E-08,-0.00745240552,1.62875907E-10,0.9999722],"scale":[7.586677,7.586676,7.586677]},{"name":"Tree Type1 04 (172)","mesh":0,"translation":[49.4,-53.1000061,-112.5],"rotation":[2.18550991E-08,-0.00745240552,1.62875907E-10,0.9999722],"scale":[7.586677,7.586676,7.586677]},{"name":"Tree Type1 04 (174)","mesh":0,"translation":[45.7,-57.3,-157.8],"rotation":[2.18550991E-08,-0.00745240552,1.62875907E-10,0.9999722],"scale":[7.586677,7.586676,7.586677]},{"name":"Tree Type1 04 (175)","mesh":0,"translation":[17.1,-53.1000061,-58.4],"rotation":[2.18550991E-08,-0.00745240552,1.62875907E-10,0.9999722],"scale":[7.586677,7.586676,7.586677]},{"name":"Tree Type1 04 (176)","mesh":0,"translation":[38.8,-53.1000061,-44.9],"rotation":[2.18550991E-08,-0.00745240552,1.62875907E-10,0.9999722],"scale":[7.586677,7.586676,7.586677]},{"name":"Tree Type1 04 (177)","mesh":0,"translation":[-9.5,-53.1000061,-92.8],"rotation":[2.18550991E-08,-0.00745240552,1.62875907E-10,0.9999722],"scale":[7.586677,7.586676,7.586677]},{"name":"Tree Type1 04 (178)","mesh":0,"translation":[11.5,-53.1000061,-110.1],"rotation":[2.18550991E-08,-0.00745240552,1.62875907E-10,0.9999722],"scale":[7.586677,7.586676,7.586677]},{"name":"Tree Type1 04 (179)","mesh":0,"translation":[-7.5,-53.1000061,-63.6],"rotation":[2.18550991E-08,-0.00745240552,1.62875907E-10,0.9999722],"scale":[7.586677,7.586676,7.586677]},{"name":"Tree Type1 04 (180)","mesh":0,"translation":[5.3,-53.1000061,-27.6],"rotation":[2.18550991E-08,-0.00745240552,1.62875907E-10,0.9999722],"scale":[7.586677,7.586676,7.586677]},{"name":"Tree Type1 04 (181)","mesh":0,"translation":[-26.9,-63.2,-126.8],"rotation":[2.18550991E-08,-0.00745240552,1.62875907E-10,0.9999722],"scale":[7.586677,7.586676,7.586677]},{"name":"Tree Type1 04 (182)","mesh":0,"translation":[-31.3,-53.1000061,-103.4],"rotation":[2.18550991E-08,-0.00745240552,1.62875907E-10,0.9999722],"scale":[7.586677,7.586676,7.586677]},{"name":"Tree Type1 04 (183)","mesh":0,"translation":[-38.8,-62,-74.1],"rotation":[2.18550991E-08,-0.00745240552,1.62875907E-10,0.9999722],"scale":[7.586677,7.586676,7.586677]},{"name":"Tree Type1 04 (184)","mesh":0,"translation":[-53.6,-62,-58.5],"rotation":[2.18550991E-08,-0.00745240552,1.62875907E-10,0.9999722],"scale":[7.586677,7.586676,7.586677]},{"name":"Tree Type1 04 (185)","mesh":0,"translation":[-48.3,-57.1,-33],"rotation":[2.18550991E-08,-0.00745240552,1.62875907E-10,0.9999722],"scale":[7.586677,7.586676,7.586677]},{"name":"Tree Type1 04 (20)","mesh":0,"translation":[-31.6999817,-42.6000061,-16.2999878],"rotation":[2.18550991E-08,-0.00745240552,1.62875907E-10,0.9999722],"scale":[7.586677,7.586676,7.586677]},{"name":"Tree Type1 04 (79)","mesh":0,"translation":[5.40002441,-42.6000061,50],"rotation":[2.18550991E-08,-0.00745240552,1.62875907E-10,0.9999722],"scale":[7.586677,7.586676,7.586677]},{"name":"Tree Type1 04 (168)","mesh":0,"translation":[20.8,-41.3000031,74],"rotation":[2.18550991E-08,-0.00745240552,1.62875907E-10,0.9999722],"scale":[7.586677,7.586676,7.586677]},{"name":"Tree Type1 04 (28)","mesh":0,"translation":[27.6999969,-51.8000031,-80.7],"rotation":[2.18550991E-08,-0.00745240552,1.62875907E-10,0.9999722],"scale":[7.586677,7.586676,7.586677]},{"name":"Tree Type1 04 (36)","mesh":0,"translation":[-98.3,-75.8,-104.4],"rotation":[2.18550991E-08,-0.00745240552,1.62875907E-10,0.9999722],"scale":[7.586677,7.586676,7.586677]},{"name":"Tree Type1 04 (5)","mesh":0,"translation":[41,-59.3999939,-99.8],"rotation":[2.18557E-08,0,0,1],"scale":[7.586676,7.586676,7.586676]},{"name":"Tree Type1 04 (13)","mesh":0,"translation":[-8.300003,-42.1000061,-149.099991],"rotation":[2.18550991E-08,-0.00745240552,1.62875907E-10,0.9999722],"scale":[7.586677,7.586676,7.586677]},{"name":"Tree Type1 04 (21)","mesh":0,"translation":[-26.1000061,-47.8000031,-55.3999939],"rotation":[2.18550991E-08,-0.00745240552,1.62875907E-10,0.9999722],"scale":[7.586677,7.586676,7.586677]},{"name":"Tree Type1 04 (80)","mesh":0,"translation":[11,-47.8000031,10.8999939],"rotation":[2.18550991E-08,-0.00745240552,1.62875907E-10,0.9999722],"scale":[7.586677,7.586676,7.586677]},{"name":"Tree Type1 04 (29)","mesh":0,"translation":[48.8999939,-44.8999939,-70.3999939],"rotation":[2.18550991E-08,-0.00745240552,1.62875907E-10,0.9999722],"scale":[7.586677,7.586676,7.586677]},{"name":"Tree Type1 04 (37)","mesh":0,"translation":[-19.7000122,-43.6999969,-29.3000031],"rotation":[2.18550991E-08,-0.00745240552,1.62875907E-10,0.9999722],"scale":[7.586677,7.586676,7.586677]},{"name":"Tree Type1 04 (81)","mesh":0,"translation":[17.3999939,-43.6999969,36.9999847],"rotation":[2.18550991E-08,-0.00745240552,1.62875907E-10,0.9999722],"scale":[7.586677,7.586676,7.586677]},{"name":"Tree Type1 04 (6)","mesh":0,"translation":[-73.7,-57.1999969,-108.4],"rotation":[2.18557E-08,0,0,1],"scale":[7.586676,7.586676,7.586676]},{"name":"Tree Type1 04 (14)","mesh":0,"translation":[-26.8000031,-57.9,-150.5],"rotation":[2.18550991E-08,-0.00745240552,1.62875907E-10,0.9999722],"scale":[7.586677,7.586676,7.586677]},{"name":"Tree Type1 04 (22)","mesh":0,"translation":[-75,-63.8000031,-89.1],"rotation":[2.18550991E-08,-0.00745240552,1.62875907E-10,0.9999722],"scale":[7.586677,7.586676,7.586677]},{"name":"Tree Type1 04 (130)","mesh":0,"translation":[24.9,-48.7,53.7],"rotation":[2.18550991E-08,-0.00745240552,1.62875907E-10,0.9999722],"scale":[7.586677,7.586676,7.586677]},{"name":"Tree Type1 04 (138)","mesh":0,"translation":[56.3,-48.7,-84.1],"rotation":[2.18550991E-08,-0.00745240552,1.62875907E-10,0.9999722],"scale":[7.586677,7.586676,7.586677]},{"name":"Tree Type1 04 (59)","mesh":0,"translation":[37.6,-53,-143.6],"rotation":[2.18550991E-08,-0.00745240552,1.62875907E-10,0.9999722],"scale":[7.586677,7.586676,7.586677]},{"name":"Tree Type1 04 (143)","mesh":0,"translation":[41,-63,-186.3],"rotation":[2.18550991E-08,-0.00745240552,1.62875907E-10,0.9999722],"scale":[7.586677,7.586676,7.586677]},{"name":"Tree Type1 04 (144)","mesh":0,"translation":[-10.5,-63,77.4],"rotation":[2.18550991E-08,-0.00745240552,1.62875907E-10,0.9999722],"scale":[7.586677,7.586676,7.586677]},{"name":"Tree Type1 04 (62)","mesh":0,"translation":[39.7,-58.2,-124.9],"rotation":[2.18550991E-08,-0.00745240552,1.62875907E-10,0.9999722],"scale":[7.586677,7.586676,7.586677]},{"name":"Tree Type1 04 (63)","mesh":0,"translation":[37.1000061,-58,12.3000031],"rotation":[2.18550991E-08,-0.00745240552,1.62875907E-10,0.9999722],"scale":[7.586677,7.586676,7.586677]},{"name":"Tree Type1 04 (64)","mesh":0,"translation":[-89.5,-51.6999969,-50.2],"rotation":[2.18550991E-08,-0.00745240552,1.62875907E-10,0.9999722],"scale":[7.586677,7.586676,7.586677]},{"name":"Tree Type1 04 (65)","mesh":0,"translation":[-97.6,-58.8000031,-70.7],"rotation":[2.18550991E-08,-0.00745240552,1.62875907E-10,0.9999722],"scale":[7.586677,7.586676,7.586677]},{"name":"Tree Type1 04 (151)","mesh":0,"translation":[-101.7,-58.8000031,-91],"rotation":[2.18550991E-08,-0.00745240552,1.62875907E-10,0.9999722],"scale":[7.586677,7.586676,7.586677]},{"name":"Tree Type1 04 (66)","mesh":0,"translation":[-8,-55.3000031,-14.1],"rotation":[2.18550991E-08,-0.00745240552,1.62875907E-10,0.9999722],"scale":[7.586677,7.586676,7.586677]},{"name":"Tree Type1 04 (69)","mesh":0,"translation":[-11.7,-63.3999939,34.4],"rotation":[2.18550991E-08,-0.00745240552,1.62875907E-10,0.9999722],"scale":[7.586677,7.586676,7.586677]},{"name":"Tree Type1 04 (30)","mesh":0,"translation":[30.8999939,-46.8000031,-14.0999908],"rotation":[2.18550991E-08,-0.00745240552,1.62875907E-10,0.9999722],"scale":[7.586677,7.586676,7.586677]},{"name":"Tree Type1 04 (7)","mesh":0,"translation":[19,-58.6999969,-98.59999],"rotation":[2.18557E-08,0,0,1],"scale":[7.586676,7.586676,7.586676]},{"name":"Tree Type1 04 (15)","mesh":0,"translation":[-51.6000061,-63.8000031,-162.599991],"rotation":[2.18550991E-08,-0.00745240552,1.62875907E-10,0.9999722],"scale":[7.586677,7.586676,7.586677]},{"name":"Tree Type1 04 (23)","mesh":0,"translation":[-69.3999939,-55.3000031,-68.8999939],"rotation":[2.18550991E-08,-0.00745240552,1.62875907E-10,0.9999722],"scale":[7.586677,7.586676,7.586677]},{"name":"Tree Type1 04 (83)","mesh":0,"translation":[-32.2999878,-55.3000031,-2.600006],"rotation":[2.18550991E-08,-0.00745240552,1.62875907E-10,0.9999722],"scale":[7.586677,7.586676,7.586677]},{"name":"Tree Type1 04 (91)","mesh":0,"translation":[38.1000061,-55.3000031,2.100006],"rotation":[2.18550991E-08,-0.00745240552,1.62875907E-10,0.9999722],"scale":[7.586677,7.586676,7.586677]},{"name":"Tree Type1 04 (31)","mesh":0,"translation":[-66.5,-47.1999969,-149.2],"rotation":[2.18550991E-08,-0.00745240552,1.62875907E-10,0.9999722],"scale":[7.586677,7.586676,7.586677]},{"name":"Tree Type1 04 (39)","mesh":0,"translation":[0,-52.5,0],"rotation":[2.18550991E-08,-0.00745240552,1.62875907E-10,0.9999722],"scale":[7.586677,7.586676,7.586677]},{"name":"Trees","children":[0,1,2,3,4,5,6,7,8,9,10,11,12,13,14,15,16,17,18,19,20,21,22,23,24,25,26,27,28,29,30,31,32,33,34,35,36,37,38,39,40,41,42,43,44,45,46,47,48,49,50,51,52,53,54,55,56,57,58,59,60,61,62,63,64,65,66,67,68,69,70,71,72,73,74,75,76,77,78]},{"name":"Plane (8)","mesh":1,"translation":[18.3999939,-46.3999939,-14.8000031],"scale":[7.16547537,7.16547537,7.16547537]},{"name":"Plane (13)","mesh":1,"translation":[21.8000031,-46.3999939,-86.2],"scale":[7.16547537,7.16547537,7.16547537]},{"name":"Plane (18)","mesh":1,"translation":[21.8000031,-46.3999939,-157.2],"scale":[7.16547537,7.16547537,7.16547537]},{"name":"Plane (30)","mesh":1,"translation":[21.8000031,-46.3999939,-228.599991],"scale":[7.16547537,7.16547537,7.16547537]},{"name":"Plane (14)","mesh":1,"translation":[-49.3999939,-46.3999939,-86.2],"scale":[7.16547537,7.16547537,7.16547537]},{"name":"Plane (19)","mesh":1,"translation":[-120.299988,-46.3999939,-86.2],"scale":[7.16547537,7.16547537,7.16547537]},{"name":"Plane (23)","mesh":1,"translation":[-190.700012,-46.3999939,-86.2],"scale":[7.16547537,7.16547537,7.16547537]},{"name":"Plane (24)","mesh":1,"translation":[-190.700012,-46.3999939,-157.2],"scale":[7.16547537,7.16547537,7.16547537]},{"name":"Plane (21)","mesh":1,"translation":[-122.5,-46.3999939,54.8000031],"scale":[7.16547537,7.16547537,7.16547537]},{"name":"Plane (17)","mesh":1,"translation":[-49.3999939,-46.3999939,-157.2],"scale":[7.16547537,7.16547537,7.16547537]},{"name":"Plane (31)","mesh":1,"translation":[-49.3999939,-46.3999939,-228.6],"scale":[7.16547537,7.16547537,7.16547537]},{"name":"Plane (20)","mesh":1,"translation":[-120.299988,-46.3999939,-157.2],"scale":[7.16547537,7.16547537,7.16547537]},{"name":"Plane (32)","mesh":1,"translation":[-120.299988,-46.3999939,-228.599991],"scale":[7.16547537,7.16547537,7.16547537]},{"name":"Plane (22)","mesh":1,"translation":[-120.299988,-46.3999939,-16.1999969],"scale":[7.16547537,7.16547537,7.16547537]},{"name":"Plane (15)","mesh":1,"translation":[-52.7999878,-46.3999939,-16.1999969],"scale":[7.16547537,7.16547537,7.16547537]},{"name":"Plane (16)","mesh":1,"translation":[-52.3999939,-46.3999939,53.8000031],"scale":[7.16547537,7.16547537,7.16547537]},{"name":"Plane (9)","mesh":1,"translation":[18.8999786,-46.3999939,56.4999847],"scale":[7.16547537,7.16547537,7.16547537]},{"name":"Plane (27)","mesh":1,"translation":[18.8999786,-46.3999939,127.7],"scale":[7.16547537,7.16547537,7.16547537]},{"name":"Grounds","children":[80,81,82,83,84,85,86,87,88,89,90,91,92,93,94,95,96,97]},{"name":"BackgroundForest","children":[79,98],"translation":[-207.7,-118.5,188.2]}],"buffers":[{"uri":"BackgroundForest.bin","byteLength":23988}],"bufferViews":[{"buffer":0,"byteLength":1200,"target":34963},{"buffer":0,"byteLength":852,"byteOffset":1200,"target":34963},{"buffer":0,"byteLength":5808,"byteOffset":2052,"byteStride":48,"target":34962},{"buffer":0,"byteLength":16128,"byteOffset":7860,"byteStride":56,"target":34962}],"accessors":[{"bufferView":3,"componentType":5126,"count":288,"type":"VEC3","max":[1.35247374,6.570618,1.589211],"min":[-1.40012789,-0.008568287,-1.589211]},{"bufferView":3,"componentType":5126,"count":288,"type":"VEC3","byteOffset":12},{"bufferView":3,"componentType":5126,"count":288,"type":"VEC4","byteOffset":24},{"bufferView":3,"componentType":5126,"count":288,"type":"VEC2","byteOffset":40},{"bufferView":3,"componentType":5126,"count":288,"type":"VEC2","byteOffset":48},{"bufferView":1,"componentType":5123,"count":426,"type":"SCALAR"},{"bufferView":2,"componentType":5126,"count":121,"type":"VEC3","max":[5,1.110223E-16,5],"min":[-5,-1.110223E-16,-5]},{"bufferView":2,"componentType":5126,"count":121,"type":"VEC3","byteOffset":12},{"bufferView":2,"componentType":5126,"count":121,"type":"VEC4","byteOffset":24},{"bufferView":2,"componentType":5126,"count":121,"type":"VEC2","byteOffset":40},{"bufferView":0,"componentType":5123,"count":600,"type":"SCALAR"}],"images":[{"name":"NormalBasic.png","uri":"NormalBasic.png","mimeType":"image/png"},{"name":"T_YFGM_Salt_n.png","uri":"T_YFGM_Salt_n.png","mimeType":"image/png"},{"name":"T_YFGM_Grass04_d.jpg","uri":"T_YFGM_Grass04_d.jpg","mimeType":"image/jpeg"}],"materials":[{"name":"Furniture","pbrMetallicRoughness":{"baseColorFactor":[0,0.300543845,0.051269453,1],"metallicFactor":0,"roughnessFactor":0.5},"normalTexture":{"index":0}},{"name":"M_YFGM_Salt","pbrMetallicRoughness":{"metallicFactor":0,"baseColorTexture":{"index":2}},"normalTexture":{"index":1}}],"meshes":[{"name":"Tree_Type1_04_mesh","primitives":[{"attributes":{"POSITION":0,"NORMAL":1,"TANGENT":2,"TEXCOORD_0":3,"TEXCOORD_1":4},"indices":5,"material":0}]},{"name":"Plane","primitives":[{"attributes":{"POSITION":6,"NORMAL":7,"TANGENT":8,"TEXCOORD_0":9},"indices":10,"material":1}]}],"samplers":[{"minFilter":9987}],"scene":0,"scenes":[{"name":"BackgroundForest","nodes":[99]}],"textures":[{"source":0},{"source":1,"sampler":0},{"source":2,"sampler":0}]}