{"asset":{"version":"2.0","generator":"Unity 6000.2.9f1 glTFast 6.15.1"},"nodes":[{"name":"Rock1A","mesh":0,"translation":[13.5062675,-1.36000061,-98.3917],"rotation":[0,-0.685489535,0,0.728082538],"scale":[4.66810036,4.6681,4.66810036]},{"name":"Rock1A (1)","mesh":0,"translation":[-0.659999847,-17.5600014,-62.4499969],"rotation":[0,-0.685489535,0,0.728082538],"scale":[4.66810036,4.6681,4.66810036]},{"name":"Rock1A (3)","mesh":0,"translation":[-11.3899956,-17.5600014,-39.8],"rotation":[0,-0.685489535,0,0.728082538],"scale":[4.66810036,4.6681,4.66810036]},{"name":"Rock1A (2)","mesh":0,"translation":[15.4400024,10.48,-80.65],"rotation":[0,-0.685489535,0,0.728082538],"scale":[4.66810036,4.6681,4.66810036]},{"name":"Rock5A","mesh":1,"translation":[16.84,8.439999,-100.75],"scale":[3.68005657,1.7955,1.7955]},{"name":"Rock5A (1)","mesh":1,"translation":[48.86,8.439999,-104.159996],"scale":[3.68005657,1.7955,2.447446]},{"name":"Rock5A (6)","mesh":1,"translation":[26.2400017,-13.48,-42.53],"scale":[3.68005657,1.7955,4.37236261]},{"name":"Rock5A (9)","mesh":1,"translation":[37.24,-31.16,-42.53],"scale":[3.68005657,1.7955,4.37236261]},{"name":"Rock5A (7)","mesh":1,"translation":[26.2400017,-13.48,-12.5559464],"scale":[3.68005657,1.7955,4.37236261]},{"name":"Rock5A (10)","mesh":1,"translation":[37.24,-31.16,-12.5559464],"scale":[3.68005657,1.7955,4.37236261]},{"name":"Rock5A (8)","mesh":1,"translation":[26.2400017,-13.48,12.4700012],"scale":[3.68005657,1.7955,4.37236261]},{"name":"Rock5A (12)","mesh":1,"translation":[26.2400017,-13.48,38.9500046],"scale":[3.68005657,1.7955,4.37236261]},{"name":"Rock5A (14)","mesh":1,"translation":[28.3400021,-13.48,58.15],"scale":[3.68005657,1.7955,4.37236261]},{"name":"Rock5A (16)","mesh":1,"translation":[-11.3599968,-6.06000137,27.75],"scale":[3.68005657,1.7955,4.37236261]},{"name":"Rock5A (18)","mesh":1,"translation":[-23.9599953,-6.06000137,34.5500031],"scale":[3.68005657,1.7955,4.37236261]},{"name":"Rock5A (11)","mesh":1,"translation":[37.24,-31.16,12.4700012],"scale":[3.68005657,1.7955,4.37236261]},{"name":"Rock5A (13)","mesh":1,"translation":[37.24,-31.16,38.9500046],"scale":[3.68005657,1.7955,4.37236261]},{"name":"Rock5A (15)","mesh":1,"translation":[39.340004,-31.16,58.15],"scale":[3.68005657,1.7955,4.37236261]},{"name":"Rock5A (17)","mesh":1,"translation":[-0.3599968,-23.739994,27.75],"scale":[3.68005657,1.7955,4.37236261]},{"name":"Rock5A (2)","mesh":1,"translation":[72.93143,8.439999,-100.75],"scale":[3.68005657,1.7955,1.7955]},{"name":"Rock5A (3)","mesh":1,"translation":[80.93143,8.439999,-107.845215],"scale":[3.68005657,1.7955,1.7955]},{"name":"Rock5A (4)","mesh":1,"translation":[81.11,7.63999939,-80.25],"scale":[4.233169,2.06536365,5.066337]},{"name":"Rock5A (5)","mesh":1,"translation":[81.11,7.63999939,-44.75],"scale":[4.233169,2.06536365,5.066337]},{"name":"Rock5A (19)","mesh":1,"scale":[3.11065984,1.51769125,3.72289658]},{"name":"NewBack","children":[0,1,2,3,4,5,6,7,8,9,10,11,12,13,14,15,16,17,18,19,20,21,22,23],"translation":[-57.74,-42.94,81.35]}],"buffers":[{"uri":"NewBack.bin","byteLength":99864}],"bufferViews":[{"buffer":0,"byteLength":3462,"target":34963},{"buffer":0,"byteLength":5850,"byteOffset":3462,"target":34963},{"buffer":0,"byteLength":39536,"byteOffset":9312,"byteStride":56,"target":34962},{"buffer":0,"byteLength":51016,"byteOffset":48848,"byteStride":56,"target":34962}],"accessors":[{"bufferView":2,"componentType":5126,"count":706,"type":"VEC3","max":[6.02936554,6.66515541,4.96878529],"min":[-4.78126335,-2.75554,-7.44600964]},{"bufferView":2,"componentType":5126,"count":706,"type":"VEC3","byteOffset":12},{"bufferView":2,"componentType":5126,"count":706,"type":"VEC4","byteOffset":24},{"bufferView":2,"componentType":5126,"count":706,"type":"VEC2","byteOffset":40},{"bufferView":2,"componentType":5126,"count":706,"type":"VEC2","byteOffset":48},{"bufferView":0,"componentType":5123,"count":1731,"type":"SCALAR"},{"bufferView":3,"componentType":5126,"count":911,"type":"VEC3","max":[5.447991,12.3155565,4.476105],"min":[-6.09549475,-1.93374729,-3.92448187]},{"bufferView":3,"componentType":5126,"count":911,"type":"VEC3","byteOffset":12},{"bufferView":3,"componentType":5126,"count":911,"type":"VEC4","byteOffset":24},{"bufferView":3,"componentType":5126,"count":911,"type":"VEC2","byteOffset":40},{"bufferView":3,"componentType":5126,"count":911,"type":"VEC2","byteOffset":48},{"bufferView":1,"componentType":5123,"count":2925,"type":"SCALAR"}],"images":[{"name":"Rock1_nmp.png","uri":"Rock1_nmp.png","mimeType":"image/png"},{"name":"Rockdetail3.jpg","uri":"Rockdetail3.jpg","mimeType":"image/jpeg"},{"name":"Rock1_ms.jpg","uri":"Rock1_ms.jpg","mimeType":"image/jpeg"}],"materials":[{"name":"fix","pbrMetallicRoughness":{"baseColorFactor":[0.0355051756,0.0355051756,0.0355051756,1],"roughnessFactor":0,"baseColorTexture":{"index":1},"metallicRoughnessTexture":{"index":2}},"normalTexture":{"index":0}}],"meshes":[{"name":"Rock1_LP:polySurface1","primitives":[{"attributes":{"POSITION":0,"NORMAL":1,"TANGENT":2,"TEXCOORD_0":3,"TEXCOORD_1":4},"indices":5,"material":0}]},{"name":"polySurface250","primitives":[{"attributes":{"POSITION":6,"NORMAL":7,"TANGENT":8,"TEXCOORD_0":9,"TEXCOORD_1":10},"indices":11,"material":0}]}],"scene":0,"scenes":[{"name":"NewBack","nodes":[24]}],"textures":[{"source":0},{"source":1},{"source":2}]}