{"asset":{"version":"2.0","generator":"Unity 6000.2.9f1 glTFast 6.15.1"},"nodes":[{"name":"P_MOD_Wall_01_E_straight_large","mesh":0},{"name":"P_MOD_WallCover_01_E_straight (2)","mesh":1,"translation":[0,6,0]},{"name":"P_MOD_WallTrim_01_E_straight (2)","mesh":2},{"name":"COMP_Wall_01_E_straight_large (2)","children":[0,1,2],"translation":[-1.53268147,1.18,-1.82],"rotation":[0,-1,0,0]},{"name":"P_MOD_Wall_01_E_straight_large","mesh":0},{"name":"P_MOD_WallCover_01_E_straight (2)","mesh":1,"translation":[0,6,0]},{"name":"P_MOD_WallTrim_01_E_straight (2)","mesh":2},{"name":"COMP_Wall_01_E_straight_large (1)","children":[4,5,6],"translation":[2.37,1.18,-1.82],"rotation":[0,-1,0,0]},{"name":"P_MOD_Wall_01_E_straight_large","mesh":0},{"name":"P_MOD_WallCover_01_E_straight (2)","mesh":1,"translation":[0,6,0]},{"name":"P_MOD_WallTrim_01_E_straight (2)","mesh":2},{"name":"COMP_Wall_01_E_straight_large (4)","children":[8,9,10],"translation":[1.4,-13.87,-45.25],"rotation":[0,-1,0,0]},{"name":"P_MOD_Wall_01_E_straight_large","mesh":0},{"name":"P_MOD_WallCover_01_E_straight (2)","mesh":1,"translation":[0,6,0]},{"name":"P_MOD_WallTrim_01_E_straight (2)","mesh":2},{"name":"COMP_Wall_01_E_straight_large (12)","children":[12,13,14],"translation":[1.4,-20,-45.25],"rotation":[0,-1,0,0]},{"name":"P_MOD_Wall_01_E_straight_large","mesh":0},{"name":"P_MOD_WallCover_01_E_straight (2)","mesh":1,"translation":[0,6,0]},{"name":"P_MOD_WallTrim_01_E_straight (2)","mesh":2},{"name":"COMP_Wall_01_E_straight_large (25)","children":[16,17,18],"translation":[1.4,-26,-45.25],"rotation":[0,-1,0,0]},{"name":"P_MOD_Wall_01_E_straight_large","mesh":0},{"name":"P_MOD_WallCover_01_E_straight (2)","mesh":1,"translation":[0,6,0]},{"name":"P_MOD_WallTrim_01_E_straight (2)","mesh":2},{"name":"COMP_Wall_01_E_straight_large (10)","children":[20,21,22],"translation":[-2.77,-13.87,-45.25],"rotation":[0,0.7071068,0,0.7071068]},{"name":"P_MOD_Wall_01_E_straight_large","mesh":0},{"name":"P_MOD_WallCover_01_E_straight (2)","mesh":1,"translation":[0,6,0]},{"name":"P_MOD_WallTrim_01_E_straight (2)","mesh":2},{"name":"COMP_Wall_01_E_straight_large (20)","children":[24,25,26],"translation":[20.7199955,-13.87,-37.69],"rotation":[0,0.7071068,0,0.7071068]},{"name":"P_MOD_Wall_01_E_straight_large","mesh":0},{"name":"P_MOD_WallCover_01_E_straight (2)","mesh":1,"translation":[0,6,0]},{"name":"P_MOD_WallTrim_01_E_straight (2)","mesh":2},{"name":"COMP_Wall_01_E_straight_large (24)","children":[28,29,30],"translation":[20.7199955,-13.87,-33.78],"rotation":[0,0.7071068,0,0.7071068]},{"name":"P_MOD_Wall_01_E_straight_large","mesh":0},{"name":"P_MOD_WallCover_01_E_straight (2)","mesh":1,"translation":[0,6,0]},{"name":"P_MOD_WallTrim_01_E_straight (2)","mesh":2},{"name":"COMP_Wall_01_E_straight_large (13)","children":[32,33,34],"translation":[-2.77,-20,-45.25],"rotation":[0,0.7071068,0,0.7071068]},{"name":"P_MOD_Wall_01_E_straight_large","mesh":0},{"name":"P_MOD_WallCover_01_E_straight (2)","mesh":1,"translation":[0,6,0]},{"name":"P_MOD_WallTrim_01_E_straight (2)","mesh":2},{"name":"COMP_Wall_01_E_straight_large (26)","children":[36,37,38],"translation":[-2.77,-26,-45.25],"rotation":[0,0.7071068,0,0.7071068]},{"name":"P_MOD_Wall_01_E_straight_large","mesh":0},{"name":"P_MOD_WallCover_01_E_straight (2)","mesh":1,"translation":[0,6,0]},{"name":"P_MOD_WallTrim_01_E_straight (2)","mesh":2},{"name":"COMP_Wall_01_E_straight_large (21)","children":[40,41,42],"translation":[20.7199974,-20,-37.6899948],"rotation":[0,0.7071068,0,0.7071068]},{"name":"P_MOD_Wall_01_E_straight_large","mesh":0},{"name":"P_MOD_WallCover_01_E_straight (2)","mesh":1,"translation":[0,6,0]},{"name":"P_MOD_WallTrim_01_E_straight (2)","mesh":2},{"name":"COMP_Wall_01_E_straight_large (11)","children":[44,45,46],"translation":[-2.77,-13.87,-49.09],"rotation":[0,0.7071068,0,0.7071068]},{"name":"P_MOD_Wall_01_E_straight_large","mesh":0},{"name":"P_MOD_WallCover_01_E_straight (2)","mesh":1,"translation":[0,6,0]},{"name":"P_MOD_WallTrim_01_E_straight (2)","mesh":2},{"name":"COMP_Wall_01_E_straight_large (22)","children":[48,49,50],"translation":[20.72,-13.87,-41.529995],"rotation":[0,0.7071068,0,0.7071068]},{"name":"P_MOD_Wall_01_E_straight_large","mesh":0},{"name":"P_MOD_WallCover_01_E_straight (2)","mesh":1,"translation":[0,6,0]},{"name":"P_MOD_WallTrim_01_E_straight (2)","mesh":2},{"name":"COMP_Wall_01_E_straight_large (14)","children":[52,53,54],"translation":[-2.77,-20,-49.09],"rotation":[0,0.7071068,0,0.7071068]},{"name":"P_MOD_Wall_01_E_straight_large","mesh":0},{"name":"P_MOD_WallCover_01_E_straight (2)","mesh":1,"translation":[0,6,0]},{"name":"P_MOD_WallTrim_01_E_straight (2)","mesh":2},{"name":"COMP_Wall_01_E_straight_large (27)","children":[56,57,58],"translation":[-2.77,-26,-49.09],"rotation":[0,0.7071068,0,0.7071068]},{"name":"P_MOD_Wall_01_E_straight_large","mesh":0},{"name":"P_MOD_WallCover_01_E_straight (2)","mesh":1,"translation":[0,6,0]},{"name":"P_MOD_WallTrim_01_E_straight (2)","mesh":2},{"name":"COMP_Wall_01_E_straight_large (23)","children":[60,61,62],"translation":[20.7199974,-20,-41.529995],"rotation":[0,0.7071068,0,0.7071068]},{"name":"P_MOD_Wall_01_E_straight_large","mesh":0},{"name":"P_MOD_WallCover_01_E_straight (2)","mesh":1,"translation":[0,6,0]},{"name":"P_MOD_WallTrim_01_E_straight (2)","mesh":2},{"name":"COMP_Wall_01_E_straight_large (6)","children":[64,65,66],"translation":[9.669992,-13.87,-45.25],"rotation":[0,-1,0,0]},{"name":"P_MOD_Wall_01_E_straight_large","mesh":0},{"name":"P_MOD_WallCover_01_E_straight (2)","mesh":1,"translation":[0,6,0]},{"name":"P_MOD_WallTrim_01_E_straight (2)","mesh":2},{"name":"COMP_Wall_01_E_straight_large (15)","children":[68,69,70],"translation":[9.669992,-20,-45.25],"rotation":[0,-1,0,0]},{"name":"P_MOD_Wall_01_E_straight_large","mesh":0},{"name":"P_MOD_WallCover_01_E_straight (2)","mesh":1,"translation":[0,6,0]},{"name":"P_MOD_WallTrim_01_E_straight (2)","mesh":2},{"name":"COMP_Wall_01_E_straight_large (28)","children":[72,73,74],"translation":[9.669992,-26,-45.25],"rotation":[0,-1,0,0]},{"name":"P_MOD_Wall_01_E_straight_large","mesh":0},{"name":"P_MOD_WallCover_01_E_straight (2)","mesh":1,"translation":[0,6,0]},{"name":"P_MOD_WallTrim_01_E_straight (2)","mesh":2},{"name":"COMP_Wall_01_E_straight_large (8)","children":[76,77,78],"translation":[17.659996,-13.87,-45.25],"rotation":[0,-1,0,0]},{"name":"P_MOD_Wall_01_E_straight_large","mesh":0},{"name":"P_MOD_WallCover_01_E_straight (2)","mesh":1,"translation":[0,6,0]},{"name":"P_MOD_WallTrim_01_E_straight (2)","mesh":2},{"name":"COMP_Wall_01_E_straight_large (16)","children":[80,81,82],"translation":[17.659996,-20,-45.25],"rotation":[0,-1,0,0]},{"name":"P_MOD_Wall_01_E_straight_large","mesh":0},{"name":"P_MOD_WallCover_01_E_straight (2)","mesh":1,"translation":[0,6,0]},{"name":"P_MOD_WallTrim_01_E_straight (2)","mesh":2},{"name":"COMP_Wall_01_E_straight_large (29)","children":[84,85,86],"translation":[17.659996,-26,-45.25],"rotation":[0,-1,0,0]},{"name":"P_MOD_Wall_01_E_straight_large","mesh":0},{"name":"P_MOD_WallCover_01_E_straight (2)","mesh":1,"translation":[0,6,0]},{"name":"P_MOD_WallTrim_01_E_straight (2)","mesh":2},{"name":"COMP_Wall_01_E_straight_large (5)","children":[88,89,90],"translation":[5.65,-13.87,-45.25],"rotation":[0,-1,0,0]},{"name":"P_MOD_Wall_01_E_straight_large","mesh":0},{"name":"P_MOD_WallCover_01_E_straight (2)","mesh":1,"translation":[0,6,0]},{"name":"P_MOD_WallTrim_01_E_straight (2)","mesh":2},{"name":"COMP_Wall_01_E_straight_large (17)","children":[92,93,94],"translation":[5.65,-20,-45.25],"rotation":[0,-1,0,0]},{"name":"P_MOD_Wall_01_E_straight_large","mesh":0},{"name":"P_MOD_WallCover_01_E_straight (2)","mesh":1,"translation":[0,6,0]},{"name":"P_MOD_WallTrim_01_E_straight (2)","mesh":2},{"name":"COMP_Wall_01_E_straight_large (30)","children":[96,97,98],"translation":[5.65,-26,-45.25],"rotation":[0,-1,0,0]},{"name":"P_MOD_Wall_01_E_straight_large","mesh":0},{"name":"P_MOD_WallCover_01_E_straight (2)","mesh":1,"translation":[0,6,0]},{"name":"P_MOD_WallTrim_01_E_straight (2)","mesh":2},{"name":"COMP_Wall_01_E_straight_large (7)","children":[100,101,102],"translation":[13.6499949,-13.87,-45.25],"rotation":[0,-1,0,0]},{"name":"P_MOD_Wall_01_E_straight_large","mesh":0},{"name":"P_MOD_WallCover_01_E_straight (2)","mesh":1,"translation":[0,6,0]},{"name":"P_MOD_WallTrim_01_E_straight (2)","mesh":2},{"name":"COMP_Wall_01_E_straight_large (18)","children":[104,105,106],"translation":[13.6499949,-20,-45.25],"rotation":[0,-1,0,0]},{"name":"P_MOD_Wall_01_E_straight_large","mesh":0},{"name":"P_MOD_WallCover_01_E_straight (2)","mesh":1,"translation":[0,6,0]},{"name":"P_MOD_WallTrim_01_E_straight (2)","mesh":2},{"name":"COMP_Wall_01_E_straight_large (31)","children":[108,109,110],"translation":[13.6499949,-26,-45.25],"rotation":[0,-1,0,0]},{"name":"P_MOD_Wall_01_E_straight_large","mesh":0},{"name":"P_MOD_WallCover_01_E_straight (2)","mesh":1,"translation":[0,6,0]},{"name":"P_MOD_WallTrim_01_E_straight (2)","mesh":2},{"name":"COMP_Wall_01_E_straight_large (9)","children":[112,113,114],"translation":[21.64,-13.87,-45.25],"rotation":[0,-1,0,0]},{"name":"P_MOD_Wall_01_E_straight_large","mesh":0},{"name":"P_MOD_WallCover_01_E_straight (2)","mesh":1,"translation":[0,6,0]},{"name":"P_MOD_WallTrim_01_E_straight (2)","mesh":2},{"name":"COMP_Wall_01_E_straight_large (19)","children":[116,117,118],"translation":[21.64,-20,-45.25],"rotation":[0,-1,0,0]},{"name":"P_MOD_Wall_01_E_straight_large","mesh":0},{"name":"P_MOD_WallCover_01_E_straight (2)","mesh":1,"translation":[0,6,0]},{"name":"P_MOD_WallTrim_01_E_straight (2)","mesh":2},{"name":"COMP_Wall_01_E_straight_large (32)","children":[120,121,122],"translation":[21.64,-26,-45.25],"rotation":[0,-1,0,0]},{"name":"P_MOD_Wall_01_E_straight_large","mesh":0},{"name":"P_MOD_WallCover_01_E_straight (2)","mesh":1,"translation":[0,6,0]},{"name":"P_MOD_WallTrim_01_E_straight (2)","mesh":2},{"name":"COMP_Wall_01_E_straight_large (3)","children":[124,125,126],"translation":[-5.49,1.18,-1.82],"rotation":[0,-1,0,0]},{"name":"P_MOD_Wall_01_E_corner_convex_large_2","mesh":3},{"name":"P_MOD_WallCover_01_E_corner_convex_2","mesh":4,"translation":[0,6,0]},{"name":"P_MOD_WallTrim_01_E_corner_convex_2","mesh":5},{"name":"COMP_Wall_01_E_corner_convex_large_2","children":[128,129,130],"translation":[2.29732132,1.17,0.190002441],"rotation":[0,0.7068111,0,0.707402468]},{"name":"P_MOD_Column_01_base","mesh":6},{"name":"P_MOD_Column_01_large","mesh":7},{"name":"P_MOD_Column_01_capital","mesh":8,"translation":[0,6,0]},{"name":"COMP_Column_01_large","children":[132,133,134],"translation":[-9.892681,1.16,-2.13999939]},{"name":"P_MOD_Column_01_base","mesh":6},{"name":"P_MOD_Column_01_large","mesh":7},{"name":"P_MOD_Column_01_capital","mesh":8,"translation":[0,6,0]},{"name":"COMP_Column_01_large (1)","children":[136,137,138],"translation":[4.7,0.38,2.22]},{"name":"P_MOD_Wall_01_E_straight_large_half_R","mesh":9},{"name":"P_MOD_WallCover_01_E_straight_half_R (2)","mesh":10,"translation":[0,6,0]},{"name":"P_MOD_WallTrim_01_E_straight_half_R (2)","mesh":11},{"name":"COMP_Wall_01_E_straight_large_half_R","children":[140,141,142],"translation":[4.29732132,1.2,2.13999939],"rotation":[0,0.7071068,0,0.7071068]},{"name":"P_MOD_Wall_01_E_straight_large_half_R","mesh":9},{"name":"P_MOD_WallCover_01_E_straight_half_R (2)","mesh":10,"translation":[0,6,0]},{"name":"P_MOD_WallTrim_01_E_straight_half_R (2)","mesh":11},{"name":"COMP_Wall_01_E_straight_large_half_R (1)","children":[144,145,146],"translation":[4.29732132,0.02,4.01],"rotation":[0,0.7071068,0,0.7071068]},{"name":"P_MOD_Wall_01_E_angle_large_1","mesh":12},{"name":"collider","rotation":[0,-0.382683426,0,0.923879564]},{"name":"P_MOD_WallTrim_01_E_angle_1 (2)","children":[149],"mesh":13},{"name":"collider","rotation":[0,-0.382683426,0,0.923879564]},{"name":"P_MOD_WallCover_01_E_angle_1 (2)","children":[151],"mesh":14,"translation":[0,6,0]},{"name":"COMP_Wall_01_E_angle_1_large","children":[148,150,152],"translation":[4.38732147,0,7.59999847],"rotation":[0,0.7004441,0,0.713707268]},{"name":"ExteriorDecorationP2","children":[3,7,11,15,19,23,27,31,35,39,43,47,51,55,59,63,67,71,75,79,83,87,91,95,99,103,107,111,115,119,123,127,131,135,139,143,147,153],"translation":[30.10268,0,-70.57]}],"buffers":[{"uri":"ExteriorDecorationP2.bin","byteLength":91656}],"bufferViews":[{"buffer":0,"byteLength":132,"target":34963},{"buffer":0,"byteLength":432,"byteOffset":132,"target":34963},{"buffer":0,"byteLength":72,"byteOffset":564,"target":34963},{"buffer":0,"byteLength":672,"byteOffset":636,"target":34963},{"buffer":0,"byteLength":384,"byteOffset":1308,"target":34963},{"buffer":0,"byteLength":120,"byteOffset":1692,"target":34963},{"buffer":0,"byteLength":744,"byteOffset":1812,"target":34963},{"buffer":0,"byteLength":408,"byteOffset":2556,"target":34963},{"buffer":0,"byteLength":192,"byteOffset":2964,"target":34963},{"buffer":0,"byteLength":780,"byteOffset":3156,"target":34963},{"buffer":0,"byteLength":72,"byteOffset":3936,"target":34963},{"buffer":0,"byteLength":264,"byteOffset":4008,"target":34963},{"buffer":0,"byteLength":168,"byteOffset":4272,"target":34963},{"buffer":0,"byteLength":72,"byteOffset":4440,"target":34963},{"buffer":0,"byteLength":1128,"byteOffset":4512,"target":34963},{"buffer":0,"byteLength":5600,"byteOffset":5640,"byteStride":56,"target":34962},{"buffer":0,"byteLength":9632,"byteOffset":11240,"byteStride":56,"target":34962},{"buffer":0,"byteLength":3584,"byteOffset":20872,"byteStride":56,"target":34962},{"buffer":0,"byteLength":1344,"byteOffset":24456,"byteStride":56,"target":34962},{"buffer":0,"byteLength":2464,"byteOffset":25800,"byteStride":56,"target":34962},{"buffer":0,"byteLength":1344,"byteOffset":28264,"byteStride":56,"target":34962},{"buffer":0,"byteLength":6608,"byteOffset":29608,"byteStride":56,"target":34962},{"buffer":0,"byteLength":2240,"byteOffset":36216,"byteStride":56,"target":34962},{"buffer":0,"byteLength":10864,"byteOffset":38456,"byteStride":56,"target":34962},{"buffer":0,"byteLength":7504,"byteOffset":49320,"byteStride":56,"target":34962},{"buffer":0,"byteLength":10528,"byteOffset":56824,"byteStride":56,"target":34962},{"buffer":0,"byteLength":4032,"byteOffset":67352,"byteStride":56,"target":34962},{"buffer":0,"byteLength":3136,"byteOffset":71384,"byteStride":56,"target":34962},{"buffer":0,"byteLength":1344,"byteOffset":74520,"byteStride":56,"target":34962},{"buffer":0,"byteLength":15792,"byteOffset":75864,"byteStride":56,"target":34962}],"accessors":[{"bufferView":20,"componentType":5126,"count":24,"type":"VEC3","max":[4,5.7,0.5000001],"min":[-4.76837158E-07,-9.536743E-07,-1.013279E-06]},{"bufferView":20,"componentType":5126,"count":24,"type":"VEC3","byteOffset":12},{"bufferView":20,"componentType":5126,"count":24,"type":"VEC4","byteOffset":24},{"bufferView":20,"componentType":5126,"count":24,"type":"VEC2","byteOffset":40},{"bufferView":20,"componentType":5126,"count":24,"type":"VEC2","byteOffset":48},{"bufferView":2,"componentType":5123,"count":36,"type":"SCALAR"},{"bufferView":16,"componentType":5126,"count":172,"type":"VEC3","max":[4.00000143,0.346663684,0.653979659],"min":[0,-0.346670479,-0.153971672]},{"bufferView":16,"componentType":5126,"count":172,"type":"VEC3","byteOffset":12},{"bufferView":16,"componentType":5126,"count":172,"type":"VEC4","byteOffset":24},{"bufferView":16,"componentType":5126,"count":172,"type":"VEC2","byteOffset":40},{"bufferView":16,"componentType":5126,"count":172,"type":"VEC2","byteOffset":48},{"bufferView":3,"componentType":5123,"count":336,"type":"SCALAR"},{"bufferView":21,"componentType":5126,"count":118,"type":"VEC3","max":[4.00000048,0.570612,0.7742224],"min":[0,2.98023224E-07,0.499998569]},{"bufferView":21,"componentType":5126,"count":118,"type":"VEC3","byteOffset":12},{"bufferView":21,"componentType":5126,"count":118,"type":"VEC4","byteOffset":24},{"bufferView":21,"componentType":5126,"count":118,"type":"VEC2","byteOffset":40},{"bufferView":21,"componentType":5126,"count":118,"type":"VEC2","byteOffset":48},{"bufferView":4,"componentType":5123,"count":192,"type":"SCALAR"},{"bufferView":22,"componentType":5126,"count":40,"type":"VEC3","max":[2.500001,5.71463728,2.500001],"min":[5.722046E-06,0.01463747,4.76837158E-07]},{"bufferView":22,"componentType":5126,"count":40,"type":"VEC3","byteOffset":12},{"bufferView":22,"componentType":5126,"count":40,"type":"VEC4","byteOffset":24},{"bufferView":22,"componentType":5126,"count":40,"type":"VEC2","byteOffset":40},{"bufferView":22,"componentType":5126,"count":40,"type":"VEC2","byteOffset":48},{"bufferView":5,"componentType":5123,"count":60,"type":"SCALAR"},{"bufferView":23,"componentType":5126,"count":194,"type":"VEC3","max":[2.66235518,0.355476022,2.67657614],"min":[7.62939453E-06,-0.3536644,-0.0108280182]},{"bufferView":23,"componentType":5126,"count":194,"type":"VEC3","byteOffset":12},{"bufferView":23,"componentType":5126,"count":194,"type":"VEC4","byteOffset":24},{"bufferView":23,"componentType":5126,"count":194,"type":"VEC2","byteOffset":40},{"bufferView":23,"componentType":5126,"count":194,"type":"VEC2","byteOffset":48},{"bufferView":6,"componentType":5123,"count":372,"type":"SCALAR"},{"bufferView":24,"componentType":5126,"count":134,"type":"VEC3","max":[2.798114,0.552650332,2.79992056],"min":[3.09944153E-06,-2.38418579E-07,-2.38418579E-07]},{"bufferView":24,"componentType":5126,"count":134,"type":"VEC3","byteOffset":12},{"bufferView":24,"componentType":5126,"count":134,"type":"VEC4","byteOffset":24},{"bufferView":24,"componentType":5126,"count":134,"type":"VEC2","byteOffset":40},{"bufferView":24,"componentType":5126,"count":134,"type":"VEC2","byteOffset":48},{"bufferView":7,"componentType":5123,"count":204,"type":"SCALAR"},{"bufferView":17,"componentType":5126,"count":64,"type":"VEC3","max":[0.697793543,1.00000024,0.6977979],"min":[-0.697792351,-0.0200003088,-0.697796941]},{"bufferView":17,"componentType":5126,"count":64,"type":"VEC3","byteOffset":12},{"bufferView":17,"componentType":5126,"count":64,"type":"VEC4","byteOffset":24},{"bufferView":17,"componentType":5126,"count":64,"type":"VEC2","byteOffset":40},{"bufferView":17,"componentType":5126,"count":64,"type":"VEC2","byteOffset":48},{"bufferView":8,"componentType":5123,"count":96,"type":"SCALAR"},{"bufferView":25,"componentType":5126,"count":188,"type":"VEC3","max":[0.513316751,5.9,0.513319254],"min":[-0.513320565,0,-0.513319254]},{"bufferView":25,"componentType":5126,"count":188,"type":"VEC3","byteOffset":12},{"bufferView":25,"componentType":5126,"count":188,"type":"VEC4","byteOffset":24},{"bufferView":25,"componentType":5126,"count":188,"type":"VEC2","byteOffset":40},{"bufferView":25,"componentType":5126,"count":188,"type":"VEC2","byteOffset":48},{"bufferView":9,"componentType":5123,"count":390,"type":"SCALAR"},{"bufferView":19,"componentType":5126,"count":44,"type":"VEC3","max":[0.611391366,-0.0199998021,0.6113963],"min":[-0.6113923,-0.6101987,-0.6113956]},{"bufferView":19,"componentType":5126,"count":44,"type":"VEC3","byteOffset":12},{"bufferView":19,"componentType":5126,"count":44,"type":"VEC4","byteOffset":24},{"bufferView":19,"componentType":5126,"count":44,"type":"VEC2","byteOffset":40},{"bufferView":19,"componentType":5126,"count":44,"type":"VEC2","byteOffset":48},{"bufferView":0,"componentType":5123,"count":66,"type":"SCALAR"},{"bufferView":18,"componentType":5126,"count":24,"type":"VEC3","max":[2,5.7,0.5000001],"min":[-4.76837158E-07,-9.536743E-07,-1.013279E-06]},{"bufferView":18,"componentType":5126,"count":24,"type":"VEC3","byteOffset":12},{"bufferView":18,"componentType":5126,"count":24,"type":"VEC4","byteOffset":24},{"bufferView":18,"componentType":5126,"count":24,"type":"VEC2","byteOffset":40},{"bufferView":18,"componentType":5126,"count":24,"type":"VEC2","byteOffset":48},{"bufferView":10,"componentType":5123,"count":36,"type":"SCALAR"},{"bufferView":26,"componentType":5126,"count":72,"type":"VEC3","max":[2.00000048,0.346593231,0.654359],"min":[0,-0.3465931,-0.154358745]},{"bufferView":26,"componentType":5126,"count":72,"type":"VEC3","byteOffset":12},{"bufferView":26,"componentType":5126,"count":72,"type":"VEC4","byteOffset":24},{"bufferView":26,"componentType":5126,"count":72,"type":"VEC2","byteOffset":40},{"bufferView":26,"componentType":5126,"count":72,"type":"VEC2","byteOffset":48},{"bufferView":11,"componentType":5123,"count":132,"type":"SCALAR"},{"bufferView":27,"componentType":5126,"count":56,"type":"VEC3","max":[2,0.5496788,0.774688],"min":[0,0,0.5]},{"bufferView":27,"componentType":5126,"count":56,"type":"VEC3","byteOffset":12},{"bufferView":27,"componentType":5126,"count":56,"type":"VEC4","byteOffset":24},{"bufferView":27,"componentType":5126,"count":56,"type":"VEC2","byteOffset":40},{"bufferView":27,"componentType":5126,"count":56,"type":"VEC2","byteOffset":48},{"bufferView":12,"componentType":5123,"count":84,"type":"SCALAR"},{"bufferView":28,"componentType":5126,"count":24,"type":"VEC3","max":[4.00000048,5.71463728,4.00000048],"min":[0,0.0146369934,0]},{"bufferView":28,"componentType":5126,"count":24,"type":"VEC3","byteOffset":12},{"bufferView":28,"componentType":5126,"count":24,"type":"VEC4","byteOffset":24},{"bufferView":28,"componentType":5126,"count":24,"type":"VEC2","byteOffset":40},{"bufferView":28,"componentType":5126,"count":24,"type":"VEC2","byteOffset":48},{"bufferView":13,"componentType":5123,"count":36,"type":"SCALAR"},{"bufferView":15,"componentType":5126,"count":100,"type":"VEC3","max":[4.00000048,0.56150794,4],"min":[0.500002861,-2.38418579E-07,0.499999523]},{"bufferView":15,"componentType":5126,"count":100,"type":"VEC3","byteOffset":12},{"bufferView":15,"componentType":5126,"count":100,"type":"VEC4","byteOffset":24},{"bufferView":15,"componentType":5126,"count":100,"type":"VEC2","byteOffset":40},{"bufferView":15,"componentType":5126,"count":100,"type":"VEC2","byteOffset":48},{"bufferView":1,"componentType":5123,"count":216,"type":"SCALAR"},{"bufferView":29,"componentType":5126,"count":282,"type":"VEC3","max":[4.00000334,0.362627327,4],"min":[-0.09999645,-0.362456858,-0.0999999046]},{"bufferView":29,"componentType":5126,"count":282,"type":"VEC3","byteOffset":12},{"bufferView":29,"componentType":5126,"count":282,"type":"VEC4","byteOffset":24},{"bufferView":29,"componentType":5126,"count":282,"type":"VEC2","byteOffset":40},{"bufferView":29,"componentType":5126,"count":282,"type":"VEC2","byteOffset":48},{"bufferView":14,"componentType":5123,"count":564,"type":"SCALAR"}],"images":[{"name":"T_ENV_MOD_Wall_01_v3_N.png","uri":"T_ENV_MOD_Wall_01_v3_N.png","mimeType":"image/png"},{"name":"T_ENV_MOD_Wall_01_v3_BC.jpg","uri":"T_ENV_MOD_Wall_01_v3_BC.jpg","mimeType":"image/jpeg"},{"name":"T_ENV_MOD_Wall_01_v3_MTSM.jpg","uri":"T_ENV_MOD_Wall_01_v3_MTSM.jpg","mimeType":"image/jpeg"},{"name":"T_ENV_MOD_StoneStack_01_v3_N.png","uri":"T_ENV_MOD_StoneStack_01_v3_N.png","mimeType":"image/png"},{"name":"T_ENV_MOD_StoneStack_01_v3_BC.jpg","uri":"T_ENV_MOD_StoneStack_01_v3_BC.jpg","mimeType":"image/jpeg"},{"name":"T_ENV_MOD_StoneStack_01_v3_MTSM.jpg","uri":"T_ENV_MOD_StoneStack_01_v3_MTSM.jpg","mimeType":"image/jpeg"}],"materials":[{"name":"M_MOD_Wall_01_v3","pbrMetallicRoughness":{"roughnessFactor":0,"baseColorTexture":{"index":1},"metallicRoughnessTexture":{"index":2}},"normalTexture":{"index":0,"scale":1.82}},{"name":"M_MOD_Trim_Stone_01_v3","pbrMetallicRoughness":{"roughnessFactor":0,"baseColorTexture":{"index":4},"metallicRoughnessTexture":{"index":5}},"normalTexture":{"index":3}}],"meshes":[{"name":"MOD_Wall_01_E_straight_large","primitives":[{"attributes":{"POSITION":0,"NORMAL":1,"TANGENT":2,"TEXCOORD_0":3,"TEXCOORD_1":4},"indices":5,"material":0}]},{"name":"MOD_WallCover_01_E_straight","primitives":[{"attributes":{"POSITION":6,"NORMAL":7,"TANGENT":8,"TEXCOORD_0":9,"TEXCOORD_1":10},"indices":11,"material":1}]},{"name":"MOD_WallTrim_01_E_straight","primitives":[{"attributes":{"POSITION":12,"NORMAL":13,"TANGENT":14,"TEXCOORD_0":15,"TEXCOORD_1":16},"indices":17,"material":1}]},{"name":"MOD_Wall_01_E_corner_convex_large_2","primitives":[{"attributes":{"POSITION":18,"NORMAL":19,"TANGENT":20,"TEXCOORD_0":21,"TEXCOORD_1":22},"indices":23,"material":0}]},{"name":"MOD_WallCover_01_E_corner_convex_2","primitives":[{"attributes":{"POSITION":24,"NORMAL":25,"TANGENT":26,"TEXCOORD_0":27,"TEXCOORD_1":28},"indices":29,"material":1}]},{"name":"MOD_WallTrim_01_E_corner_convex_2","primitives":[{"attributes":{"POSITION":30,"NORMAL":31,"TANGENT":32,"TEXCOORD_0":33,"TEXCOORD_1":34},"indices":35,"material":1}]},{"name":"MOD_Column_01_base","primitives":[{"attributes":{"POSITION":36,"NORMAL":37,"TANGENT":38,"TEXCOORD_0":39,"TEXCOORD_1":40},"indices":41,"material":1}]},{"name":"MOD_Column_01_large","primitives":[{"attributes":{"POSITION":42,"NORMAL":43,"TANGENT":44,"TEXCOORD_0":45,"TEXCOORD_1":46},"indices":47,"material":1}]},{"name":"MOD_Column_01_capital","primitives":[{"attributes":{"POSITION":48,"NORMAL":49,"TANGENT":50,"TEXCOORD_0":51,"TEXCOORD_1":52},"indices":53,"material":1}]},{"name":"MOD_Wall_01_E_straight_large_half_R","primitives":[{"attributes":{"POSITION":54,"NORMAL":55,"TANGENT":56,"TEXCOORD_0":57,"TEXCOORD_1":58},"indices":59,"material":0}]},{"name":"MOD_WallCover_01_E_straight_half_R","primitives":[{"attributes":{"POSITION":60,"NORMAL":61,"TANGENT":62,"TEXCOORD_0":63,"TEXCOORD_1":64},"indices":65,"material":1}]},{"name":"MOD_WallTrim_01_E_straight_half_R","primitives":[{"attributes":{"POSITION":66,"NORMAL":67,"TANGENT":68,"TEXCOORD_0":69,"TEXCOORD_1":70},"indices":71,"material":1}]},{"name":"MOD_Wall_01_E_angle_large_1","primitives":[{"attributes":{"POSITION":72,"NORMAL":73,"TANGENT":74,"TEXCOORD_0":75,"TEXCOORD_1":76},"indices":77,"material":0}]},{"name":"MOD_WallTrim_01_E_angle_1","primitives":[{"attributes":{"POSITION":78,"NORMAL":79,"TANGENT":80,"TEXCOORD_0":81,"TEXCOORD_1":82},"indices":83,"material":1}]},{"name":"MOD_WallCover_01_E_angle_1","primitives":[{"attributes":{"POSITION":84,"NORMAL":85,"TANGENT":86,"TEXCOORD_0":87,"TEXCOORD_1":88},"indices":89,"material":1}]}],"scene":0,"scenes":[{"name":"ExteriorDecorationP2","nodes":[154]}],"textures":[{"source":0},{"source":1},{"source":2},{"source":3},{"source":4},{"source":5}]}