{"asset":{"version":"2.0","generator":"BoundByDeath chain link"},"scene":0,"scenes":[{"name":"DeathChainLink","nodes":[0]}],"nodes":[{"name":"DeathChainLink","mesh":0}],"buffers":[{"uri":"DeathChainLink.bin","byteLength":65352}],"bufferViews":[{"buffer":0,"byteLength":10752,"target":34963},{"buffer":0,"byteOffset":10752,"byteLength":54600,"byteStride":56,"target":34962}],"accessors":[{"bufferView":1,"componentType":5126,"count":975,"type":"VEC3","max":[0.1,0.029247837365454707,0.1799015979350473],"min":[-0.1,-0.029247837365454714,-0.1799015979350473]},{"bufferView":1,"componentType":5126,"count":975,"type":"VEC3","byteOffset":12},{"bufferView":1,"componentType":5126,"count":975,"type":"VEC4","byteOffset":24},{"bufferView":1,"componentType":5126,"count":975,"type":"VEC2","byteOffset":40},{"bufferView":1,"componentType":5126,"count":975,"type":"VEC2","byteOffset":48},{"bufferView":0,"componentType":5123,"count":5376,"type":"SCALAR"}],"images":[{"uri":"DeathChainLink_Emissive.png"}],"samplers":[{"magFilter":9729,"minFilter":9987,"wrapS":10497,"wrapT":10497}],"textures":[{"sampler":0,"source":0}],"materials":[{"name":"DeathChainLink","pbrMetallicRoughness":{"baseColorFactor":[0.2,0.16,0.26,1.0],"metallicFactor":0,"roughnessFactor":1},"emissiveTexture":{"index":0},"emissiveFactor":[1,1,1]}],"meshes":[{"name":"DeathChainLink","primitives":[{"attributes":{"POSITION":0,"NORMAL":1,"TANGENT":2,"TEXCOORD_0":3,"TEXCOORD_1":4},"indices":5,"material":0}]}]}