{"asset":{"version":"2.0","generator":"Unity 6000.2.9f1 glTFast 6.20.0"},"nodes":[{"name":"Asteroid","mesh":0,"translation":[-5.46976,0,-3.03055],"rotation":[0.04477207,0.0172661524,-0.731007457,0.6806802],"scale":[0.1669321,0.166932121,0.166932121]}],"buffers":[{"uri":"Asteroid.bin","byteLength":29492}],"bufferViews":[{"buffer":0,"byteLength":6900,"target":34963},{"buffer":0,"byteLength":16944,"byteOffset":6900,"byteStride":24,"target":34962},{"buffer":0,"byteLength":5648,"byteOffset":23844,"byteStride":8,"target":34962}],"accessors":[{"bufferView":1,"componentType":5126,"count":706,"type":"VEC3","max":[6.44930744,0.261009216,6.64225149],"min":[-6.89745426,-12.64311,-6.647039]},{"bufferView":1,"componentType":5126,"count":706,"type":"VEC3","byteOffset":12},{"bufferView":2,"componentType":5126,"count":706,"type":"VEC2"},{"bufferView":0,"componentType":5123,"count":3450,"type":"SCALAR"}],"images":[{"name":"Asteroid.jpg","uri":"Asteroid.jpg","mimeType":"image/jpeg"}],"materials":[{"name":"Asteroid","pbrMetallicRoughness":{"baseColorTexture":{"index":0}}}],"meshes":[{"name":"Plane.002","primitives":[{"attributes":{"POSITION":0,"NORMAL":1,"TEXCOORD_0":2},"indices":3,"material":0}]}],"scene":0,"scenes":[{"name":"Asteroid","nodes":[0]}],"textures":[{"source":0}]}