{"asset":{"version":"2.0","generator":"Unity 6000.3.22f1 glTFast 6.20.0"},"nodes":[{"name":"SM_PROP_weapon_chargedArrow_lyriel","mesh":0,"translation":[-1.24593,0,1.29285]}],"buffers":[{"uri":"SM_PROP_weapon_chargedArrow_lyriel.bin","byteLength":4952}],"bufferViews":[{"buffer":0,"byteLength":360,"target":34963},{"buffer":0,"byteLength":4592,"byteOffset":360,"byteStride":56,"target":34962}],"accessors":[{"bufferView":1,"componentType":5126,"count":82,"type":"VEC3","max":[0.024936,0.0216008611,0.281033456],"min":[-0.02195161,-0.0215881877,-0.271052122]},{"bufferView":1,"componentType":5126,"count":82,"type":"VEC3","byteOffset":12},{"bufferView":1,"componentType":5126,"count":82,"type":"VEC4","byteOffset":24},{"bufferView":1,"componentType":5126,"count":82,"type":"VEC2","byteOffset":40},{"bufferView":1,"componentType":5126,"count":82,"type":"VEC2","byteOffset":48},{"bufferView":0,"componentType":5123,"count":180,"type":"SCALAR"}],"images":[{"name":"T_PROP_ChargedArrowLyriel_BC.jpg","uri":"T_PROP_ChargedArrowLyriel_BC.jpg","mimeType":"image/jpeg"}],"materials":[{"name":"M_ArrowCharged","pbrMetallicRoughness":{"baseColorFactor":[0.6150811,1,0.9825037,1],"metallicFactor":0,"roughnessFactor":0.5,"baseColorTexture":{"index":0}}}],"meshes":[{"name":"SM_PROP_weapon_arrow_dungeon","primitives":[{"attributes":{"POSITION":0,"NORMAL":1,"TANGENT":2,"TEXCOORD_0":3,"TEXCOORD_1":4},"indices":5,"material":0}]}],"scene":0,"scenes":[{"name":"SM_PROP_weapon_chargedArrow_lyriel","nodes":[0]}],"textures":[{"source":0}]}